<svg width="180" height="26" viewBox="0 0 180 26" fill="none" xmlns="http://www.w3.org/2000/svg">
<path d="M11.358 6.488C11.394 6.488 11.43 6.536 11.466 6.632C11.514 6.716 11.556 6.818 11.592 6.938C11.628 7.058 11.658 7.178 11.682 7.298C11.706 7.418 11.718 7.502 11.718 7.55V8.846C11.718 8.894 11.712 8.984 11.7 9.116C11.7 9.248 11.682 9.386 11.646 9.53C11.622 9.662 11.574 9.782 11.502 9.89C11.43 9.998 11.334 10.052 11.214 10.052C11.01 10.052 10.86 10.01 10.764 9.926C10.68 9.83 10.614 9.716 10.566 9.584C10.53 9.44 10.5 9.29 10.476 9.134C10.452 8.966 10.41 8.816 10.35 8.684C10.29 8.54 10.194 8.426 10.062 8.342C9.942 8.246 9.756 8.198 9.504 8.198H8.514C8.454 8.198 8.388 8.204 8.316 8.216C8.244 8.228 8.178 8.246 8.118 8.27C8.046 8.294 7.974 8.318 7.902 8.342C7.65 8.342 7.452 8.426 7.308 8.594C7.176 8.75 7.11 8.948 7.11 9.188V10.052C7.11 10.148 7.104 10.238 7.092 10.322C7.092 10.394 7.128 10.466 7.2 10.538L7.11 11.24V14.156C7.11 14.396 7.128 14.594 7.164 14.75C7.2 14.894 7.248 15.014 7.308 15.11C7.368 15.206 7.434 15.29 7.506 15.362C7.578 15.422 7.644 15.482 7.704 15.542C7.884 15.602 8.046 15.662 8.19 15.722C8.334 15.77 8.508 15.794 8.712 15.794C9.072 15.854 9.342 15.968 9.522 16.136C9.702 16.292 9.798 16.46 9.81 16.64C9.822 16.808 9.756 16.964 9.612 17.108C9.468 17.264 9.252 17.36 8.964 17.396C8.856 17.396 8.748 17.378 8.64 17.342C8.544 17.306 8.448 17.276 8.352 17.252C8.244 17.24 8.124 17.234 7.992 17.234C7.86 17.234 7.722 17.228 7.578 17.216C7.446 17.216 7.314 17.204 7.182 17.18C7.062 17.156 6.954 17.114 6.858 17.054H6.75H5.148C5.076 17.054 4.926 17.084 4.698 17.144C4.482 17.216 4.236 17.252 3.96 17.252C3.768 17.252 3.594 17.246 3.438 17.234C3.306 17.222 3.168 17.21 3.024 17.198C2.892 17.198 2.802 17.198 2.754 17.198C2.694 17.198 2.646 17.222 2.61 17.27C2.574 17.318 2.454 17.342 2.25 17.342C2.226 17.33 2.202 17.306 2.178 17.27C2.154 17.246 2.136 17.216 2.124 17.18C2.112 17.156 2.106 17.114 2.106 17.054C2.154 16.922 2.214 16.79 2.286 16.658C2.346 16.55 2.412 16.436 2.484 16.316C2.568 16.196 2.658 16.088 2.754 15.992C2.922 15.932 3.078 15.878 3.222 15.83C3.342 15.782 3.456 15.74 3.564 15.704C3.684 15.668 3.762 15.65 3.798 15.65L4.662 15.452C4.746 15.452 4.812 15.398 4.86 15.29C4.908 15.17 4.944 15.044 4.968 14.912C4.992 14.756 5.004 14.57 5.004 14.354V12.446C5.004 12.398 5.028 12.314 5.076 12.194L5.148 12.05V9.746C5.148 9.65 5.154 9.554 5.166 9.458C5.19 9.362 5.202 9.272 5.202 9.188C5.202 9.152 5.184 9.098 5.148 9.026C5.112 8.954 5.064 8.882 5.004 8.81C4.944 8.738 4.872 8.678 4.788 8.63C4.716 8.57 4.638 8.54 4.554 8.54H2.556C2.304 8.54 2.106 8.588 1.962 8.684C1.83 8.768 1.728 8.882 1.656 9.026C1.584 9.158 1.53 9.308 1.494 9.476C1.458 9.632 1.41 9.782 1.35 9.926C1.302 10.058 1.23 10.172 1.134 10.268C1.038 10.352 0.894 10.394 0.702 10.394C0.522 10.394 0.39 10.328 0.306 10.196C0.234 10.052 0.198 9.902 0.198 9.746C0.198 9.698 0.204 9.626 0.216 9.53C0.228 9.422 0.24 9.314 0.252 9.206C0.276 9.098 0.294 8.996 0.306 8.9C0.33 8.804 0.342 8.738 0.342 8.702L0.558 7.838C0.558 7.802 0.564 7.724 0.576 7.604C0.6 7.472 0.63 7.334 0.666 7.19C0.714 7.046 0.768 6.92 0.828 6.812C0.888 6.704 0.96 6.65 1.044 6.65C1.2 6.65 1.32 6.68 1.404 6.74C1.5 6.8 1.602 6.866 1.71 6.938C1.782 6.998 1.854 7.046 1.926 7.082C2.01 7.118 2.118 7.136 2.25 7.136C2.322 7.136 2.43 7.124 2.574 7.1C2.718 7.064 2.826 7.046 2.898 7.046H3.258C3.294 7.07 3.336 7.088 3.384 7.1C3.432 7.1 3.486 7.106 3.546 7.118C3.606 7.13 3.672 7.136 3.744 7.136H6.462L6.948 7.046L7.452 7.136C7.704 7.136 7.962 7.124 8.226 7.1C8.502 7.064 8.76 7.046 9 7.046H9.864C10.08 7.046 10.272 7.016 10.44 6.956C10.608 6.896 10.752 6.836 10.872 6.776C11.004 6.704 11.106 6.638 11.178 6.578C11.262 6.518 11.322 6.488 11.358 6.488ZM17.6663 0.745999C17.9183 0.745999 18.1283 0.811999 18.2963 0.944C18.4643 1.076 18.6023 1.232 18.7103 1.412C18.8183 1.592 18.8963 1.778 18.9443 1.97C18.9923 2.162 19.0163 2.318 19.0163 2.438C19.0163 2.534 18.9443 2.666 18.8003 2.834C18.6563 3.002 18.5003 3.17 18.3323 3.338C18.1283 3.542 17.9063 3.758 17.6663 3.986C17.5823 4.07 17.4923 4.118 17.3963 4.13C17.3003 4.142 17.2043 4.148 17.1083 4.148C16.9763 4.148 16.8563 4.16 16.7483 4.184C16.6523 4.196 16.5563 4.25 16.4603 4.346C16.2083 4.49 16.0103 4.67 15.8663 4.886C15.7223 5.102 15.6023 5.336 15.5063 5.588C15.5063 5.636 15.4883 5.72 15.4523 5.84C15.4283 5.96 15.3923 6.086 15.3443 6.218C15.3083 6.35 15.2723 6.476 15.2363 6.596C15.2123 6.716 15.2003 6.8 15.2003 6.848L15.0023 7.64C14.9903 7.676 14.9543 7.808 14.8943 8.036C14.8463 8.264 14.7923 8.522 14.7323 8.81C14.6723 9.098 14.6183 9.38 14.5703 9.656C14.5223 9.932 14.4983 10.13 14.4983 10.25C14.4983 10.298 14.5043 10.346 14.5163 10.394C14.5403 10.49 14.5883 10.538 14.6603 10.538C14.8043 10.538 14.9783 10.448 15.1823 10.268C15.3863 10.088 15.6143 9.914 15.8663 9.746C15.9383 9.674 16.0403 9.578 16.1723 9.458C16.3043 9.338 16.4423 9.224 16.5863 9.116C16.7303 8.996 16.8683 8.9 17.0003 8.828C17.1443 8.744 17.2643 8.702 17.3603 8.702H17.6663C17.8943 8.702 18.0683 8.804 18.1883 9.008C18.3083 9.212 18.3923 9.44 18.4403 9.692C18.5003 9.944 18.5363 10.184 18.5483 10.412C18.5603 10.628 18.5663 10.754 18.5663 10.79L18.5123 11.402C18.5123 11.474 18.5183 11.624 18.5303 11.852C18.5543 12.08 18.5663 12.278 18.5663 12.446C18.5663 12.482 18.5543 12.53 18.5303 12.59C18.5183 12.638 18.5003 12.692 18.4763 12.752C18.4523 12.812 18.4283 12.878 18.4043 12.95V13.292C18.4043 13.448 18.3863 13.556 18.3503 13.616C18.3263 13.664 18.3143 13.772 18.3143 13.94C18.2543 14.132 18.1883 14.27 18.1163 14.354C18.0323 14.426 17.9663 14.516 17.9183 14.624C17.8823 14.732 17.8283 14.822 17.7563 14.894C17.7083 15.074 17.6303 15.284 17.5223 15.524C17.4143 15.764 17.2763 15.974 17.1083 16.154C17.0243 16.238 16.9463 16.358 16.8743 16.514C16.8023 16.658 16.7243 16.808 16.6403 16.964C16.5683 17.108 16.4723 17.234 16.3523 17.342C16.2443 17.45 16.1123 17.504 15.9563 17.504H15.7583H15.1103C15.0743 17.504 15.0083 17.498 14.9123 17.486C14.8163 17.486 14.7203 17.468 14.6243 17.432C14.5283 17.408 14.4443 17.36 14.3723 17.288C14.3003 17.228 14.2643 17.132 14.2643 17C14.2643 16.916 14.2943 16.814 14.3543 16.694C14.4263 16.574 14.4983 16.46 14.5703 16.352C14.6543 16.232 14.7383 16.124 14.8223 16.028C14.9063 15.92 14.9663 15.842 15.0023 15.794C15.1823 15.65 15.3503 15.5 15.5063 15.344C15.6623 15.188 15.7823 15.074 15.8663 15.002C16.1063 14.822 16.2503 14.648 16.2983 14.48C16.3583 14.3 16.4303 14.12 16.5143 13.94C16.6823 13.616 16.8143 13.352 16.9103 13.148C17.0063 12.932 17.0543 12.698 17.0543 12.446V11.744C17.0543 11.696 17.0423 11.624 17.0183 11.528C16.9943 11.432 16.9523 11.342 16.8923 11.258C16.8323 11.162 16.7543 11.078 16.6583 11.006C16.5743 10.934 16.4723 10.898 16.3523 10.898C16.2803 10.898 16.2203 10.934 16.1723 11.006C16.1363 11.066 16.0343 11.144 15.8663 11.24C15.4343 11.564 15.0923 11.918 14.8403 12.302C14.5883 12.674 14.3603 13.07 14.1563 13.49C14.0843 13.742 14.0243 14.012 13.9763 14.3C13.9283 14.576 13.8803 14.858 13.8323 15.146C13.7843 15.422 13.7363 15.692 13.6883 15.956C13.6403 16.22 13.5803 16.466 13.5083 16.694C13.4123 16.85 13.2923 16.97 13.1483 17.054C13.0163 17.15 12.9023 17.198 12.8063 17.198C12.6263 17.198 12.4883 17.15 12.3923 17.054C12.3083 16.958 12.2423 16.844 12.1943 16.712C12.1463 16.58 12.1163 16.448 12.1043 16.316C12.1043 16.172 12.1043 16.064 12.1043 15.992V14.3C12.1043 14.252 12.1403 14.09 12.2123 13.814C12.2843 13.538 12.3623 13.232 12.4463 12.896C12.5423 12.548 12.6263 12.212 12.6983 11.888C12.7703 11.564 12.8063 11.318 12.8063 11.15C12.8423 11.054 12.8663 10.964 12.8783 10.88C12.9023 10.796 12.9263 10.718 12.9503 10.646C12.9743 10.562 12.9923 10.478 13.0043 10.394V9.89C13.0043 9.842 13.0043 9.806 13.0043 9.782C13.0163 9.746 13.0523 9.716 13.1123 9.692C13.1123 9.668 13.1183 9.644 13.1303 9.62C13.1423 9.596 13.1483 9.572 13.1483 9.548V9.188C13.1483 9.152 13.1663 9.074 13.2023 8.954C13.2383 8.822 13.2803 8.678 13.3283 8.522C13.3763 8.366 13.4183 8.21 13.4543 8.054C13.4903 7.898 13.5083 7.778 13.5083 7.694V6.596C13.5083 6.248 13.5503 5.936 13.6343 5.66C13.7303 5.384 13.8023 5.162 13.8503 4.994L13.9043 4.49C13.9163 4.406 13.9583 4.28 14.0303 4.112C14.1143 3.932 14.2043 3.752 14.3003 3.572C14.3963 3.392 14.4923 3.224 14.5883 3.068C14.6843 2.912 14.7563 2.816 14.8043 2.78C14.8763 2.744 14.9243 2.678 14.9483 2.582C14.9843 2.486 15.0143 2.384 15.0383 2.276C15.0743 2.168 15.1163 2.066 15.1643 1.97C15.2243 1.862 15.3203 1.784 15.4523 1.736C15.4763 1.736 15.5123 1.736 15.5603 1.736C15.6083 1.724 15.6563 1.706 15.7043 1.682C15.7283 1.658 15.7643 1.646 15.8123 1.646C15.8603 1.646 15.9083 1.646 15.9563 1.646C16.0523 1.55 16.1903 1.448 16.3703 1.34C16.5623 1.232 16.7543 1.13 16.9463 1.034C17.1623 0.926 17.4023 0.829999 17.6663 0.745999ZM22.7603 8.45C23.0123 8.45 23.2223 8.498 23.3903 8.594C23.5703 8.678 23.7143 8.798 23.8223 8.954C23.9303 9.11 24.0083 9.29 24.0563 9.494C24.1043 9.698 24.1223 9.914 24.1103 10.142C24.1103 10.466 23.9903 10.73 23.7503 10.934C23.5103 11.126 23.2643 11.294 23.0123 11.438C22.7843 11.594 22.5383 11.732 22.2743 11.852C22.0223 11.972 21.7823 12.104 21.5543 12.248C21.3383 12.392 21.1523 12.56 20.9963 12.752C20.8523 12.944 20.7743 13.19 20.7623 13.49V14.246C20.7383 14.45 20.7803 14.654 20.8883 14.858C20.9963 15.05 21.1343 15.146 21.3023 15.146C21.3143 15.158 21.3623 15.14 21.4463 15.092C21.5303 15.044 21.6203 14.99 21.7163 14.93C21.8243 14.858 21.9263 14.786 22.0223 14.714C22.1303 14.642 22.2083 14.588 22.2563 14.552C22.4363 14.468 22.5743 14.402 22.6703 14.354C22.7783 14.294 22.8563 14.276 22.9043 14.3C22.9883 14.3 23.0603 14.312 23.1203 14.336C23.1803 14.36 23.2103 14.45 23.2103 14.606C23.1863 14.87 23.0723 15.128 22.8683 15.38C22.6643 15.62 22.4423 15.848 22.2023 16.064C21.9623 16.268 21.7283 16.448 21.5003 16.604C21.2723 16.76 21.1223 16.874 21.0503 16.946C20.8463 17.126 20.6543 17.222 20.4743 17.234C20.3063 17.246 20.1323 17.252 19.9523 17.252C19.8443 17.24 19.7303 17.192 19.6103 17.108C19.5023 17.024 19.4003 16.928 19.3043 16.82C19.2203 16.7 19.1543 16.58 19.1063 16.46C19.0583 16.34 19.0403 16.238 19.0523 16.154V15.848C19.0523 15.764 19.0283 15.674 18.9803 15.578C18.9563 15.53 18.9323 15.488 18.9083 15.452L18.9623 15.092V14.804C18.9623 14.756 18.9743 14.63 18.9983 14.426C19.0223 14.21 19.0523 13.982 19.0883 13.742C19.1243 13.49 19.1543 13.256 19.1783 13.04C19.2143 12.812 19.2383 12.662 19.2503 12.59C19.2983 12.554 19.3223 12.518 19.3223 12.482C19.3223 12.446 19.3163 12.41 19.3043 12.374C19.2923 12.338 19.2863 12.296 19.2863 12.248C19.2863 12.188 19.3103 12.122 19.3583 12.05C19.3583 11.906 19.3883 11.756 19.4483 11.6C19.4843 11.516 19.5203 11.432 19.5563 11.348L19.8083 10.754C19.8323 10.49 19.9583 10.22 20.1863 9.944C20.4143 9.656 20.6783 9.398 20.9783 9.17C21.2903 8.942 21.6083 8.762 21.9323 8.63C22.2563 8.486 22.5323 8.426 22.7603 8.45ZM21.9503 9.8C21.8903 9.8 21.8303 9.848 21.7703 9.944C21.7103 10.028 21.6503 10.124 21.5903 10.232C21.5303 10.364 21.4703 10.502 21.4103 10.646C21.3983 10.706 21.3803 10.778 21.3563 10.862C21.3323 10.934 21.3143 11.006 21.3023 11.078C21.2903 11.138 21.2963 11.192 21.3203 11.24C21.3443 11.276 21.3923 11.294 21.4643 11.294C21.5243 11.306 21.6143 11.294 21.7343 11.258C21.8543 11.222 21.9743 11.168 22.0943 11.096C22.2263 11.024 22.3403 10.94 22.4363 10.844C22.5443 10.736 22.6043 10.622 22.6163 10.502V10.196C22.6163 10.136 22.5983 10.082 22.5623 10.034C22.5263 9.986 22.4843 9.95 22.4363 9.926C22.3883 9.89 22.3283 9.86 22.2563 9.836L21.9503 9.8ZM31.7815 8.846C32.0215 8.846 32.1955 8.918 32.3035 9.062C32.4235 9.206 32.4835 9.368 32.4835 9.548L32.2675 10.754V11.042C32.2675 11.174 32.2555 11.312 32.2315 11.456C32.2075 11.588 32.1595 11.714 32.0875 11.834C32.0155 11.954 31.9135 12.056 31.7815 12.14C31.6615 12.212 31.4935 12.248 31.2775 12.248C31.1815 12.248 31.1215 12.284 31.0975 12.356C31.0855 12.392 31.0795 12.422 31.0795 12.446C30.9115 12.614 30.7855 12.782 30.7015 12.95C30.6295 13.106 30.5635 13.268 30.5035 13.436C30.4555 13.592 30.4015 13.748 30.3415 13.904C30.2935 14.06 30.2215 14.21 30.1255 14.354C30.0535 14.426 29.9815 14.51 29.9095 14.606C29.8495 14.69 29.8195 14.822 29.8195 15.002C29.7475 15.122 29.6875 15.236 29.6395 15.344C29.5795 15.44 29.5255 15.53 29.4775 15.614C29.4295 15.698 29.3935 15.758 29.3695 15.794C29.3215 15.938 29.2735 16.052 29.2255 16.136C29.1775 16.208 29.1235 16.286 29.0635 16.37C29.0155 16.454 28.9615 16.544 28.9015 16.64C28.8415 16.736 28.7815 16.874 28.7215 17.054C28.6735 17.186 28.6255 17.288 28.5775 17.36C28.5415 17.432 28.5055 17.498 28.4695 17.558C28.4455 17.618 28.4215 17.678 28.3975 17.738C28.3735 17.798 28.3495 17.87 28.3255 17.954L28.1815 18.35C28.1215 18.446 28.0795 18.518 28.0555 18.566C28.0315 18.626 27.9535 18.722 27.8215 18.854C27.6895 19.022 27.5695 19.178 27.4615 19.322C27.3655 19.466 27.3175 19.574 27.3175 19.646C27.1255 20.126 26.7775 20.648 26.2735 21.212C26.0455 21.512 25.8355 21.794 25.6435 22.058C25.4635 22.322 25.2895 22.502 25.1215 22.598C24.2815 23.102 23.6155 23.624 23.1235 24.164C23.0395 24.188 22.9195 24.242 22.7635 24.326C22.5955 24.41 22.4275 24.5 22.2595 24.596C22.0555 24.704 21.8395 24.824 21.6115 24.956H21.4135C21.3415 24.956 21.2335 24.986 21.0895 25.046C20.9455 25.118 20.8375 25.154 20.7655 25.154H20.2255C20.1655 25.154 20.0635 25.118 19.9195 25.046C19.7635 24.986 19.6435 24.956 19.5595 24.956C19.5235 24.956 19.4695 24.968 19.3975 24.992C19.3135 25.016 19.2295 25.04 19.1455 25.064C19.0495 25.1 18.9535 25.13 18.8575 25.154C18.7135 25.154 18.5875 25.106 18.4795 25.01C18.3595 24.926 18.2215 24.806 18.0655 24.65C17.9695 24.65 17.8495 24.608 17.7055 24.524C17.5495 24.44 17.4355 24.35 17.3635 24.254C17.3635 24.23 17.3575 24.176 17.3455 24.092C17.3215 24.008 17.3035 23.912 17.2915 23.804C17.2675 23.696 17.2495 23.588 17.2375 23.48C17.2255 23.384 17.2195 23.312 17.2195 23.264C17.2195 23.096 17.2735 22.934 17.3815 22.778C17.4895 22.622 17.6215 22.478 17.7775 22.346C17.9335 22.226 18.0955 22.13 18.2635 22.058C18.4315 21.986 18.5815 21.95 18.7135 21.95C18.8455 21.95 18.9955 21.986 19.1635 22.058C19.3195 22.13 19.4875 22.214 19.6675 22.31C19.8955 22.406 20.1055 22.502 20.2975 22.598C20.4775 22.706 20.6335 22.76 20.7655 22.76L21.3595 22.85C21.4795 22.766 21.6175 22.712 21.7735 22.688C21.9175 22.664 22.0675 22.64 22.2235 22.616C22.3675 22.592 22.5115 22.556 22.6555 22.508C22.7995 22.472 22.9375 22.388 23.0695 22.256C23.3215 22.184 23.5735 22.058 23.8255 21.878C24.0775 21.71 24.3235 21.5 24.5635 21.248C24.6475 21.176 24.7495 21.056 24.8695 20.888C24.9895 20.732 25.0915 20.57 25.1755 20.402C25.3435 20.234 25.5055 20.036 25.6615 19.808C25.8295 19.58 25.9495 19.376 26.0215 19.196C26.1415 19.076 26.2615 18.926 26.3815 18.746C26.5135 18.566 26.6215 18.374 26.7055 18.17C26.8015 17.978 26.8795 17.78 26.9395 17.576C26.9995 17.372 27.0295 17.18 27.0295 17V16.694V16.298C27.0535 16.178 27.0775 16.064 27.1015 15.956C27.1255 15.86 27.1435 15.77 27.1555 15.686C27.1675 15.59 27.1735 15.512 27.1735 15.452C27.1735 15.368 27.1495 15.308 27.1015 15.272C27.0535 15.224 27.0295 15.116 27.0295 14.948V14.804C26.9935 14.768 26.9635 14.726 26.9395 14.678C26.8915 14.582 26.8675 14.504 26.8675 14.444V14.3C26.8675 14.084 26.8255 13.856 26.7415 13.616C26.6575 13.364 26.5495 13.124 26.4175 12.896C26.2855 12.656 26.1235 12.44 25.9315 12.248C25.7515 12.044 25.5655 11.876 25.3735 11.744C25.2775 11.648 25.2115 11.624 25.1755 11.672C25.1515 11.72 25.0975 11.744 25.0135 11.744H24.8695H24.4735L24.1675 11.888C24.0715 11.888 23.9575 11.852 23.8255 11.78C23.6935 11.696 23.6275 11.57 23.6275 11.402C23.6275 11.366 23.6995 11.258 23.8435 11.078C23.9875 10.898 24.1495 10.706 24.3295 10.502C24.5215 10.286 24.7015 10.088 24.8695 9.908C25.0375 9.716 25.1395 9.596 25.1755 9.548C25.2715 9.452 25.3915 9.368 25.5355 9.296C25.6915 9.224 25.8535 9.188 26.0215 9.188C26.2735 9.188 26.4595 9.272 26.5795 9.44C26.6995 9.596 26.8495 9.8 27.0295 10.052C27.1975 10.4 27.3355 10.706 27.4435 10.97C27.5515 11.234 27.6475 11.492 27.7315 11.744C27.7675 11.948 27.8095 12.122 27.8575 12.266C27.9055 12.398 27.9475 12.524 27.9835 12.644C28.0315 12.764 28.0615 12.884 28.0735 13.004C28.0975 13.124 28.0975 13.274 28.0735 13.454C28.0495 13.538 28.0495 13.634 28.0735 13.742C28.1095 13.85 28.1515 13.952 28.1995 14.048C28.2595 14.144 28.3255 14.228 28.3975 14.3C28.4695 14.36 28.5295 14.39 28.5775 14.39C28.6495 14.39 28.7215 14.312 28.7935 14.156C28.8775 14 28.9555 13.826 29.0275 13.634C29.0995 13.43 29.1655 13.232 29.2255 13.04C29.2855 12.836 29.3335 12.686 29.3695 12.59C29.4655 12.458 29.5495 12.338 29.6215 12.23C29.6935 12.11 29.7655 12.002 29.8375 11.906C29.9095 11.798 29.9875 11.696 30.0715 11.6C30.1675 11.492 30.2875 11.372 30.4315 11.24C30.5275 11.108 30.5935 10.964 30.6295 10.808C30.6775 10.652 30.7255 10.496 30.7735 10.34C30.7975 10.196 30.8335 10.052 30.8815 9.908C30.9295 9.764 30.9955 9.644 31.0795 9.548C31.1755 9.368 31.2715 9.206 31.3675 9.062C31.4635 8.918 31.6015 8.846 31.7815 8.846ZM39.7853 10.502C39.7973 10.622 39.8093 10.718 39.8213 10.79C39.8333 10.85 39.8453 10.91 39.8573 10.97C39.8693 11.03 39.8813 11.102 39.8933 11.186C39.9053 11.27 39.9173 11.39 39.9293 11.546C39.9293 11.774 39.9353 11.96 39.9473 12.104C39.9713 12.248 40.0313 12.398 40.1273 12.554C40.1513 12.65 40.1573 12.752 40.1453 12.86C40.1333 12.956 40.1213 13.046 40.1093 13.13C40.0973 13.214 40.0973 13.28 40.1093 13.328C40.1333 13.376 40.1873 13.4 40.2713 13.4C40.4513 13.4 40.5713 13.364 40.6313 13.292C40.6913 13.208 40.7573 13.124 40.8293 13.04C40.9613 12.872 41.1113 12.674 41.2793 12.446C41.4593 12.218 41.5793 12.02 41.6393 11.852C41.6753 11.672 41.6933 11.534 41.6933 11.438C41.6933 11.33 41.6873 11.24 41.6753 11.168C41.6633 11.084 41.6513 11.006 41.6393 10.934C41.6393 10.85 41.6513 10.754 41.6753 10.646V10.592C41.6753 10.508 41.6693 10.448 41.6573 10.412C41.6573 10.376 41.6453 10.352 41.6213 10.34C41.6093 10.328 41.5853 10.322 41.5493 10.322C41.5133 10.31 41.4593 10.286 41.3873 10.25H41.1353C41.0393 10.25 40.9613 10.208 40.9013 10.124C40.8653 10.088 40.8413 10.046 40.8293 9.998C40.8053 9.914 40.8233 9.83 40.8833 9.746C40.9433 9.662 41.0213 9.596 41.1173 9.548C41.2133 9.488 41.3153 9.44 41.4233 9.404C41.5433 9.368 41.6453 9.35 41.7293 9.35C41.8133 9.242 41.8853 9.17 41.9453 9.134C42.0173 9.098 42.0773 9.074 42.1253 9.062C42.1853 9.038 42.2393 9.02 42.2873 9.008C42.3473 8.996 42.4133 8.972 42.4853 8.936C42.5573 8.84 42.6773 8.75 42.8453 8.666C43.0133 8.582 43.1753 8.54 43.3313 8.54C43.5593 8.6 43.6673 8.714 43.6553 8.882C43.6553 9.038 43.6133 9.242 43.5293 9.494V9.692C43.5293 9.764 43.5353 9.842 43.5473 9.926C43.5593 10.01 43.6073 10.052 43.6913 10.052C43.7753 10.04 43.9073 9.956 44.0873 9.8C44.2793 9.644 44.4833 9.476 44.6993 9.296C44.9153 9.116 45.1253 8.954 45.3293 8.81C45.5333 8.666 45.7013 8.594 45.8333 8.594C46.0133 8.594 46.1873 8.624 46.3553 8.684C46.5353 8.744 46.7033 8.822 46.8593 8.918C47.0153 9.002 47.1533 9.11 47.2733 9.242C47.3933 9.362 47.4833 9.482 47.5433 9.602C47.6633 9.77 47.7353 9.974 47.7593 10.214C47.7953 10.442 47.7893 10.67 47.7413 10.898L47.1293 12.698C47.0813 12.902 46.9673 13.094 46.7873 13.274C46.6193 13.454 46.4693 13.646 46.3373 13.85C46.1813 14.078 46.0073 14.318 45.8153 14.57C45.6233 14.81 45.4133 15.05 45.1853 15.29C45.0773 15.422 44.9873 15.518 44.9153 15.578C44.8433 15.638 44.7713 15.698 44.6993 15.758C44.6393 15.806 44.5673 15.872 44.4833 15.956C44.3993 16.028 44.2973 16.142 44.1773 16.298C44.1173 16.394 44.0213 16.502 43.8893 16.622C43.7693 16.742 43.6373 16.856 43.4933 16.964C43.3493 17.072 43.1993 17.162 43.0433 17.234C42.8873 17.306 42.7493 17.342 42.6293 17.342C42.3773 17.342 42.1673 17.3 41.9993 17.216C41.8313 17.144 41.7593 17.024 41.7833 16.856C41.8313 16.676 41.8553 16.544 41.8553 16.46C41.8673 16.364 41.8733 16.28 41.8733 16.208L41.9813 15.902C41.9573 15.65 41.9213 15.428 41.8733 15.236C41.8253 15.032 41.8253 14.804 41.8733 14.552C41.9333 14.276 41.9393 14.048 41.8913 13.868C41.8553 13.688 41.8013 13.598 41.7293 13.598C41.5253 13.598 41.3273 13.73 41.1353 13.994C40.9433 14.246 40.7573 14.498 40.5773 14.75C40.4813 14.906 40.4333 15.032 40.4333 15.128C40.4333 15.224 40.3793 15.35 40.2713 15.506C40.1753 15.71 40.0733 15.872 39.9653 15.992C39.8693 16.112 39.8093 16.25 39.7853 16.406C39.7253 16.49 39.6653 16.586 39.6053 16.694C39.5573 16.79 39.5033 16.88 39.4433 16.964C39.3833 17.048 39.3113 17.114 39.2273 17.162C39.1433 17.222 39.0413 17.252 38.9213 17.252C38.8373 17.252 38.7413 17.24 38.6333 17.216C38.5373 17.192 38.4473 17.156 38.3633 17.108C38.2913 17.06 38.2313 17.006 38.1833 16.946C38.1353 16.874 38.1173 16.79 38.1293 16.694C38.2013 16.43 38.2553 16.202 38.2913 16.01C38.3393 15.818 38.3513 15.548 38.3273 15.2C38.3273 14.972 38.3033 14.756 38.2553 14.552C38.2193 14.336 38.2253 14.102 38.2733 13.85L38.3273 13.256C38.3153 13.1 38.3033 12.986 38.2913 12.914C38.2913 12.83 38.2853 12.758 38.2733 12.698C38.2733 12.626 38.2673 12.56 38.2553 12.5C38.2553 12.428 38.2493 12.326 38.2373 12.194C38.2133 12.122 38.1953 12.062 38.1833 12.014C38.1833 11.954 38.1773 11.912 38.1653 11.888C38.1533 11.852 38.1413 11.822 38.1293 11.798V11.348V11.294C38.1293 11.138 38.0693 11.024 37.9493 10.952C37.8413 10.88 37.7033 10.844 37.5353 10.844C37.4633 10.844 37.4033 10.862 37.3553 10.898C37.3193 10.922 37.2773 10.958 37.2293 11.006C37.1813 11.042 37.1213 11.078 37.0493 11.114C36.9773 11.138 36.8693 11.15 36.7253 11.15C36.6413 11.15 36.5693 11.12 36.5093 11.06C36.4733 11.024 36.4433 10.988 36.4193 10.952C36.4193 10.796 36.4793 10.646 36.5993 10.502C36.7193 10.358 36.8273 10.286 36.9233 10.286C37.1033 10.118 37.2473 9.98 37.3553 9.872C37.4633 9.764 37.6013 9.674 37.7693 9.602C37.8053 9.554 37.8833 9.464 38.0033 9.332C38.1353 9.2 38.2733 9.074 38.4173 8.954C38.5733 8.822 38.7233 8.708 38.8673 8.612C39.0233 8.504 39.1433 8.45 39.2273 8.45C39.4073 8.45 39.5333 8.516 39.6053 8.648C39.6893 8.768 39.7433 8.918 39.7673 9.098C39.7913 9.266 39.7973 9.44 39.7853 9.62C39.7853 9.788 39.7853 9.914 39.7853 9.998V10.502ZM43.5293 11.402C43.4933 11.57 43.4813 11.714 43.4933 11.834C43.5053 11.954 43.5233 12.074 43.5473 12.194C43.5833 12.314 43.6133 12.446 43.6373 12.59C43.6733 12.734 43.6913 12.902 43.6913 13.094C43.6673 13.19 43.6553 13.322 43.6553 13.49C43.6553 13.646 43.6673 13.802 43.6913 13.958C43.7153 14.114 43.7573 14.252 43.8173 14.372C43.8773 14.492 43.9493 14.552 44.0333 14.552C44.1773 14.552 44.3333 14.492 44.5013 14.372C44.6813 14.252 44.8493 14.108 45.0053 13.94C45.1613 13.772 45.2933 13.598 45.4013 13.418C45.5213 13.238 45.5993 13.082 45.6353 12.95C45.6833 12.698 45.7193 12.488 45.7433 12.32C45.7673 12.14 45.7673 11.978 45.7433 11.834C45.7313 11.678 45.6893 11.528 45.6173 11.384C45.5453 11.228 45.4493 11.048 45.3293 10.844C45.2813 10.748 45.1673 10.67 44.9873 10.61C44.8193 10.538 44.6513 10.502 44.4833 10.502C44.4113 10.502 44.3213 10.532 44.2133 10.592C44.1053 10.652 44.0033 10.73 43.9073 10.826C43.8113 10.91 43.7273 11.006 43.6553 11.114C43.5833 11.222 43.5413 11.318 43.5293 11.402ZM53.3683 8.288C53.6203 8.288 53.8003 8.36 53.9083 8.504C54.0163 8.648 54.0703 8.846 54.0703 9.098C54.0703 9.146 54.0523 9.254 54.0163 9.422C53.9803 9.578 53.9323 9.758 53.8723 9.962C53.8243 10.154 53.7703 10.352 53.7103 10.556C53.6503 10.76 53.6023 10.922 53.5663 11.042C53.5663 11.138 53.5603 11.24 53.5483 11.348C53.5363 11.444 53.4943 11.576 53.4223 11.744C53.3263 11.816 53.2783 11.936 53.2783 12.104C53.2783 12.26 53.2783 12.374 53.2783 12.446L53.2243 13.4V14.102C53.2243 14.138 53.2243 14.204 53.2243 14.3C53.2363 14.384 53.2483 14.474 53.2603 14.57C53.2843 14.654 53.3203 14.732 53.3683 14.804C53.4163 14.864 53.4823 14.894 53.5663 14.894L53.8183 14.498C53.8903 14.438 53.9743 14.366 54.0703 14.282C54.1663 14.186 54.2623 14.096 54.3583 14.012C54.4663 13.916 54.5743 13.814 54.6823 13.706C54.7543 13.706 54.8143 13.736 54.8623 13.796C54.9103 13.856 54.9343 13.922 54.9343 13.994L54.8623 14.138C54.8143 14.234 54.7663 14.306 54.7183 14.354C54.6343 14.594 54.5263 14.804 54.3943 14.984C54.2623 15.152 54.1183 15.32 53.9623 15.488C53.8063 15.644 53.6443 15.806 53.4763 15.974C53.3203 16.142 53.1703 16.334 53.0263 16.55L52.6303 17.108C52.6303 17.216 52.5943 17.324 52.5223 17.432C52.4623 17.552 52.3843 17.642 52.2883 17.702C52.2043 17.774 52.1083 17.804 52.0003 17.792C51.9043 17.792 51.8263 17.726 51.7663 17.594C51.6943 17.378 51.6583 17.168 51.6583 16.964C51.6583 16.748 51.6763 16.544 51.7123 16.352C51.7483 16.148 51.7843 15.956 51.8203 15.776C51.8563 15.596 51.8743 15.422 51.8743 15.254V14.606V14.246C51.8743 14.186 51.8323 14.144 51.7483 14.12C51.7003 14.108 51.6583 14.102 51.6223 14.102C51.5863 14.102 51.4963 14.21 51.3523 14.426C51.2083 14.63 51.0403 14.87 50.8483 15.146C50.6683 15.41 50.4823 15.68 50.2903 15.956C50.0983 16.232 49.9423 16.43 49.8223 16.55C49.7863 16.598 49.7263 16.67 49.6423 16.766C49.5703 16.85 49.4863 16.934 49.3903 17.018C49.3063 17.102 49.2103 17.174 49.1023 17.234C48.9943 17.306 48.8983 17.342 48.8143 17.342C48.6463 17.342 48.5083 17.282 48.4003 17.162C48.2923 17.042 48.2083 16.904 48.1483 16.748C48.0883 16.58 48.0403 16.418 48.0043 16.262C47.9803 16.094 47.9683 15.974 47.9683 15.902L47.9143 14.606L48.1663 12.5C48.1663 12.464 48.1843 12.38 48.2203 12.248C48.2563 12.116 48.3043 11.972 48.3643 11.816C48.4243 11.66 48.4903 11.51 48.5623 11.366C48.6463 11.21 48.7303 11.084 48.8143 10.988C49.1623 10.664 49.4983 10.268 49.8223 9.8C49.9783 9.584 50.1283 9.428 50.2723 9.332C50.4163 9.236 50.5603 9.164 50.7043 9.116C50.8483 9.056 50.9923 9.014 51.1363 8.99C51.2803 8.954 51.4423 8.888 51.6223 8.792C51.6943 8.792 51.7843 8.756 51.8923 8.684C52.0123 8.6 52.1203 8.522 52.2163 8.45H52.7203H53.0263L53.3683 8.288ZM51.0643 10.286C50.8483 10.466 50.6443 10.676 50.4523 10.916C50.2603 11.144 50.0923 11.378 49.9483 11.618C49.8043 11.858 49.6903 12.086 49.6063 12.302C49.5223 12.506 49.4803 12.668 49.4803 12.788C49.4803 12.848 49.4743 12.962 49.4623 13.13C49.4503 13.286 49.4563 13.454 49.4803 13.634C49.5043 13.802 49.5463 13.958 49.6063 14.102C49.6783 14.234 49.7983 14.3 49.9663 14.3C50.1223 14.3 50.3023 14.162 50.5063 13.886C50.7223 13.61 50.9203 13.298 51.1003 12.95C51.2923 12.602 51.4483 12.278 51.5683 11.978C51.7003 11.678 51.7663 11.498 51.7663 11.438C51.7663 11.39 51.7723 11.276 51.7843 11.096C51.7963 10.904 51.7843 10.724 51.7483 10.556C51.7243 10.376 51.6583 10.25 51.5503 10.178C51.4543 10.094 51.2923 10.13 51.0643 10.286ZM57.5778 8.648C57.7098 8.648 57.8118 8.69 57.8838 8.774C57.9558 8.858 58.0218 8.948 58.0818 9.044C58.1178 9.128 58.1298 9.242 58.1178 9.386C58.1058 9.53 58.0818 9.674 58.0458 9.818C58.0218 9.962 57.9918 10.1 57.9558 10.232C57.9318 10.364 57.9198 10.454 57.9198 10.502L57.9738 10.79L58.1718 11.15C58.2198 11.15 58.3098 11.084 58.4418 10.952C58.5858 10.808 58.7478 10.634 58.9278 10.43C59.1198 10.226 59.3178 10.01 59.5218 9.782C59.7258 9.542 59.9238 9.32 60.1158 9.116C60.3078 8.912 60.4818 8.744 60.6378 8.612C60.7938 8.468 60.9078 8.396 60.9798 8.396C61.0758 8.396 61.1538 8.456 61.2138 8.576C61.2858 8.696 61.3518 8.822 61.4118 8.954C61.4718 9.11 61.5258 9.29 61.5738 9.494C61.5858 9.662 61.5738 9.896 61.5378 10.196C61.5018 10.496 61.4418 10.826 61.3578 11.186C61.2858 11.534 61.2018 11.894 61.1058 12.266C61.0218 12.626 60.9378 12.962 60.8538 13.274C60.7818 13.574 60.7158 13.826 60.6558 14.03C60.6078 14.234 60.5838 14.342 60.5838 14.354C60.5838 14.402 60.5778 14.462 60.5658 14.534C60.5538 14.594 60.5478 14.654 60.5478 14.714C60.5478 14.762 60.5598 14.804 60.5838 14.84C60.6198 14.876 60.6858 14.894 60.7818 14.894C60.8538 14.846 60.9258 14.798 60.9978 14.75C61.0578 14.702 61.1238 14.654 61.1958 14.606C61.2678 14.558 61.3458 14.504 61.4298 14.444C61.6338 14.312 61.8198 14.192 61.9878 14.084C62.1678 13.964 62.2818 13.904 62.3298 13.904C62.4018 13.904 62.4798 13.946 62.5638 14.03C62.6478 14.102 62.6898 14.174 62.6898 14.246C62.6898 14.27 62.6478 14.336 62.5638 14.444C62.4918 14.552 62.4018 14.666 62.2938 14.786C62.1858 14.906 62.0778 15.014 61.9698 15.11C61.8618 15.206 61.7838 15.254 61.7358 15.254C61.7358 15.35 61.6998 15.44 61.6278 15.524C61.5678 15.608 61.5018 15.65 61.4298 15.65C61.2378 15.854 61.0758 16.052 60.9438 16.244C60.8118 16.436 60.6798 16.616 60.5478 16.784C60.4158 16.94 60.2718 17.066 60.1158 17.162C59.9598 17.258 59.7618 17.306 59.5218 17.306C59.4378 17.306 59.3478 17.276 59.2518 17.216C59.1678 17.156 59.0898 17.084 59.0178 17C58.9458 16.904 58.8858 16.808 58.8378 16.712C58.8018 16.604 58.7838 16.514 58.7838 16.442L58.7298 15.794C58.8018 15.47 58.8918 15.122 58.9998 14.75C59.1198 14.378 59.2278 14.03 59.3238 13.706C59.4198 13.43 59.4978 13.166 59.5578 12.914C59.6178 12.662 59.6598 12.422 59.6838 12.194V11.996C59.6358 11.66 59.5158 11.492 59.3238 11.492C59.0358 11.492 58.8078 11.558 58.6398 11.69C58.4718 11.81 58.3338 11.972 58.2258 12.176C58.1178 12.368 58.0218 12.578 57.9378 12.806C57.8658 13.034 57.7818 13.25 57.6858 13.454C57.6258 13.526 57.5838 13.598 57.5598 13.67C57.5478 13.73 57.5538 13.808 57.5778 13.904C57.5538 14.048 57.5238 14.192 57.4878 14.336C57.4638 14.48 57.4278 14.618 57.3798 14.75C57.2478 15.134 57.1218 15.518 57.0018 15.902C56.8818 16.274 56.7738 16.622 56.6778 16.946C56.7378 17.042 56.7258 17.096 56.6418 17.108C56.5698 17.132 56.4978 17.144 56.4258 17.144C56.3538 17.144 56.2518 17.138 56.1198 17.126C55.9878 17.126 55.8558 17.108 55.7238 17.072C55.6038 17.036 55.4898 16.982 55.3818 16.91C55.2858 16.838 55.2318 16.736 55.2198 16.604C55.1958 16.4 55.2198 16.19 55.2918 15.974C55.3638 15.746 55.4418 15.536 55.5258 15.344C55.6218 15.152 55.7118 14.984 55.7958 14.84C55.8798 14.696 55.9218 14.6 55.9218 14.552V14.246V13.904L55.8318 13.598C55.8318 13.526 55.8558 13.436 55.9038 13.328C55.9518 13.208 55.9998 13.094 56.0478 12.986C56.1078 12.866 56.1618 12.758 56.2098 12.662C56.2578 12.566 56.2818 12.494 56.2818 12.446V12.194L56.2278 11.492C56.2278 11.42 56.2158 11.348 56.1918 11.276C56.1798 11.192 56.1258 11.15 56.0298 11.15C55.9578 11.15 55.8738 11.168 55.7778 11.204C55.6938 11.24 55.6038 11.282 55.5078 11.33C55.4238 11.366 55.3398 11.402 55.2558 11.438C55.1838 11.474 55.1238 11.492 55.0758 11.492H54.9318C54.8478 11.444 54.8238 11.354 54.8598 11.222C54.9078 11.078 54.9318 10.97 54.9318 10.898C55.2318 10.478 55.5198 10.112 55.7958 9.8C56.0838 9.476 56.4258 9.188 56.8218 8.936C56.9058 8.888 57.0198 8.828 57.1638 8.756C57.3078 8.684 57.4458 8.648 57.5778 8.648ZM66.8894 5.75C66.9974 5.75 67.0994 5.756 67.1954 5.768C67.3034 5.768 67.3994 5.786 67.4834 5.822C67.5794 5.846 67.6514 5.894 67.6994 5.966C67.7594 6.026 67.7894 6.116 67.7894 6.236C67.7894 6.308 67.7054 6.446 67.5374 6.65C67.3694 6.842 67.1834 7.058 66.9794 7.298C66.7874 7.526 66.6074 7.754 66.4394 7.982C66.2714 8.198 66.1874 8.366 66.1874 8.486C66.1874 8.582 66.2114 8.654 66.2594 8.702C66.3194 8.75 66.3854 8.786 66.4574 8.81C66.5294 8.822 66.6014 8.834 66.6734 8.846C66.7574 8.846 66.8174 8.846 66.8534 8.846H67.4474C67.4714 8.822 67.5074 8.792 67.5554 8.756C67.6514 8.684 67.7294 8.648 67.7894 8.648C67.9694 8.648 68.0954 8.72 68.1674 8.864C68.2514 9.008 68.2934 9.17 68.2934 9.35V9.494V9.836C68.2934 9.968 68.2214 10.07 68.0774 10.142C67.9334 10.214 67.7714 10.268 67.5914 10.304C67.4234 10.34 67.2554 10.364 67.0874 10.376C66.9314 10.388 66.8354 10.394 66.7994 10.394C66.6194 10.394 66.5174 10.388 66.4934 10.376C66.4694 10.352 66.4214 10.34 66.3494 10.34H65.9894C65.9174 10.34 65.8154 10.376 65.6834 10.448C65.5514 10.52 65.4854 10.604 65.4854 10.7C65.4854 10.832 65.4794 10.952 65.4674 11.06C65.4554 11.156 65.4434 11.24 65.4314 11.312C65.4194 11.396 65.4074 11.474 65.3954 11.546C65.3594 11.618 65.3234 11.684 65.2874 11.744C65.2274 11.864 65.1974 11.966 65.1974 12.05V12.248C65.1974 12.452 65.1674 12.674 65.1074 12.914C65.0474 13.154 64.9934 13.298 64.9454 13.346C64.8854 13.406 64.8374 13.466 64.8014 13.526C64.7654 13.574 64.7474 13.712 64.7474 13.94V14.3C64.7474 14.372 64.7594 14.462 64.7834 14.57C64.8074 14.666 64.8494 14.756 64.9094 14.84C64.9694 14.924 65.0414 14.996 65.1254 15.056C65.2094 15.116 65.3174 15.146 65.4494 15.146C65.6054 15.146 65.7374 15.104 65.8454 15.02C65.8934 14.984 65.9414 14.942 65.9894 14.894C66.0854 14.894 66.1574 14.924 66.2054 14.984C66.2654 15.032 66.3194 15.086 66.3674 15.146C66.4154 15.218 66.4574 15.302 66.4934 15.398C66.4934 15.494 66.4514 15.62 66.3674 15.776C66.2954 15.932 66.2054 16.088 66.0974 16.244C65.9894 16.388 65.8754 16.52 65.7554 16.64C65.6354 16.748 65.5334 16.802 65.4494 16.802C65.3654 16.802 65.2814 16.868 65.1974 17C65.1254 17.144 65.0894 17.246 65.0894 17.306C65.0534 17.306 64.9874 17.318 64.8914 17.342C64.7954 17.366 64.6994 17.39 64.6034 17.414C64.4834 17.45 64.3634 17.48 64.2434 17.504C64.0874 17.504 63.9614 17.492 63.8654 17.468C63.7814 17.456 63.7394 17.402 63.7394 17.306C63.7034 17.282 63.6494 17.192 63.5774 17.036C63.5054 16.892 63.4334 16.73 63.3614 16.55C63.2894 16.37 63.2234 16.196 63.1634 16.028C63.1154 15.848 63.0914 15.722 63.0914 15.65V14.804C63.0914 14.756 63.1034 14.648 63.1274 14.48C63.1634 14.3 63.1994 14.108 63.2354 13.904C63.2834 13.688 63.3194 13.478 63.3434 13.274C63.3794 13.058 63.3974 12.884 63.3974 12.752V12.446C63.4934 12.17 63.5834 11.924 63.6674 11.708C63.7274 11.516 63.7874 11.342 63.8474 11.186C63.9074 11.018 63.9374 10.922 63.9374 10.898V10.34C63.9374 10.184 63.8894 10.088 63.7934 10.052C63.7214 9.992 63.6434 9.932 63.5594 9.872C63.4754 9.812 63.4334 9.734 63.4334 9.638C63.4334 9.566 63.4574 9.494 63.5054 9.422C63.5654 9.338 63.6314 9.254 63.7034 9.17C63.7874 9.086 63.8654 9.002 63.9374 8.918C64.0214 8.822 64.0874 8.732 64.1354 8.648C64.2194 8.468 64.2974 8.36 64.3694 8.324C64.4534 8.276 64.5434 8.216 64.6394 8.144C64.7954 7.964 64.9634 7.814 65.1434 7.694C65.3234 7.574 65.4914 7.388 65.6474 7.136C65.7434 6.968 65.8154 6.8 65.8634 6.632C65.9114 6.464 66.0194 6.332 66.1874 6.236C66.3434 6.188 66.4814 6.098 66.6014 5.966C66.7214 5.822 66.8174 5.75 66.8894 5.75ZM76.2937 5.75C76.4017 5.75 76.5037 5.756 76.5997 5.768C76.7077 5.768 76.8037 5.786 76.8877 5.822C76.9837 5.846 77.0557 5.894 77.1037 5.966C77.1637 6.026 77.1937 6.116 77.1937 6.236C77.1937 6.308 77.1097 6.446 76.9417 6.65C76.7737 6.842 76.5877 7.058 76.3837 7.298C76.1917 7.526 76.0117 7.754 75.8437 7.982C75.6757 8.198 75.5917 8.366 75.5917 8.486C75.5917 8.582 75.6157 8.654 75.6637 8.702C75.7237 8.75 75.7897 8.786 75.8617 8.81C75.9337 8.822 76.0057 8.834 76.0777 8.846C76.1617 8.846 76.2217 8.846 76.2577 8.846H76.8517C76.8757 8.822 76.9117 8.792 76.9597 8.756C77.0557 8.684 77.1337 8.648 77.1937 8.648C77.3737 8.648 77.4997 8.72 77.5717 8.864C77.6557 9.008 77.6977 9.17 77.6977 9.35V9.494V9.836C77.6977 9.968 77.6257 10.07 77.4817 10.142C77.3377 10.214 77.1757 10.268 76.9957 10.304C76.8277 10.34 76.6597 10.364 76.4917 10.376C76.3357 10.388 76.2397 10.394 76.2037 10.394C76.0237 10.394 75.9217 10.388 75.8977 10.376C75.8737 10.352 75.8257 10.34 75.7537 10.34H75.3937C75.3217 10.34 75.2197 10.376 75.0877 10.448C74.9557 10.52 74.8897 10.604 74.8897 10.7C74.8897 10.832 74.8837 10.952 74.8717 11.06C74.8597 11.156 74.8477 11.24 74.8357 11.312C74.8237 11.396 74.8117 11.474 74.7997 11.546C74.7637 11.618 74.7277 11.684 74.6917 11.744C74.6317 11.864 74.6017 11.966 74.6017 12.05V12.248C74.6017 12.452 74.5717 12.674 74.5117 12.914C74.4517 13.154 74.3977 13.298 74.3497 13.346C74.2897 13.406 74.2417 13.466 74.2057 13.526C74.1697 13.574 74.1517 13.712 74.1517 13.94V14.3C74.1517 14.372 74.1637 14.462 74.1877 14.57C74.2117 14.666 74.2537 14.756 74.3137 14.84C74.3737 14.924 74.4457 14.996 74.5297 15.056C74.6137 15.116 74.7217 15.146 74.8537 15.146C75.0097 15.146 75.1417 15.104 75.2497 15.02C75.2977 14.984 75.3457 14.942 75.3937 14.894C75.4897 14.894 75.5617 14.924 75.6097 14.984C75.6697 15.032 75.7237 15.086 75.7717 15.146C75.8197 15.218 75.8617 15.302 75.8977 15.398C75.8977 15.494 75.8557 15.62 75.7717 15.776C75.6997 15.932 75.6097 16.088 75.5017 16.244C75.3937 16.388 75.2797 16.52 75.1597 16.64C75.0397 16.748 74.9377 16.802 74.8537 16.802C74.7697 16.802 74.6857 16.868 74.6017 17C74.5297 17.144 74.4937 17.246 74.4937 17.306C74.4577 17.306 74.3917 17.318 74.2957 17.342C74.1997 17.366 74.1037 17.39 74.0077 17.414C73.8877 17.45 73.7677 17.48 73.6477 17.504C73.4917 17.504 73.3657 17.492 73.2697 17.468C73.1857 17.456 73.1437 17.402 73.1437 17.306C73.1077 17.282 73.0537 17.192 72.9817 17.036C72.9097 16.892 72.8377 16.73 72.7657 16.55C72.6937 16.37 72.6277 16.196 72.5677 16.028C72.5197 15.848 72.4957 15.722 72.4957 15.65V14.804C72.4957 14.756 72.5077 14.648 72.5317 14.48C72.5677 14.3 72.6037 14.108 72.6397 13.904C72.6877 13.688 72.7237 13.478 72.7477 13.274C72.7837 13.058 72.8017 12.884 72.8017 12.752V12.446C72.8977 12.17 72.9877 11.924 73.0717 11.708C73.1317 11.516 73.1917 11.342 73.2517 11.186C73.3117 11.018 73.3417 10.922 73.3417 10.898V10.34C73.3417 10.184 73.2937 10.088 73.1977 10.052C73.1257 9.992 73.0477 9.932 72.9637 9.872C72.8797 9.812 72.8377 9.734 72.8377 9.638C72.8377 9.566 72.8617 9.494 72.9097 9.422C72.9697 9.338 73.0357 9.254 73.1077 9.17C73.1917 9.086 73.2697 9.002 73.3417 8.918C73.4257 8.822 73.4917 8.732 73.5397 8.648C73.6237 8.468 73.7017 8.36 73.7737 8.324C73.8577 8.276 73.9477 8.216 74.0437 8.144C74.1997 7.964 74.3677 7.814 74.5477 7.694C74.7277 7.574 74.8957 7.388 75.0517 7.136C75.1477 6.968 75.2197 6.8 75.2677 6.632C75.3157 6.464 75.4237 6.332 75.5917 6.236C75.7477 6.188 75.8857 6.098 76.0057 5.966C76.1257 5.822 76.2217 5.75 76.2937 5.75ZM80.0557 8.45C80.2237 8.45 80.4277 8.456 80.6677 8.468C80.9197 8.48 81.1297 8.522 81.2977 8.594C81.4777 8.594 81.5917 8.666 81.6397 8.81C81.6997 8.954 81.7717 9.116 81.8557 9.296C81.9037 9.344 81.9577 9.41 82.0177 9.494C82.0897 9.578 82.1497 9.668 82.1977 9.764C82.2577 9.848 82.3057 9.938 82.3417 10.034C82.3777 10.13 82.3957 10.214 82.3957 10.286L82.2517 11.888C82.2517 12.224 82.1797 12.596 82.0357 13.004C81.8917 13.412 81.6817 13.778 81.4057 14.102C81.3097 14.198 81.2377 14.306 81.1897 14.426C81.1537 14.534 81.1117 14.648 81.0637 14.768C81.0277 14.888 80.9797 15.014 80.9197 15.146C80.8717 15.266 80.7997 15.386 80.7037 15.506C80.6317 15.59 80.5477 15.692 80.4517 15.812C80.3677 15.932 80.2717 16.058 80.1637 16.19C80.0677 16.31 79.9597 16.424 79.8397 16.532C79.7317 16.628 79.6177 16.7 79.4977 16.748C79.3177 16.844 79.1677 16.928 79.0477 17C78.9277 17.072 78.8197 17.132 78.7237 17.18C78.6277 17.228 78.5257 17.258 78.4177 17.27C78.3217 17.294 78.2137 17.306 78.0937 17.306C77.9137 17.306 77.7457 17.264 77.5897 17.18C77.4337 17.096 77.2957 16.988 77.1757 16.856C77.0677 16.712 76.9777 16.556 76.9057 16.388C76.8337 16.208 76.7977 16.028 76.7977 15.848V14.642C76.7977 14.57 76.7737 14.504 76.7257 14.444C76.6777 14.384 76.6537 14.216 76.6537 13.94C76.6417 13.592 76.7257 13.172 76.9057 12.68C77.0857 12.188 77.2957 11.708 77.5357 11.24C77.7877 10.76 78.0337 10.34 78.2737 9.98C78.5257 9.608 78.7177 9.38 78.8497 9.296C78.9817 9.212 79.0897 9.122 79.1737 9.026C79.2697 8.918 79.3597 8.822 79.4437 8.738C79.5277 8.654 79.6117 8.588 79.6957 8.54C79.7917 8.48 79.9117 8.45 80.0557 8.45ZM80.1457 10.502C79.9537 10.502 79.7557 10.586 79.5517 10.754C79.3597 10.91 79.1797 11.096 79.0117 11.312C78.8437 11.516 78.6937 11.726 78.5617 11.942C78.4297 12.146 78.3397 12.296 78.2917 12.392L78.1117 13.076C78.0637 13.244 78.0217 13.406 77.9857 13.562C77.9617 13.718 77.9497 13.814 77.9497 13.85V14.192C77.9977 14.228 78.0397 14.3 78.0757 14.408C78.1117 14.516 78.1537 14.624 78.2017 14.732C78.2617 14.84 78.3277 14.936 78.3997 15.02C78.4717 15.104 78.5737 15.146 78.7057 15.146C78.9457 15.038 79.1677 14.93 79.3717 14.822C79.5397 14.726 79.7017 14.624 79.8577 14.516C80.0257 14.408 80.1397 14.3 80.1997 14.192C80.2717 14.024 80.3497 13.826 80.4337 13.598C80.5297 13.37 80.6197 13.154 80.7037 12.95C80.6797 12.854 80.7037 12.758 80.7757 12.662C80.8597 12.566 80.9017 12.476 80.9017 12.392V11.888C80.9017 11.828 80.8837 11.726 80.8477 11.582C80.8237 11.426 80.7757 11.27 80.7037 11.114C80.6437 10.946 80.5657 10.802 80.4697 10.682C80.3737 10.562 80.2657 10.502 80.1457 10.502ZM92.1083 8.288C92.2883 8.288 92.4503 8.372 92.5943 8.54C92.7383 8.708 92.8103 8.876 92.8103 9.044C92.8103 9.176 92.7143 9.29 92.5223 9.386C92.3303 9.47 92.1143 9.554 91.8743 9.638C91.6343 9.71 91.3943 9.782 91.1543 9.854C90.9263 9.926 90.7763 10.004 90.7043 10.088C90.5963 10.196 90.5183 10.322 90.4703 10.466C90.4223 10.598 90.3983 10.736 90.3983 10.88C90.3983 11.024 90.4223 11.162 90.4703 11.294C90.5183 11.426 90.5783 11.546 90.6503 11.654C90.7343 11.822 90.8303 12.002 90.9383 12.194C91.0583 12.374 91.1663 12.584 91.2623 12.824C91.3583 13.064 91.4363 13.334 91.4963 13.634C91.5683 13.934 91.6043 14.27 91.6043 14.642C91.6043 14.966 91.4963 15.296 91.2803 15.632C91.0643 15.956 90.7883 16.244 90.4523 16.496C90.1883 16.64 89.9843 16.76 89.8403 16.856C89.6963 16.94 89.5703 17.006 89.4623 17.054C89.3543 17.114 89.2463 17.15 89.1383 17.162C89.0423 17.186 88.9163 17.198 88.7603 17.198H88.1123C88.0523 17.198 87.9743 17.204 87.8783 17.216C87.7823 17.228 87.6863 17.246 87.5903 17.27C87.4703 17.294 87.3443 17.318 87.2123 17.342H87.1043H86.7082C86.3722 17.342 86.2042 17.18 86.2042 16.856C86.2042 16.772 86.2582 16.64 86.3662 16.46C86.4742 16.28 86.6122 16.106 86.7802 15.938C86.9362 15.77 87.1043 15.62 87.2843 15.488C87.4643 15.356 87.6203 15.29 87.7523 15.29C87.7883 15.29 87.8483 15.32 87.9323 15.38C88.0163 15.428 88.1123 15.482 88.2203 15.542C88.3403 15.602 88.4723 15.662 88.6163 15.722C88.7603 15.77 88.9223 15.794 89.1023 15.794C89.2223 15.794 89.3302 15.758 89.4263 15.686C89.5343 15.614 89.6243 15.53 89.6963 15.434C89.7683 15.326 89.8223 15.218 89.8583 15.11C89.8943 14.99 89.9123 14.888 89.9123 14.804C89.9123 14.6 89.8343 14.354 89.6783 14.066C89.5223 13.766 89.3483 13.466 89.1562 13.166C88.9643 12.854 88.7903 12.56 88.6343 12.284C88.4783 12.008 88.4003 11.78 88.4003 11.6V11.402C88.4483 11.198 88.5203 10.988 88.6163 10.772C88.7123 10.556 88.8203 10.358 88.9403 10.178C89.0603 9.998 89.1923 9.842 89.3363 9.71C89.4803 9.566 89.6363 9.476 89.8043 9.44C89.8883 9.392 89.9723 9.314 90.0563 9.206C90.1523 9.098 90.2363 8.996 90.3083 8.9C90.4043 8.804 90.4883 8.714 90.5603 8.63C90.6443 8.534 90.7283 8.474 90.8123 8.45C90.9083 8.366 91.0583 8.318 91.2623 8.306C91.4663 8.294 91.6163 8.288 91.7123 8.288H92.1083ZM96.1665 8.45C96.4185 8.45 96.6285 8.498 96.7965 8.594C96.9765 8.678 97.1205 8.798 97.2285 8.954C97.3365 9.11 97.4145 9.29 97.4625 9.494C97.5105 9.698 97.5285 9.914 97.5165 10.142C97.5165 10.466 97.3965 10.73 97.1565 10.934C96.9165 11.126 96.6705 11.294 96.4185 11.438C96.1905 11.594 95.9445 11.732 95.6805 11.852C95.4285 11.972 95.1885 12.104 94.9605 12.248C94.7445 12.392 94.5585 12.56 94.4025 12.752C94.2585 12.944 94.1805 13.19 94.1685 13.49V14.246C94.1445 14.45 94.1865 14.654 94.2945 14.858C94.4025 15.05 94.5405 15.146 94.7085 15.146C94.7205 15.158 94.7685 15.14 94.8525 15.092C94.9365 15.044 95.0265 14.99 95.1225 14.93C95.2305 14.858 95.3325 14.786 95.4285 14.714C95.5365 14.642 95.6145 14.588 95.6625 14.552C95.8425 14.468 95.9805 14.402 96.0765 14.354C96.1845 14.294 96.2625 14.276 96.3105 14.3C96.3945 14.3 96.4665 14.312 96.5265 14.336C96.5865 14.36 96.6165 14.45 96.6165 14.606C96.5925 14.87 96.4785 15.128 96.2745 15.38C96.0705 15.62 95.8485 15.848 95.6085 16.064C95.3685 16.268 95.1345 16.448 94.9065 16.604C94.6785 16.76 94.5285 16.874 94.4565 16.946C94.2525 17.126 94.0605 17.222 93.8805 17.234C93.7125 17.246 93.5385 17.252 93.3585 17.252C93.2505 17.24 93.1365 17.192 93.0165 17.108C92.9085 17.024 92.8065 16.928 92.7105 16.82C92.6265 16.7 92.5605 16.58 92.5125 16.46C92.4645 16.34 92.4465 16.238 92.4585 16.154V15.848C92.4585 15.764 92.4345 15.674 92.3865 15.578C92.3625 15.53 92.3385 15.488 92.3145 15.452L92.3685 15.092V14.804C92.3685 14.756 92.3805 14.63 92.4045 14.426C92.4285 14.21 92.4585 13.982 92.4945 13.742C92.5305 13.49 92.5605 13.256 92.5845 13.04C92.6205 12.812 92.6445 12.662 92.6565 12.59C92.7045 12.554 92.7285 12.518 92.7285 12.482C92.7285 12.446 92.7225 12.41 92.7105 12.374C92.6985 12.338 92.6925 12.296 92.6925 12.248C92.6925 12.188 92.7165 12.122 92.7645 12.05C92.7645 11.906 92.7945 11.756 92.8545 11.6C92.8905 11.516 92.9265 11.432 92.9625 11.348L93.2145 10.754C93.2385 10.49 93.3645 10.22 93.5925 9.944C93.8205 9.656 94.0845 9.398 94.3845 9.17C94.6965 8.942 95.0145 8.762 95.3385 8.63C95.6625 8.486 95.9385 8.426 96.1665 8.45ZM95.3565 9.8C95.2965 9.8 95.2365 9.848 95.1765 9.944C95.1165 10.028 95.0565 10.124 94.9965 10.232C94.9365 10.364 94.8765 10.502 94.8165 10.646C94.8045 10.706 94.7865 10.778 94.7625 10.862C94.7385 10.934 94.7205 11.006 94.7085 11.078C94.6965 11.138 94.7025 11.192 94.7265 11.24C94.7505 11.276 94.7985 11.294 94.8705 11.294C94.9305 11.306 95.0205 11.294 95.1405 11.258C95.2605 11.222 95.3805 11.168 95.5005 11.096C95.6325 11.024 95.7465 10.94 95.8425 10.844C95.9505 10.736 96.0105 10.622 96.0225 10.502V10.196C96.0225 10.136 96.0045 10.082 95.9685 10.034C95.9325 9.986 95.8905 9.95 95.8425 9.926C95.7945 9.89 95.7345 9.86 95.6625 9.836L95.3565 9.8ZM101.282 8.45C101.534 8.45 101.744 8.498 101.912 8.594C102.092 8.678 102.236 8.798 102.344 8.954C102.452 9.11 102.53 9.29 102.578 9.494C102.626 9.698 102.644 9.914 102.632 10.142C102.632 10.466 102.512 10.73 102.272 10.934C102.032 11.126 101.786 11.294 101.534 11.438C101.306 11.594 101.06 11.732 100.796 11.852C100.544 11.972 100.304 12.104 100.076 12.248C99.8598 12.392 99.6738 12.56 99.5178 12.752C99.3738 12.944 99.2958 13.19 99.2838 13.49V14.246C99.2598 14.45 99.3018 14.654 99.4098 14.858C99.5178 15.05 99.6558 15.146 99.8238 15.146C99.8358 15.158 99.8838 15.14 99.9678 15.092C100.052 15.044 100.142 14.99 100.238 14.93C100.346 14.858 100.448 14.786 100.544 14.714C100.652 14.642 100.73 14.588 100.778 14.552C100.958 14.468 101.096 14.402 101.192 14.354C101.3 14.294 101.378 14.276 101.426 14.3C101.51 14.3 101.582 14.312 101.642 14.336C101.702 14.36 101.732 14.45 101.732 14.606C101.708 14.87 101.594 15.128 101.39 15.38C101.186 15.62 100.964 15.848 100.724 16.064C100.484 16.268 100.25 16.448 100.022 16.604C99.7938 16.76 99.6438 16.874 99.5718 16.946C99.3678 17.126 99.1758 17.222 98.9958 17.234C98.8278 17.246 98.6538 17.252 98.4738 17.252C98.3658 17.24 98.2518 17.192 98.1318 17.108C98.0238 17.024 97.9218 16.928 97.8258 16.82C97.7418 16.7 97.6758 16.58 97.6278 16.46C97.5798 16.34 97.5618 16.238 97.5738 16.154V15.848C97.5738 15.764 97.5498 15.674 97.5018 15.578C97.4778 15.53 97.4538 15.488 97.4298 15.452L97.4838 15.092V14.804C97.4838 14.756 97.4958 14.63 97.5198 14.426C97.5438 14.21 97.5738 13.982 97.6098 13.742C97.6458 13.49 97.6758 13.256 97.6998 13.04C97.7358 12.812 97.7598 12.662 97.7718 12.59C97.8198 12.554 97.8438 12.518 97.8438 12.482C97.8438 12.446 97.8378 12.41 97.8258 12.374C97.8138 12.338 97.8078 12.296 97.8078 12.248C97.8078 12.188 97.8318 12.122 97.8798 12.05C97.8798 11.906 97.9098 11.756 97.9698 11.6C98.0058 11.516 98.0418 11.432 98.0778 11.348L98.3298 10.754C98.3538 10.49 98.4798 10.22 98.7078 9.944C98.9358 9.656 99.1998 9.398 99.4998 9.17C99.8118 8.942 100.13 8.762 100.454 8.63C100.778 8.486 101.054 8.426 101.282 8.45ZM100.472 9.8C100.412 9.8 100.352 9.848 100.292 9.944C100.232 10.028 100.172 10.124 100.112 10.232C100.052 10.364 99.9918 10.502 99.9318 10.646C99.9198 10.706 99.9018 10.778 99.8778 10.862C99.8538 10.934 99.8358 11.006 99.8238 11.078C99.8118 11.138 99.8178 11.192 99.8418 11.24C99.8658 11.276 99.9138 11.294 99.9858 11.294C100.046 11.306 100.136 11.294 100.256 11.258C100.376 11.222 100.496 11.168 100.616 11.096C100.748 11.024 100.862 10.94 100.958 10.844C101.066 10.736 101.126 10.622 101.138 10.502V10.196C101.138 10.136 101.12 10.082 101.084 10.034C101.048 9.986 101.006 9.95 100.958 9.926C100.91 9.89 100.85 9.86 100.778 9.836L100.472 9.8ZM111.643 5.75C111.751 5.75 111.853 5.756 111.949 5.768C112.057 5.768 112.153 5.786 112.237 5.822C112.333 5.846 112.405 5.894 112.453 5.966C112.513 6.026 112.543 6.116 112.543 6.236C112.543 6.308 112.459 6.446 112.291 6.65C112.123 6.842 111.937 7.058 111.733 7.298C111.541 7.526 111.361 7.754 111.193 7.982C111.025 8.198 110.941 8.366 110.941 8.486C110.941 8.582 110.965 8.654 111.013 8.702C111.073 8.75 111.139 8.786 111.211 8.81C111.283 8.822 111.355 8.834 111.427 8.846C111.511 8.846 111.571 8.846 111.607 8.846H112.201C112.225 8.822 112.261 8.792 112.309 8.756C112.405 8.684 112.483 8.648 112.543 8.648C112.723 8.648 112.849 8.72 112.921 8.864C113.005 9.008 113.047 9.17 113.047 9.35V9.494V9.836C113.047 9.968 112.975 10.07 112.831 10.142C112.687 10.214 112.525 10.268 112.345 10.304C112.177 10.34 112.009 10.364 111.841 10.376C111.685 10.388 111.589 10.394 111.553 10.394C111.373 10.394 111.271 10.388 111.247 10.376C111.223 10.352 111.175 10.34 111.103 10.34H110.743C110.671 10.34 110.569 10.376 110.437 10.448C110.305 10.52 110.239 10.604 110.239 10.7C110.239 10.832 110.233 10.952 110.221 11.06C110.209 11.156 110.197 11.24 110.185 11.312C110.173 11.396 110.161 11.474 110.149 11.546C110.113 11.618 110.077 11.684 110.041 11.744C109.981 11.864 109.951 11.966 109.951 12.05V12.248C109.951 12.452 109.921 12.674 109.861 12.914C109.801 13.154 109.747 13.298 109.699 13.346C109.639 13.406 109.591 13.466 109.555 13.526C109.519 13.574 109.501 13.712 109.501 13.94V14.3C109.501 14.372 109.513 14.462 109.537 14.57C109.561 14.666 109.603 14.756 109.663 14.84C109.723 14.924 109.795 14.996 109.879 15.056C109.963 15.116 110.071 15.146 110.203 15.146C110.359 15.146 110.491 15.104 110.599 15.02C110.647 14.984 110.695 14.942 110.743 14.894C110.839 14.894 110.911 14.924 110.959 14.984C111.019 15.032 111.073 15.086 111.121 15.146C111.169 15.218 111.211 15.302 111.247 15.398C111.247 15.494 111.205 15.62 111.121 15.776C111.049 15.932 110.959 16.088 110.851 16.244C110.743 16.388 110.629 16.52 110.509 16.64C110.389 16.748 110.287 16.802 110.203 16.802C110.119 16.802 110.035 16.868 109.951 17C109.879 17.144 109.843 17.246 109.843 17.306C109.807 17.306 109.741 17.318 109.645 17.342C109.549 17.366 109.453 17.39 109.357 17.414C109.237 17.45 109.117 17.48 108.997 17.504C108.841 17.504 108.715 17.492 108.619 17.468C108.535 17.456 108.493 17.402 108.493 17.306C108.457 17.282 108.403 17.192 108.331 17.036C108.259 16.892 108.187 16.73 108.115 16.55C108.043 16.37 107.977 16.196 107.917 16.028C107.869 15.848 107.845 15.722 107.845 15.65V14.804C107.845 14.756 107.857 14.648 107.881 14.48C107.917 14.3 107.953 14.108 107.989 13.904C108.037 13.688 108.073 13.478 108.097 13.274C108.133 13.058 108.151 12.884 108.151 12.752V12.446C108.247 12.17 108.337 11.924 108.421 11.708C108.481 11.516 108.541 11.342 108.601 11.186C108.661 11.018 108.691 10.922 108.691 10.898V10.34C108.691 10.184 108.643 10.088 108.547 10.052C108.475 9.992 108.397 9.932 108.313 9.872C108.229 9.812 108.187 9.734 108.187 9.638C108.187 9.566 108.211 9.494 108.259 9.422C108.319 9.338 108.385 9.254 108.457 9.17C108.541 9.086 108.619 9.002 108.691 8.918C108.775 8.822 108.841 8.732 108.889 8.648C108.973 8.468 109.051 8.36 109.123 8.324C109.207 8.276 109.297 8.216 109.393 8.144C109.549 7.964 109.717 7.814 109.897 7.694C110.077 7.574 110.245 7.388 110.401 7.136C110.497 6.968 110.569 6.8 110.617 6.632C110.665 6.464 110.773 6.332 110.941 6.236C111.097 6.188 111.235 6.098 111.355 5.966C111.475 5.822 111.571 5.75 111.643 5.75ZM117.457 0.745999C117.709 0.745999 117.919 0.811999 118.087 0.944C118.255 1.076 118.393 1.232 118.501 1.412C118.609 1.592 118.687 1.778 118.735 1.97C118.783 2.162 118.807 2.318 118.807 2.438C118.807 2.534 118.735 2.666 118.591 2.834C118.447 3.002 118.291 3.17 118.123 3.338C117.919 3.542 117.697 3.758 117.457 3.986C117.373 4.07 117.283 4.118 117.187 4.13C117.091 4.142 116.995 4.148 116.899 4.148C116.767 4.148 116.647 4.16 116.539 4.184C116.443 4.196 116.347 4.25 116.251 4.346C115.999 4.49 115.801 4.67 115.657 4.886C115.513 5.102 115.393 5.336 115.297 5.588C115.297 5.636 115.279 5.72 115.243 5.84C115.219 5.96 115.183 6.086 115.135 6.218C115.099 6.35 115.063 6.476 115.027 6.596C115.003 6.716 114.991 6.8 114.991 6.848L114.793 7.64C114.781 7.676 114.745 7.808 114.685 8.036C114.637 8.264 114.583 8.522 114.523 8.81C114.463 9.098 114.409 9.38 114.361 9.656C114.313 9.932 114.289 10.13 114.289 10.25C114.289 10.298 114.295 10.346 114.307 10.394C114.331 10.49 114.379 10.538 114.451 10.538C114.595 10.538 114.769 10.448 114.973 10.268C115.177 10.088 115.405 9.914 115.657 9.746C115.729 9.674 115.831 9.578 115.963 9.458C116.095 9.338 116.233 9.224 116.377 9.116C116.521 8.996 116.659 8.9 116.791 8.828C116.935 8.744 117.055 8.702 117.151 8.702H117.457C117.685 8.702 117.859 8.804 117.979 9.008C118.099 9.212 118.183 9.44 118.231 9.692C118.291 9.944 118.327 10.184 118.339 10.412C118.351 10.628 118.357 10.754 118.357 10.79L118.303 11.402C118.303 11.474 118.309 11.624 118.321 11.852C118.345 12.08 118.357 12.278 118.357 12.446C118.357 12.482 118.345 12.53 118.321 12.59C118.309 12.638 118.291 12.692 118.267 12.752C118.243 12.812 118.219 12.878 118.195 12.95V13.292C118.195 13.448 118.177 13.556 118.141 13.616C118.117 13.664 118.105 13.772 118.105 13.94C118.045 14.132 117.979 14.27 117.907 14.354C117.823 14.426 117.757 14.516 117.709 14.624C117.673 14.732 117.619 14.822 117.547 14.894C117.499 15.074 117.421 15.284 117.313 15.524C117.205 15.764 117.067 15.974 116.899 16.154C116.815 16.238 116.737 16.358 116.665 16.514C116.593 16.658 116.515 16.808 116.431 16.964C116.359 17.108 116.263 17.234 116.143 17.342C116.035 17.45 115.903 17.504 115.747 17.504H115.549H114.901C114.865 17.504 114.799 17.498 114.703 17.486C114.607 17.486 114.511 17.468 114.415 17.432C114.319 17.408 114.235 17.36 114.163 17.288C114.091 17.228 114.055 17.132 114.055 17C114.055 16.916 114.085 16.814 114.145 16.694C114.217 16.574 114.289 16.46 114.361 16.352C114.445 16.232 114.529 16.124 114.613 16.028C114.697 15.92 114.757 15.842 114.793 15.794C114.973 15.65 115.141 15.5 115.297 15.344C115.453 15.188 115.573 15.074 115.657 15.002C115.897 14.822 116.041 14.648 116.089 14.48C116.149 14.3 116.221 14.12 116.305 13.94C116.473 13.616 116.605 13.352 116.701 13.148C116.797 12.932 116.845 12.698 116.845 12.446V11.744C116.845 11.696 116.833 11.624 116.809 11.528C116.785 11.432 116.743 11.342 116.683 11.258C116.623 11.162 116.545 11.078 116.449 11.006C116.365 10.934 116.263 10.898 116.143 10.898C116.071 10.898 116.011 10.934 115.963 11.006C115.927 11.066 115.825 11.144 115.657 11.24C115.225 11.564 114.883 11.918 114.631 12.302C114.379 12.674 114.151 13.07 113.947 13.49C113.875 13.742 113.815 14.012 113.767 14.3C113.719 14.576 113.671 14.858 113.623 15.146C113.575 15.422 113.527 15.692 113.479 15.956C113.431 16.22 113.371 16.466 113.299 16.694C113.203 16.85 113.083 16.97 112.939 17.054C112.807 17.15 112.693 17.198 112.597 17.198C112.417 17.198 112.279 17.15 112.183 17.054C112.099 16.958 112.033 16.844 111.985 16.712C111.937 16.58 111.907 16.448 111.895 16.316C111.895 16.172 111.895 16.064 111.895 15.992V14.3C111.895 14.252 111.931 14.09 112.003 13.814C112.075 13.538 112.153 13.232 112.237 12.896C112.333 12.548 112.417 12.212 112.489 11.888C112.561 11.564 112.597 11.318 112.597 11.15C112.633 11.054 112.657 10.964 112.669 10.88C112.693 10.796 112.717 10.718 112.741 10.646C112.765 10.562 112.783 10.478 112.795 10.394V9.89C112.795 9.842 112.795 9.806 112.795 9.782C112.807 9.746 112.843 9.716 112.903 9.692C112.903 9.668 112.909 9.644 112.921 9.62C112.933 9.596 112.939 9.572 112.939 9.548V9.188C112.939 9.152 112.957 9.074 112.993 8.954C113.029 8.822 113.071 8.678 113.119 8.522C113.167 8.366 113.209 8.21 113.245 8.054C113.281 7.898 113.299 7.778 113.299 7.694V6.596C113.299 6.248 113.341 5.936 113.425 5.66C113.521 5.384 113.593 5.162 113.641 4.994L113.695 4.49C113.707 4.406 113.749 4.28 113.821 4.112C113.905 3.932 113.995 3.752 114.091 3.572C114.187 3.392 114.283 3.224 114.379 3.068C114.475 2.912 114.547 2.816 114.595 2.78C114.667 2.744 114.715 2.678 114.739 2.582C114.775 2.486 114.805 2.384 114.829 2.276C114.865 2.168 114.907 2.066 114.955 1.97C115.015 1.862 115.111 1.784 115.243 1.736C115.267 1.736 115.303 1.736 115.351 1.736C115.399 1.724 115.447 1.706 115.495 1.682C115.519 1.658 115.555 1.646 115.603 1.646C115.651 1.646 115.699 1.646 115.747 1.646C115.843 1.55 115.981 1.448 116.161 1.34C116.353 1.232 116.545 1.13 116.737 1.034C116.953 0.926 117.193 0.829999 117.457 0.745999ZM122.551 8.45C122.803 8.45 123.013 8.498 123.181 8.594C123.361 8.678 123.505 8.798 123.613 8.954C123.721 9.11 123.799 9.29 123.847 9.494C123.895 9.698 123.913 9.914 123.901 10.142C123.901 10.466 123.781 10.73 123.541 10.934C123.301 11.126 123.055 11.294 122.803 11.438C122.575 11.594 122.329 11.732 122.065 11.852C121.813 11.972 121.573 12.104 121.345 12.248C121.129 12.392 120.943 12.56 120.787 12.752C120.643 12.944 120.565 13.19 120.553 13.49V14.246C120.529 14.45 120.571 14.654 120.679 14.858C120.787 15.05 120.925 15.146 121.093 15.146C121.105 15.158 121.153 15.14 121.237 15.092C121.321 15.044 121.411 14.99 121.507 14.93C121.615 14.858 121.717 14.786 121.813 14.714C121.921 14.642 121.999 14.588 122.047 14.552C122.227 14.468 122.365 14.402 122.461 14.354C122.569 14.294 122.647 14.276 122.695 14.3C122.779 14.3 122.851 14.312 122.911 14.336C122.971 14.36 123.001 14.45 123.001 14.606C122.977 14.87 122.863 15.128 122.659 15.38C122.455 15.62 122.233 15.848 121.993 16.064C121.753 16.268 121.519 16.448 121.291 16.604C121.063 16.76 120.913 16.874 120.841 16.946C120.637 17.126 120.445 17.222 120.265 17.234C120.097 17.246 119.923 17.252 119.743 17.252C119.635 17.24 119.521 17.192 119.401 17.108C119.293 17.024 119.191 16.928 119.095 16.82C119.011 16.7 118.945 16.58 118.897 16.46C118.849 16.34 118.831 16.238 118.843 16.154V15.848C118.843 15.764 118.819 15.674 118.771 15.578C118.747 15.53 118.723 15.488 118.699 15.452L118.753 15.092V14.804C118.753 14.756 118.765 14.63 118.789 14.426C118.813 14.21 118.843 13.982 118.879 13.742C118.915 13.49 118.945 13.256 118.969 13.04C119.005 12.812 119.029 12.662 119.041 12.59C119.089 12.554 119.113 12.518 119.113 12.482C119.113 12.446 119.107 12.41 119.095 12.374C119.083 12.338 119.077 12.296 119.077 12.248C119.077 12.188 119.101 12.122 119.149 12.05C119.149 11.906 119.179 11.756 119.239 11.6C119.275 11.516 119.311 11.432 119.347 11.348L119.599 10.754C119.623 10.49 119.749 10.22 119.977 9.944C120.205 9.656 120.469 9.398 120.769 9.17C121.081 8.942 121.399 8.762 121.723 8.63C122.047 8.486 122.323 8.426 122.551 8.45ZM121.741 9.8C121.681 9.8 121.621 9.848 121.561 9.944C121.501 10.028 121.441 10.124 121.381 10.232C121.321 10.364 121.261 10.502 121.201 10.646C121.189 10.706 121.171 10.778 121.147 10.862C121.123 10.934 121.105 11.006 121.093 11.078C121.081 11.138 121.087 11.192 121.111 11.24C121.135 11.276 121.183 11.294 121.255 11.294C121.315 11.306 121.405 11.294 121.525 11.258C121.645 11.222 121.765 11.168 121.885 11.096C122.017 11.024 122.131 10.94 122.227 10.844C122.335 10.736 122.395 10.622 122.407 10.502V10.196C122.407 10.136 122.389 10.082 122.353 10.034C122.317 9.986 122.275 9.95 122.227 9.926C122.179 9.89 122.119 9.86 122.047 9.836L121.741 9.8ZM131.815 8.648C131.995 8.648 132.103 8.714 132.139 8.846C132.187 8.966 132.199 9.116 132.175 9.296C132.163 9.464 132.139 9.638 132.103 9.818C132.067 9.998 132.055 10.142 132.067 10.25V10.754C132.067 10.79 132.073 10.856 132.085 10.952C132.097 11.036 132.127 11.114 132.175 11.186C132.223 11.246 132.289 11.282 132.373 11.294C132.469 11.306 132.601 11.258 132.769 11.15C132.829 11.102 132.919 11.006 133.039 10.862C133.159 10.706 133.285 10.538 133.417 10.358C133.561 10.166 133.705 9.968 133.849 9.764C134.005 9.548 134.149 9.356 134.281 9.188C134.413 9.02 134.533 8.882 134.641 8.774C134.749 8.654 134.827 8.594 134.875 8.594C135.055 8.594 135.211 8.642 135.343 8.738C135.487 8.822 135.607 8.93 135.703 9.062C135.811 9.194 135.889 9.332 135.937 9.476C135.997 9.608 136.027 9.716 136.027 9.8L135.919 10.25C135.919 10.286 135.913 10.352 135.901 10.448C135.889 10.544 135.889 10.634 135.901 10.718C135.925 10.79 135.961 10.838 136.009 10.862C136.057 10.886 136.147 10.85 136.279 10.754C136.351 10.694 136.477 10.556 136.657 10.34C136.837 10.124 137.035 9.902 137.251 9.674C137.467 9.446 137.689 9.242 137.917 9.062C138.145 8.882 138.349 8.792 138.529 8.792C138.769 8.792 138.943 8.87 139.051 9.026C139.171 9.17 139.231 9.326 139.231 9.494C139.231 9.53 139.219 9.602 139.195 9.71C139.171 9.806 139.141 9.914 139.105 10.034C139.069 10.142 139.039 10.25 139.015 10.358C138.991 10.466 138.979 10.544 138.979 10.592V10.952C138.979 11.132 138.925 11.39 138.817 11.726C138.709 12.05 138.589 12.398 138.457 12.77C138.337 13.142 138.223 13.502 138.115 13.85C138.019 14.198 137.971 14.48 137.971 14.696C137.971 14.756 137.965 14.834 137.953 14.93C137.941 15.014 137.941 15.092 137.953 15.164C137.965 15.224 138.001 15.26 138.061 15.272C138.121 15.284 138.223 15.242 138.367 15.146C138.427 15.11 138.523 15.044 138.655 14.948C138.787 14.852 138.919 14.774 139.051 14.714C139.183 14.642 139.297 14.612 139.393 14.624C139.489 14.624 139.531 14.714 139.519 14.894C139.303 15.158 139.099 15.398 138.907 15.614C138.739 15.806 138.571 15.998 138.403 16.19C138.235 16.37 138.109 16.508 138.025 16.604C137.845 16.736 137.701 16.862 137.593 16.982C137.485 17.102 137.383 17.21 137.287 17.306C137.203 17.414 137.107 17.498 136.999 17.558C136.891 17.618 136.747 17.648 136.567 17.648C136.435 17.648 136.327 17.606 136.243 17.522C136.159 17.45 136.087 17.366 136.027 17.27C135.967 17.174 135.925 17.078 135.901 16.982C135.877 16.874 135.865 16.796 135.865 16.748C135.865 16.412 135.907 16.094 135.991 15.794C136.087 15.482 136.195 15.188 136.315 14.912C136.435 14.636 136.549 14.366 136.657 14.102C136.765 13.826 136.837 13.556 136.873 13.292C136.873 13.244 136.879 13.184 136.891 13.112C136.903 13.04 136.921 12.968 136.945 12.896C136.969 12.812 136.993 12.728 137.017 12.644C137.017 12.56 137.011 12.446 136.999 12.302C136.987 12.158 136.957 12.026 136.909 11.906C136.873 11.774 136.819 11.672 136.747 11.6C136.675 11.516 136.585 11.498 136.477 11.546C136.237 11.63 136.027 11.834 135.847 12.158C135.667 12.47 135.499 12.842 135.343 13.274C135.187 13.694 135.043 14.144 134.911 14.624C134.779 15.092 134.647 15.524 134.515 15.92C134.383 16.316 134.245 16.646 134.101 16.91C133.969 17.174 133.825 17.306 133.669 17.306C133.585 17.306 133.483 17.288 133.363 17.252C133.255 17.216 133.147 17.168 133.039 17.108C132.931 17.06 132.841 17.006 132.769 16.946C132.697 16.886 132.661 16.838 132.661 16.802C132.649 16.502 132.685 16.208 132.769 15.92C132.853 15.632 132.943 15.362 133.039 15.11C133.147 14.858 133.243 14.63 133.327 14.426C133.423 14.21 133.471 14.018 133.471 13.85V13.706C133.471 13.478 133.555 13.16 133.723 12.752C133.771 12.596 133.831 12.446 133.903 12.302C133.975 12.158 133.999 12.038 133.975 11.942C133.975 11.798 133.909 11.684 133.777 11.6C133.645 11.504 133.543 11.486 133.471 11.546C133.267 11.606 133.081 11.732 132.913 11.924C132.745 12.104 132.595 12.302 132.463 12.518C132.343 12.722 132.235 12.92 132.139 13.112C132.055 13.292 131.995 13.418 131.959 13.49C131.791 13.742 131.665 13.988 131.581 14.228C131.497 14.468 131.407 14.69 131.311 14.894C131.311 14.918 131.281 15.056 131.221 15.308C131.161 15.56 131.071 15.83 130.951 16.118C130.831 16.406 130.675 16.67 130.483 16.91C130.303 17.138 130.081 17.252 129.817 17.252C129.745 17.252 129.673 17.222 129.601 17.162C129.541 17.114 129.487 17.054 129.439 16.982C129.403 16.898 129.373 16.82 129.349 16.748C129.325 16.664 129.313 16.598 129.313 16.55C129.313 16.478 129.283 16.394 129.223 16.298C129.175 16.19 129.187 16.058 129.259 15.902C129.307 15.806 129.391 15.578 129.511 15.218C129.631 14.858 129.751 14.468 129.871 14.048C130.003 13.616 130.111 13.202 130.195 12.806C130.291 12.41 130.333 12.122 130.321 11.942C130.321 11.87 130.345 11.798 130.393 11.726C130.441 11.654 130.465 11.576 130.465 11.492C130.465 11.324 130.447 11.192 130.411 11.096C130.387 11 130.291 10.952 130.123 10.952C130.051 10.952 129.979 10.976 129.907 11.024C129.847 11.072 129.781 11.132 129.709 11.204C129.637 11.264 129.553 11.318 129.457 11.366C129.373 11.414 129.259 11.438 129.115 11.438C129.031 11.438 128.953 11.414 128.881 11.366C128.845 11.342 128.821 11.318 128.809 11.294C128.809 11.126 128.857 10.97 128.953 10.826C129.061 10.67 129.181 10.592 129.313 10.592C129.469 10.424 129.631 10.262 129.799 10.106C129.967 9.938 130.141 9.818 130.321 9.746C130.357 9.71 130.435 9.632 130.555 9.512C130.687 9.392 130.831 9.272 130.987 9.152C131.143 9.02 131.299 8.906 131.455 8.81C131.611 8.702 131.731 8.648 131.815 8.648ZM145.425 8.288C145.677 8.288 145.857 8.36 145.965 8.504C146.073 8.648 146.127 8.846 146.127 9.098C146.127 9.146 146.109 9.254 146.073 9.422C146.037 9.578 145.989 9.758 145.929 9.962C145.881 10.154 145.827 10.352 145.767 10.556C145.707 10.76 145.659 10.922 145.623 11.042C145.623 11.138 145.617 11.24 145.605 11.348C145.593 11.444 145.551 11.576 145.479 11.744C145.383 11.816 145.335 11.936 145.335 12.104C145.335 12.26 145.335 12.374 145.335 12.446L145.281 13.4V14.102C145.281 14.138 145.281 14.204 145.281 14.3C145.293 14.384 145.305 14.474 145.317 14.57C145.341 14.654 145.377 14.732 145.425 14.804C145.473 14.864 145.539 14.894 145.623 14.894L145.875 14.498C145.947 14.438 146.031 14.366 146.127 14.282C146.223 14.186 146.319 14.096 146.415 14.012C146.523 13.916 146.631 13.814 146.739 13.706C146.811 13.706 146.871 13.736 146.919 13.796C146.967 13.856 146.991 13.922 146.991 13.994L146.919 14.138C146.871 14.234 146.823 14.306 146.775 14.354C146.691 14.594 146.583 14.804 146.451 14.984C146.319 15.152 146.175 15.32 146.019 15.488C145.863 15.644 145.701 15.806 145.533 15.974C145.377 16.142 145.227 16.334 145.083 16.55L144.687 17.108C144.687 17.216 144.651 17.324 144.579 17.432C144.519 17.552 144.441 17.642 144.345 17.702C144.261 17.774 144.165 17.804 144.057 17.792C143.961 17.792 143.883 17.726 143.823 17.594C143.751 17.378 143.715 17.168 143.715 16.964C143.715 16.748 143.733 16.544 143.769 16.352C143.805 16.148 143.841 15.956 143.877 15.776C143.913 15.596 143.931 15.422 143.931 15.254V14.606V14.246C143.931 14.186 143.889 14.144 143.805 14.12C143.757 14.108 143.715 14.102 143.679 14.102C143.643 14.102 143.553 14.21 143.409 14.426C143.265 14.63 143.097 14.87 142.905 15.146C142.725 15.41 142.539 15.68 142.347 15.956C142.155 16.232 141.999 16.43 141.879 16.55C141.843 16.598 141.783 16.67 141.699 16.766C141.627 16.85 141.543 16.934 141.447 17.018C141.363 17.102 141.267 17.174 141.159 17.234C141.051 17.306 140.955 17.342 140.871 17.342C140.703 17.342 140.565 17.282 140.457 17.162C140.349 17.042 140.265 16.904 140.205 16.748C140.145 16.58 140.097 16.418 140.061 16.262C140.037 16.094 140.025 15.974 140.025 15.902L139.971 14.606L140.223 12.5C140.223 12.464 140.241 12.38 140.277 12.248C140.313 12.116 140.361 11.972 140.421 11.816C140.481 11.66 140.547 11.51 140.619 11.366C140.703 11.21 140.787 11.084 140.871 10.988C141.219 10.664 141.555 10.268 141.879 9.8C142.035 9.584 142.185 9.428 142.329 9.332C142.473 9.236 142.617 9.164 142.761 9.116C142.905 9.056 143.049 9.014 143.193 8.99C143.337 8.954 143.499 8.888 143.679 8.792C143.751 8.792 143.841 8.756 143.949 8.684C144.069 8.6 144.177 8.522 144.273 8.45H144.777H145.083L145.425 8.288ZM143.121 10.286C142.905 10.466 142.701 10.676 142.509 10.916C142.317 11.144 142.149 11.378 142.005 11.618C141.861 11.858 141.747 12.086 141.663 12.302C141.579 12.506 141.537 12.668 141.537 12.788C141.537 12.848 141.531 12.962 141.519 13.13C141.507 13.286 141.513 13.454 141.537 13.634C141.561 13.802 141.603 13.958 141.663 14.102C141.735 14.234 141.855 14.3 142.023 14.3C142.179 14.3 142.359 14.162 142.563 13.886C142.779 13.61 142.977 13.298 143.157 12.95C143.349 12.602 143.505 12.278 143.625 11.978C143.757 11.678 143.823 11.498 143.823 11.438C143.823 11.39 143.829 11.276 143.841 11.096C143.853 10.904 143.841 10.724 143.805 10.556C143.781 10.376 143.715 10.25 143.607 10.178C143.511 10.094 143.349 10.13 143.121 10.286ZM149.634 8.648C149.766 8.648 149.868 8.69 149.94 8.774C150.012 8.858 150.078 8.948 150.138 9.044C150.174 9.128 150.186 9.242 150.174 9.386C150.162 9.53 150.138 9.674 150.102 9.818C150.078 9.962 150.048 10.1 150.012 10.232C149.988 10.364 149.976 10.454 149.976 10.502L150.03 10.79L150.228 11.15C150.276 11.15 150.366 11.084 150.498 10.952C150.642 10.808 150.804 10.634 150.984 10.43C151.176 10.226 151.374 10.01 151.578 9.782C151.782 9.542 151.98 9.32 152.172 9.116C152.364 8.912 152.538 8.744 152.694 8.612C152.85 8.468 152.964 8.396 153.036 8.396C153.132 8.396 153.21 8.456 153.27 8.576C153.342 8.696 153.408 8.822 153.468 8.954C153.528 9.11 153.582 9.29 153.63 9.494C153.642 9.662 153.63 9.896 153.594 10.196C153.558 10.496 153.498 10.826 153.414 11.186C153.342 11.534 153.258 11.894 153.162 12.266C153.078 12.626 152.994 12.962 152.91 13.274C152.838 13.574 152.772 13.826 152.712 14.03C152.664 14.234 152.64 14.342 152.64 14.354C152.64 14.402 152.634 14.462 152.622 14.534C152.61 14.594 152.604 14.654 152.604 14.714C152.604 14.762 152.616 14.804 152.64 14.84C152.676 14.876 152.742 14.894 152.838 14.894C152.91 14.846 152.982 14.798 153.054 14.75C153.114 14.702 153.18 14.654 153.252 14.606C153.324 14.558 153.402 14.504 153.486 14.444C153.69 14.312 153.876 14.192 154.044 14.084C154.224 13.964 154.338 13.904 154.386 13.904C154.458 13.904 154.536 13.946 154.62 14.03C154.704 14.102 154.746 14.174 154.746 14.246C154.746 14.27 154.704 14.336 154.62 14.444C154.548 14.552 154.458 14.666 154.35 14.786C154.242 14.906 154.134 15.014 154.026 15.11C153.918 15.206 153.84 15.254 153.792 15.254C153.792 15.35 153.756 15.44 153.684 15.524C153.624 15.608 153.558 15.65 153.486 15.65C153.294 15.854 153.132 16.052 153 16.244C152.868 16.436 152.736 16.616 152.604 16.784C152.472 16.94 152.328 17.066 152.172 17.162C152.016 17.258 151.818 17.306 151.578 17.306C151.494 17.306 151.404 17.276 151.308 17.216C151.224 17.156 151.146 17.084 151.074 17C151.002 16.904 150.942 16.808 150.894 16.712C150.858 16.604 150.84 16.514 150.84 16.442L150.786 15.794C150.858 15.47 150.948 15.122 151.056 14.75C151.176 14.378 151.284 14.03 151.38 13.706C151.476 13.43 151.554 13.166 151.614 12.914C151.674 12.662 151.716 12.422 151.74 12.194V11.996C151.692 11.66 151.572 11.492 151.38 11.492C151.092 11.492 150.864 11.558 150.696 11.69C150.528 11.81 150.39 11.972 150.282 12.176C150.174 12.368 150.078 12.578 149.994 12.806C149.922 13.034 149.838 13.25 149.742 13.454C149.682 13.526 149.64 13.598 149.616 13.67C149.604 13.73 149.61 13.808 149.634 13.904C149.61 14.048 149.58 14.192 149.544 14.336C149.52 14.48 149.484 14.618 149.436 14.75C149.304 15.134 149.178 15.518 149.058 15.902C148.938 16.274 148.83 16.622 148.734 16.946C148.794 17.042 148.782 17.096 148.698 17.108C148.626 17.132 148.554 17.144 148.482 17.144C148.41 17.144 148.308 17.138 148.176 17.126C148.044 17.126 147.912 17.108 147.78 17.072C147.66 17.036 147.546 16.982 147.438 16.91C147.342 16.838 147.288 16.736 147.276 16.604C147.252 16.4 147.276 16.19 147.348 15.974C147.42 15.746 147.498 15.536 147.582 15.344C147.678 15.152 147.768 14.984 147.852 14.84C147.936 14.696 147.978 14.6 147.978 14.552V14.246V13.904L147.888 13.598C147.888 13.526 147.912 13.436 147.96 13.328C148.008 13.208 148.056 13.094 148.104 12.986C148.164 12.866 148.218 12.758 148.266 12.662C148.314 12.566 148.338 12.494 148.338 12.446V12.194L148.284 11.492C148.284 11.42 148.272 11.348 148.248 11.276C148.236 11.192 148.182 11.15 148.086 11.15C148.014 11.15 147.93 11.168 147.834 11.204C147.75 11.24 147.66 11.282 147.564 11.33C147.48 11.366 147.396 11.402 147.312 11.438C147.24 11.474 147.18 11.492 147.132 11.492H146.988C146.904 11.444 146.88 11.354 146.916 11.222C146.964 11.078 146.988 10.97 146.988 10.898C147.288 10.478 147.576 10.112 147.852 9.8C148.14 9.476 148.482 9.188 148.878 8.936C148.962 8.888 149.076 8.828 149.22 8.756C149.364 8.684 149.502 8.648 149.634 8.648ZM160.296 8.288C160.548 8.288 160.728 8.36 160.836 8.504C160.944 8.648 160.998 8.846 160.998 9.098C160.998 9.146 160.98 9.254 160.944 9.422C160.908 9.578 160.86 9.758 160.8 9.962C160.752 10.154 160.698 10.352 160.638 10.556C160.578 10.76 160.53 10.922 160.494 11.042C160.494 11.138 160.488 11.24 160.476 11.348C160.464 11.444 160.422 11.576 160.35 11.744C160.254 11.816 160.206 11.936 160.206 12.104C160.206 12.26 160.206 12.374 160.206 12.446L160.152 13.4V14.102C160.152 14.138 160.152 14.204 160.152 14.3C160.164 14.384 160.176 14.474 160.188 14.57C160.212 14.654 160.248 14.732 160.296 14.804C160.344 14.864 160.41 14.894 160.494 14.894L160.746 14.498C160.818 14.438 160.902 14.366 160.998 14.282C161.094 14.186 161.19 14.096 161.286 14.012C161.394 13.916 161.502 13.814 161.61 13.706C161.682 13.706 161.742 13.736 161.79 13.796C161.838 13.856 161.862 13.922 161.862 13.994L161.79 14.138C161.742 14.234 161.694 14.306 161.646 14.354C161.562 14.594 161.454 14.804 161.322 14.984C161.19 15.152 161.046 15.32 160.89 15.488C160.734 15.644 160.572 15.806 160.404 15.974C160.248 16.142 160.098 16.334 159.954 16.55L159.558 17.108C159.558 17.216 159.522 17.324 159.45 17.432C159.39 17.552 159.312 17.642 159.216 17.702C159.132 17.774 159.036 17.804 158.928 17.792C158.832 17.792 158.754 17.726 158.694 17.594C158.622 17.378 158.586 17.168 158.586 16.964C158.586 16.748 158.604 16.544 158.64 16.352C158.676 16.148 158.712 15.956 158.748 15.776C158.784 15.596 158.802 15.422 158.802 15.254V14.606V14.246C158.802 14.186 158.76 14.144 158.676 14.12C158.628 14.108 158.586 14.102 158.55 14.102C158.514 14.102 158.424 14.21 158.28 14.426C158.136 14.63 157.968 14.87 157.776 15.146C157.596 15.41 157.41 15.68 157.218 15.956C157.026 16.232 156.87 16.43 156.75 16.55C156.714 16.598 156.654 16.67 156.57 16.766C156.498 16.85 156.414 16.934 156.318 17.018C156.234 17.102 156.138 17.174 156.03 17.234C155.922 17.306 155.826 17.342 155.742 17.342C155.574 17.342 155.436 17.282 155.328 17.162C155.22 17.042 155.136 16.904 155.076 16.748C155.016 16.58 154.968 16.418 154.932 16.262C154.908 16.094 154.896 15.974 154.896 15.902L154.842 14.606L155.094 12.5C155.094 12.464 155.112 12.38 155.148 12.248C155.184 12.116 155.232 11.972 155.292 11.816C155.352 11.66 155.418 11.51 155.49 11.366C155.574 11.21 155.658 11.084 155.742 10.988C156.09 10.664 156.426 10.268 156.75 9.8C156.906 9.584 157.056 9.428 157.2 9.332C157.344 9.236 157.488 9.164 157.632 9.116C157.776 9.056 157.92 9.014 158.064 8.99C158.208 8.954 158.37 8.888 158.55 8.792C158.622 8.792 158.712 8.756 158.82 8.684C158.94 8.6 159.048 8.522 159.144 8.45H159.648H159.954L160.296 8.288ZM157.992 10.286C157.776 10.466 157.572 10.676 157.38 10.916C157.188 11.144 157.02 11.378 156.876 11.618C156.732 11.858 156.618 12.086 156.534 12.302C156.45 12.506 156.408 12.668 156.408 12.788C156.408 12.848 156.402 12.962 156.39 13.13C156.378 13.286 156.384 13.454 156.408 13.634C156.432 13.802 156.474 13.958 156.534 14.102C156.606 14.234 156.726 14.3 156.894 14.3C157.05 14.3 157.23 14.162 157.434 13.886C157.65 13.61 157.848 13.298 158.028 12.95C158.22 12.602 158.376 12.278 158.496 11.978C158.628 11.678 158.694 11.498 158.694 11.438C158.694 11.39 158.7 11.276 158.712 11.096C158.724 10.904 158.712 10.724 158.676 10.556C158.652 10.376 158.586 10.25 158.478 10.178C158.382 10.094 158.22 10.13 157.992 10.286ZM164.902 8.594C165.118 8.594 165.298 8.648 165.442 8.756C165.598 8.864 165.724 8.996 165.82 9.152C165.928 9.308 166 9.476 166.036 9.656C166.084 9.824 166.108 9.968 166.108 10.088V10.25V10.754C166.108 10.886 166.072 11.126 166 11.474C165.928 11.81 165.844 12.164 165.748 12.536C165.664 12.896 165.586 13.238 165.514 13.562C165.442 13.874 165.406 14.072 165.406 14.156V14.498C165.406 14.57 165.358 14.684 165.262 14.84C165.178 14.984 165.082 15.17 164.974 15.398C164.878 15.614 164.782 15.872 164.686 16.172C164.602 16.472 164.56 16.814 164.56 17.198V17.702V18.206C164.656 18.374 164.716 18.554 164.74 18.746C164.776 18.938 164.884 19.154 165.064 19.394C165.16 19.574 165.22 19.778 165.244 20.006C165.28 20.234 165.334 20.432 165.406 20.6C165.442 20.816 165.466 20.984 165.478 21.104C165.502 21.224 165.52 21.332 165.532 21.428C165.544 21.524 165.55 21.62 165.55 21.716C165.55 21.812 165.55 21.944 165.55 22.112V22.796C165.514 22.976 165.448 23.126 165.352 23.246C165.256 23.378 165.148 23.498 165.028 23.606C164.92 23.714 164.806 23.81 164.686 23.894C164.566 23.99 164.47 24.08 164.398 24.164C164.23 24.332 164.038 24.488 163.822 24.632C163.618 24.776 163.48 24.848 163.408 24.848L162.904 25.01H162.562C162.454 25.01 162.304 25.034 162.112 25.082C161.92 25.13 161.782 25.154 161.698 25.154H160.654C160.486 25.154 160.336 25.118 160.204 25.046C160.072 24.974 159.952 24.884 159.844 24.776C159.736 24.68 159.64 24.572 159.556 24.452C159.46 24.344 159.376 24.248 159.304 24.164C159.232 24.128 159.154 24.062 159.07 23.966C158.986 23.882 158.908 23.786 158.836 23.678C158.764 23.582 158.71 23.48 158.674 23.372C158.626 23.264 158.602 23.174 158.602 23.102V22.598C158.602 22.394 158.632 22.22 158.692 22.076C158.74 21.932 158.812 21.758 158.908 21.554C158.956 21.398 159.064 21.206 159.232 20.978C159.4 20.762 159.526 20.57 159.61 20.402C159.658 20.342 159.724 20.288 159.808 20.24C159.892 20.204 159.976 20.162 160.06 20.114C160.144 20.066 160.228 20.012 160.312 19.952C160.396 19.904 160.462 19.838 160.51 19.754C160.678 19.658 160.816 19.568 160.924 19.484C161.032 19.4 161.176 19.322 161.356 19.25C161.44 19.25 161.524 19.22 161.608 19.16C161.704 19.112 161.794 19.046 161.878 18.962C161.962 18.89 162.04 18.812 162.112 18.728C162.196 18.656 162.274 18.596 162.346 18.548C162.454 18.476 162.538 18.422 162.598 18.386C162.67 18.362 162.706 18.302 162.706 18.206C162.802 18.122 162.916 18.038 163.048 17.954C163.192 17.882 163.312 17.798 163.408 17.702C163.468 17.486 163.522 17.276 163.57 17.072C163.618 16.904 163.66 16.736 163.696 16.568C163.732 16.388 163.75 16.25 163.75 16.154C163.75 15.998 163.678 15.908 163.534 15.884C163.39 15.86 163.228 15.848 163.048 15.848H162.904C162.856 15.848 162.772 15.812 162.652 15.74C162.544 15.668 162.43 15.584 162.31 15.488C162.19 15.38 162.082 15.284 161.986 15.2C161.902 15.104 161.86 15.038 161.86 15.002V14.642C161.86 14.402 161.83 14.222 161.77 14.102C161.722 13.97 161.698 13.82 161.698 13.652C161.698 13.4 161.758 13.088 161.878 12.716C162.01 12.332 162.154 11.954 162.31 11.582C162.478 11.21 162.634 10.868 162.778 10.556C162.922 10.244 163.012 10.022 163.048 9.89C163.132 9.818 163.234 9.764 163.354 9.728C163.486 9.68 163.552 9.566 163.552 9.386C163.732 9.242 163.936 9.074 164.164 8.882C164.404 8.69 164.65 8.594 164.902 8.594ZM164.164 11.042C164.032 11.042 163.918 11.114 163.822 11.258C163.738 11.39 163.66 11.546 163.588 11.726C163.528 11.906 163.48 12.08 163.444 12.248C163.42 12.416 163.408 12.53 163.408 12.59V13.4C163.468 13.592 163.522 13.76 163.57 13.904C163.618 14.036 163.672 14.15 163.732 14.246C163.792 14.342 163.852 14.39 163.912 14.39L164.164 14.156C164.26 13.82 164.35 13.508 164.434 13.22C164.494 12.98 164.554 12.746 164.614 12.518C164.674 12.278 164.704 12.122 164.704 12.05C164.704 11.99 164.698 11.906 164.686 11.798C164.686 11.678 164.668 11.564 164.632 11.456C164.596 11.348 164.542 11.252 164.47 11.168C164.398 11.084 164.296 11.042 164.164 11.042ZM163.048 19.394C162.88 19.394 162.724 19.442 162.58 19.538C162.436 19.646 162.28 19.784 162.112 19.952C162.112 20 162.04 20.084 161.896 20.204C161.764 20.336 161.614 20.498 161.446 20.69C161.29 20.894 161.146 21.134 161.014 21.41C160.87 21.686 160.798 21.998 160.798 22.346C160.798 22.478 160.882 22.598 161.05 22.706C161.206 22.814 161.386 22.91 161.59 22.994C161.794 23.078 161.992 23.144 162.184 23.192C162.388 23.24 162.526 23.264 162.598 23.264C162.718 23.264 162.85 23.216 162.994 23.12C163.15 23.036 163.288 22.922 163.408 22.778C163.54 22.634 163.648 22.478 163.732 22.31C163.816 22.142 163.858 21.974 163.858 21.806V21.104C163.858 21.056 163.846 20.936 163.822 20.744C163.81 20.564 163.774 20.372 163.714 20.168C163.654 19.976 163.57 19.796 163.462 19.628C163.366 19.472 163.228 19.394 163.048 19.394ZM170.469 8.45C170.721 8.45 170.931 8.498 171.099 8.594C171.279 8.678 171.423 8.798 171.531 8.954C171.639 9.11 171.717 9.29 171.765 9.494C171.813 9.698 171.831 9.914 171.819 10.142C171.819 10.466 171.699 10.73 171.459 10.934C171.219 11.126 170.973 11.294 170.721 11.438C170.493 11.594 170.247 11.732 169.983 11.852C169.731 11.972 169.491 12.104 169.263 12.248C169.047 12.392 168.861 12.56 168.705 12.752C168.561 12.944 168.483 13.19 168.471 13.49V14.246C168.447 14.45 168.489 14.654 168.597 14.858C168.705 15.05 168.843 15.146 169.011 15.146C169.023 15.158 169.071 15.14 169.155 15.092C169.239 15.044 169.329 14.99 169.425 14.93C169.533 14.858 169.635 14.786 169.731 14.714C169.839 14.642 169.917 14.588 169.965 14.552C170.145 14.468 170.283 14.402 170.379 14.354C170.487 14.294 170.565 14.276 170.613 14.3C170.697 14.3 170.769 14.312 170.829 14.336C170.889 14.36 170.919 14.45 170.919 14.606C170.895 14.87 170.781 15.128 170.577 15.38C170.373 15.62 170.151 15.848 169.911 16.064C169.671 16.268 169.437 16.448 169.209 16.604C168.981 16.76 168.831 16.874 168.759 16.946C168.555 17.126 168.363 17.222 168.183 17.234C168.015 17.246 167.841 17.252 167.661 17.252C167.553 17.24 167.439 17.192 167.319 17.108C167.211 17.024 167.109 16.928 167.013 16.82C166.929 16.7 166.863 16.58 166.815 16.46C166.767 16.34 166.749 16.238 166.761 16.154V15.848C166.761 15.764 166.737 15.674 166.689 15.578C166.665 15.53 166.641 15.488 166.617 15.452L166.671 15.092V14.804C166.671 14.756 166.683 14.63 166.707 14.426C166.731 14.21 166.761 13.982 166.797 13.742C166.833 13.49 166.863 13.256 166.887 13.04C166.923 12.812 166.947 12.662 166.959 12.59C167.007 12.554 167.031 12.518 167.031 12.482C167.031 12.446 167.025 12.41 167.013 12.374C167.001 12.338 166.995 12.296 166.995 12.248C166.995 12.188 167.019 12.122 167.067 12.05C167.067 11.906 167.097 11.756 167.157 11.6C167.193 11.516 167.229 11.432 167.265 11.348L167.517 10.754C167.541 10.49 167.667 10.22 167.895 9.944C168.123 9.656 168.387 9.398 168.687 9.17C168.999 8.942 169.317 8.762 169.641 8.63C169.965 8.486 170.241 8.426 170.469 8.45ZM169.659 9.8C169.599 9.8 169.539 9.848 169.479 9.944C169.419 10.028 169.359 10.124 169.299 10.232C169.239 10.364 169.179 10.502 169.119 10.646C169.107 10.706 169.089 10.778 169.065 10.862C169.041 10.934 169.023 11.006 169.011 11.078C168.999 11.138 169.005 11.192 169.029 11.24C169.053 11.276 169.101 11.294 169.173 11.294C169.233 11.306 169.323 11.294 169.443 11.258C169.563 11.222 169.683 11.168 169.803 11.096C169.935 11.024 170.049 10.94 170.145 10.844C170.253 10.736 170.313 10.622 170.325 10.502V10.196C170.325 10.136 170.307 10.082 170.271 10.034C170.235 9.986 170.193 9.95 170.145 9.926C170.097 9.89 170.037 9.86 169.965 9.836L169.659 9.8ZM174.631 8.342C174.763 8.318 174.847 8.336 174.883 8.396C174.931 8.456 175.033 8.522 175.189 8.594C175.321 8.666 175.435 8.75 175.531 8.846C175.627 8.942 175.675 9.056 175.675 9.188C175.663 9.248 175.651 9.314 175.639 9.386C175.615 9.542 175.627 9.692 175.675 9.836C175.675 9.944 175.651 10.076 175.603 10.232C175.567 10.376 175.561 10.496 175.585 10.592C175.609 10.64 175.645 10.688 175.693 10.736C175.729 10.772 175.765 10.808 175.801 10.844C175.849 10.868 175.891 10.868 175.927 10.844C176.047 10.82 176.173 10.706 176.305 10.502C176.449 10.298 176.587 10.07 176.719 9.818C176.851 9.566 176.983 9.32 177.115 9.08C177.247 8.84 177.367 8.678 177.475 8.594L178.033 8.45C178.105 8.426 178.183 8.42 178.267 8.432C178.363 8.444 178.435 8.45 178.483 8.45C178.711 8.582 178.855 8.768 178.915 9.008C178.975 9.236 179.017 9.416 179.041 9.548C179.053 9.716 178.993 9.938 178.861 10.214C178.741 10.49 178.585 10.718 178.393 10.898C178.309 10.946 178.231 10.988 178.159 11.024C178.087 11.048 178.015 11.072 177.943 11.096C177.883 11.096 177.835 11.096 177.799 11.096C177.775 11.084 177.739 11.066 177.691 11.042C177.631 11.018 177.571 11.006 177.511 11.006C177.463 10.994 177.403 10.988 177.331 10.988C177.175 10.988 177.025 11.048 176.881 11.168C176.749 11.288 176.617 11.414 176.485 11.546C176.281 11.798 176.119 12.086 175.999 12.41C175.891 12.722 175.837 13.016 175.837 13.292C175.753 13.376 175.651 13.484 175.531 13.616C175.423 13.736 175.339 13.88 175.279 14.048C175.207 14.216 175.171 14.39 175.171 14.57C175.183 14.75 175.153 14.924 175.081 15.092C175.093 15.236 175.093 15.404 175.081 15.596C175.069 15.776 175.045 15.968 175.009 16.172C174.985 16.376 174.949 16.574 174.901 16.766C174.853 16.946 174.799 17.108 174.739 17.252C174.655 17.312 174.553 17.366 174.433 17.414C174.313 17.462 174.187 17.498 174.055 17.522C173.911 17.558 173.755 17.582 173.587 17.594C173.527 17.594 173.449 17.546 173.353 17.45C173.305 17.402 173.263 17.354 173.227 17.306L172.975 16.802C172.963 16.718 172.975 16.574 173.011 16.37C173.047 16.166 173.089 15.962 173.137 15.758C173.185 15.542 173.227 15.35 173.263 15.182C173.311 15.014 173.335 14.918 173.335 14.894C173.599 14.498 173.773 14.084 173.857 13.652C173.941 13.208 174.031 12.77 174.127 12.338L173.983 11.15C173.923 10.994 173.845 10.916 173.749 10.916C173.665 10.916 173.575 10.928 173.479 10.952C173.287 10.988 173.149 11.042 173.065 11.114C172.981 11.174 172.909 11.24 172.849 11.312C172.789 11.384 172.723 11.456 172.651 11.528C172.579 11.588 172.453 11.63 172.273 11.654C172.177 11.654 172.117 11.594 172.093 11.474C172.069 11.354 172.045 11.246 172.021 11.15C171.997 11.042 172.015 10.94 172.075 10.844C172.135 10.736 172.213 10.64 172.309 10.556C172.417 10.46 172.537 10.37 172.669 10.286C172.801 10.19 172.921 10.094 173.029 9.998C173.173 9.842 173.299 9.674 173.407 9.494C173.515 9.302 173.623 9.128 173.731 8.972C173.839 8.804 173.959 8.666 174.091 8.558C174.235 8.438 174.415 8.366 174.631 8.342Z" fill="black"/>
</svg>
