<svg width="127" height="26" viewBox="0 0 127 26" fill="none" xmlns="http://www.w3.org/2000/svg">
<path d="M0.746 7.334C0.746 7.19 0.77 7.07 0.818 6.974C0.866 6.878 0.878 6.77 0.854 6.65C0.83 6.518 0.83 6.392 0.854 6.272C0.89 6.152 0.908 6.026 0.908 5.894C0.908 5.738 0.914 5.606 0.926 5.498C0.938 5.39 0.95 5.294 0.962 5.21C0.986 5.114 1.01 5.024 1.034 4.94C1.058 4.844 1.082 4.73 1.106 4.598C1.118 4.454 1.124 4.304 1.124 4.148C1.124 3.98 1.13 3.818 1.142 3.662C1.154 3.494 1.178 3.344 1.214 3.212C1.25 3.068 1.31 2.96 1.394 2.888L2.204 3.032C2.3 2.984 2.402 2.924 2.51 2.852C2.63 2.768 2.738 2.708 2.834 2.672C2.942 2.624 3.032 2.612 3.104 2.636C3.176 2.66 3.224 2.744 3.248 2.888C3.308 3.164 3.296 3.404 3.212 3.608C3.14 3.8 3.038 4.01 2.906 4.238C2.774 4.514 2.666 4.754 2.582 4.958C2.51 5.162 2.432 5.438 2.348 5.786C2.252 6.242 2.156 6.656 2.06 7.028C1.964 7.388 1.778 7.694 1.502 7.946C1.346 8.042 1.196 8.042 1.052 7.946C0.956 7.922 0.896 7.844 0.872 7.712C0.848 7.568 0.806 7.442 0.746 7.334ZM4.202 7.244C4.178 7.088 4.196 6.974 4.256 6.902C4.316 6.818 4.346 6.698 4.346 6.542C4.298 6.386 4.28 6.26 4.292 6.164C4.304 6.068 4.322 5.942 4.346 5.786C4.346 5.654 4.352 5.54 4.364 5.444C4.388 5.348 4.412 5.258 4.436 5.174C4.46 5.078 4.484 4.976 4.508 4.868C4.544 4.76 4.574 4.634 4.598 4.49C4.622 4.346 4.64 4.19 4.652 4.022C4.664 3.854 4.676 3.692 4.688 3.536C4.712 3.368 4.742 3.218 4.778 3.086C4.826 2.942 4.904 2.84 5.012 2.78L5.804 2.636C5.9 2.6 6.002 2.546 6.11 2.474C6.23 2.402 6.338 2.348 6.434 2.312C6.542 2.276 6.632 2.276 6.704 2.312C6.776 2.336 6.824 2.426 6.848 2.582C6.872 2.834 6.842 3.062 6.758 3.266C6.686 3.458 6.602 3.668 6.506 3.896C6.35 4.172 6.218 4.478 6.11 4.814C6.014 5.15 5.93 5.492 5.858 5.84C5.786 6.056 5.72 6.266 5.66 6.47C5.612 6.662 5.558 6.848 5.498 7.028C5.438 7.196 5.366 7.358 5.282 7.514C5.198 7.658 5.09 7.784 4.958 7.892C4.862 7.952 4.772 8.024 4.688 8.108C4.604 8.192 4.526 8.204 4.454 8.144C4.382 8.084 4.328 7.952 4.292 7.748C4.256 7.544 4.226 7.376 4.202 7.244ZM18.4615 6.488C18.4975 6.488 18.5335 6.536 18.5695 6.632C18.6175 6.716 18.6595 6.818 18.6955 6.938C18.7315 7.058 18.7615 7.178 18.7855 7.298C18.8095 7.418 18.8215 7.502 18.8215 7.55V8.846C18.8215 8.894 18.8155 8.984 18.8035 9.116C18.8035 9.248 18.7855 9.386 18.7495 9.53C18.7255 9.662 18.6775 9.782 18.6055 9.89C18.5335 9.998 18.4375 10.052 18.3175 10.052C18.1135 10.052 17.9635 10.01 17.8675 9.926C17.7835 9.83 17.7175 9.716 17.6695 9.584C17.6335 9.44 17.6035 9.29 17.5795 9.134C17.5555 8.966 17.5135 8.816 17.4535 8.684C17.3935 8.54 17.2975 8.426 17.1655 8.342C17.0455 8.246 16.8595 8.198 16.6075 8.198H15.6175C15.5575 8.198 15.4915 8.204 15.4195 8.216C15.3475 8.228 15.2815 8.246 15.2215 8.27C15.1495 8.294 15.0775 8.318 15.0055 8.342C14.7535 8.342 14.5555 8.426 14.4115 8.594C14.2795 8.75 14.2135 8.948 14.2135 9.188V10.052C14.2135 10.148 14.2075 10.238 14.1955 10.322C14.1955 10.394 14.2315 10.466 14.3035 10.538L14.2135 11.24V14.156C14.2135 14.396 14.2315 14.594 14.2675 14.75C14.3035 14.894 14.3515 15.014 14.4115 15.11C14.4715 15.206 14.5375 15.29 14.6095 15.362C14.6815 15.422 14.7475 15.482 14.8075 15.542C14.9875 15.602 15.1495 15.662 15.2935 15.722C15.4375 15.77 15.6115 15.794 15.8155 15.794C16.1755 15.854 16.4455 15.968 16.6255 16.136C16.8055 16.292 16.9015 16.46 16.9135 16.64C16.9255 16.808 16.8595 16.964 16.7155 17.108C16.5715 17.264 16.3555 17.36 16.0675 17.396C15.9595 17.396 15.8515 17.378 15.7435 17.342C15.6475 17.306 15.5515 17.276 15.4555 17.252C15.3475 17.24 15.2275 17.234 15.0955 17.234C14.9635 17.234 14.8255 17.228 14.6815 17.216C14.5495 17.216 14.4175 17.204 14.2855 17.18C14.1655 17.156 14.0575 17.114 13.9615 17.054H13.8535H12.2515C12.1795 17.054 12.0295 17.084 11.8015 17.144C11.5855 17.216 11.3395 17.252 11.0635 17.252C10.8715 17.252 10.6975 17.246 10.5415 17.234C10.4095 17.222 10.2715 17.21 10.1275 17.198C9.99552 17.198 9.90552 17.198 9.85752 17.198C9.79752 17.198 9.74952 17.222 9.71352 17.27C9.67752 17.318 9.55752 17.342 9.35352 17.342C9.32952 17.33 9.30552 17.306 9.28152 17.27C9.25752 17.246 9.23952 17.216 9.22752 17.18C9.21552 17.156 9.20952 17.114 9.20952 17.054C9.25752 16.922 9.31752 16.79 9.38952 16.658C9.44952 16.55 9.51552 16.436 9.58752 16.316C9.67152 16.196 9.76152 16.088 9.85752 15.992C10.0255 15.932 10.1815 15.878 10.3255 15.83C10.4455 15.782 10.5595 15.74 10.6675 15.704C10.7875 15.668 10.8655 15.65 10.9015 15.65L11.7655 15.452C11.8495 15.452 11.9155 15.398 11.9635 15.29C12.0115 15.17 12.0475 15.044 12.0715 14.912C12.0955 14.756 12.1075 14.57 12.1075 14.354V12.446C12.1075 12.398 12.1315 12.314 12.1795 12.194L12.2515 12.05V9.746C12.2515 9.65 12.2575 9.554 12.2695 9.458C12.2935 9.362 12.3055 9.272 12.3055 9.188C12.3055 9.152 12.2875 9.098 12.2515 9.026C12.2155 8.954 12.1675 8.882 12.1075 8.81C12.0475 8.738 11.9755 8.678 11.8915 8.63C11.8195 8.57 11.7415 8.54 11.6575 8.54H9.65952C9.40752 8.54 9.20952 8.588 9.06552 8.684C8.93352 8.768 8.83152 8.882 8.75952 9.026C8.68752 9.158 8.63352 9.308 8.59752 9.476C8.56152 9.632 8.51352 9.782 8.45352 9.926C8.40552 10.058 8.33352 10.172 8.23752 10.268C8.14152 10.352 7.99752 10.394 7.80552 10.394C7.62552 10.394 7.49352 10.328 7.40952 10.196C7.33752 10.052 7.30152 9.902 7.30152 9.746C7.30152 9.698 7.30752 9.626 7.31952 9.53C7.33152 9.422 7.34352 9.314 7.35552 9.206C7.37952 9.098 7.39752 8.996 7.40952 8.9C7.43352 8.804 7.44552 8.738 7.44552 8.702L7.66152 7.838C7.66152 7.802 7.66752 7.724 7.67952 7.604C7.70352 7.472 7.73352 7.334 7.76952 7.19C7.81752 7.046 7.87152 6.92 7.93152 6.812C7.99152 6.704 8.06352 6.65 8.14752 6.65C8.30352 6.65 8.42352 6.68 8.50752 6.74C8.60352 6.8 8.70552 6.866 8.81352 6.938C8.88552 6.998 8.95752 7.046 9.02952 7.082C9.11352 7.118 9.22152 7.136 9.35352 7.136C9.42552 7.136 9.53352 7.124 9.67752 7.1C9.82152 7.064 9.92952 7.046 10.0015 7.046H10.3615C10.3975 7.07 10.4395 7.088 10.4875 7.1C10.5355 7.1 10.5895 7.106 10.6495 7.118C10.7095 7.13 10.7755 7.136 10.8475 7.136H13.5655L14.0515 7.046L14.5555 7.136C14.8075 7.136 15.0655 7.124 15.3295 7.1C15.6055 7.064 15.8635 7.046 16.1035 7.046H16.9675C17.1835 7.046 17.3755 7.016 17.5435 6.956C17.7115 6.896 17.8555 6.836 17.9755 6.776C18.1075 6.704 18.2095 6.638 18.2815 6.578C18.3655 6.518 18.4255 6.488 18.4615 6.488ZM24.7698 0.745999C25.0218 0.745999 25.2318 0.811999 25.3998 0.944C25.5678 1.076 25.7058 1.232 25.8138 1.412C25.9218 1.592 25.9998 1.778 26.0478 1.97C26.0958 2.162 26.1198 2.318 26.1198 2.438C26.1198 2.534 26.0478 2.666 25.9038 2.834C25.7598 3.002 25.6038 3.17 25.4358 3.338C25.2318 3.542 25.0098 3.758 24.7698 3.986C24.6858 4.07 24.5958 4.118 24.4998 4.13C24.4038 4.142 24.3078 4.148 24.2118 4.148C24.0798 4.148 23.9598 4.16 23.8518 4.184C23.7558 4.196 23.6598 4.25 23.5638 4.346C23.3118 4.49 23.1138 4.67 22.9698 4.886C22.8258 5.102 22.7058 5.336 22.6098 5.588C22.6098 5.636 22.5918 5.72 22.5558 5.84C22.5318 5.96 22.4958 6.086 22.4478 6.218C22.4118 6.35 22.3758 6.476 22.3398 6.596C22.3158 6.716 22.3038 6.8 22.3038 6.848L22.1058 7.64C22.0938 7.676 22.0578 7.808 21.9978 8.036C21.9498 8.264 21.8958 8.522 21.8358 8.81C21.7758 9.098 21.7218 9.38 21.6738 9.656C21.6258 9.932 21.6018 10.13 21.6018 10.25C21.6018 10.298 21.6078 10.346 21.6198 10.394C21.6438 10.49 21.6918 10.538 21.7638 10.538C21.9078 10.538 22.0818 10.448 22.2858 10.268C22.4898 10.088 22.7178 9.914 22.9698 9.746C23.0418 9.674 23.1438 9.578 23.2758 9.458C23.4078 9.338 23.5458 9.224 23.6898 9.116C23.8338 8.996 23.9718 8.9 24.1038 8.828C24.2478 8.744 24.3678 8.702 24.4638 8.702H24.7698C24.9978 8.702 25.1718 8.804 25.2918 9.008C25.4118 9.212 25.4958 9.44 25.5438 9.692C25.6038 9.944 25.6398 10.184 25.6518 10.412C25.6638 10.628 25.6698 10.754 25.6698 10.79L25.6158 11.402C25.6158 11.474 25.6218 11.624 25.6338 11.852C25.6578 12.08 25.6698 12.278 25.6698 12.446C25.6698 12.482 25.6578 12.53 25.6338 12.59C25.6218 12.638 25.6038 12.692 25.5798 12.752C25.5558 12.812 25.5318 12.878 25.5078 12.95V13.292C25.5078 13.448 25.4898 13.556 25.4538 13.616C25.4298 13.664 25.4178 13.772 25.4178 13.94C25.3578 14.132 25.2918 14.27 25.2198 14.354C25.1358 14.426 25.0698 14.516 25.0218 14.624C24.9858 14.732 24.9318 14.822 24.8598 14.894C24.8118 15.074 24.7338 15.284 24.6258 15.524C24.5178 15.764 24.3798 15.974 24.2118 16.154C24.1278 16.238 24.0498 16.358 23.9778 16.514C23.9058 16.658 23.8278 16.808 23.7438 16.964C23.6718 17.108 23.5758 17.234 23.4558 17.342C23.3478 17.45 23.2158 17.504 23.0598 17.504H22.8618H22.2138C22.1778 17.504 22.1118 17.498 22.0158 17.486C21.9198 17.486 21.8238 17.468 21.7278 17.432C21.6318 17.408 21.5478 17.36 21.4758 17.288C21.4038 17.228 21.3678 17.132 21.3678 17C21.3678 16.916 21.3978 16.814 21.4578 16.694C21.5298 16.574 21.6018 16.46 21.6738 16.352C21.7578 16.232 21.8418 16.124 21.9258 16.028C22.0098 15.92 22.0698 15.842 22.1058 15.794C22.2858 15.65 22.4538 15.5 22.6098 15.344C22.7658 15.188 22.8858 15.074 22.9698 15.002C23.2098 14.822 23.3538 14.648 23.4018 14.48C23.4618 14.3 23.5338 14.12 23.6178 13.94C23.7858 13.616 23.9178 13.352 24.0138 13.148C24.1098 12.932 24.1578 12.698 24.1578 12.446V11.744C24.1578 11.696 24.1458 11.624 24.1218 11.528C24.0978 11.432 24.0558 11.342 23.9958 11.258C23.9358 11.162 23.8578 11.078 23.7618 11.006C23.6778 10.934 23.5758 10.898 23.4558 10.898C23.3838 10.898 23.3238 10.934 23.2758 11.006C23.2398 11.066 23.1378 11.144 22.9698 11.24C22.5378 11.564 22.1958 11.918 21.9438 12.302C21.6918 12.674 21.4638 13.07 21.2598 13.49C21.1878 13.742 21.1278 14.012 21.0798 14.3C21.0318 14.576 20.9838 14.858 20.9358 15.146C20.8878 15.422 20.8398 15.692 20.7918 15.956C20.7438 16.22 20.6838 16.466 20.6118 16.694C20.5158 16.85 20.3958 16.97 20.2518 17.054C20.1198 17.15 20.0058 17.198 19.9098 17.198C19.7298 17.198 19.5918 17.15 19.4958 17.054C19.4118 16.958 19.3458 16.844 19.2978 16.712C19.2498 16.58 19.2198 16.448 19.2078 16.316C19.2078 16.172 19.2078 16.064 19.2078 15.992V14.3C19.2078 14.252 19.2438 14.09 19.3158 13.814C19.3878 13.538 19.4658 13.232 19.5498 12.896C19.6458 12.548 19.7298 12.212 19.8018 11.888C19.8738 11.564 19.9098 11.318 19.9098 11.15C19.9458 11.054 19.9698 10.964 19.9818 10.88C20.0058 10.796 20.0298 10.718 20.0538 10.646C20.0778 10.562 20.0958 10.478 20.1078 10.394V9.89C20.1078 9.842 20.1078 9.806 20.1078 9.782C20.1198 9.746 20.1558 9.716 20.2158 9.692C20.2158 9.668 20.2218 9.644 20.2338 9.62C20.2458 9.596 20.2518 9.572 20.2518 9.548V9.188C20.2518 9.152 20.2698 9.074 20.3058 8.954C20.3418 8.822 20.3838 8.678 20.4318 8.522C20.4798 8.366 20.5218 8.21 20.5578 8.054C20.5938 7.898 20.6118 7.778 20.6118 7.694V6.596C20.6118 6.248 20.6538 5.936 20.7378 5.66C20.8338 5.384 20.9058 5.162 20.9538 4.994L21.0078 4.49C21.0198 4.406 21.0618 4.28 21.1338 4.112C21.2178 3.932 21.3078 3.752 21.4038 3.572C21.4998 3.392 21.5958 3.224 21.6918 3.068C21.7878 2.912 21.8598 2.816 21.9078 2.78C21.9798 2.744 22.0278 2.678 22.0518 2.582C22.0878 2.486 22.1178 2.384 22.1418 2.276C22.1778 2.168 22.2198 2.066 22.2678 1.97C22.3278 1.862 22.4238 1.784 22.5558 1.736C22.5798 1.736 22.6158 1.736 22.6638 1.736C22.7118 1.724 22.7598 1.706 22.8078 1.682C22.8318 1.658 22.8678 1.646 22.9158 1.646C22.9638 1.646 23.0118 1.646 23.0598 1.646C23.1558 1.55 23.2938 1.448 23.4738 1.34C23.6658 1.232 23.8578 1.13 24.0498 1.034C24.2658 0.926 24.5058 0.829999 24.7698 0.745999ZM29.8638 8.45C30.1158 8.45 30.3258 8.498 30.4938 8.594C30.6738 8.678 30.8178 8.798 30.9258 8.954C31.0338 9.11 31.1118 9.29 31.1598 9.494C31.2078 9.698 31.2258 9.914 31.2138 10.142C31.2138 10.466 31.0938 10.73 30.8538 10.934C30.6138 11.126 30.3678 11.294 30.1158 11.438C29.8878 11.594 29.6418 11.732 29.3778 11.852C29.1258 11.972 28.8858 12.104 28.6578 12.248C28.4418 12.392 28.2558 12.56 28.0998 12.752C27.9558 12.944 27.8778 13.19 27.8658 13.49V14.246C27.8418 14.45 27.8838 14.654 27.9918 14.858C28.0998 15.05 28.2378 15.146 28.4058 15.146C28.4178 15.158 28.4658 15.14 28.5498 15.092C28.6338 15.044 28.7238 14.99 28.8198 14.93C28.9278 14.858 29.0298 14.786 29.1258 14.714C29.2338 14.642 29.3118 14.588 29.3598 14.552C29.5398 14.468 29.6778 14.402 29.7738 14.354C29.8818 14.294 29.9598 14.276 30.0078 14.3C30.0918 14.3 30.1638 14.312 30.2238 14.336C30.2838 14.36 30.3138 14.45 30.3138 14.606C30.2898 14.87 30.1758 15.128 29.9718 15.38C29.7678 15.62 29.5458 15.848 29.3058 16.064C29.0658 16.268 28.8318 16.448 28.6038 16.604C28.3758 16.76 28.2258 16.874 28.1538 16.946C27.9498 17.126 27.7578 17.222 27.5778 17.234C27.4098 17.246 27.2358 17.252 27.0558 17.252C26.9478 17.24 26.8338 17.192 26.7138 17.108C26.6058 17.024 26.5038 16.928 26.4078 16.82C26.3238 16.7 26.2578 16.58 26.2098 16.46C26.1618 16.34 26.1438 16.238 26.1558 16.154V15.848C26.1558 15.764 26.1318 15.674 26.0838 15.578C26.0598 15.53 26.0358 15.488 26.0118 15.452L26.0658 15.092V14.804C26.0658 14.756 26.0778 14.63 26.1018 14.426C26.1258 14.21 26.1558 13.982 26.1918 13.742C26.2278 13.49 26.2578 13.256 26.2818 13.04C26.3178 12.812 26.3418 12.662 26.3538 12.59C26.4018 12.554 26.4258 12.518 26.4258 12.482C26.4258 12.446 26.4198 12.41 26.4078 12.374C26.3958 12.338 26.3898 12.296 26.3898 12.248C26.3898 12.188 26.4138 12.122 26.4618 12.05C26.4618 11.906 26.4918 11.756 26.5518 11.6C26.5878 11.516 26.6238 11.432 26.6598 11.348L26.9118 10.754C26.9358 10.49 27.0618 10.22 27.2898 9.944C27.5178 9.656 27.7818 9.398 28.0818 9.17C28.3938 8.942 28.7118 8.762 29.0358 8.63C29.3598 8.486 29.6358 8.426 29.8638 8.45ZM29.0538 9.8C28.9938 9.8 28.9338 9.848 28.8738 9.944C28.8138 10.028 28.7538 10.124 28.6938 10.232C28.6338 10.364 28.5738 10.502 28.5138 10.646C28.5018 10.706 28.4838 10.778 28.4598 10.862C28.4358 10.934 28.4178 11.006 28.4058 11.078C28.3938 11.138 28.3998 11.192 28.4238 11.24C28.4478 11.276 28.4958 11.294 28.5678 11.294C28.6278 11.306 28.7178 11.294 28.8378 11.258C28.9578 11.222 29.0778 11.168 29.1978 11.096C29.3298 11.024 29.4438 10.94 29.5398 10.844C29.6478 10.736 29.7078 10.622 29.7198 10.502V10.196C29.7198 10.136 29.7018 10.082 29.6658 10.034C29.6298 9.986 29.5878 9.95 29.5398 9.926C29.4918 9.89 29.4318 9.86 29.3598 9.836L29.0538 9.8ZM38.885 8.846C39.125 8.846 39.299 8.918 39.407 9.062C39.527 9.206 39.587 9.368 39.587 9.548L39.371 10.754V11.042C39.371 11.174 39.359 11.312 39.335 11.456C39.311 11.588 39.263 11.714 39.191 11.834C39.119 11.954 39.017 12.056 38.885 12.14C38.765 12.212 38.597 12.248 38.381 12.248C38.285 12.248 38.225 12.284 38.201 12.356C38.189 12.392 38.183 12.422 38.183 12.446C38.015 12.614 37.889 12.782 37.805 12.95C37.733 13.106 37.667 13.268 37.607 13.436C37.559 13.592 37.505 13.748 37.445 13.904C37.397 14.06 37.325 14.21 37.229 14.354C37.157 14.426 37.085 14.51 37.013 14.606C36.953 14.69 36.923 14.822 36.923 15.002C36.851 15.122 36.791 15.236 36.743 15.344C36.683 15.44 36.629 15.53 36.581 15.614C36.533 15.698 36.497 15.758 36.473 15.794C36.425 15.938 36.377 16.052 36.329 16.136C36.281 16.208 36.227 16.286 36.167 16.37C36.119 16.454 36.065 16.544 36.005 16.64C35.945 16.736 35.885 16.874 35.825 17.054C35.777 17.186 35.729 17.288 35.681 17.36C35.645 17.432 35.609 17.498 35.573 17.558C35.549 17.618 35.525 17.678 35.501 17.738C35.477 17.798 35.453 17.87 35.429 17.954L35.285 18.35C35.225 18.446 35.183 18.518 35.159 18.566C35.135 18.626 35.057 18.722 34.925 18.854C34.793 19.022 34.673 19.178 34.565 19.322C34.469 19.466 34.421 19.574 34.421 19.646C34.229 20.126 33.881 20.648 33.377 21.212C33.149 21.512 32.939 21.794 32.747 22.058C32.567 22.322 32.393 22.502 32.225 22.598C31.385 23.102 30.719 23.624 30.227 24.164C30.143 24.188 30.023 24.242 29.867 24.326C29.699 24.41 29.531 24.5 29.363 24.596C29.159 24.704 28.943 24.824 28.715 24.956H28.517C28.445 24.956 28.337 24.986 28.193 25.046C28.049 25.118 27.941 25.154 27.869 25.154H27.329C27.269 25.154 27.167 25.118 27.023 25.046C26.867 24.986 26.747 24.956 26.663 24.956C26.627 24.956 26.573 24.968 26.501 24.992C26.417 25.016 26.333 25.04 26.249 25.064C26.153 25.1 26.057 25.13 25.961 25.154C25.817 25.154 25.691 25.106 25.583 25.01C25.463 24.926 25.325 24.806 25.169 24.65C25.073 24.65 24.953 24.608 24.809 24.524C24.653 24.44 24.539 24.35 24.467 24.254C24.467 24.23 24.461 24.176 24.449 24.092C24.425 24.008 24.407 23.912 24.395 23.804C24.371 23.696 24.353 23.588 24.341 23.48C24.329 23.384 24.323 23.312 24.323 23.264C24.323 23.096 24.377 22.934 24.485 22.778C24.593 22.622 24.725 22.478 24.881 22.346C25.037 22.226 25.199 22.13 25.367 22.058C25.535 21.986 25.685 21.95 25.817 21.95C25.949 21.95 26.099 21.986 26.267 22.058C26.423 22.13 26.591 22.214 26.771 22.31C26.999 22.406 27.209 22.502 27.401 22.598C27.581 22.706 27.737 22.76 27.869 22.76L28.463 22.85C28.583 22.766 28.721 22.712 28.877 22.688C29.021 22.664 29.171 22.64 29.327 22.616C29.471 22.592 29.615 22.556 29.759 22.508C29.903 22.472 30.041 22.388 30.173 22.256C30.425 22.184 30.677 22.058 30.929 21.878C31.181 21.71 31.427 21.5 31.667 21.248C31.751 21.176 31.853 21.056 31.973 20.888C32.093 20.732 32.195 20.57 32.279 20.402C32.447 20.234 32.609 20.036 32.765 19.808C32.933 19.58 33.053 19.376 33.125 19.196C33.245 19.076 33.365 18.926 33.485 18.746C33.617 18.566 33.725 18.374 33.809 18.17C33.905 17.978 33.983 17.78 34.043 17.576C34.103 17.372 34.133 17.18 34.133 17V16.694V16.298C34.157 16.178 34.181 16.064 34.205 15.956C34.229 15.86 34.247 15.77 34.259 15.686C34.271 15.59 34.277 15.512 34.277 15.452C34.277 15.368 34.253 15.308 34.205 15.272C34.157 15.224 34.133 15.116 34.133 14.948V14.804C34.097 14.768 34.067 14.726 34.043 14.678C33.995 14.582 33.971 14.504 33.971 14.444V14.3C33.971 14.084 33.929 13.856 33.845 13.616C33.761 13.364 33.653 13.124 33.521 12.896C33.389 12.656 33.227 12.44 33.035 12.248C32.855 12.044 32.669 11.876 32.477 11.744C32.381 11.648 32.315 11.624 32.279 11.672C32.255 11.72 32.201 11.744 32.117 11.744H31.973H31.577L31.271 11.888C31.175 11.888 31.061 11.852 30.929 11.78C30.797 11.696 30.731 11.57 30.731 11.402C30.731 11.366 30.803 11.258 30.947 11.078C31.091 10.898 31.253 10.706 31.433 10.502C31.625 10.286 31.805 10.088 31.973 9.908C32.141 9.716 32.243 9.596 32.279 9.548C32.375 9.452 32.495 9.368 32.639 9.296C32.795 9.224 32.957 9.188 33.125 9.188C33.377 9.188 33.563 9.272 33.683 9.44C33.803 9.596 33.953 9.8 34.133 10.052C34.301 10.4 34.439 10.706 34.547 10.97C34.655 11.234 34.751 11.492 34.835 11.744C34.871 11.948 34.913 12.122 34.961 12.266C35.009 12.398 35.051 12.524 35.087 12.644C35.135 12.764 35.165 12.884 35.177 13.004C35.201 13.124 35.201 13.274 35.177 13.454C35.153 13.538 35.153 13.634 35.177 13.742C35.213 13.85 35.255 13.952 35.303 14.048C35.363 14.144 35.429 14.228 35.501 14.3C35.573 14.36 35.633 14.39 35.681 14.39C35.753 14.39 35.825 14.312 35.897 14.156C35.981 14 36.059 13.826 36.131 13.634C36.203 13.43 36.269 13.232 36.329 13.04C36.389 12.836 36.437 12.686 36.473 12.59C36.569 12.458 36.653 12.338 36.725 12.23C36.797 12.11 36.869 12.002 36.941 11.906C37.013 11.798 37.091 11.696 37.175 11.6C37.271 11.492 37.391 11.372 37.535 11.24C37.631 11.108 37.697 10.964 37.733 10.808C37.781 10.652 37.829 10.496 37.877 10.34C37.901 10.196 37.937 10.052 37.985 9.908C38.033 9.764 38.099 9.644 38.183 9.548C38.279 9.368 38.375 9.206 38.471 9.062C38.567 8.918 38.705 8.846 38.885 8.846ZM48.3289 5.75C48.4369 5.75 48.5389 5.756 48.6349 5.768C48.7429 5.768 48.8389 5.786 48.9229 5.822C49.0189 5.846 49.0909 5.894 49.1389 5.966C49.1989 6.026 49.2289 6.116 49.2289 6.236C49.2289 6.308 49.1449 6.446 48.9769 6.65C48.8089 6.842 48.6229 7.058 48.4189 7.298C48.2269 7.526 48.0469 7.754 47.8789 7.982C47.7109 8.198 47.6269 8.366 47.6269 8.486C47.6269 8.582 47.6509 8.654 47.6989 8.702C47.7589 8.75 47.8249 8.786 47.8969 8.81C47.9689 8.822 48.0409 8.834 48.1129 8.846C48.1969 8.846 48.2569 8.846 48.2929 8.846H48.8869C48.9109 8.822 48.9469 8.792 48.9949 8.756C49.0909 8.684 49.1689 8.648 49.2289 8.648C49.4089 8.648 49.5349 8.72 49.6069 8.864C49.6909 9.008 49.7329 9.17 49.7329 9.35V9.494V9.836C49.7329 9.968 49.6609 10.07 49.5169 10.142C49.3729 10.214 49.2109 10.268 49.0309 10.304C48.8629 10.34 48.6949 10.364 48.5269 10.376C48.3709 10.388 48.2749 10.394 48.2389 10.394C48.0589 10.394 47.9569 10.388 47.9329 10.376C47.9089 10.352 47.8609 10.34 47.7889 10.34H47.4289C47.3569 10.34 47.2549 10.376 47.1229 10.448C46.9909 10.52 46.9249 10.604 46.9249 10.7C46.9249 10.832 46.9189 10.952 46.9069 11.06C46.8949 11.156 46.8829 11.24 46.8709 11.312C46.8589 11.396 46.8469 11.474 46.8349 11.546C46.7989 11.618 46.7629 11.684 46.7269 11.744C46.6669 11.864 46.6369 11.966 46.6369 12.05V12.248C46.6369 12.452 46.6069 12.674 46.5469 12.914C46.4869 13.154 46.4329 13.298 46.3849 13.346C46.3249 13.406 46.2769 13.466 46.2409 13.526C46.2049 13.574 46.1869 13.712 46.1869 13.94V14.3C46.1869 14.372 46.1989 14.462 46.2229 14.57C46.2469 14.666 46.2889 14.756 46.3489 14.84C46.4089 14.924 46.4809 14.996 46.5649 15.056C46.6489 15.116 46.7569 15.146 46.8889 15.146C47.0449 15.146 47.1769 15.104 47.2849 15.02C47.3329 14.984 47.3809 14.942 47.4289 14.894C47.5249 14.894 47.5969 14.924 47.6449 14.984C47.7049 15.032 47.7589 15.086 47.8069 15.146C47.8549 15.218 47.8969 15.302 47.9329 15.398C47.9329 15.494 47.8909 15.62 47.8069 15.776C47.7349 15.932 47.6449 16.088 47.5369 16.244C47.4289 16.388 47.3149 16.52 47.1949 16.64C47.0749 16.748 46.9729 16.802 46.8889 16.802C46.8049 16.802 46.7209 16.868 46.6369 17C46.5649 17.144 46.5289 17.246 46.5289 17.306C46.4929 17.306 46.4269 17.318 46.3309 17.342C46.2349 17.366 46.1389 17.39 46.0429 17.414C45.9229 17.45 45.8029 17.48 45.6829 17.504C45.5269 17.504 45.4009 17.492 45.3049 17.468C45.2209 17.456 45.1789 17.402 45.1789 17.306C45.1429 17.282 45.0889 17.192 45.0169 17.036C44.9449 16.892 44.8729 16.73 44.8009 16.55C44.7289 16.37 44.6629 16.196 44.6029 16.028C44.5549 15.848 44.5309 15.722 44.5309 15.65V14.804C44.5309 14.756 44.5429 14.648 44.5669 14.48C44.6029 14.3 44.6389 14.108 44.6749 13.904C44.7229 13.688 44.7589 13.478 44.7829 13.274C44.8189 13.058 44.8369 12.884 44.8369 12.752V12.446C44.9329 12.17 45.0229 11.924 45.1069 11.708C45.1669 11.516 45.2269 11.342 45.2869 11.186C45.3469 11.018 45.3769 10.922 45.3769 10.898V10.34C45.3769 10.184 45.3289 10.088 45.2329 10.052C45.1609 9.992 45.0829 9.932 44.9989 9.872C44.9149 9.812 44.8729 9.734 44.8729 9.638C44.8729 9.566 44.8969 9.494 44.9449 9.422C45.0049 9.338 45.0709 9.254 45.1429 9.17C45.2269 9.086 45.3049 9.002 45.3769 8.918C45.4609 8.822 45.5269 8.732 45.5749 8.648C45.6589 8.468 45.7369 8.36 45.8089 8.324C45.8929 8.276 45.9829 8.216 46.0789 8.144C46.2349 7.964 46.4029 7.814 46.5829 7.694C46.7629 7.574 46.9309 7.388 47.0869 7.136C47.1829 6.968 47.2549 6.8 47.3029 6.632C47.3509 6.464 47.4589 6.332 47.6269 6.236C47.7829 6.188 47.9209 6.098 48.0409 5.966C48.1609 5.822 48.2569 5.75 48.3289 5.75ZM52.0909 8.45C52.2589 8.45 52.4629 8.456 52.7029 8.468C52.9549 8.48 53.1649 8.522 53.3329 8.594C53.5129 8.594 53.6269 8.666 53.6749 8.81C53.7349 8.954 53.8069 9.116 53.8909 9.296C53.9389 9.344 53.9929 9.41 54.0529 9.494C54.1249 9.578 54.1849 9.668 54.2329 9.764C54.2929 9.848 54.3409 9.938 54.3769 10.034C54.4129 10.13 54.4309 10.214 54.4309 10.286L54.2869 11.888C54.2869 12.224 54.2149 12.596 54.0709 13.004C53.9269 13.412 53.7169 13.778 53.4409 14.102C53.3449 14.198 53.2729 14.306 53.2249 14.426C53.1889 14.534 53.1469 14.648 53.0989 14.768C53.0629 14.888 53.0149 15.014 52.9549 15.146C52.9069 15.266 52.8349 15.386 52.7389 15.506C52.6669 15.59 52.5829 15.692 52.4869 15.812C52.4029 15.932 52.3069 16.058 52.1989 16.19C52.1029 16.31 51.9949 16.424 51.8749 16.532C51.7669 16.628 51.6529 16.7 51.5329 16.748C51.3529 16.844 51.2029 16.928 51.0829 17C50.9629 17.072 50.8549 17.132 50.7589 17.18C50.6629 17.228 50.5609 17.258 50.4529 17.27C50.3569 17.294 50.2489 17.306 50.1289 17.306C49.9489 17.306 49.7809 17.264 49.6249 17.18C49.4689 17.096 49.3309 16.988 49.2109 16.856C49.1029 16.712 49.0129 16.556 48.9409 16.388C48.8689 16.208 48.8329 16.028 48.8329 15.848V14.642C48.8329 14.57 48.8089 14.504 48.7609 14.444C48.7129 14.384 48.6889 14.216 48.6889 13.94C48.6769 13.592 48.7609 13.172 48.9409 12.68C49.1209 12.188 49.3309 11.708 49.5709 11.24C49.8229 10.76 50.0689 10.34 50.3089 9.98C50.5609 9.608 50.7529 9.38 50.8849 9.296C51.0169 9.212 51.1249 9.122 51.2089 9.026C51.3049 8.918 51.3949 8.822 51.4789 8.738C51.5629 8.654 51.6469 8.588 51.7309 8.54C51.8269 8.48 51.9469 8.45 52.0909 8.45ZM52.1809 10.502C51.9889 10.502 51.7909 10.586 51.5869 10.754C51.3949 10.91 51.2149 11.096 51.0469 11.312C50.8789 11.516 50.7289 11.726 50.5969 11.942C50.4649 12.146 50.3749 12.296 50.3269 12.392L50.1469 13.076C50.0989 13.244 50.0569 13.406 50.0209 13.562C49.9969 13.718 49.9849 13.814 49.9849 13.85V14.192C50.0329 14.228 50.0749 14.3 50.1109 14.408C50.1469 14.516 50.1889 14.624 50.2369 14.732C50.2969 14.84 50.3629 14.936 50.4349 15.02C50.5069 15.104 50.6089 15.146 50.7409 15.146C50.9809 15.038 51.2029 14.93 51.4069 14.822C51.5749 14.726 51.7369 14.624 51.8929 14.516C52.0609 14.408 52.1749 14.3 52.2349 14.192C52.3069 14.024 52.3849 13.826 52.4689 13.598C52.5649 13.37 52.6549 13.154 52.7389 12.95C52.7149 12.854 52.7389 12.758 52.8109 12.662C52.8949 12.566 52.9369 12.476 52.9369 12.392V11.888C52.9369 11.828 52.9189 11.726 52.8829 11.582C52.8589 11.426 52.8109 11.27 52.7389 11.114C52.6789 10.946 52.6009 10.802 52.5049 10.682C52.4089 10.562 52.3009 10.502 52.1809 10.502ZM57.9971 8.45C58.1651 8.45 58.3691 8.456 58.6091 8.468C58.8611 8.48 59.0711 8.522 59.2391 8.594C59.4191 8.594 59.5331 8.666 59.5811 8.81C59.6411 8.954 59.7131 9.116 59.7971 9.296C59.8451 9.344 59.8991 9.41 59.9591 9.494C60.0311 9.578 60.0911 9.668 60.1391 9.764C60.1991 9.848 60.2471 9.938 60.2831 10.034C60.3191 10.13 60.3371 10.214 60.3371 10.286L60.1931 11.888C60.1931 12.224 60.1211 12.596 59.9771 13.004C59.8331 13.412 59.6231 13.778 59.3471 14.102C59.2511 14.198 59.1791 14.306 59.1311 14.426C59.0951 14.534 59.0531 14.648 59.0051 14.768C58.9691 14.888 58.9211 15.014 58.8611 15.146C58.8131 15.266 58.7411 15.386 58.6451 15.506C58.5731 15.59 58.4891 15.692 58.3931 15.812C58.3091 15.932 58.2131 16.058 58.1051 16.19C58.0091 16.31 57.9011 16.424 57.7811 16.532C57.6731 16.628 57.5591 16.7 57.4391 16.748C57.2591 16.844 57.1091 16.928 56.9891 17C56.8691 17.072 56.7611 17.132 56.6651 17.18C56.5691 17.228 56.4671 17.258 56.3591 17.27C56.2631 17.294 56.1551 17.306 56.0351 17.306C55.8551 17.306 55.6871 17.264 55.5311 17.18C55.3751 17.096 55.2371 16.988 55.1171 16.856C55.0091 16.712 54.9191 16.556 54.8471 16.388C54.7751 16.208 54.7391 16.028 54.7391 15.848V14.642C54.7391 14.57 54.7151 14.504 54.6671 14.444C54.6191 14.384 54.5951 14.216 54.5951 13.94C54.5831 13.592 54.6671 13.172 54.8471 12.68C55.0271 12.188 55.2371 11.708 55.4771 11.24C55.7291 10.76 55.9751 10.34 56.2151 9.98C56.4671 9.608 56.6591 9.38 56.7911 9.296C56.9231 9.212 57.0311 9.122 57.1151 9.026C57.2111 8.918 57.3011 8.822 57.3851 8.738C57.4691 8.654 57.5531 8.588 57.6371 8.54C57.7331 8.48 57.8531 8.45 57.9971 8.45ZM58.0871 10.502C57.8951 10.502 57.6971 10.586 57.4931 10.754C57.3011 10.91 57.1211 11.096 56.9531 11.312C56.7851 11.516 56.6351 11.726 56.5031 11.942C56.3711 12.146 56.2811 12.296 56.2331 12.392L56.0531 13.076C56.0051 13.244 55.9631 13.406 55.9271 13.562C55.9031 13.718 55.8911 13.814 55.8911 13.85V14.192C55.9391 14.228 55.9811 14.3 56.0171 14.408C56.0531 14.516 56.0951 14.624 56.1431 14.732C56.2031 14.84 56.2691 14.936 56.3411 15.02C56.4131 15.104 56.5151 15.146 56.6471 15.146C56.8871 15.038 57.1091 14.93 57.3131 14.822C57.4811 14.726 57.6431 14.624 57.7991 14.516C57.9671 14.408 58.0811 14.3 58.1411 14.192C58.2131 14.024 58.2911 13.826 58.3751 13.598C58.4711 13.37 58.5611 13.154 58.6451 12.95C58.6211 12.854 58.6451 12.758 58.7171 12.662C58.8011 12.566 58.8431 12.476 58.8431 12.392V11.888C58.8431 11.828 58.8251 11.726 58.7891 11.582C58.7651 11.426 58.7171 11.27 58.6451 11.114C58.5851 10.946 58.5071 10.802 58.4111 10.682C58.3151 10.562 58.2071 10.502 58.0871 10.502ZM65.9554 0.889999C66.1354 0.901999 66.3094 0.937999 66.4774 0.997999C66.6574 1.058 66.8134 1.142 66.9454 1.25C67.0774 1.346 67.1734 1.472 67.2334 1.628C67.2934 1.772 67.2994 1.94 67.2514 2.132C67.2514 2.228 67.2454 2.294 67.2334 2.33C67.2334 2.354 67.2214 2.408 67.1974 2.492C67.1974 2.528 67.1794 2.6 67.1434 2.708C67.1074 2.816 67.0594 2.93 66.9994 3.05C66.9514 3.158 66.8974 3.26 66.8374 3.356C66.7774 3.44 66.7294 3.482 66.6934 3.482C66.4654 3.65 66.2194 3.782 65.9554 3.878C65.7034 3.974 65.4574 4.076 65.2174 4.184C64.9894 4.292 64.7854 4.424 64.6054 4.58C64.4254 4.736 64.3054 4.958 64.2454 5.246L64.1014 5.588C63.8974 6.008 63.7354 6.434 63.6154 6.866C63.4954 7.286 63.3874 7.694 63.2914 8.09V8.45C63.1954 8.69 63.1114 8.906 63.0394 9.098C62.9794 9.278 62.9494 9.446 62.9494 9.602C62.9374 9.65 62.9314 9.716 62.9314 9.8C62.9434 9.872 62.9614 9.944 62.9854 10.016C63.0214 10.088 63.0574 10.154 63.0934 10.214C63.1414 10.262 63.1894 10.286 63.2374 10.286C63.3094 10.298 63.4054 10.238 63.5254 10.106C63.6574 9.974 63.8014 9.83 63.9574 9.674C64.1254 9.506 64.3054 9.356 64.4974 9.224C64.7014 9.092 64.9174 9.032 65.1454 9.044C65.3014 9.056 65.4514 9.134 65.5954 9.278C65.7394 9.422 65.8594 9.584 65.9554 9.764C66.0634 9.932 66.1474 10.094 66.2074 10.25C66.2674 10.406 66.2974 10.502 66.2974 10.538C66.2854 10.718 66.2254 10.916 66.1174 11.132C66.0094 11.336 65.8894 11.54 65.7574 11.744C65.6374 11.948 65.5234 12.146 65.4154 12.338C65.3194 12.518 65.2654 12.668 65.2534 12.788C65.2534 12.932 65.2774 13.13 65.3254 13.382C65.3854 13.622 65.4694 13.862 65.5774 14.102C65.6854 14.342 65.8174 14.552 65.9734 14.732C66.1414 14.912 66.3334 15.002 66.5494 15.002C66.6214 15.014 66.6814 14.996 66.7294 14.948C66.7894 14.888 66.8434 14.822 66.8914 14.75C66.9394 14.666 66.9874 14.576 67.0354 14.48C67.0834 14.384 67.1374 14.306 67.1974 14.246C67.3294 14.174 67.4374 14.066 67.5214 13.922C67.6054 13.778 67.7134 13.706 67.8454 13.706H68.0074C68.0554 13.718 68.0854 13.754 68.0974 13.814C68.1214 13.874 68.1334 13.94 68.1334 14.012C68.1334 14.084 68.1274 14.156 68.1154 14.228C68.1034 14.288 68.0974 14.33 68.0974 14.354C68.0974 14.414 68.0554 14.534 67.9714 14.714C67.8874 14.894 67.7794 15.098 67.6474 15.326C67.5274 15.554 67.3894 15.794 67.2334 16.046C67.0774 16.286 66.9214 16.508 66.7654 16.712C66.6214 16.916 66.4894 17.084 66.3694 17.216C66.2494 17.348 66.1594 17.408 66.0994 17.396C65.8354 17.396 65.6134 17.318 65.4334 17.162C65.2534 17.006 65.0974 16.82 64.9654 16.604C64.8334 16.388 64.7194 16.16 64.6234 15.92C64.5394 15.68 64.4614 15.47 64.3894 15.29C64.3534 15.17 64.2994 15.008 64.2274 14.804C64.1554 14.588 64.0654 14.384 63.9574 14.192C63.8494 13.988 63.7174 13.808 63.5614 13.652C63.4174 13.496 63.2434 13.412 63.0394 13.4C62.9554 13.4 62.8834 13.442 62.8234 13.526C62.7634 13.61 62.7154 13.706 62.6794 13.814C62.6434 13.922 62.6134 14.03 62.5894 14.138C62.5774 14.246 62.5654 14.318 62.5534 14.354V14.894C62.5294 15.218 62.6074 15.44 62.7874 15.56C62.9674 15.68 63.1714 15.776 63.3994 15.848C63.6034 15.908 63.7834 16.004 63.9394 16.136C64.1074 16.256 64.1794 16.478 64.1554 16.802C64.1554 16.886 64.1254 16.958 64.0654 17.018C64.0174 17.09 63.9574 17.144 63.8854 17.18C63.8134 17.228 63.7354 17.258 63.6514 17.27C63.5794 17.294 63.5254 17.306 63.4894 17.306C63.3934 17.282 63.2434 17.24 63.0394 17.18C62.8474 17.12 62.7154 17.078 62.6434 17.054H62.1394C61.9594 17.054 61.7974 17.024 61.6534 16.964C61.5814 16.928 61.5094 16.892 61.4374 16.856C61.3654 16.856 61.2814 16.892 61.1854 16.964C61.1014 17.024 61.0234 17.054 60.9514 17.054C60.8554 17.042 60.7414 17.036 60.6094 17.036C60.4774 17.036 60.3454 17.024 60.2134 17C60.0934 16.976 59.9914 16.94 59.9074 16.892C59.8234 16.832 59.7874 16.736 59.7994 16.604C59.7994 16.4 59.8654 16.238 59.9974 16.118C60.1414 15.986 60.2974 15.848 60.4654 15.704C60.6454 15.548 60.8074 15.356 60.9514 15.128C61.0954 14.888 61.1734 14.564 61.1854 14.156C61.2094 13.976 61.2154 13.832 61.2034 13.724C61.2034 13.616 61.2154 13.472 61.2394 13.292C61.2394 13.196 61.2454 13.112 61.2574 13.04C61.2814 12.956 61.3414 12.872 61.4374 12.788L61.4914 10.898C61.4914 10.646 61.4974 10.472 61.5094 10.376C61.5334 10.268 61.5454 10.172 61.5454 10.088C61.6174 9.92 61.6654 9.782 61.6894 9.674C61.7254 9.566 61.7434 9.422 61.7434 9.242V8.594C61.7674 8.498 61.8094 8.366 61.8694 8.198C61.9294 8.03 61.9714 7.862 61.9954 7.694L62.1934 6.488C62.2894 5.84 62.4574 5.228 62.6974 4.652C62.9494 4.076 63.2134 3.47 63.4894 2.834C63.5374 2.726 63.5974 2.588 63.6694 2.42C63.7534 2.252 63.8494 2.09 63.9574 1.934C64.0774 1.766 64.2094 1.616 64.3534 1.484C64.5094 1.352 64.6894 1.268 64.8934 1.232C64.9894 1.232 65.0794 1.214 65.1634 1.178C65.2474 1.142 65.3254 1.112 65.3974 1.088C65.4934 1.028 65.5894 0.979999 65.6854 0.944C65.7814 0.907999 65.8714 0.889999 65.9554 0.889999ZM64.1014 10.79C63.7534 10.766 63.4714 10.862 63.2554 11.078C63.0394 11.294 62.9194 11.564 62.8954 11.888C62.8954 11.948 62.8954 12.02 62.8954 12.104C62.9074 12.188 62.9254 12.266 62.9494 12.338C62.9734 12.41 63.0154 12.47 63.0754 12.518C63.1474 12.566 63.2374 12.59 63.3454 12.59C63.4534 12.602 63.5734 12.566 63.7054 12.482C63.8494 12.386 63.9754 12.272 64.0834 12.14C64.2034 11.996 64.2994 11.846 64.3714 11.69C64.4554 11.534 64.4974 11.402 64.4974 11.294C64.4974 11.162 64.4494 11.048 64.3534 10.952C64.2574 10.844 64.1734 10.79 64.1014 10.79ZM76.7178 8.45C76.8858 8.45 77.0898 8.456 77.3298 8.468C77.5818 8.48 77.7918 8.522 77.9598 8.594C78.1398 8.594 78.2538 8.666 78.3018 8.81C78.3618 8.954 78.4338 9.116 78.5178 9.296C78.5658 9.344 78.6198 9.41 78.6798 9.494C78.7518 9.578 78.8118 9.668 78.8598 9.764C78.9198 9.848 78.9678 9.938 79.0038 10.034C79.0398 10.13 79.0578 10.214 79.0578 10.286L78.9138 11.888C78.9138 12.224 78.8418 12.596 78.6978 13.004C78.5538 13.412 78.3438 13.778 78.0678 14.102C77.9718 14.198 77.8998 14.306 77.8518 14.426C77.8158 14.534 77.7738 14.648 77.7258 14.768C77.6898 14.888 77.6418 15.014 77.5818 15.146C77.5338 15.266 77.4618 15.386 77.3658 15.506C77.2938 15.59 77.2098 15.692 77.1138 15.812C77.0298 15.932 76.9338 16.058 76.8258 16.19C76.7298 16.31 76.6218 16.424 76.5018 16.532C76.3938 16.628 76.2798 16.7 76.1598 16.748C75.9798 16.844 75.8298 16.928 75.7098 17C75.5898 17.072 75.4818 17.132 75.3858 17.18C75.2898 17.228 75.1878 17.258 75.0798 17.27C74.9838 17.294 74.8758 17.306 74.7558 17.306C74.5758 17.306 74.4078 17.264 74.2518 17.18C74.0958 17.096 73.9578 16.988 73.8378 16.856C73.7298 16.712 73.6398 16.556 73.5678 16.388C73.4958 16.208 73.4598 16.028 73.4598 15.848V14.642C73.4598 14.57 73.4358 14.504 73.3878 14.444C73.3398 14.384 73.3158 14.216 73.3158 13.94C73.3038 13.592 73.3878 13.172 73.5678 12.68C73.7478 12.188 73.9578 11.708 74.1978 11.24C74.4498 10.76 74.6958 10.34 74.9358 9.98C75.1878 9.608 75.3798 9.38 75.5118 9.296C75.6438 9.212 75.7518 9.122 75.8358 9.026C75.9318 8.918 76.0218 8.822 76.1058 8.738C76.1898 8.654 76.2738 8.588 76.3578 8.54C76.4538 8.48 76.5738 8.45 76.7178 8.45ZM76.8078 10.502C76.6158 10.502 76.4178 10.586 76.2138 10.754C76.0218 10.91 75.8418 11.096 75.6738 11.312C75.5058 11.516 75.3558 11.726 75.2238 11.942C75.0918 12.146 75.0018 12.296 74.9538 12.392L74.7738 13.076C74.7258 13.244 74.6838 13.406 74.6478 13.562C74.6238 13.718 74.6118 13.814 74.6118 13.85V14.192C74.6598 14.228 74.7018 14.3 74.7378 14.408C74.7738 14.516 74.8158 14.624 74.8638 14.732C74.9238 14.84 74.9898 14.936 75.0618 15.02C75.1338 15.104 75.2358 15.146 75.3678 15.146C75.6078 15.038 75.8298 14.93 76.0338 14.822C76.2018 14.726 76.3638 14.624 76.5198 14.516C76.6878 14.408 76.8018 14.3 76.8618 14.192C76.9338 14.024 77.0118 13.826 77.0958 13.598C77.1918 13.37 77.2818 13.154 77.3658 12.95C77.3418 12.854 77.3658 12.758 77.4378 12.662C77.5218 12.566 77.5638 12.476 77.5638 12.392V11.888C77.5638 11.828 77.5458 11.726 77.5098 11.582C77.4858 11.426 77.4378 11.27 77.3658 11.114C77.3058 10.946 77.2278 10.802 77.1318 10.682C77.0358 10.562 76.9278 10.502 76.8078 10.502ZM82.6601 8.54C82.7681 8.54 82.8461 8.6 82.8941 8.72C82.9421 8.84 82.9661 8.948 82.9661 9.044C82.7501 9.8 82.5581 10.49 82.3901 11.114C82.3181 11.378 82.2461 11.642 82.1741 11.906C82.1021 12.158 82.0361 12.392 81.9761 12.608C81.9281 12.824 81.8861 13.01 81.8501 13.166C81.8261 13.31 81.8141 13.406 81.8141 13.454C81.8141 13.538 81.7961 13.676 81.7601 13.868C81.7361 14.06 81.7361 14.24 81.7601 14.408C81.7961 14.564 81.8741 14.672 81.9941 14.732C82.1261 14.78 82.3481 14.702 82.6601 14.498C82.6841 14.438 82.7621 14.36 82.8941 14.264C83.0261 14.168 83.1701 14.048 83.3261 13.904C83.4221 13.808 83.4821 13.712 83.5061 13.616C83.5301 13.508 83.5661 13.454 83.6141 13.454C83.6141 13.358 83.6561 13.268 83.7401 13.184C83.8241 13.1 83.8661 13.022 83.8661 12.95C83.8901 12.866 83.9561 12.71 84.0641 12.482C84.1721 12.254 84.2921 11.978 84.4241 11.654C84.5321 11.426 84.6341 11.18 84.7301 10.916C84.8261 10.652 84.9101 10.394 84.9821 10.142C85.0541 9.89 85.1081 9.662 85.1441 9.458C85.1921 9.242 85.2161 9.068 85.2161 8.936C85.2161 8.804 85.2461 8.702 85.3061 8.63C85.3661 8.558 85.4381 8.504 85.5221 8.468C85.6181 8.432 85.7141 8.414 85.8101 8.414C85.9061 8.402 85.9901 8.396 86.0621 8.396H86.4761C86.6201 8.396 86.7341 8.468 86.8181 8.612C86.9141 8.756 86.9621 8.918 86.9621 9.098C86.9621 9.134 86.9441 9.248 86.9081 9.44C86.8841 9.62 86.8481 9.83 86.8001 10.07C86.7641 10.31 86.7161 10.556 86.6561 10.808C86.5961 11.06 86.5361 11.27 86.4761 11.438C86.2241 11.978 85.9781 12.518 85.7381 13.058C85.4981 13.586 85.3781 14.102 85.3781 14.606C85.3781 14.666 85.4021 14.732 85.4501 14.804C85.4741 14.84 85.4981 14.87 85.5221 14.894C85.6781 14.894 85.8341 14.846 85.9901 14.75C86.1581 14.654 86.3021 14.552 86.4221 14.444C86.5541 14.336 86.6681 14.234 86.7641 14.138C86.8601 14.042 86.9261 13.994 86.9621 13.994C86.9981 13.994 87.0341 14.012 87.0701 14.048C87.1181 14.084 87.1601 14.12 87.1961 14.156C87.2441 14.204 87.2861 14.252 87.3221 14.3C87.3221 14.348 87.2621 14.468 87.1421 14.66C87.0341 14.84 86.9021 15.038 86.7461 15.254C86.6021 15.458 86.4581 15.65 86.3141 15.83C86.1821 16.01 86.0981 16.118 86.0621 16.154C85.9421 16.238 85.8341 16.316 85.7381 16.388C85.6541 16.448 85.5761 16.514 85.5041 16.586C85.4321 16.646 85.3541 16.724 85.2701 16.82C85.1981 16.904 85.1141 17.012 85.0181 17.144C84.8621 17.3 84.7001 17.408 84.5321 17.468C84.3641 17.528 84.1901 17.558 84.0101 17.558C83.9261 17.558 83.8421 17.528 83.7581 17.468C83.6861 17.42 83.6201 17.354 83.5601 17.27C83.5001 17.198 83.4521 17.114 83.4161 17.018C83.3801 16.934 83.3621 16.862 83.3621 16.802V16.496V16.298C83.4101 16.154 83.4581 16.01 83.5061 15.866C83.5421 15.746 83.5781 15.62 83.6141 15.488C83.6501 15.356 83.6681 15.242 83.6681 15.146C83.6681 15.074 83.6561 15.002 83.6321 14.93C83.6201 14.846 83.5661 14.804 83.4701 14.804C83.3981 14.804 83.3141 14.852 83.2181 14.948C83.1221 15.032 83.0261 15.134 82.9301 15.254C82.8341 15.362 82.7441 15.47 82.6601 15.578C82.5761 15.686 82.5101 15.758 82.4621 15.794C82.3901 15.89 82.2581 16.04 82.0661 16.244C81.8741 16.436 81.6701 16.634 81.4541 16.838C81.2381 17.03 81.0281 17.204 80.8241 17.36C80.6321 17.516 80.4941 17.594 80.4101 17.594C80.3381 17.594 80.2661 17.558 80.1941 17.486C80.1221 17.426 80.0561 17.348 79.9961 17.252C79.9481 17.168 79.9061 17.084 79.8701 17C79.8341 16.904 79.8161 16.838 79.8161 16.802V16.298C79.8161 16.202 79.8221 16.106 79.8341 16.01C79.8461 15.926 79.8521 15.842 79.8521 15.758C79.8641 15.674 79.8701 15.602 79.8701 15.542C79.8701 15.47 79.8821 15.374 79.9061 15.254C79.9421 15.122 79.9601 14.972 79.9601 14.804C79.9601 14.648 79.9781 14.486 80.0141 14.318C80.0621 14.15 80.0981 14.024 80.1221 13.94L80.2661 13.256C80.2901 13.172 80.3501 13.028 80.4461 12.824C80.5541 12.62 80.6081 12.344 80.6081 11.996C80.6081 11.828 80.6141 11.714 80.6261 11.654C80.6381 11.582 80.5661 11.546 80.4101 11.546C80.3381 11.546 80.2601 11.558 80.1761 11.582C80.1041 11.606 80.0021 11.642 79.8701 11.69C79.7741 11.75 79.6781 11.798 79.5821 11.834C79.4861 11.87 79.4141 11.888 79.3661 11.888C79.2941 11.888 79.2161 11.846 79.1321 11.762C79.0481 11.666 79.0061 11.546 79.0061 11.402C79.0061 11.258 79.0421 11.15 79.1141 11.078C79.1861 10.994 79.2701 10.928 79.3661 10.88C79.4741 10.82 79.5761 10.766 79.6721 10.718C79.7681 10.658 79.8341 10.586 79.8701 10.502C80.0261 10.382 80.2121 10.214 80.4281 9.998C80.6441 9.77 80.8661 9.548 81.0941 9.332C81.3221 9.116 81.5381 8.93 81.7421 8.774C81.9581 8.618 82.1501 8.54 82.3181 8.54H82.6601ZM90.1872 8.342C90.3192 8.318 90.4032 8.336 90.4392 8.396C90.4872 8.456 90.5892 8.522 90.7452 8.594C90.8772 8.666 90.9912 8.75 91.0872 8.846C91.1832 8.942 91.2312 9.056 91.2312 9.188C91.2192 9.248 91.2072 9.314 91.1952 9.386C91.1712 9.542 91.1832 9.692 91.2312 9.836C91.2312 9.944 91.2072 10.076 91.1592 10.232C91.1232 10.376 91.1172 10.496 91.1412 10.592C91.1652 10.64 91.2012 10.688 91.2492 10.736C91.2852 10.772 91.3212 10.808 91.3572 10.844C91.4052 10.868 91.4472 10.868 91.4832 10.844C91.6032 10.82 91.7292 10.706 91.8612 10.502C92.0052 10.298 92.1432 10.07 92.2752 9.818C92.4072 9.566 92.5392 9.32 92.6712 9.08C92.8032 8.84 92.9232 8.678 93.0312 8.594L93.5892 8.45C93.6612 8.426 93.7392 8.42 93.8232 8.432C93.9192 8.444 93.9912 8.45 94.0392 8.45C94.2672 8.582 94.4112 8.768 94.4712 9.008C94.5312 9.236 94.5732 9.416 94.5972 9.548C94.6092 9.716 94.5492 9.938 94.4172 10.214C94.2972 10.49 94.1412 10.718 93.9492 10.898C93.8652 10.946 93.7872 10.988 93.7152 11.024C93.6432 11.048 93.5712 11.072 93.4992 11.096C93.4392 11.096 93.3912 11.096 93.3552 11.096C93.3312 11.084 93.2952 11.066 93.2472 11.042C93.1872 11.018 93.1272 11.006 93.0672 11.006C93.0192 10.994 92.9592 10.988 92.8872 10.988C92.7312 10.988 92.5812 11.048 92.4372 11.168C92.3052 11.288 92.1732 11.414 92.0412 11.546C91.8372 11.798 91.6752 12.086 91.5552 12.41C91.4472 12.722 91.3932 13.016 91.3932 13.292C91.3092 13.376 91.2072 13.484 91.0872 13.616C90.9792 13.736 90.8952 13.88 90.8352 14.048C90.7632 14.216 90.7272 14.39 90.7272 14.57C90.7392 14.75 90.7092 14.924 90.6372 15.092C90.6492 15.236 90.6492 15.404 90.6372 15.596C90.6252 15.776 90.6012 15.968 90.5652 16.172C90.5412 16.376 90.5052 16.574 90.4572 16.766C90.4092 16.946 90.3552 17.108 90.2952 17.252C90.2112 17.312 90.1092 17.366 89.9892 17.414C89.8692 17.462 89.7432 17.498 89.6112 17.522C89.4672 17.558 89.3112 17.582 89.1432 17.594C89.0832 17.594 89.0052 17.546 88.9092 17.45C88.8612 17.402 88.8192 17.354 88.7832 17.306L88.5312 16.802C88.5192 16.718 88.5312 16.574 88.5672 16.37C88.6032 16.166 88.6452 15.962 88.6932 15.758C88.7412 15.542 88.7832 15.35 88.8192 15.182C88.8672 15.014 88.8912 14.918 88.8912 14.894C89.1552 14.498 89.3292 14.084 89.4132 13.652C89.4972 13.208 89.5872 12.77 89.6832 12.338L89.5392 11.15C89.4792 10.994 89.4012 10.916 89.3052 10.916C89.2212 10.916 89.1312 10.928 89.0352 10.952C88.8432 10.988 88.7052 11.042 88.6212 11.114C88.5372 11.174 88.4652 11.24 88.4052 11.312C88.3452 11.384 88.2792 11.456 88.2072 11.528C88.1352 11.588 88.0092 11.63 87.8292 11.654C87.7332 11.654 87.6732 11.594 87.6492 11.474C87.6252 11.354 87.6012 11.246 87.5772 11.15C87.5532 11.042 87.5712 10.94 87.6312 10.844C87.6912 10.736 87.7692 10.64 87.8652 10.556C87.9732 10.46 88.0932 10.37 88.2252 10.286C88.3572 10.19 88.4772 10.094 88.5852 9.998C88.7292 9.842 88.8552 9.674 88.9632 9.494C89.0712 9.302 89.1792 9.128 89.2872 8.972C89.3952 8.804 89.5152 8.666 89.6472 8.558C89.7912 8.438 89.9712 8.366 90.1872 8.342ZM101.308 16.298C101.308 16.358 101.296 16.43 101.272 16.514C101.26 16.598 101.242 16.676 101.218 16.748C101.206 16.82 101.194 16.886 101.182 16.946C101.17 17.006 101.164 17.042 101.164 17.054C101.152 17.294 101.134 17.474 101.11 17.594C101.086 17.714 101.062 17.81 101.038 17.882C101.026 17.954 101.008 18.014 100.984 18.062C100.972 18.11 100.966 18.176 100.966 18.26C100.966 18.296 100.942 18.392 100.894 18.548C100.846 18.704 100.786 18.878 100.714 19.07C100.654 19.262 100.588 19.448 100.516 19.628C100.444 19.808 100.378 19.934 100.318 20.006C100.21 20.174 100.078 20.348 99.9222 20.528C99.7782 20.708 99.6582 20.9 99.5622 21.104C99.4902 21.152 99.3762 21.254 99.2202 21.41C99.0762 21.578 98.9142 21.746 98.7342 21.914C98.5542 22.094 98.3682 22.25 98.1762 22.382C97.9842 22.526 97.8102 22.598 97.6542 22.598C97.6422 22.598 97.6062 22.604 97.5462 22.616C97.4862 22.628 97.4262 22.64 97.3662 22.652C97.2942 22.664 97.2282 22.676 97.1682 22.688C97.1082 22.7 97.0722 22.706 97.0602 22.706C97.0242 22.73 96.9882 22.748 96.9522 22.76C96.8802 22.784 96.8322 22.796 96.8082 22.796H96.5562C96.4242 22.796 96.3282 22.814 96.2682 22.85C96.1962 22.886 96.0582 22.904 95.8542 22.904C95.8302 22.904 95.7402 22.892 95.5842 22.868C95.4282 22.856 95.2842 22.85 95.1522 22.85C95.0802 22.838 95.0202 22.826 94.9722 22.814C94.9122 22.802 94.8702 22.796 94.8462 22.796H94.7562C94.7202 22.796 94.6422 22.784 94.5222 22.76C94.3902 22.736 94.2582 22.694 94.1262 22.634C93.9942 22.586 93.8742 22.514 93.7662 22.418C93.6582 22.334 93.6042 22.232 93.6042 22.112C93.6042 22.088 93.6282 22.034 93.6762 21.95C93.7122 21.878 93.7602 21.788 93.8202 21.68C93.8802 21.584 93.9462 21.488 94.0182 21.392C94.0782 21.296 94.1262 21.218 94.1622 21.158C94.1862 21.11 94.2462 21.038 94.3422 20.942C94.4382 20.858 94.5462 20.768 94.6662 20.672C94.7742 20.588 94.8942 20.51 95.0262 20.438C95.1462 20.378 95.2422 20.348 95.3142 20.348H95.6562C95.6922 20.384 95.7342 20.42 95.7822 20.456C95.8662 20.516 95.9262 20.546 95.9622 20.546L96.4122 20.654C96.4362 20.654 96.4782 20.66 96.5382 20.672C96.5982 20.696 96.6642 20.714 96.7362 20.726C96.7962 20.75 96.8562 20.768 96.9162 20.78C96.9642 20.792 96.9942 20.798 97.0062 20.798C97.1022 20.798 97.1742 20.816 97.2222 20.852C97.2582 20.888 97.2882 20.906 97.3122 20.906C97.4082 20.906 97.5162 20.876 97.6362 20.816C97.7562 20.768 97.8762 20.702 97.9962 20.618C98.1042 20.546 98.2182 20.462 98.3382 20.366C98.4582 20.282 98.5662 20.21 98.6622 20.15C98.7582 20.09 98.8542 19.94 98.9502 19.7C99.0582 19.46 99.1482 19.196 99.2202 18.908C99.3042 18.62 99.3702 18.344 99.4182 18.08C99.4782 17.828 99.5082 17.654 99.5082 17.558L99.8142 15.398C99.8142 15.386 99.8262 15.302 99.8502 15.146C99.8862 14.99 99.9222 14.798 99.9582 14.57C100.006 14.342 100.054 14.096 100.102 13.832C100.162 13.568 100.216 13.322 100.264 13.094V12.896C100.264 12.776 100.282 12.662 100.318 12.554L100.354 12.392C100.354 12.272 100.408 12.14 100.516 11.996C100.54 11.828 100.57 11.672 100.606 11.528C100.642 11.372 100.66 11.246 100.66 11.15C100.66 11.09 100.654 11.024 100.642 10.952C100.642 10.88 100.63 10.814 100.606 10.754C100.582 10.694 100.54 10.646 100.48 10.61C100.432 10.562 100.36 10.538 100.264 10.538C100.18 10.538 100.06 10.592 99.9042 10.7C99.7482 10.796 99.5802 10.844 99.4002 10.844C99.3522 10.844 99.2982 10.814 99.2382 10.754C99.1902 10.682 99.1662 10.598 99.1662 10.502C99.1662 10.418 99.1542 10.37 99.1302 10.358C99.1182 10.334 99.1122 10.31 99.1122 10.286C99.1122 10.178 99.2322 10.016 99.4722 9.8C99.7242 9.572 100.006 9.35 100.318 9.134C100.63 8.906 100.93 8.708 101.218 8.54C101.518 8.372 101.716 8.288 101.812 8.288C101.968 8.288 102.1 8.354 102.208 8.486C102.316 8.618 102.37 8.768 102.37 8.936L102.316 9.548C102.328 9.584 102.34 9.632 102.352 9.692C102.364 9.74 102.376 9.788 102.388 9.836C102.4 9.884 102.406 9.938 102.406 9.998C102.406 10.202 102.37 10.418 102.298 10.646C102.238 10.874 102.208 11.09 102.208 11.294V11.546C102.208 11.57 102.196 11.618 102.172 11.69C102.16 11.75 102.142 11.816 102.118 11.888C102.106 11.96 102.094 12.026 102.082 12.086C102.07 12.146 102.064 12.182 102.064 12.194V12.392C102.064 12.62 102.022 12.824 101.938 13.004C101.854 13.172 101.812 13.37 101.812 13.598C101.812 13.646 101.8 13.736 101.776 13.868C101.764 13.988 101.746 14.12 101.722 14.264C101.71 14.396 101.692 14.528 101.668 14.66C101.644 14.792 101.626 14.888 101.614 14.948C101.59 15.044 101.548 15.218 101.488 15.47C101.44 15.722 101.38 15.998 101.308 16.298ZM102.262 4.148C102.43 4.148 102.538 4.112 102.586 4.04C102.634 3.968 102.712 3.932 102.82 3.932C102.964 3.932 103.114 3.98 103.27 4.076C103.426 4.172 103.504 4.292 103.504 4.436C103.504 4.712 103.462 4.94 103.378 5.12C103.294 5.288 103.204 5.498 103.108 5.75C103.072 5.834 103.03 5.936 102.982 6.056C102.946 6.176 102.898 6.29 102.838 6.398C102.79 6.506 102.73 6.602 102.658 6.686C102.598 6.758 102.532 6.794 102.46 6.794H101.902C101.734 6.794 101.632 6.788 101.596 6.776C101.56 6.752 101.512 6.692 101.452 6.596C101.356 6.5 101.296 6.356 101.272 6.164C101.26 5.96 101.254 5.822 101.254 5.75C101.254 5.498 101.266 5.27 101.29 5.066C101.326 4.85 101.434 4.64 101.614 4.436C101.686 4.364 101.74 4.298 101.776 4.238C101.824 4.178 101.938 4.148 102.118 4.148H102.262ZM106.073 8.45C106.241 8.45 106.445 8.456 106.685 8.468C106.937 8.48 107.147 8.522 107.315 8.594C107.495 8.594 107.609 8.666 107.657 8.81C107.717 8.954 107.789 9.116 107.873 9.296C107.921 9.344 107.975 9.41 108.035 9.494C108.107 9.578 108.167 9.668 108.215 9.764C108.275 9.848 108.323 9.938 108.359 10.034C108.395 10.13 108.413 10.214 108.413 10.286L108.269 11.888C108.269 12.224 108.197 12.596 108.053 13.004C107.909 13.412 107.699 13.778 107.423 14.102C107.327 14.198 107.255 14.306 107.207 14.426C107.171 14.534 107.129 14.648 107.081 14.768C107.045 14.888 106.997 15.014 106.937 15.146C106.889 15.266 106.817 15.386 106.721 15.506C106.649 15.59 106.565 15.692 106.469 15.812C106.385 15.932 106.289 16.058 106.181 16.19C106.085 16.31 105.977 16.424 105.857 16.532C105.749 16.628 105.635 16.7 105.515 16.748C105.335 16.844 105.185 16.928 105.065 17C104.945 17.072 104.837 17.132 104.741 17.18C104.645 17.228 104.543 17.258 104.435 17.27C104.339 17.294 104.231 17.306 104.111 17.306C103.931 17.306 103.763 17.264 103.607 17.18C103.451 17.096 103.313 16.988 103.193 16.856C103.085 16.712 102.995 16.556 102.923 16.388C102.851 16.208 102.815 16.028 102.815 15.848V14.642C102.815 14.57 102.791 14.504 102.743 14.444C102.695 14.384 102.671 14.216 102.671 13.94C102.659 13.592 102.743 13.172 102.923 12.68C103.103 12.188 103.313 11.708 103.553 11.24C103.805 10.76 104.051 10.34 104.291 9.98C104.543 9.608 104.735 9.38 104.867 9.296C104.999 9.212 105.107 9.122 105.191 9.026C105.287 8.918 105.377 8.822 105.461 8.738C105.545 8.654 105.629 8.588 105.713 8.54C105.809 8.48 105.929 8.45 106.073 8.45ZM106.163 10.502C105.971 10.502 105.773 10.586 105.569 10.754C105.377 10.91 105.197 11.096 105.029 11.312C104.861 11.516 104.711 11.726 104.579 11.942C104.447 12.146 104.357 12.296 104.309 12.392L104.129 13.076C104.081 13.244 104.039 13.406 104.003 13.562C103.979 13.718 103.967 13.814 103.967 13.85V14.192C104.015 14.228 104.057 14.3 104.093 14.408C104.129 14.516 104.171 14.624 104.219 14.732C104.279 14.84 104.345 14.936 104.417 15.02C104.489 15.104 104.591 15.146 104.723 15.146C104.963 15.038 105.185 14.93 105.389 14.822C105.557 14.726 105.719 14.624 105.875 14.516C106.043 14.408 106.157 14.3 106.217 14.192C106.289 14.024 106.367 13.826 106.451 13.598C106.547 13.37 106.637 13.154 106.721 12.95C106.697 12.854 106.721 12.758 106.793 12.662C106.877 12.566 106.919 12.476 106.919 12.392V11.888C106.919 11.828 106.901 11.726 106.865 11.582C106.841 11.426 106.793 11.27 106.721 11.114C106.661 10.946 106.583 10.802 106.487 10.682C106.391 10.562 106.283 10.502 106.163 10.502ZM112.682 1.088H113.168C113.264 1.088 113.354 1.112 113.438 1.16C113.534 1.208 113.63 1.232 113.726 1.232L114.23 1.088H114.518C114.602 1.088 114.692 1.118 114.788 1.178C114.896 1.226 114.992 1.292 115.076 1.376C115.172 1.46 115.244 1.55 115.292 1.646C115.352 1.73 115.382 1.808 115.382 1.88C115.382 2.06 115.358 2.252 115.31 2.456C115.262 2.66 115.178 2.864 115.058 3.068C114.938 3.26 114.782 3.434 114.59 3.59C114.398 3.746 114.158 3.86 113.87 3.932H113.726H113.528C113.396 3.932 113.246 3.968 113.078 4.04C112.922 4.112 112.772 4.208 112.628 4.328C112.484 4.436 112.364 4.562 112.268 4.706C112.172 4.838 112.124 4.964 112.124 5.084C112.028 5.168 111.962 5.306 111.926 5.498C111.902 5.678 111.848 5.84 111.764 5.984C111.668 6.092 111.608 6.242 111.584 6.434C111.572 6.614 111.566 6.752 111.566 6.848L111.368 7.496C111.368 7.664 111.332 7.832 111.26 8C111.188 8.168 111.104 8.348 111.008 8.54C110.924 8.732 110.846 8.942 110.774 9.17C110.702 9.386 110.666 9.626 110.666 9.89V10.25C110.666 10.31 110.69 10.352 110.738 10.376C110.762 10.388 110.792 10.394 110.828 10.394C110.912 10.394 110.996 10.322 111.08 10.178C111.164 10.034 111.272 9.872 111.404 9.692C111.536 9.512 111.698 9.35 111.89 9.206C112.082 9.062 112.328 8.99 112.628 8.99L113.024 8.846C113.3 8.846 113.51 8.93 113.654 9.098C113.798 9.254 113.87 9.47 113.87 9.746V9.89L113.726 10.25C113.75 10.346 113.774 10.442 113.798 10.538C113.822 10.622 113.84 10.712 113.852 10.808C113.864 10.892 113.87 10.97 113.87 11.042C113.87 11.174 113.852 11.258 113.816 11.294C113.792 11.354 113.768 11.408 113.744 11.456C113.732 11.492 113.726 11.522 113.726 11.546C113.726 11.594 113.732 11.636 113.744 11.672C113.756 11.696 113.768 11.732 113.78 11.78C113.792 11.828 113.792 11.888 113.78 11.96C113.78 12.032 113.762 12.128 113.726 12.248V12.788C113.726 12.824 113.69 12.902 113.618 13.022C113.558 13.13 113.486 13.256 113.402 13.4C113.318 13.544 113.228 13.7 113.132 13.868C113.036 14.036 112.964 14.198 112.916 14.354L112.718 15.146C112.502 15.458 112.298 15.74 112.106 15.992C111.938 16.208 111.776 16.418 111.62 16.622C111.476 16.826 111.374 16.952 111.314 17C111.182 17.084 111.08 17.162 111.008 17.234C110.936 17.306 110.864 17.366 110.792 17.414C110.72 17.462 110.63 17.498 110.522 17.522C110.414 17.546 110.246 17.558 110.018 17.558L109.514 17.702C109.418 17.702 109.352 17.672 109.316 17.612C109.28 17.564 109.256 17.492 109.244 17.396C109.232 17.312 109.22 17.216 109.208 17.108C109.196 17 109.166 16.898 109.118 16.802C109.118 16.742 109.1 16.682 109.064 16.622C109.028 16.55 108.998 16.478 108.974 16.406C108.89 16.31 108.806 16.22 108.722 16.136C108.65 16.04 108.614 15.926 108.614 15.794C108.614 15.698 108.644 15.572 108.704 15.416C108.74 15.332 108.776 15.242 108.812 15.146V14.606L108.974 12.95V12.59L109.316 10.898V10.394V10.25C109.316 10.154 109.346 9.95 109.406 9.638C109.478 9.326 109.514 8.96 109.514 8.54V8.036L110.018 5.984V5.84C110.018 5.756 110.03 5.624 110.054 5.444C110.09 5.252 110.126 5.06 110.162 4.868C110.21 4.652 110.264 4.412 110.324 4.148L110.468 3.644C110.492 3.464 110.54 3.308 110.612 3.176C110.696 3.032 110.816 2.834 110.972 2.582L112.682 1.088ZM111.674 10.754C111.506 10.754 111.332 10.88 111.152 11.132C110.984 11.384 110.828 11.672 110.684 11.996C110.54 12.32 110.42 12.638 110.324 12.95C110.228 13.25 110.18 13.448 110.18 13.544V14.246C110.18 14.366 110.192 14.474 110.216 14.57C110.24 14.654 110.264 14.732 110.288 14.804C110.312 14.864 110.354 14.894 110.414 14.894H110.63C110.798 14.834 110.978 14.726 111.17 14.57C111.374 14.414 111.56 14.24 111.728 14.048C111.896 13.856 112.034 13.658 112.142 13.454C112.262 13.25 112.322 13.064 112.322 12.896V12.446V12.05L112.232 11.69L112.322 11.402C112.322 10.97 112.106 10.754 111.674 10.754ZM118.811 8.288C118.991 8.288 119.153 8.372 119.297 8.54C119.441 8.708 119.513 8.876 119.513 9.044C119.513 9.176 119.417 9.29 119.225 9.386C119.033 9.47 118.817 9.554 118.577 9.638C118.337 9.71 118.097 9.782 117.857 9.854C117.629 9.926 117.479 10.004 117.407 10.088C117.299 10.196 117.221 10.322 117.173 10.466C117.125 10.598 117.101 10.736 117.101 10.88C117.101 11.024 117.125 11.162 117.173 11.294C117.221 11.426 117.281 11.546 117.353 11.654C117.437 11.822 117.533 12.002 117.641 12.194C117.761 12.374 117.869 12.584 117.965 12.824C118.061 13.064 118.139 13.334 118.199 13.634C118.271 13.934 118.307 14.27 118.307 14.642C118.307 14.966 118.199 15.296 117.983 15.632C117.767 15.956 117.491 16.244 117.155 16.496C116.891 16.64 116.687 16.76 116.543 16.856C116.399 16.94 116.273 17.006 116.165 17.054C116.057 17.114 115.949 17.15 115.841 17.162C115.745 17.186 115.619 17.198 115.463 17.198H114.815C114.755 17.198 114.677 17.204 114.581 17.216C114.485 17.228 114.389 17.246 114.293 17.27C114.173 17.294 114.047 17.318 113.915 17.342H113.807H113.411C113.075 17.342 112.907 17.18 112.907 16.856C112.907 16.772 112.961 16.64 113.069 16.46C113.177 16.28 113.315 16.106 113.483 15.938C113.639 15.77 113.807 15.62 113.987 15.488C114.167 15.356 114.323 15.29 114.455 15.29C114.491 15.29 114.551 15.32 114.635 15.38C114.719 15.428 114.815 15.482 114.923 15.542C115.043 15.602 115.175 15.662 115.319 15.722C115.463 15.77 115.625 15.794 115.805 15.794C115.925 15.794 116.033 15.758 116.129 15.686C116.237 15.614 116.327 15.53 116.399 15.434C116.471 15.326 116.525 15.218 116.561 15.11C116.597 14.99 116.615 14.888 116.615 14.804C116.615 14.6 116.537 14.354 116.381 14.066C116.225 13.766 116.051 13.466 115.859 13.166C115.667 12.854 115.493 12.56 115.337 12.284C115.181 12.008 115.103 11.78 115.103 11.6V11.402C115.151 11.198 115.223 10.988 115.319 10.772C115.415 10.556 115.523 10.358 115.643 10.178C115.763 9.998 115.895 9.842 116.039 9.71C116.183 9.566 116.339 9.476 116.507 9.44C116.591 9.392 116.675 9.314 116.759 9.206C116.855 9.098 116.939 8.996 117.011 8.9C117.107 8.804 117.191 8.714 117.263 8.63C117.347 8.534 117.431 8.474 117.515 8.45C117.611 8.366 117.761 8.318 117.965 8.306C118.169 8.294 118.319 8.288 118.415 8.288H118.811ZM120.26 7.334C120.26 7.19 120.284 7.07 120.332 6.974C120.38 6.878 120.392 6.77 120.368 6.65C120.344 6.518 120.344 6.392 120.368 6.272C120.404 6.152 120.422 6.026 120.422 5.894C120.422 5.738 120.428 5.606 120.44 5.498C120.452 5.39 120.464 5.294 120.476 5.21C120.5 5.114 120.524 5.024 120.548 4.94C120.572 4.844 120.596 4.73 120.62 4.598C120.632 4.454 120.638 4.304 120.638 4.148C120.638 3.98 120.644 3.818 120.656 3.662C120.668 3.494 120.692 3.344 120.728 3.212C120.764 3.068 120.824 2.96 120.908 2.888L121.718 3.032C121.814 2.984 121.916 2.924 122.024 2.852C122.144 2.768 122.252 2.708 122.348 2.672C122.456 2.624 122.546 2.612 122.618 2.636C122.69 2.66 122.738 2.744 122.762 2.888C122.822 3.164 122.81 3.404 122.726 3.608C122.654 3.8 122.552 4.01 122.42 4.238C122.288 4.514 122.18 4.754 122.096 4.958C122.024 5.162 121.946 5.438 121.862 5.786C121.766 6.242 121.67 6.656 121.574 7.028C121.478 7.388 121.292 7.694 121.016 7.946C120.86 8.042 120.71 8.042 120.566 7.946C120.47 7.922 120.41 7.844 120.386 7.712C120.362 7.568 120.32 7.442 120.26 7.334ZM123.716 7.244C123.692 7.088 123.71 6.974 123.77 6.902C123.83 6.818 123.86 6.698 123.86 6.542C123.812 6.386 123.794 6.26 123.806 6.164C123.818 6.068 123.836 5.942 123.86 5.786C123.86 5.654 123.866 5.54 123.878 5.444C123.902 5.348 123.926 5.258 123.95 5.174C123.974 5.078 123.998 4.976 124.022 4.868C124.058 4.76 124.088 4.634 124.112 4.49C124.136 4.346 124.154 4.19 124.166 4.022C124.178 3.854 124.19 3.692 124.202 3.536C124.226 3.368 124.256 3.218 124.292 3.086C124.34 2.942 124.418 2.84 124.526 2.78L125.318 2.636C125.414 2.6 125.516 2.546 125.624 2.474C125.744 2.402 125.852 2.348 125.948 2.312C126.056 2.276 126.146 2.276 126.218 2.312C126.29 2.336 126.338 2.426 126.362 2.582C126.386 2.834 126.356 3.062 126.272 3.266C126.2 3.458 126.116 3.668 126.02 3.896C125.864 4.172 125.732 4.478 125.624 4.814C125.528 5.15 125.444 5.492 125.372 5.84C125.3 6.056 125.234 6.266 125.174 6.47C125.126 6.662 125.072 6.848 125.012 7.028C124.952 7.196 124.88 7.358 124.796 7.514C124.712 7.658 124.604 7.784 124.472 7.892C124.376 7.952 124.286 8.024 124.202 8.108C124.118 8.192 124.04 8.204 123.968 8.144C123.896 8.084 123.842 7.952 123.806 7.748C123.77 7.544 123.74 7.376 123.716 7.244Z" fill="black"/>
</svg>
