<svg width="180" height="26" viewBox="0 0 180 26" fill="none" xmlns="http://www.w3.org/2000/svg">
<path d="M0.746 7.334C0.746 7.19 0.77 7.07 0.818 6.974C0.866 6.878 0.878 6.77 0.854 6.65C0.83 6.518 0.83 6.392 0.854 6.272C0.89 6.152 0.908 6.026 0.908 5.894C0.908 5.738 0.914 5.606 0.926 5.498C0.938 5.39 0.95 5.294 0.962 5.21C0.986 5.114 1.01 5.024 1.034 4.94C1.058 4.844 1.082 4.73 1.106 4.598C1.118 4.454 1.124 4.304 1.124 4.148C1.124 3.98 1.13 3.818 1.142 3.662C1.154 3.494 1.178 3.344 1.214 3.212C1.25 3.068 1.31 2.96 1.394 2.888L2.204 3.032C2.3 2.984 2.402 2.924 2.51 2.852C2.63 2.768 2.738 2.708 2.834 2.672C2.942 2.624 3.032 2.612 3.104 2.636C3.176 2.66 3.224 2.744 3.248 2.888C3.308 3.164 3.296 3.404 3.212 3.608C3.14 3.8 3.038 4.01 2.906 4.238C2.774 4.514 2.666 4.754 2.582 4.958C2.51 5.162 2.432 5.438 2.348 5.786C2.252 6.242 2.156 6.656 2.06 7.028C1.964 7.388 1.778 7.694 1.502 7.946C1.346 8.042 1.196 8.042 1.052 7.946C0.956 7.922 0.896 7.844 0.872 7.712C0.848 7.568 0.806 7.442 0.746 7.334ZM4.202 7.244C4.178 7.088 4.196 6.974 4.256 6.902C4.316 6.818 4.346 6.698 4.346 6.542C4.298 6.386 4.28 6.26 4.292 6.164C4.304 6.068 4.322 5.942 4.346 5.786C4.346 5.654 4.352 5.54 4.364 5.444C4.388 5.348 4.412 5.258 4.436 5.174C4.46 5.078 4.484 4.976 4.508 4.868C4.544 4.76 4.574 4.634 4.598 4.49C4.622 4.346 4.64 4.19 4.652 4.022C4.664 3.854 4.676 3.692 4.688 3.536C4.712 3.368 4.742 3.218 4.778 3.086C4.826 2.942 4.904 2.84 5.012 2.78L5.804 2.636C5.9 2.6 6.002 2.546 6.11 2.474C6.23 2.402 6.338 2.348 6.434 2.312C6.542 2.276 6.632 2.276 6.704 2.312C6.776 2.336 6.824 2.426 6.848 2.582C6.872 2.834 6.842 3.062 6.758 3.266C6.686 3.458 6.602 3.668 6.506 3.896C6.35 4.172 6.218 4.478 6.11 4.814C6.014 5.15 5.93 5.492 5.858 5.84C5.786 6.056 5.72 6.266 5.66 6.47C5.612 6.662 5.558 6.848 5.498 7.028C5.438 7.196 5.366 7.358 5.282 7.514C5.198 7.658 5.09 7.784 4.958 7.892C4.862 7.952 4.772 8.024 4.688 8.108C4.604 8.192 4.526 8.204 4.454 8.144C4.382 8.084 4.328 7.952 4.292 7.748C4.256 7.544 4.226 7.376 4.202 7.244ZM14.2135 6.848H14.5555H15.0595C15.3115 6.848 15.5215 6.956 15.6895 7.172C15.8695 7.376 16.0075 7.61 16.1035 7.874C16.2115 8.138 16.2895 8.39 16.3375 8.63C16.3855 8.858 16.4095 8.996 16.4095 9.044C16.4095 9.14 16.4155 9.218 16.4275 9.278C16.4395 9.326 16.4575 9.374 16.4815 9.422C16.5055 9.47 16.5295 9.512 16.5535 9.548C16.5535 9.584 16.5475 9.626 16.5355 9.674C16.5115 9.758 16.4695 9.83 16.4095 9.89C16.4095 9.974 16.4035 10.058 16.3915 10.142C16.3795 10.214 16.3375 10.25 16.2655 10.25C16.2055 10.25 16.1095 10.184 15.9775 10.052C15.8455 9.908 15.7075 9.752 15.5635 9.584C15.3955 9.38 15.2095 9.152 15.0055 8.9C14.8735 8.828 14.6935 8.75 14.4655 8.666C14.2495 8.582 14.0395 8.504 13.8355 8.432C13.5835 8.348 13.3255 8.27 13.0615 8.198C12.6775 8.198 12.2935 8.27 11.9095 8.414C11.5375 8.558 11.1955 8.768 10.8835 9.044C10.5835 9.32 10.3255 9.656 10.1095 10.052C9.90552 10.448 9.78552 10.898 9.74952 11.402C9.74952 11.642 9.72552 11.834 9.67752 11.978C9.62952 12.122 9.60552 12.278 9.60552 12.446C9.60552 12.614 9.61152 12.758 9.62352 12.878C9.63552 12.986 9.67752 13.124 9.74952 13.292C9.83352 13.544 9.95352 13.814 10.1095 14.102C10.2655 14.39 10.4455 14.66 10.6495 14.912C10.8655 15.152 11.1055 15.356 11.3695 15.524C11.6335 15.68 11.9155 15.758 12.2155 15.758L12.8635 15.542C13.0315 15.542 13.2115 15.482 13.4035 15.362C13.6075 15.23 13.7095 15.044 13.7095 14.804V14.444C13.6855 14.3 13.6555 14.156 13.6195 14.012C13.5835 13.856 13.5295 13.7 13.4575 13.544C13.3615 13.376 13.2415 13.208 13.0975 13.04C12.9655 12.86 12.8515 12.746 12.7555 12.698C12.5875 12.638 12.5035 12.554 12.5035 12.446C12.5035 12.398 12.5275 12.362 12.5755 12.338C12.6355 12.302 12.7015 12.278 12.7735 12.266C12.8575 12.254 12.9535 12.248 13.0615 12.248H13.8535H14.7175H15.0595C15.1435 12.248 15.2095 12.242 15.2575 12.23C15.3175 12.218 15.3775 12.206 15.4375 12.194C15.4975 12.17 15.5755 12.152 15.6715 12.14C15.7675 12.116 15.8995 12.104 16.0675 12.104C16.1515 12.128 16.2295 12.158 16.3015 12.194C16.3615 12.218 16.4155 12.254 16.4635 12.302C16.5235 12.35 16.5535 12.398 16.5535 12.446C16.5535 12.518 16.5235 12.638 16.4635 12.806C16.4035 12.962 16.3375 13.04 16.2655 13.04H16.0675C15.8155 13.04 15.6055 13.136 15.4375 13.328C15.2815 13.52 15.2035 13.694 15.2035 13.85V14.354V14.894C15.2035 15.05 15.1795 15.17 15.1315 15.254C15.0835 15.338 15.0595 15.47 15.0595 15.65C15.0835 15.746 15.1015 15.842 15.1135 15.938C15.1255 16.022 15.1255 16.118 15.1135 16.226C15.1135 16.322 15.0955 16.412 15.0595 16.496C15.0595 16.58 15.0295 16.652 14.9695 16.712C14.9215 16.76 14.8675 16.808 14.8075 16.856C14.7355 16.904 14.6515 16.952 14.5555 17L13.3495 17.198H13.0615C13.0135 17.198 12.9355 17.186 12.8275 17.162C12.7315 17.15 12.6235 17.126 12.5035 17.09C12.3955 17.066 12.2755 17.042 12.1435 17.018C12.0235 17.006 11.9095 17 11.8015 17H11.3155C11.2555 17 11.1715 16.988 11.0635 16.964C10.9555 16.94 10.8535 16.904 10.7575 16.856C10.5775 16.796 10.3975 16.754 10.2175 16.73C10.0375 16.706 9.89952 16.694 9.80352 16.694C9.76752 16.646 9.70752 16.61 9.62352 16.586C9.55152 16.55 9.46752 16.514 9.37152 16.478C9.28752 16.442 9.20352 16.4 9.11952 16.352C9.04752 16.304 8.99352 16.238 8.95752 16.154C8.86152 16.118 8.73552 15.998 8.57952 15.794C8.43552 15.578 8.29152 15.338 8.14752 15.074C8.00352 14.81 7.87752 14.546 7.76952 14.282C7.66152 14.006 7.60752 13.778 7.60752 13.598V13.292C7.60752 13.196 7.57152 13.082 7.49952 12.95C7.43952 12.806 7.40952 12.686 7.40952 12.59V11.888V11.402C7.48152 11.21 7.54752 11.03 7.60752 10.862C7.65552 10.718 7.69752 10.574 7.73352 10.43C7.78152 10.274 7.80552 10.148 7.80552 10.052L7.94952 9.746C7.94952 9.482 8.05152 9.2 8.25552 8.9C8.45952 8.6 8.69952 8.318 8.97552 8.054C9.26352 7.79 9.55752 7.574 9.85752 7.406C10.1695 7.226 10.4335 7.136 10.6495 7.136C10.7455 7.124 10.8355 7.112 10.9195 7.1C10.9915 7.088 11.0635 7.076 11.1355 7.064C11.2075 7.052 11.2675 7.046 11.3155 7.046H11.5135C11.6935 7.046 11.8195 7.04 11.8915 7.028C11.9755 7.004 12.0535 6.98 12.1255 6.956C12.1975 6.92 12.2815 6.896 12.3775 6.884C12.4855 6.86 12.6475 6.848 12.8635 6.848H13.5655H14.2135ZM20.5565 8.54C20.6645 8.54 20.7425 8.6 20.7905 8.72C20.8385 8.84 20.8625 8.948 20.8625 9.044C20.6465 9.8 20.4545 10.49 20.2865 11.114C20.2145 11.378 20.1425 11.642 20.0705 11.906C19.9985 12.158 19.9325 12.392 19.8725 12.608C19.8245 12.824 19.7825 13.01 19.7465 13.166C19.7225 13.31 19.7105 13.406 19.7105 13.454C19.7105 13.538 19.6925 13.676 19.6565 13.868C19.6325 14.06 19.6325 14.24 19.6565 14.408C19.6925 14.564 19.7705 14.672 19.8905 14.732C20.0225 14.78 20.2445 14.702 20.5565 14.498C20.5805 14.438 20.6585 14.36 20.7905 14.264C20.9225 14.168 21.0665 14.048 21.2225 13.904C21.3185 13.808 21.3785 13.712 21.4025 13.616C21.4265 13.508 21.4625 13.454 21.5105 13.454C21.5105 13.358 21.5525 13.268 21.6365 13.184C21.7205 13.1 21.7625 13.022 21.7625 12.95C21.7865 12.866 21.8525 12.71 21.9605 12.482C22.0685 12.254 22.1885 11.978 22.3205 11.654C22.4285 11.426 22.5305 11.18 22.6265 10.916C22.7225 10.652 22.8065 10.394 22.8785 10.142C22.9505 9.89 23.0045 9.662 23.0405 9.458C23.0885 9.242 23.1125 9.068 23.1125 8.936C23.1125 8.804 23.1425 8.702 23.2025 8.63C23.2625 8.558 23.3345 8.504 23.4185 8.468C23.5145 8.432 23.6105 8.414 23.7065 8.414C23.8025 8.402 23.8865 8.396 23.9585 8.396H24.3725C24.5165 8.396 24.6305 8.468 24.7145 8.612C24.8105 8.756 24.8585 8.918 24.8585 9.098C24.8585 9.134 24.8405 9.248 24.8045 9.44C24.7805 9.62 24.7445 9.83 24.6965 10.07C24.6605 10.31 24.6125 10.556 24.5525 10.808C24.4925 11.06 24.4325 11.27 24.3725 11.438C24.1205 11.978 23.8745 12.518 23.6345 13.058C23.3945 13.586 23.2745 14.102 23.2745 14.606C23.2745 14.666 23.2985 14.732 23.3465 14.804C23.3705 14.84 23.3945 14.87 23.4185 14.894C23.5745 14.894 23.7305 14.846 23.8865 14.75C24.0545 14.654 24.1985 14.552 24.3185 14.444C24.4505 14.336 24.5645 14.234 24.6605 14.138C24.7565 14.042 24.8225 13.994 24.8585 13.994C24.8945 13.994 24.9305 14.012 24.9665 14.048C25.0145 14.084 25.0565 14.12 25.0925 14.156C25.1405 14.204 25.1825 14.252 25.2185 14.3C25.2185 14.348 25.1585 14.468 25.0385 14.66C24.9305 14.84 24.7985 15.038 24.6425 15.254C24.4985 15.458 24.3545 15.65 24.2105 15.83C24.0785 16.01 23.9945 16.118 23.9585 16.154C23.8385 16.238 23.7305 16.316 23.6345 16.388C23.5505 16.448 23.4725 16.514 23.4005 16.586C23.3285 16.646 23.2505 16.724 23.1665 16.82C23.0945 16.904 23.0105 17.012 22.9145 17.144C22.7585 17.3 22.5965 17.408 22.4285 17.468C22.2605 17.528 22.0865 17.558 21.9065 17.558C21.8225 17.558 21.7385 17.528 21.6545 17.468C21.5825 17.42 21.5165 17.354 21.4565 17.27C21.3965 17.198 21.3485 17.114 21.3125 17.018C21.2765 16.934 21.2585 16.862 21.2585 16.802V16.496V16.298C21.3065 16.154 21.3545 16.01 21.4025 15.866C21.4385 15.746 21.4745 15.62 21.5105 15.488C21.5465 15.356 21.5645 15.242 21.5645 15.146C21.5645 15.074 21.5525 15.002 21.5285 14.93C21.5165 14.846 21.4625 14.804 21.3665 14.804C21.2945 14.804 21.2105 14.852 21.1145 14.948C21.0185 15.032 20.9225 15.134 20.8265 15.254C20.7305 15.362 20.6405 15.47 20.5565 15.578C20.4725 15.686 20.4065 15.758 20.3585 15.794C20.2865 15.89 20.1545 16.04 19.9625 16.244C19.7705 16.436 19.5665 16.634 19.3505 16.838C19.1345 17.03 18.9245 17.204 18.7205 17.36C18.5285 17.516 18.3905 17.594 18.3065 17.594C18.2345 17.594 18.1625 17.558 18.0905 17.486C18.0185 17.426 17.9525 17.348 17.8925 17.252C17.8445 17.168 17.8025 17.084 17.7665 17C17.7305 16.904 17.7125 16.838 17.7125 16.802V16.298C17.7125 16.202 17.7185 16.106 17.7305 16.01C17.7425 15.926 17.7485 15.842 17.7485 15.758C17.7605 15.674 17.7665 15.602 17.7665 15.542C17.7665 15.47 17.7785 15.374 17.8025 15.254C17.8385 15.122 17.8565 14.972 17.8565 14.804C17.8565 14.648 17.8745 14.486 17.9105 14.318C17.9585 14.15 17.9945 14.024 18.0185 13.94L18.1625 13.256C18.1865 13.172 18.2465 13.028 18.3425 12.824C18.4505 12.62 18.5045 12.344 18.5045 11.996C18.5045 11.828 18.5105 11.714 18.5225 11.654C18.5345 11.582 18.4625 11.546 18.3065 11.546C18.2345 11.546 18.1565 11.558 18.0725 11.582C18.0005 11.606 17.8985 11.642 17.7665 11.69C17.6705 11.75 17.5745 11.798 17.4785 11.834C17.3825 11.87 17.3105 11.888 17.2625 11.888C17.1905 11.888 17.1125 11.846 17.0285 11.762C16.9445 11.666 16.9025 11.546 16.9025 11.402C16.9025 11.258 16.9385 11.15 17.0105 11.078C17.0825 10.994 17.1665 10.928 17.2625 10.88C17.3705 10.82 17.4725 10.766 17.5685 10.718C17.6645 10.658 17.7305 10.586 17.7665 10.502C17.9225 10.382 18.1085 10.214 18.3245 9.998C18.5405 9.77 18.7625 9.548 18.9905 9.332C19.2185 9.116 19.4345 8.93 19.6385 8.774C19.8545 8.618 20.0465 8.54 20.2145 8.54H20.5565ZM28.1715 8.648C28.3035 8.648 28.4055 8.69 28.4775 8.774C28.5495 8.858 28.6155 8.948 28.6755 9.044C28.7115 9.128 28.7235 9.242 28.7115 9.386C28.6995 9.53 28.6755 9.674 28.6395 9.818C28.6155 9.962 28.5855 10.1 28.5495 10.232C28.5255 10.364 28.5135 10.454 28.5135 10.502L28.5675 10.79L28.7655 11.15C28.8135 11.15 28.9035 11.084 29.0355 10.952C29.1795 10.808 29.3415 10.634 29.5215 10.43C29.7135 10.226 29.9115 10.01 30.1155 9.782C30.3195 9.542 30.5175 9.32 30.7095 9.116C30.9015 8.912 31.0755 8.744 31.2315 8.612C31.3875 8.468 31.5015 8.396 31.5735 8.396C31.6695 8.396 31.7475 8.456 31.8075 8.576C31.8795 8.696 31.9455 8.822 32.0055 8.954C32.0655 9.11 32.1195 9.29 32.1675 9.494C32.1795 9.662 32.1675 9.896 32.1315 10.196C32.0955 10.496 32.0355 10.826 31.9515 11.186C31.8795 11.534 31.7955 11.894 31.6995 12.266C31.6155 12.626 31.5315 12.962 31.4475 13.274C31.3755 13.574 31.3095 13.826 31.2495 14.03C31.2015 14.234 31.1775 14.342 31.1775 14.354C31.1775 14.402 31.1715 14.462 31.1595 14.534C31.1475 14.594 31.1415 14.654 31.1415 14.714C31.1415 14.762 31.1535 14.804 31.1775 14.84C31.2135 14.876 31.2795 14.894 31.3755 14.894C31.4475 14.846 31.5195 14.798 31.5915 14.75C31.6515 14.702 31.7175 14.654 31.7895 14.606C31.8615 14.558 31.9395 14.504 32.0235 14.444C32.2275 14.312 32.4135 14.192 32.5815 14.084C32.7615 13.964 32.8755 13.904 32.9235 13.904C32.9955 13.904 33.0735 13.946 33.1575 14.03C33.2415 14.102 33.2835 14.174 33.2835 14.246C33.2835 14.27 33.2415 14.336 33.1575 14.444C33.0855 14.552 32.9955 14.666 32.8875 14.786C32.7795 14.906 32.6715 15.014 32.5635 15.11C32.4555 15.206 32.3775 15.254 32.3295 15.254C32.3295 15.35 32.2935 15.44 32.2215 15.524C32.1615 15.608 32.0955 15.65 32.0235 15.65C31.8315 15.854 31.6695 16.052 31.5375 16.244C31.4055 16.436 31.2735 16.616 31.1415 16.784C31.0095 16.94 30.8655 17.066 30.7095 17.162C30.5535 17.258 30.3555 17.306 30.1155 17.306C30.0315 17.306 29.9415 17.276 29.8455 17.216C29.7615 17.156 29.6835 17.084 29.6115 17C29.5395 16.904 29.4795 16.808 29.4315 16.712C29.3955 16.604 29.3775 16.514 29.3775 16.442L29.3235 15.794C29.3955 15.47 29.4855 15.122 29.5935 14.75C29.7135 14.378 29.8215 14.03 29.9175 13.706C30.0135 13.43 30.0915 13.166 30.1515 12.914C30.2115 12.662 30.2535 12.422 30.2775 12.194V11.996C30.2295 11.66 30.1095 11.492 29.9175 11.492C29.6295 11.492 29.4015 11.558 29.2335 11.69C29.0655 11.81 28.9275 11.972 28.8195 12.176C28.7115 12.368 28.6155 12.578 28.5315 12.806C28.4595 13.034 28.3755 13.25 28.2795 13.454C28.2195 13.526 28.1775 13.598 28.1535 13.67C28.1415 13.73 28.1475 13.808 28.1715 13.904C28.1475 14.048 28.1175 14.192 28.0815 14.336C28.0575 14.48 28.0215 14.618 27.9735 14.75C27.8415 15.134 27.7155 15.518 27.5955 15.902C27.4755 16.274 27.3675 16.622 27.2715 16.946C27.3315 17.042 27.3195 17.096 27.2355 17.108C27.1635 17.132 27.0915 17.144 27.0195 17.144C26.9475 17.144 26.8455 17.138 26.7135 17.126C26.5815 17.126 26.4495 17.108 26.3175 17.072C26.1975 17.036 26.0835 16.982 25.9755 16.91C25.8795 16.838 25.8255 16.736 25.8135 16.604C25.7895 16.4 25.8135 16.19 25.8855 15.974C25.9575 15.746 26.0355 15.536 26.1195 15.344C26.2155 15.152 26.3055 14.984 26.3895 14.84C26.4735 14.696 26.5155 14.6 26.5155 14.552V14.246V13.904L26.4255 13.598C26.4255 13.526 26.4495 13.436 26.4975 13.328C26.5455 13.208 26.5935 13.094 26.6415 12.986C26.7015 12.866 26.7555 12.758 26.8035 12.662C26.8515 12.566 26.8755 12.494 26.8755 12.446V12.194L26.8215 11.492C26.8215 11.42 26.8095 11.348 26.7855 11.276C26.7735 11.192 26.7195 11.15 26.6235 11.15C26.5515 11.15 26.4675 11.168 26.3715 11.204C26.2875 11.24 26.1975 11.282 26.1015 11.33C26.0175 11.366 25.9335 11.402 25.8495 11.438C25.7775 11.474 25.7175 11.492 25.6695 11.492H25.5255C25.4415 11.444 25.4175 11.354 25.4535 11.222C25.5015 11.078 25.5255 10.97 25.5255 10.898C25.8255 10.478 26.1135 10.112 26.3895 9.8C26.6775 9.476 27.0195 9.188 27.4155 8.936C27.4995 8.888 27.6135 8.828 27.7575 8.756C27.9015 8.684 28.0395 8.648 28.1715 8.648ZM37.9872 8.288C38.1672 8.288 38.3292 8.372 38.4732 8.54C38.6172 8.708 38.6892 8.876 38.6892 9.044C38.6892 9.176 38.5932 9.29 38.4012 9.386C38.2092 9.47 37.9932 9.554 37.7532 9.638C37.5132 9.71 37.2732 9.782 37.0332 9.854C36.8052 9.926 36.6552 10.004 36.5832 10.088C36.4752 10.196 36.3972 10.322 36.3492 10.466C36.3012 10.598 36.2772 10.736 36.2772 10.88C36.2772 11.024 36.3012 11.162 36.3492 11.294C36.3972 11.426 36.4572 11.546 36.5292 11.654C36.6132 11.822 36.7092 12.002 36.8172 12.194C36.9372 12.374 37.0452 12.584 37.1412 12.824C37.2372 13.064 37.3152 13.334 37.3752 13.634C37.4472 13.934 37.4832 14.27 37.4832 14.642C37.4832 14.966 37.3752 15.296 37.1592 15.632C36.9432 15.956 36.6672 16.244 36.3312 16.496C36.0672 16.64 35.8632 16.76 35.7192 16.856C35.5752 16.94 35.4492 17.006 35.3412 17.054C35.2332 17.114 35.1252 17.15 35.0172 17.162C34.9212 17.186 34.7952 17.198 34.6392 17.198H33.9912C33.9312 17.198 33.8532 17.204 33.7572 17.216C33.6612 17.228 33.5652 17.246 33.4692 17.27C33.3492 17.294 33.2232 17.318 33.0912 17.342H32.9832H32.5872C32.2512 17.342 32.0832 17.18 32.0832 16.856C32.0832 16.772 32.1372 16.64 32.2452 16.46C32.3532 16.28 32.4912 16.106 32.6592 15.938C32.8152 15.77 32.9832 15.62 33.1632 15.488C33.3432 15.356 33.4992 15.29 33.6312 15.29C33.6672 15.29 33.7272 15.32 33.8112 15.38C33.8952 15.428 33.9912 15.482 34.0992 15.542C34.2192 15.602 34.3512 15.662 34.4952 15.722C34.6392 15.77 34.8012 15.794 34.9812 15.794C35.1012 15.794 35.2092 15.758 35.3052 15.686C35.4132 15.614 35.5032 15.53 35.5752 15.434C35.6472 15.326 35.7012 15.218 35.7372 15.11C35.7732 14.99 35.7912 14.888 35.7912 14.804C35.7912 14.6 35.7132 14.354 35.5572 14.066C35.4012 13.766 35.2272 13.466 35.0352 13.166C34.8432 12.854 34.6692 12.56 34.5132 12.284C34.3572 12.008 34.2792 11.78 34.2792 11.6V11.402C34.3272 11.198 34.3992 10.988 34.4952 10.772C34.5912 10.556 34.6992 10.358 34.8192 10.178C34.9392 9.998 35.0712 9.842 35.2152 9.71C35.3592 9.566 35.5152 9.476 35.6832 9.44C35.7672 9.392 35.8512 9.314 35.9352 9.206C36.0312 9.098 36.1152 8.996 36.1872 8.9C36.2832 8.804 36.3672 8.714 36.4392 8.63C36.5232 8.534 36.6072 8.474 36.6912 8.45C36.7872 8.366 36.9372 8.318 37.1412 8.306C37.3452 8.294 37.4952 8.288 37.5912 8.288H37.9872ZM52.0977 1.232H52.6018C52.6498 1.232 52.6978 1.268 52.7458 1.34C52.7938 1.412 52.8298 1.496 52.8538 1.592C52.8898 1.7 52.9198 1.814 52.9438 1.934V2.438C52.9438 2.858 52.7998 3.212 52.5117 3.5C52.2238 3.788 51.8518 3.932 51.3958 3.932C51.3718 3.908 51.3418 3.884 51.3058 3.86C51.2338 3.812 51.1678 3.788 51.1078 3.788C51.0238 3.788 50.9398 3.8 50.8558 3.824C50.7718 3.848 50.7058 3.884 50.6578 3.932C50.5858 4.004 50.5018 4.136 50.4058 4.328C50.3218 4.52 50.2378 4.724 50.1538 4.94C50.0818 5.144 50.0158 5.342 49.9558 5.534C49.8958 5.714 49.8598 5.834 49.8478 5.894L49.7578 6.344C49.6858 6.548 49.6078 6.728 49.5238 6.884C49.4518 7.04 49.3858 7.202 49.3258 7.37C49.2778 7.538 49.2358 7.718 49.1998 7.91C49.1638 8.102 49.1458 8.33 49.1458 8.594C49.0978 8.678 49.0378 8.852 48.9658 9.116C48.9058 9.368 48.8458 9.638 48.7858 9.926C48.7378 10.202 48.6958 10.46 48.6598 10.7C48.6238 10.928 48.6058 11.06 48.6058 11.096V11.438C48.6058 11.498 48.5938 11.594 48.5698 11.726C48.5578 11.858 48.5398 11.996 48.5158 12.14C48.5038 12.284 48.4858 12.422 48.4618 12.554C48.4498 12.674 48.4438 12.752 48.4438 12.788C48.4078 12.92 48.3838 13.04 48.3718 13.148C48.3718 13.256 48.3778 13.346 48.3898 13.418C48.4018 13.514 48.4198 13.592 48.4438 13.652C48.4438 13.688 48.4318 13.754 48.4078 13.85C48.3958 13.946 48.3898 14.048 48.3898 14.156C48.3898 14.264 48.4018 14.36 48.4258 14.444C48.4498 14.516 48.5098 14.552 48.6058 14.552C48.7618 14.552 48.9178 14.498 49.0738 14.39C49.2418 14.282 49.3918 14.162 49.5238 14.03C49.6558 13.886 49.7698 13.76 49.8658 13.652C49.9738 13.544 50.0518 13.49 50.0998 13.49C50.1718 13.49 50.2378 13.526 50.2978 13.598C50.3698 13.67 50.4058 13.754 50.4058 13.85C50.2858 13.982 50.1838 14.114 50.0998 14.246C50.0158 14.366 49.9438 14.492 49.8838 14.624C49.8238 14.744 49.7938 14.87 49.7938 15.002C49.7458 15.134 49.6738 15.266 49.5778 15.398C49.4818 15.518 49.3738 15.65 49.2538 15.794C49.1338 15.938 49.0138 16.088 48.8938 16.244C48.7858 16.388 48.6898 16.538 48.6058 16.694C48.6058 16.73 48.5758 16.778 48.5158 16.838C48.4678 16.886 48.4078 16.934 48.3358 16.982C48.2638 17.03 48.1858 17.072 48.1018 17.108C48.0298 17.156 47.9758 17.186 47.9398 17.198C47.6638 17.402 47.4298 17.552 47.2378 17.648C47.0458 17.744 46.9498 17.726 46.9498 17.594C46.8298 17.654 46.7458 17.636 46.6978 17.54C46.6498 17.456 46.6138 17.324 46.5898 17.144C46.5778 16.976 46.5778 16.784 46.5898 16.568C46.6018 16.34 46.6078 16.13 46.6078 15.938C46.6198 15.746 46.6198 15.584 46.6078 15.452C46.5958 15.32 46.5598 15.254 46.4998 15.254C46.4038 15.254 46.2778 15.32 46.1218 15.452C45.9778 15.572 45.8218 15.722 45.6538 15.902C45.5458 15.998 45.4198 16.136 45.2758 16.316C45.1318 16.496 44.9818 16.676 44.8258 16.856C44.6818 17.024 44.5378 17.174 44.3938 17.306C44.2618 17.438 44.1598 17.504 44.0878 17.504C43.9678 17.504 43.8478 17.468 43.7278 17.396C43.6078 17.336 43.4998 17.258 43.4038 17.162C43.3198 17.066 43.2478 16.958 43.1877 16.838C43.1278 16.706 43.0978 16.574 43.0978 16.442V16.154V15.344C43.0978 15.308 43.1098 15.224 43.1338 15.092C43.1578 14.948 43.1878 14.792 43.2238 14.624C43.2598 14.432 43.3018 14.222 43.3498 13.994C43.3498 13.946 43.3558 13.88 43.3678 13.796C43.3918 13.712 43.4158 13.634 43.4398 13.562C43.4758 13.478 43.5118 13.388 43.5478 13.292V13.148C43.5718 13.028 43.5958 12.908 43.6198 12.788C43.6438 12.692 43.6618 12.596 43.6738 12.5C43.6858 12.404 43.6918 12.338 43.6918 12.302C43.7638 12.122 43.8118 11.954 43.8358 11.798C43.8718 11.642 43.9438 11.474 44.0518 11.294C44.0878 11.03 44.1778 10.802 44.3218 10.61C44.4778 10.418 44.6578 10.244 44.8618 10.088C45.0658 9.932 45.2698 9.788 45.4738 9.656C45.6898 9.512 45.8818 9.356 46.0498 9.188C46.1218 9.188 46.1878 9.182 46.2478 9.17C46.3678 9.146 46.4698 9.086 46.5538 8.99C46.7698 8.954 46.9378 8.924 47.0578 8.9C47.1898 8.876 47.2918 8.84 47.3638 8.792C47.4478 8.732 47.5018 8.66 47.5258 8.576C47.5618 8.492 47.5858 8.366 47.5978 8.198L47.7418 7.694L47.9038 6.596L48.0478 5.894C48.0478 5.858 48.0598 5.774 48.0838 5.642C48.1078 5.51 48.1378 5.372 48.1738 5.228C48.2098 5.084 48.2458 4.952 48.2818 4.832C48.3178 4.7 48.3418 4.622 48.3538 4.598C48.3778 4.538 48.3898 4.49 48.3898 4.454C48.3898 4.418 48.3898 4.364 48.3898 4.292C48.3898 4.244 48.4078 4.172 48.4438 4.076C48.4798 3.98 48.5218 3.872 48.5698 3.752C48.6178 3.632 48.6718 3.518 48.7318 3.41C48.7918 3.29 48.8458 3.182 48.8938 3.086C49.0138 2.93 49.1458 2.75 49.2898 2.546C49.4338 2.342 49.5838 2.15 49.7398 1.97C49.8958 1.79 50.0578 1.634 50.2258 1.502C50.3938 1.358 50.5678 1.268 50.7478 1.232H50.8918C51.0718 1.232 51.1798 1.208 51.2158 1.16C51.2638 1.112 51.3238 1.088 51.3958 1.088L52.0977 1.232ZM46.8418 10.448C46.6018 10.448 46.3678 10.526 46.1398 10.682C45.9118 10.838 45.7078 11.03 45.5278 11.258C45.3598 11.486 45.2218 11.72 45.1138 11.96C45.0058 12.2 44.9518 12.41 44.9518 12.59C44.9518 12.638 44.9338 12.77 44.8978 12.986C44.8738 13.19 44.8678 13.4 44.8798 13.616C44.9038 13.82 44.9698 13.994 45.0778 14.138C45.1858 14.282 45.3778 14.318 45.6538 14.246C45.8818 14.186 46.0978 14.036 46.3018 13.796C46.5178 13.556 46.6978 13.274 46.8418 12.95C46.9978 12.626 47.1118 12.29 47.1838 11.942C47.2678 11.582 47.3038 11.252 47.2918 10.952C47.2918 10.856 47.2738 10.772 47.2378 10.7C47.2138 10.64 47.1658 10.586 47.0938 10.538C47.0338 10.478 46.9498 10.448 46.8418 10.448ZM53.7256 8.45C53.8936 8.45 54.0976 8.456 54.3376 8.468C54.5896 8.48 54.7996 8.522 54.9676 8.594C55.1476 8.594 55.2616 8.666 55.3096 8.81C55.3696 8.954 55.4416 9.116 55.5256 9.296C55.5736 9.344 55.6276 9.41 55.6876 9.494C55.7596 9.578 55.8196 9.668 55.8676 9.764C55.9276 9.848 55.9756 9.938 56.0116 10.034C56.0476 10.13 56.0656 10.214 56.0656 10.286L55.9216 11.888C55.9216 12.224 55.8496 12.596 55.7056 13.004C55.5616 13.412 55.3516 13.778 55.0756 14.102C54.9796 14.198 54.9076 14.306 54.8596 14.426C54.8236 14.534 54.7816 14.648 54.7336 14.768C54.6976 14.888 54.6496 15.014 54.5896 15.146C54.5416 15.266 54.4696 15.386 54.3736 15.506C54.3016 15.59 54.2176 15.692 54.1216 15.812C54.0376 15.932 53.9416 16.058 53.8336 16.19C53.7376 16.31 53.6296 16.424 53.5096 16.532C53.4016 16.628 53.2876 16.7 53.1676 16.748C52.9876 16.844 52.8376 16.928 52.7176 17C52.5976 17.072 52.4896 17.132 52.3936 17.18C52.2976 17.228 52.1956 17.258 52.0876 17.27C51.9916 17.294 51.8836 17.306 51.7636 17.306C51.5836 17.306 51.4156 17.264 51.2596 17.18C51.1036 17.096 50.9656 16.988 50.8456 16.856C50.7376 16.712 50.6476 16.556 50.5756 16.388C50.5036 16.208 50.4676 16.028 50.4676 15.848V14.642C50.4676 14.57 50.4436 14.504 50.3956 14.444C50.3476 14.384 50.3236 14.216 50.3236 13.94C50.3116 13.592 50.3956 13.172 50.5756 12.68C50.7556 12.188 50.9656 11.708 51.2056 11.24C51.4576 10.76 51.7036 10.34 51.9436 9.98C52.1956 9.608 52.3876 9.38 52.5196 9.296C52.6516 9.212 52.7596 9.122 52.8436 9.026C52.9396 8.918 53.0296 8.822 53.1136 8.738C53.1976 8.654 53.2816 8.588 53.3656 8.54C53.4616 8.48 53.5816 8.45 53.7256 8.45ZM53.8156 10.502C53.6236 10.502 53.4256 10.586 53.2216 10.754C53.0296 10.91 52.8496 11.096 52.6816 11.312C52.5136 11.516 52.3636 11.726 52.2316 11.942C52.0996 12.146 52.0096 12.296 51.9616 12.392L51.7816 13.076C51.7336 13.244 51.6916 13.406 51.6556 13.562C51.6316 13.718 51.6196 13.814 51.6196 13.85V14.192C51.6676 14.228 51.7096 14.3 51.7456 14.408C51.7816 14.516 51.8236 14.624 51.8716 14.732C51.9316 14.84 51.9976 14.936 52.0696 15.02C52.1416 15.104 52.2436 15.146 52.3756 15.146C52.6156 15.038 52.8376 14.93 53.0416 14.822C53.2096 14.726 53.3716 14.624 53.5276 14.516C53.6956 14.408 53.8096 14.3 53.8696 14.192C53.9416 14.024 54.0196 13.826 54.1036 13.598C54.1996 13.37 54.2896 13.154 54.3736 12.95C54.3496 12.854 54.3736 12.758 54.4456 12.662C54.5296 12.566 54.5716 12.476 54.5716 12.392V11.888C54.5716 11.828 54.5536 11.726 54.5176 11.582C54.4936 11.426 54.4456 11.27 54.3736 11.114C54.3136 10.946 54.2356 10.802 54.1396 10.682C54.0436 10.562 53.9356 10.502 53.8156 10.502ZM59.0739 8.648C59.2059 8.648 59.3079 8.69 59.3799 8.774C59.4519 8.858 59.5179 8.948 59.5779 9.044C59.6139 9.128 59.6259 9.242 59.6139 9.386C59.6019 9.53 59.5779 9.674 59.5419 9.818C59.5179 9.962 59.4879 10.1 59.4519 10.232C59.4279 10.364 59.4159 10.454 59.4159 10.502L59.4699 10.79L59.6679 11.15C59.7159 11.15 59.8059 11.084 59.9379 10.952C60.0819 10.808 60.2439 10.634 60.4239 10.43C60.6159 10.226 60.8139 10.01 61.0179 9.782C61.2219 9.542 61.4199 9.32 61.6119 9.116C61.8039 8.912 61.9779 8.744 62.1339 8.612C62.2899 8.468 62.4039 8.396 62.4759 8.396C62.5719 8.396 62.6499 8.456 62.7099 8.576C62.7819 8.696 62.8479 8.822 62.9079 8.954C62.9679 9.11 63.0219 9.29 63.0699 9.494C63.0819 9.662 63.0699 9.896 63.0339 10.196C62.9979 10.496 62.9379 10.826 62.8539 11.186C62.7819 11.534 62.6979 11.894 62.6019 12.266C62.5179 12.626 62.4339 12.962 62.3499 13.274C62.2779 13.574 62.2119 13.826 62.1519 14.03C62.1039 14.234 62.0799 14.342 62.0799 14.354C62.0799 14.402 62.0739 14.462 62.0619 14.534C62.0499 14.594 62.0439 14.654 62.0439 14.714C62.0439 14.762 62.0559 14.804 62.0799 14.84C62.1159 14.876 62.1819 14.894 62.2779 14.894C62.3499 14.846 62.4219 14.798 62.4939 14.75C62.5539 14.702 62.6199 14.654 62.6919 14.606C62.7639 14.558 62.8419 14.504 62.9259 14.444C63.1299 14.312 63.3159 14.192 63.4839 14.084C63.6639 13.964 63.7779 13.904 63.8259 13.904C63.8979 13.904 63.9759 13.946 64.0599 14.03C64.1439 14.102 64.1859 14.174 64.1859 14.246C64.1859 14.27 64.1439 14.336 64.0599 14.444C63.9879 14.552 63.8979 14.666 63.7899 14.786C63.6819 14.906 63.5739 15.014 63.4659 15.11C63.3579 15.206 63.2799 15.254 63.2319 15.254C63.2319 15.35 63.1959 15.44 63.1239 15.524C63.0639 15.608 62.9979 15.65 62.9259 15.65C62.7339 15.854 62.5719 16.052 62.4399 16.244C62.3079 16.436 62.1759 16.616 62.0439 16.784C61.9119 16.94 61.7679 17.066 61.6119 17.162C61.4559 17.258 61.2579 17.306 61.0179 17.306C60.9339 17.306 60.8439 17.276 60.7479 17.216C60.6639 17.156 60.5859 17.084 60.5139 17C60.4419 16.904 60.3819 16.808 60.3339 16.712C60.2979 16.604 60.2799 16.514 60.2799 16.442L60.2259 15.794C60.2979 15.47 60.3879 15.122 60.4959 14.75C60.6159 14.378 60.7239 14.03 60.8199 13.706C60.9159 13.43 60.9939 13.166 61.0539 12.914C61.1139 12.662 61.1559 12.422 61.1799 12.194V11.996C61.1319 11.66 61.0119 11.492 60.8199 11.492C60.5319 11.492 60.3039 11.558 60.1359 11.69C59.9679 11.81 59.8299 11.972 59.7219 12.176C59.6139 12.368 59.5179 12.578 59.4339 12.806C59.3619 13.034 59.2779 13.25 59.1819 13.454C59.1219 13.526 59.0799 13.598 59.0559 13.67C59.0439 13.73 59.0499 13.808 59.0739 13.904C59.0499 14.048 59.0199 14.192 58.9839 14.336C58.9599 14.48 58.9239 14.618 58.8759 14.75C58.7439 15.134 58.6179 15.518 58.4979 15.902C58.3779 16.274 58.2699 16.622 58.1739 16.946C58.2339 17.042 58.2219 17.096 58.1379 17.108C58.0659 17.132 57.9939 17.144 57.9219 17.144C57.8499 17.144 57.7479 17.138 57.6159 17.126C57.4839 17.126 57.3519 17.108 57.2199 17.072C57.0999 17.036 56.9859 16.982 56.8779 16.91C56.7819 16.838 56.7279 16.736 56.7159 16.604C56.6919 16.4 56.7159 16.19 56.7879 15.974C56.8599 15.746 56.9379 15.536 57.0219 15.344C57.1179 15.152 57.2079 14.984 57.2919 14.84C57.3759 14.696 57.4179 14.6 57.4179 14.552V14.246V13.904L57.3279 13.598C57.3279 13.526 57.3519 13.436 57.3999 13.328C57.4479 13.208 57.4959 13.094 57.5439 12.986C57.6039 12.866 57.6579 12.758 57.7059 12.662C57.7539 12.566 57.7779 12.494 57.7779 12.446V12.194L57.7239 11.492C57.7239 11.42 57.7119 11.348 57.6879 11.276C57.6759 11.192 57.6219 11.15 57.5259 11.15C57.4539 11.15 57.3699 11.168 57.2739 11.204C57.1899 11.24 57.0999 11.282 57.0039 11.33C56.9199 11.366 56.8359 11.402 56.7519 11.438C56.6799 11.474 56.6199 11.492 56.5719 11.492H56.4279C56.3439 11.444 56.3199 11.354 56.3559 11.222C56.4039 11.078 56.4279 10.97 56.4279 10.898C56.7279 10.478 57.0159 10.112 57.2919 9.8C57.5799 9.476 57.9219 9.188 58.3179 8.936C58.4019 8.888 58.5159 8.828 58.6599 8.756C58.8039 8.684 58.9419 8.648 59.0739 8.648ZM65.2895 7.244C65.2655 7.088 65.2775 6.974 65.3255 6.902C65.3855 6.818 65.4095 6.698 65.3975 6.542C65.3735 6.386 65.3615 6.26 65.3615 6.164C65.3615 6.068 65.3735 5.942 65.3975 5.786C65.4095 5.654 65.4275 5.54 65.4515 5.444C65.4755 5.348 65.4995 5.258 65.5235 5.174C65.5475 5.078 65.5715 4.976 65.5955 4.868C65.6315 4.76 65.6615 4.634 65.6855 4.49C65.6975 4.346 65.7035 4.19 65.7035 4.022C65.7155 3.854 65.7275 3.692 65.7395 3.536C65.7635 3.368 65.7935 3.218 65.8295 3.086C65.8775 2.942 65.9495 2.84 66.0455 2.78L66.8375 2.636C66.9335 2.6 67.0355 2.546 67.1435 2.474C67.2635 2.402 67.3715 2.348 67.4675 2.312C67.5755 2.276 67.6655 2.276 67.7375 2.312C67.8215 2.336 67.8755 2.426 67.8995 2.582C67.9475 2.834 67.9295 3.062 67.8455 3.266C67.7735 3.458 67.6715 3.668 67.5395 3.896C67.4075 4.172 67.2875 4.478 67.1795 4.814C67.0835 5.15 66.9875 5.492 66.8915 5.84C66.8315 6.056 66.7775 6.266 66.7295 6.47C66.6815 6.662 66.6275 6.848 66.5675 7.028C66.5075 7.196 66.4295 7.358 66.3335 7.514C66.2495 7.658 66.1355 7.784 65.9915 7.892C65.9195 7.952 65.8415 8.024 65.7575 8.108C65.6735 8.192 65.5835 8.204 65.4875 8.144C65.4155 8.084 65.3615 7.952 65.3255 7.748C65.3015 7.544 65.2895 7.376 65.2895 7.244ZM72.8855 5.75C72.9935 5.75 73.0955 5.756 73.1915 5.768C73.2995 5.768 73.3955 5.786 73.4795 5.822C73.5755 5.846 73.6475 5.894 73.6955 5.966C73.7555 6.026 73.7855 6.116 73.7855 6.236C73.7855 6.308 73.7015 6.446 73.5335 6.65C73.3655 6.842 73.1795 7.058 72.9755 7.298C72.7835 7.526 72.6035 7.754 72.4355 7.982C72.2675 8.198 72.1835 8.366 72.1835 8.486C72.1835 8.582 72.2075 8.654 72.2555 8.702C72.3155 8.75 72.3815 8.786 72.4535 8.81C72.5255 8.822 72.5975 8.834 72.6695 8.846C72.7535 8.846 72.8135 8.846 72.8495 8.846H73.4435C73.4675 8.822 73.5035 8.792 73.5515 8.756C73.6475 8.684 73.7255 8.648 73.7855 8.648C73.9655 8.648 74.0915 8.72 74.1635 8.864C74.2475 9.008 74.2895 9.17 74.2895 9.35V9.494V9.836C74.2895 9.968 74.2175 10.07 74.0735 10.142C73.9295 10.214 73.7675 10.268 73.5875 10.304C73.4195 10.34 73.2515 10.364 73.0835 10.376C72.9275 10.388 72.8315 10.394 72.7955 10.394C72.6155 10.394 72.5135 10.388 72.4895 10.376C72.4655 10.352 72.4175 10.34 72.3455 10.34H71.9855C71.9135 10.34 71.8115 10.376 71.6795 10.448C71.5475 10.52 71.4815 10.604 71.4815 10.7C71.4815 10.832 71.4755 10.952 71.4635 11.06C71.4515 11.156 71.4395 11.24 71.4275 11.312C71.4155 11.396 71.4035 11.474 71.3915 11.546C71.3555 11.618 71.3195 11.684 71.2835 11.744C71.2235 11.864 71.1935 11.966 71.1935 12.05V12.248C71.1935 12.452 71.1635 12.674 71.1035 12.914C71.0435 13.154 70.9895 13.298 70.9415 13.346C70.8815 13.406 70.8335 13.466 70.7975 13.526C70.7615 13.574 70.7435 13.712 70.7435 13.94V14.3C70.7435 14.372 70.7555 14.462 70.7795 14.57C70.8035 14.666 70.8455 14.756 70.9055 14.84C70.9655 14.924 71.0375 14.996 71.1215 15.056C71.2055 15.116 71.3135 15.146 71.4455 15.146C71.6015 15.146 71.7335 15.104 71.8415 15.02C71.8895 14.984 71.9375 14.942 71.9855 14.894C72.0815 14.894 72.1535 14.924 72.2015 14.984C72.2615 15.032 72.3155 15.086 72.3635 15.146C72.4115 15.218 72.4535 15.302 72.4895 15.398C72.4895 15.494 72.4475 15.62 72.3635 15.776C72.2915 15.932 72.2015 16.088 72.0935 16.244C71.9855 16.388 71.8715 16.52 71.7515 16.64C71.6315 16.748 71.5295 16.802 71.4455 16.802C71.3615 16.802 71.2775 16.868 71.1935 17C71.1215 17.144 71.0855 17.246 71.0855 17.306C71.0495 17.306 70.9835 17.318 70.8875 17.342C70.7915 17.366 70.6955 17.39 70.5995 17.414C70.4795 17.45 70.3595 17.48 70.2395 17.504C70.0835 17.504 69.9575 17.492 69.8615 17.468C69.7775 17.456 69.7355 17.402 69.7355 17.306C69.6995 17.282 69.6455 17.192 69.5735 17.036C69.5015 16.892 69.4295 16.73 69.3575 16.55C69.2855 16.37 69.2195 16.196 69.1595 16.028C69.1115 15.848 69.0875 15.722 69.0875 15.65V14.804C69.0875 14.756 69.0995 14.648 69.1235 14.48C69.1595 14.3 69.1955 14.108 69.2315 13.904C69.2795 13.688 69.3155 13.478 69.3395 13.274C69.3755 13.058 69.3935 12.884 69.3935 12.752V12.446C69.4895 12.17 69.5795 11.924 69.6635 11.708C69.7235 11.516 69.7835 11.342 69.8435 11.186C69.9035 11.018 69.9335 10.922 69.9335 10.898V10.34C69.9335 10.184 69.8855 10.088 69.7895 10.052C69.7175 9.992 69.6395 9.932 69.5555 9.872C69.4715 9.812 69.4295 9.734 69.4295 9.638C69.4295 9.566 69.4535 9.494 69.5015 9.422C69.5615 9.338 69.6275 9.254 69.6995 9.17C69.7835 9.086 69.8615 9.002 69.9335 8.918C70.0175 8.822 70.0835 8.732 70.1315 8.648C70.2155 8.468 70.2935 8.36 70.3655 8.324C70.4495 8.276 70.5395 8.216 70.6355 8.144C70.7915 7.964 70.9595 7.814 71.1395 7.694C71.3195 7.574 71.4875 7.388 71.6435 7.136C71.7395 6.968 71.8115 6.8 71.8595 6.632C71.9075 6.464 72.0155 6.332 72.1835 6.236C72.3395 6.188 72.4775 6.098 72.5975 5.966C72.7175 5.822 72.8135 5.75 72.8855 5.75ZM83.6038 0.889999C83.7838 0.901999 83.9578 0.937999 84.1258 0.997999C84.3058 1.058 84.4618 1.142 84.5938 1.25C84.7258 1.346 84.8218 1.472 84.8818 1.628C84.9418 1.772 84.9478 1.94 84.8998 2.132C84.8998 2.228 84.8938 2.294 84.8818 2.33C84.8818 2.354 84.8698 2.408 84.8458 2.492C84.8458 2.528 84.8278 2.6 84.7918 2.708C84.7558 2.816 84.7078 2.93 84.6478 3.05C84.5998 3.158 84.5458 3.26 84.4858 3.356C84.4258 3.44 84.3778 3.482 84.3418 3.482C84.1138 3.65 83.8678 3.782 83.6038 3.878C83.3518 3.974 83.1058 4.076 82.8658 4.184C82.6378 4.292 82.4338 4.424 82.2538 4.58C82.0738 4.736 81.9538 4.958 81.8938 5.246L81.7498 5.588C81.5458 6.008 81.3838 6.434 81.2638 6.866C81.1438 7.286 81.0358 7.694 80.9398 8.09V8.45C80.8438 8.69 80.7598 8.906 80.6878 9.098C80.6278 9.278 80.5978 9.446 80.5978 9.602C80.5858 9.65 80.5798 9.716 80.5798 9.8C80.5918 9.872 80.6098 9.944 80.6338 10.016C80.6698 10.088 80.7058 10.154 80.7418 10.214C80.7898 10.262 80.8378 10.286 80.8858 10.286C80.9578 10.298 81.0538 10.238 81.1738 10.106C81.3058 9.974 81.4498 9.83 81.6058 9.674C81.7738 9.506 81.9538 9.356 82.1458 9.224C82.3498 9.092 82.5658 9.032 82.7938 9.044C82.9498 9.056 83.0998 9.134 83.2438 9.278C83.3878 9.422 83.5078 9.584 83.6038 9.764C83.7118 9.932 83.7958 10.094 83.8558 10.25C83.9158 10.406 83.9458 10.502 83.9458 10.538C83.9338 10.718 83.8738 10.916 83.7658 11.132C83.6578 11.336 83.5378 11.54 83.4058 11.744C83.2858 11.948 83.1718 12.146 83.0638 12.338C82.9678 12.518 82.9138 12.668 82.9018 12.788C82.9018 12.932 82.9258 13.13 82.9738 13.382C83.0338 13.622 83.1178 13.862 83.2258 14.102C83.3338 14.342 83.4658 14.552 83.6218 14.732C83.7898 14.912 83.9818 15.002 84.1978 15.002C84.2698 15.014 84.3298 14.996 84.3778 14.948C84.4378 14.888 84.4918 14.822 84.5398 14.75C84.5878 14.666 84.6358 14.576 84.6838 14.48C84.7318 14.384 84.7858 14.306 84.8458 14.246C84.9778 14.174 85.0858 14.066 85.1698 13.922C85.2538 13.778 85.3618 13.706 85.4938 13.706H85.6558C85.7038 13.718 85.7338 13.754 85.7458 13.814C85.7698 13.874 85.7818 13.94 85.7818 14.012C85.7818 14.084 85.7758 14.156 85.7638 14.228C85.7518 14.288 85.7458 14.33 85.7458 14.354C85.7458 14.414 85.7038 14.534 85.6198 14.714C85.5358 14.894 85.4278 15.098 85.2958 15.326C85.1758 15.554 85.0378 15.794 84.8818 16.046C84.7258 16.286 84.5698 16.508 84.4138 16.712C84.2698 16.916 84.1378 17.084 84.0178 17.216C83.8978 17.348 83.8078 17.408 83.7478 17.396C83.4838 17.396 83.2618 17.318 83.0818 17.162C82.9018 17.006 82.7458 16.82 82.6138 16.604C82.4818 16.388 82.3678 16.16 82.2718 15.92C82.1878 15.68 82.1098 15.47 82.0378 15.29C82.0018 15.17 81.9478 15.008 81.8758 14.804C81.8038 14.588 81.7138 14.384 81.6058 14.192C81.4978 13.988 81.3658 13.808 81.2098 13.652C81.0658 13.496 80.8918 13.412 80.6878 13.4C80.6038 13.4 80.5318 13.442 80.4718 13.526C80.4118 13.61 80.3638 13.706 80.3278 13.814C80.2918 13.922 80.2618 14.03 80.2378 14.138C80.2258 14.246 80.2138 14.318 80.2018 14.354V14.894C80.1778 15.218 80.2558 15.44 80.4358 15.56C80.6158 15.68 80.8198 15.776 81.0478 15.848C81.2518 15.908 81.4318 16.004 81.5878 16.136C81.7558 16.256 81.8278 16.478 81.8038 16.802C81.8038 16.886 81.7738 16.958 81.7138 17.018C81.6658 17.09 81.6058 17.144 81.5338 17.18C81.4618 17.228 81.3838 17.258 81.2998 17.27C81.2278 17.294 81.1738 17.306 81.1378 17.306C81.0418 17.282 80.8918 17.24 80.6878 17.18C80.4958 17.12 80.3638 17.078 80.2918 17.054H79.7878C79.6078 17.054 79.4458 17.024 79.3018 16.964C79.2298 16.928 79.1578 16.892 79.0858 16.856C79.0138 16.856 78.9298 16.892 78.8338 16.964C78.7498 17.024 78.6718 17.054 78.5998 17.054C78.5038 17.042 78.3898 17.036 78.2578 17.036C78.1258 17.036 77.9938 17.024 77.8618 17C77.7418 16.976 77.6398 16.94 77.5558 16.892C77.4718 16.832 77.4358 16.736 77.4478 16.604C77.4478 16.4 77.5138 16.238 77.6458 16.118C77.7898 15.986 77.9458 15.848 78.1138 15.704C78.2938 15.548 78.4558 15.356 78.5998 15.128C78.7438 14.888 78.8218 14.564 78.8338 14.156C78.8578 13.976 78.8638 13.832 78.8518 13.724C78.8518 13.616 78.8638 13.472 78.8878 13.292C78.8878 13.196 78.8938 13.112 78.9058 13.04C78.9298 12.956 78.9898 12.872 79.0858 12.788L79.1398 10.898C79.1398 10.646 79.1458 10.472 79.1578 10.376C79.1818 10.268 79.1938 10.172 79.1938 10.088C79.2658 9.92 79.3138 9.782 79.3378 9.674C79.3738 9.566 79.3918 9.422 79.3918 9.242V8.594C79.4158 8.498 79.4578 8.366 79.5178 8.198C79.5778 8.03 79.6198 7.862 79.6438 7.694L79.8418 6.488C79.9378 5.84 80.1058 5.228 80.3458 4.652C80.5978 4.076 80.8618 3.47 81.1378 2.834C81.1858 2.726 81.2458 2.588 81.3178 2.42C81.4018 2.252 81.4978 2.09 81.6058 1.934C81.7258 1.766 81.8578 1.616 82.0018 1.484C82.1578 1.352 82.3378 1.268 82.5418 1.232C82.6378 1.232 82.7278 1.214 82.8118 1.178C82.8958 1.142 82.9738 1.112 83.0458 1.088C83.1418 1.028 83.2378 0.979999 83.3338 0.944C83.4298 0.907999 83.5198 0.889999 83.6038 0.889999ZM81.7498 10.79C81.4018 10.766 81.1198 10.862 80.9038 11.078C80.6878 11.294 80.5678 11.564 80.5438 11.888C80.5438 11.948 80.5438 12.02 80.5438 12.104C80.5558 12.188 80.5738 12.266 80.5978 12.338C80.6218 12.41 80.6638 12.47 80.7238 12.518C80.7958 12.566 80.8858 12.59 80.9938 12.59C81.1018 12.602 81.2218 12.566 81.3538 12.482C81.4978 12.386 81.6238 12.272 81.7318 12.14C81.8518 11.996 81.9478 11.846 82.0198 11.69C82.1038 11.534 82.1458 11.402 82.1458 11.294C82.1458 11.162 82.0978 11.048 82.0018 10.952C81.9058 10.844 81.8218 10.79 81.7498 10.79ZM88.508 8.342C88.712 8.342 88.88 8.42 89.012 8.576C89.144 8.72 89.21 8.876 89.21 9.044L89.048 9.548C89.12 9.62 89.168 9.722 89.192 9.854C89.204 9.914 89.21 9.98 89.21 10.052C89.21 10.292 89.18 10.514 89.12 10.718C89.072 10.922 89.048 11.15 89.048 11.402V11.546C89.048 11.606 89.042 11.678 89.03 11.762C89.018 11.834 89 11.906 88.976 11.978C88.952 12.062 88.928 12.152 88.904 12.248V12.446C88.904 12.578 88.88 12.686 88.832 12.77C88.796 12.854 88.754 12.962 88.706 13.094C88.682 13.19 88.64 13.292 88.58 13.4C88.532 13.496 88.508 13.61 88.508 13.742C88.508 13.79 88.52 13.856 88.544 13.94C88.568 14.012 88.604 14.09 88.652 14.174C88.7 14.246 88.754 14.312 88.814 14.372C88.886 14.42 88.964 14.444 89.048 14.444C89.144 14.444 89.228 14.414 89.3 14.354C89.384 14.294 89.45 14.228 89.498 14.156C89.558 14.096 89.618 14.048 89.678 14.012C89.75 13.964 89.828 13.94 89.912 13.94H90.254C90.326 13.94 90.368 13.976 90.38 14.048C90.392 14.12 90.398 14.204 90.398 14.3C90.398 14.336 90.344 14.408 90.236 14.516C90.128 14.624 90.008 14.744 89.876 14.876C89.744 14.996 89.612 15.116 89.48 15.236C89.348 15.344 89.258 15.416 89.21 15.452C89.174 15.536 89.096 15.68 88.976 15.884C88.856 16.088 88.724 16.298 88.58 16.514C88.436 16.718 88.28 16.898 88.112 17.054C87.956 17.222 87.818 17.306 87.698 17.306C87.614 17.306 87.518 17.276 87.41 17.216C87.314 17.168 87.224 17.096 87.14 17C87.056 16.916 86.984 16.826 86.924 16.73C86.876 16.634 86.852 16.538 86.852 16.442V16.154C86.852 16.058 86.846 15.974 86.834 15.902C86.822 15.83 86.78 15.794 86.708 15.794V15.452L86.852 14.948V14.102C86.852 13.922 86.876 13.778 86.924 13.67C86.972 13.562 86.996 13.424 86.996 13.256V13.094C86.996 13.01 87.02 12.89 87.068 12.734C87.128 12.578 87.188 12.41 87.248 12.23C87.308 12.05 87.362 11.876 87.41 11.708C87.47 11.528 87.5 11.372 87.5 11.24C87.5 11.144 87.458 11.042 87.374 10.934C87.302 10.814 87.176 10.754 86.996 10.754C86.924 10.754 86.858 10.778 86.798 10.826C86.75 10.874 86.6 10.898 86.348 10.898C86.324 10.886 86.3 10.856 86.276 10.808C86.228 10.736 86.204 10.646 86.204 10.538V10.25C86.204 10.142 86.306 9.986 86.51 9.782C86.726 9.566 86.966 9.356 87.23 9.152C87.506 8.936 87.77 8.75 88.022 8.594C88.274 8.426 88.436 8.342 88.508 8.342ZM88.562 4.094C88.61 4.094 88.67 4.088 88.742 4.076C88.826 4.052 88.91 4.034 88.994 4.022C89.078 3.998 89.156 3.98 89.228 3.968C89.312 3.944 89.372 3.932 89.408 3.932C89.576 3.992 89.684 4.094 89.732 4.238C89.78 4.382 89.852 4.532 89.948 4.688C89.948 4.784 89.954 4.88 89.966 4.976C89.99 5.072 90.002 5.162 90.002 5.246C90.002 5.318 89.978 5.408 89.93 5.516C89.882 5.612 89.858 5.738 89.858 5.894C89.834 5.978 89.798 6.08 89.75 6.2C89.714 6.32 89.66 6.434 89.588 6.542C89.528 6.638 89.45 6.722 89.354 6.794C89.27 6.854 89.168 6.872 89.048 6.848C88.88 6.848 88.694 6.794 88.49 6.686C88.298 6.566 88.154 6.416 88.058 6.236C87.974 6.164 87.944 6.056 87.968 5.912C87.992 5.768 88.004 5.642 88.004 5.534C88.004 5.21 88.058 4.946 88.166 4.742C88.274 4.538 88.406 4.322 88.562 4.094ZM96.9713 1.232C97.3193 1.232 97.5353 1.34 97.6193 1.556C97.7153 1.772 97.7633 2.018 97.7633 2.294V2.636C97.7633 2.804 97.7093 2.984 97.6013 3.176C97.4933 3.368 97.3613 3.548 97.2053 3.716C97.0493 3.872 96.8813 4.01 96.7013 4.13C96.5333 4.238 96.3893 4.292 96.2693 4.292C96.1133 4.292 95.9813 4.268 95.8733 4.22C95.7653 4.172 95.6633 4.148 95.5673 4.148C95.3153 4.148 95.0513 4.226 94.7753 4.382C94.5113 4.538 94.3433 4.79 94.2713 5.138C94.1753 5.318 94.1273 5.48 94.1273 5.624C94.1393 5.756 94.1213 5.894 94.0733 6.038C93.9653 6.29 93.8513 6.62 93.7313 7.028C93.6233 7.424 93.5693 7.796 93.5693 8.144C93.5693 8.18 93.5573 8.24 93.5333 8.324C93.5213 8.408 93.5033 8.498 93.4793 8.594C93.4553 8.702 93.4313 8.816 93.4073 8.936V9.494L93.1553 10.952C93.1793 11.12 93.1733 11.318 93.1373 11.546C93.1133 11.762 93.0713 12.014 93.0113 12.302C92.9513 12.59 92.8913 12.902 92.8313 13.238C92.7713 13.574 92.7293 13.928 92.7053 14.3C92.7053 14.372 92.7173 14.492 92.7413 14.66C92.7773 14.816 92.8373 14.894 92.9213 14.894C93.0293 14.894 93.1433 14.858 93.2633 14.786C93.3953 14.714 93.5213 14.624 93.6413 14.516C93.7613 14.408 93.8813 14.294 94.0013 14.174C94.1333 14.054 94.2533 13.946 94.3613 13.85C94.5893 13.622 94.8233 13.418 95.0633 13.238C95.3033 13.046 95.5373 12.95 95.7653 12.95L95.8733 13.094C95.8733 13.226 95.8373 13.382 95.7653 13.562C95.6933 13.73 95.6033 13.904 95.4953 14.084C95.3873 14.264 95.2673 14.432 95.1353 14.588C95.0033 14.744 94.8773 14.864 94.7573 14.948C94.5173 15.116 94.3193 15.32 94.1633 15.56C94.0193 15.8 93.8213 16.046 93.5693 16.298C93.4853 16.478 93.3533 16.628 93.1733 16.748C93.0053 16.856 92.8373 16.958 92.6693 17.054C92.4893 17.126 92.2673 17.216 92.0033 17.324C91.7513 17.444 91.5353 17.504 91.3553 17.504C91.2233 17.504 91.1273 17.48 91.0673 17.432C91.0193 17.396 90.9893 17.336 90.9773 17.252C90.9653 17.168 90.9653 17.06 90.9773 16.928C91.0013 16.796 91.0133 16.634 91.0133 16.442V15.29C91.0133 15.122 91.0433 14.954 91.1033 14.786C91.1753 14.618 91.2113 14.456 91.2113 14.3V13.94C91.2113 14.036 91.2233 13.994 91.2473 13.814C91.2713 13.622 91.3013 13.346 91.3373 12.986C91.3733 12.614 91.4033 12.176 91.4273 11.672C91.4513 11.168 91.4633 10.64 91.4633 10.088C91.4633 10.016 91.4933 9.914 91.5533 9.782C91.6253 9.638 91.6613 9.524 91.6613 9.44V8.792C91.7333 8.444 91.7873 8.102 91.8233 7.766C91.8593 7.43 91.8953 7.1 91.9313 6.776C91.9673 6.452 92.0153 6.128 92.0753 5.804C92.1353 5.468 92.2313 5.132 92.3633 4.796C92.4593 4.472 92.6153 4.16 92.8313 3.86C93.0473 3.56 93.2393 3.236 93.4073 2.888C93.4913 2.732 93.5813 2.588 93.6773 2.456C93.7853 2.324 93.9173 2.216 94.0733 2.132C94.2413 1.856 94.4693 1.64 94.7573 1.484C95.0573 1.316 95.3453 1.232 95.6213 1.232H96.9713ZM102.368 1.232C102.716 1.232 102.932 1.34 103.016 1.556C103.112 1.772 103.16 2.018 103.16 2.294V2.636C103.16 2.804 103.106 2.984 102.998 3.176C102.89 3.368 102.758 3.548 102.602 3.716C102.446 3.872 102.278 4.01 102.098 4.13C101.93 4.238 101.786 4.292 101.666 4.292C101.51 4.292 101.378 4.268 101.27 4.22C101.162 4.172 101.06 4.148 100.964 4.148C100.712 4.148 100.448 4.226 100.172 4.382C99.9078 4.538 99.7398 4.79 99.6678 5.138C99.5718 5.318 99.5238 5.48 99.5238 5.624C99.5358 5.756 99.5178 5.894 99.4698 6.038C99.3618 6.29 99.2478 6.62 99.1278 7.028C99.0198 7.424 98.9658 7.796 98.9658 8.144C98.9658 8.18 98.9538 8.24 98.9298 8.324C98.9178 8.408 98.8998 8.498 98.8758 8.594C98.8518 8.702 98.8278 8.816 98.8038 8.936V9.494L98.5518 10.952C98.5758 11.12 98.5698 11.318 98.5338 11.546C98.5098 11.762 98.4678 12.014 98.4078 12.302C98.3478 12.59 98.2878 12.902 98.2278 13.238C98.1678 13.574 98.1258 13.928 98.1018 14.3C98.1018 14.372 98.1138 14.492 98.1378 14.66C98.1738 14.816 98.2338 14.894 98.3178 14.894C98.4258 14.894 98.5398 14.858 98.6598 14.786C98.7918 14.714 98.9178 14.624 99.0378 14.516C99.1578 14.408 99.2778 14.294 99.3978 14.174C99.5298 14.054 99.6498 13.946 99.7578 13.85C99.9858 13.622 100.22 13.418 100.46 13.238C100.7 13.046 100.934 12.95 101.162 12.95L101.27 13.094C101.27 13.226 101.234 13.382 101.162 13.562C101.09 13.73 101 13.904 100.892 14.084C100.784 14.264 100.664 14.432 100.532 14.588C100.4 14.744 100.274 14.864 100.154 14.948C99.9138 15.116 99.7158 15.32 99.5598 15.56C99.4158 15.8 99.2178 16.046 98.9658 16.298C98.8818 16.478 98.7498 16.628 98.5698 16.748C98.4018 16.856 98.2338 16.958 98.0658 17.054C97.8858 17.126 97.6638 17.216 97.3998 17.324C97.1478 17.444 96.9318 17.504 96.7518 17.504C96.6198 17.504 96.5238 17.48 96.4638 17.432C96.4158 17.396 96.3858 17.336 96.3738 17.252C96.3618 17.168 96.3618 17.06 96.3738 16.928C96.3978 16.796 96.4098 16.634 96.4098 16.442V15.29C96.4098 15.122 96.4398 14.954 96.4998 14.786C96.5718 14.618 96.6078 14.456 96.6078 14.3V13.94C96.6078 14.036 96.6198 13.994 96.6438 13.814C96.6678 13.622 96.6978 13.346 96.7338 12.986C96.7698 12.614 96.7998 12.176 96.8238 11.672C96.8478 11.168 96.8598 10.64 96.8598 10.088C96.8598 10.016 96.8898 9.914 96.9498 9.782C97.0218 9.638 97.0578 9.524 97.0578 9.44V8.792C97.1298 8.444 97.1838 8.102 97.2198 7.766C97.2558 7.43 97.2918 7.1 97.3278 6.776C97.3638 6.452 97.4118 6.128 97.4718 5.804C97.5318 5.468 97.6278 5.132 97.7598 4.796C97.8558 4.472 98.0118 4.16 98.2278 3.86C98.4438 3.56 98.6358 3.236 98.8038 2.888C98.8878 2.732 98.9778 2.588 99.0738 2.456C99.1818 2.324 99.3138 2.216 99.4698 2.132C99.6378 1.856 99.8658 1.64 100.154 1.484C100.454 1.316 100.742 1.232 101.018 1.232H102.368ZM109.303 6.74C109.339 6.74 109.399 6.764 109.483 6.812C109.579 6.848 109.669 6.902 109.753 6.974C109.849 7.034 109.933 7.106 110.005 7.19C110.077 7.274 110.113 7.358 110.113 7.442C110.005 7.706 109.903 7.952 109.807 8.18C109.723 8.384 109.639 8.588 109.555 8.792C109.471 8.984 109.405 9.134 109.357 9.242C109.321 9.29 109.255 9.392 109.159 9.548C109.063 9.692 108.961 9.854 108.853 10.034C108.745 10.202 108.649 10.37 108.565 10.538C108.493 10.706 108.457 10.826 108.457 10.898L108.619 11.15C108.739 11.15 108.919 11.03 109.159 10.79C109.411 10.55 109.675 10.286 109.951 9.998C110.227 9.71 110.497 9.446 110.761 9.206C111.025 8.966 111.241 8.846 111.409 8.846C111.589 8.846 111.727 8.942 111.823 9.134C111.919 9.314 111.991 9.518 112.039 9.746C112.099 9.974 112.135 10.19 112.147 10.394C112.159 10.598 112.165 10.718 112.165 10.754C112.165 10.826 112.135 10.97 112.075 11.186C112.027 11.39 111.991 11.576 111.967 11.744C111.919 11.78 111.895 11.822 111.895 11.87C111.895 11.906 111.901 11.936 111.913 11.96C111.925 11.996 111.943 12.026 111.967 12.05C111.955 12.182 111.901 12.374 111.805 12.626C111.721 12.866 111.625 13.106 111.517 13.346C111.409 13.586 111.307 13.808 111.211 14.012C111.115 14.204 111.049 14.318 111.013 14.354C110.881 14.558 110.737 14.738 110.581 14.894C110.437 15.05 110.281 15.2 110.113 15.344C109.945 15.5 109.741 15.656 109.501 15.812C109.261 15.956 109.063 16.154 108.907 16.406C108.727 16.574 108.535 16.718 108.331 16.838C108.139 16.958 107.959 17.084 107.791 17.216C107.623 17.36 107.491 17.516 107.395 17.684C107.299 17.864 107.269 18.086 107.305 18.35V18.71C107.293 18.878 107.275 19.016 107.251 19.124C107.227 19.244 107.197 19.364 107.161 19.484C107.137 19.616 107.113 19.76 107.089 19.916C107.065 20.072 107.053 20.282 107.053 20.546C107.041 20.762 107.023 20.93 106.999 21.05C106.987 21.17 106.963 21.266 106.927 21.338C106.903 21.41 106.879 21.47 106.855 21.518C106.831 21.566 106.813 21.626 106.801 21.698C106.801 21.794 106.801 21.92 106.801 22.076C106.801 22.244 106.789 22.454 106.765 22.706V23.102C106.765 23.354 106.825 23.498 106.945 23.534C107.077 23.582 107.233 23.606 107.413 23.606H107.755C107.935 23.606 108.085 23.684 108.205 23.84C108.337 24.008 108.403 24.182 108.403 24.362C108.403 24.434 108.355 24.506 108.259 24.578C108.175 24.65 108.061 24.728 107.917 24.812C107.737 24.812 107.551 24.866 107.359 24.974C107.179 25.082 106.963 25.124 106.711 25.1H106.009C105.757 25.16 105.499 25.196 105.235 25.208C104.971 25.232 104.713 25.28 104.461 25.352C104.329 25.34 104.233 25.34 104.173 25.352C104.101 25.364 104.041 25.382 103.993 25.406C103.933 25.43 103.879 25.454 103.831 25.478C103.771 25.502 103.699 25.514 103.615 25.514C103.543 25.502 103.477 25.466 103.417 25.406C103.345 25.346 103.291 25.274 103.255 25.19C103.207 25.118 103.171 25.046 103.147 24.974C103.123 24.902 103.111 24.848 103.111 24.812C103.123 24.668 103.171 24.56 103.255 24.488C103.327 24.428 103.417 24.38 103.525 24.344C103.633 24.32 103.747 24.308 103.867 24.308C103.975 24.308 104.071 24.308 104.155 24.308C104.203 24.272 104.263 24.242 104.335 24.218C104.395 24.206 104.455 24.182 104.515 24.146C104.563 24.122 104.611 24.086 104.659 24.038C104.695 24.002 104.713 23.942 104.713 23.858C104.749 23.774 104.791 23.66 104.839 23.516C104.875 23.372 104.911 23.234 104.947 23.102C104.983 22.97 105.019 22.844 105.055 22.724C105.079 22.616 105.097 22.544 105.109 22.508V22.346C105.109 22.298 105.127 22.172 105.163 21.968C105.199 21.776 105.247 21.572 105.307 21.356C105.355 21.104 105.421 20.822 105.505 20.51C105.529 20.438 105.559 20.372 105.595 20.312C105.619 20.252 105.643 20.192 105.667 20.132C105.691 20.084 105.703 20.042 105.703 20.006C105.703 19.922 105.709 19.778 105.721 19.574C105.745 19.382 105.757 19.058 105.757 18.602L105.955 18.098L106.153 16.946L106.207 16.442C106.207 16.406 106.225 16.352 106.261 16.28C106.297 16.196 106.339 16.106 106.387 16.01C106.435 15.914 106.477 15.812 106.513 15.704C106.549 15.596 106.567 15.494 106.567 15.398C106.579 15.23 106.585 15.074 106.585 14.93C106.597 14.786 106.609 14.648 106.621 14.516C106.633 14.384 106.645 14.246 106.657 14.102C106.693 13.934 106.735 13.772 106.783 13.616C106.819 13.484 106.855 13.352 106.891 13.22C106.927 13.088 106.969 12.98 107.017 12.896L107.053 11.888C107.053 11.66 106.939 11.546 106.711 11.546C106.615 11.546 106.519 11.588 106.423 11.672C106.339 11.756 106.237 11.846 106.117 11.942C105.853 12.206 105.649 12.338 105.505 12.338C105.445 12.326 105.409 12.314 105.397 12.302C105.385 12.278 105.373 12.254 105.361 12.23C105.349 12.206 105.349 12.176 105.361 12.14C105.361 11.9 105.439 11.684 105.595 11.492C105.751 11.288 105.907 11.072 106.063 10.844C106.243 10.508 106.459 10.184 106.711 9.872C106.963 9.56 107.221 9.248 107.485 8.936C107.749 8.612 107.995 8.288 108.223 7.964C108.463 7.628 108.661 7.268 108.817 6.884C108.877 6.86 108.931 6.836 108.979 6.812C109.099 6.764 109.207 6.74 109.303 6.74ZM109.969 11.492C109.873 11.492 109.753 11.534 109.609 11.618C109.477 11.702 109.339 11.804 109.195 11.924C109.063 12.032 108.949 12.14 108.853 12.248C108.757 12.344 108.709 12.41 108.709 12.446C108.541 12.794 108.403 13.112 108.295 13.4C108.199 13.676 108.085 13.976 107.953 14.3V14.804C107.953 14.9 107.971 15.008 108.007 15.128C108.055 15.248 108.205 15.32 108.457 15.344C108.529 15.344 108.631 15.296 108.763 15.2C108.907 15.104 109.045 14.99 109.177 14.858C109.333 14.714 109.495 14.546 109.663 14.354C109.759 14.294 109.849 14.222 109.933 14.138C110.017 14.042 110.113 13.946 110.221 13.85C110.293 13.694 110.335 13.592 110.347 13.544C110.359 13.484 110.365 13.37 110.365 13.202C110.365 13.166 110.359 13.124 110.347 13.076C110.335 13.016 110.323 12.956 110.311 12.896C110.287 12.836 110.269 12.77 110.257 12.698V12.338C110.257 12.302 110.257 12.242 110.257 12.158C110.257 12.062 110.251 11.972 110.239 11.888C110.227 11.792 110.197 11.708 110.149 11.636C110.113 11.552 110.053 11.504 109.969 11.492ZM116.12 8.45C116.372 8.45 116.582 8.498 116.75 8.594C116.93 8.678 117.074 8.798 117.182 8.954C117.29 9.11 117.368 9.29 117.416 9.494C117.464 9.698 117.482 9.914 117.47 10.142C117.47 10.466 117.35 10.73 117.11 10.934C116.87 11.126 116.624 11.294 116.372 11.438C116.144 11.594 115.898 11.732 115.634 11.852C115.382 11.972 115.142 12.104 114.914 12.248C114.698 12.392 114.512 12.56 114.356 12.752C114.212 12.944 114.134 13.19 114.122 13.49V14.246C114.098 14.45 114.14 14.654 114.248 14.858C114.356 15.05 114.494 15.146 114.662 15.146C114.674 15.158 114.722 15.14 114.806 15.092C114.89 15.044 114.98 14.99 115.076 14.93C115.184 14.858 115.286 14.786 115.382 14.714C115.49 14.642 115.568 14.588 115.616 14.552C115.796 14.468 115.934 14.402 116.03 14.354C116.138 14.294 116.216 14.276 116.264 14.3C116.348 14.3 116.42 14.312 116.48 14.336C116.54 14.36 116.57 14.45 116.57 14.606C116.546 14.87 116.432 15.128 116.228 15.38C116.024 15.62 115.802 15.848 115.562 16.064C115.322 16.268 115.088 16.448 114.86 16.604C114.632 16.76 114.482 16.874 114.41 16.946C114.206 17.126 114.014 17.222 113.834 17.234C113.666 17.246 113.492 17.252 113.312 17.252C113.204 17.24 113.09 17.192 112.97 17.108C112.862 17.024 112.76 16.928 112.664 16.82C112.58 16.7 112.514 16.58 112.466 16.46C112.418 16.34 112.4 16.238 112.412 16.154V15.848C112.412 15.764 112.388 15.674 112.34 15.578C112.316 15.53 112.292 15.488 112.268 15.452L112.322 15.092V14.804C112.322 14.756 112.334 14.63 112.358 14.426C112.382 14.21 112.412 13.982 112.448 13.742C112.484 13.49 112.514 13.256 112.538 13.04C112.574 12.812 112.598 12.662 112.61 12.59C112.658 12.554 112.682 12.518 112.682 12.482C112.682 12.446 112.676 12.41 112.664 12.374C112.652 12.338 112.646 12.296 112.646 12.248C112.646 12.188 112.67 12.122 112.718 12.05C112.718 11.906 112.748 11.756 112.808 11.6C112.844 11.516 112.88 11.432 112.916 11.348L113.168 10.754C113.192 10.49 113.318 10.22 113.546 9.944C113.774 9.656 114.038 9.398 114.338 9.17C114.65 8.942 114.968 8.762 115.292 8.63C115.616 8.486 115.892 8.426 116.12 8.45ZM115.31 9.8C115.25 9.8 115.19 9.848 115.13 9.944C115.07 10.028 115.01 10.124 114.95 10.232C114.89 10.364 114.83 10.502 114.77 10.646C114.758 10.706 114.74 10.778 114.716 10.862C114.692 10.934 114.674 11.006 114.662 11.078C114.65 11.138 114.656 11.192 114.68 11.24C114.704 11.276 114.752 11.294 114.824 11.294C114.884 11.306 114.974 11.294 115.094 11.258C115.214 11.222 115.334 11.168 115.454 11.096C115.586 11.024 115.7 10.94 115.796 10.844C115.904 10.736 115.964 10.622 115.976 10.502V10.196C115.976 10.136 115.958 10.082 115.922 10.034C115.886 9.986 115.844 9.95 115.796 9.926C115.748 9.89 115.688 9.86 115.616 9.836L115.31 9.8ZM120.839 8.45C121.007 8.45 121.211 8.456 121.451 8.468C121.703 8.48 121.913 8.522 122.081 8.594C122.261 8.594 122.375 8.666 122.423 8.81C122.483 8.954 122.555 9.116 122.639 9.296C122.687 9.344 122.741 9.41 122.801 9.494C122.873 9.578 122.933 9.668 122.981 9.764C123.041 9.848 123.089 9.938 123.125 10.034C123.161 10.13 123.179 10.214 123.179 10.286L123.035 11.888C123.035 12.224 122.963 12.596 122.819 13.004C122.675 13.412 122.465 13.778 122.189 14.102C122.093 14.198 122.021 14.306 121.973 14.426C121.937 14.534 121.895 14.648 121.847 14.768C121.811 14.888 121.763 15.014 121.703 15.146C121.655 15.266 121.583 15.386 121.487 15.506C121.415 15.59 121.331 15.692 121.235 15.812C121.151 15.932 121.055 16.058 120.947 16.19C120.851 16.31 120.743 16.424 120.623 16.532C120.515 16.628 120.401 16.7 120.281 16.748C120.101 16.844 119.951 16.928 119.831 17C119.711 17.072 119.603 17.132 119.507 17.18C119.411 17.228 119.309 17.258 119.201 17.27C119.105 17.294 118.997 17.306 118.877 17.306C118.697 17.306 118.529 17.264 118.373 17.18C118.217 17.096 118.079 16.988 117.959 16.856C117.851 16.712 117.761 16.556 117.689 16.388C117.617 16.208 117.581 16.028 117.581 15.848V14.642C117.581 14.57 117.557 14.504 117.509 14.444C117.461 14.384 117.437 14.216 117.437 13.94C117.425 13.592 117.509 13.172 117.689 12.68C117.869 12.188 118.079 11.708 118.319 11.24C118.571 10.76 118.817 10.34 119.057 9.98C119.309 9.608 119.501 9.38 119.633 9.296C119.765 9.212 119.873 9.122 119.957 9.026C120.053 8.918 120.143 8.822 120.227 8.738C120.311 8.654 120.395 8.588 120.479 8.54C120.575 8.48 120.695 8.45 120.839 8.45ZM120.929 10.502C120.737 10.502 120.539 10.586 120.335 10.754C120.143 10.91 119.963 11.096 119.795 11.312C119.627 11.516 119.477 11.726 119.345 11.942C119.213 12.146 119.123 12.296 119.075 12.392L118.895 13.076C118.847 13.244 118.805 13.406 118.769 13.562C118.745 13.718 118.733 13.814 118.733 13.85V14.192C118.781 14.228 118.823 14.3 118.859 14.408C118.895 14.516 118.937 14.624 118.985 14.732C119.045 14.84 119.111 14.936 119.183 15.02C119.255 15.104 119.357 15.146 119.489 15.146C119.729 15.038 119.951 14.93 120.155 14.822C120.323 14.726 120.485 14.624 120.641 14.516C120.809 14.408 120.923 14.3 120.983 14.192C121.055 14.024 121.133 13.826 121.217 13.598C121.313 13.37 121.403 13.154 121.487 12.95C121.463 12.854 121.487 12.758 121.559 12.662C121.643 12.566 121.685 12.476 121.685 12.392V11.888C121.685 11.828 121.667 11.726 121.631 11.582C121.607 11.426 121.559 11.27 121.487 11.114C121.427 10.946 121.349 10.802 121.253 10.682C121.157 10.562 121.049 10.502 120.929 10.502ZM126.529 6.74C126.565 6.74 126.625 6.764 126.709 6.812C126.805 6.848 126.895 6.902 126.979 6.974C127.075 7.034 127.159 7.106 127.231 7.19C127.303 7.274 127.339 7.358 127.339 7.442C127.231 7.706 127.129 7.952 127.033 8.18C126.949 8.384 126.865 8.588 126.781 8.792C126.697 8.984 126.631 9.134 126.583 9.242C126.547 9.29 126.481 9.392 126.385 9.548C126.289 9.692 126.187 9.854 126.079 10.034C125.971 10.202 125.875 10.37 125.791 10.538C125.719 10.706 125.683 10.826 125.683 10.898L125.845 11.15C125.965 11.15 126.145 11.03 126.385 10.79C126.637 10.55 126.901 10.286 127.177 9.998C127.453 9.71 127.723 9.446 127.987 9.206C128.251 8.966 128.467 8.846 128.635 8.846C128.815 8.846 128.953 8.942 129.049 9.134C129.145 9.314 129.217 9.518 129.265 9.746C129.325 9.974 129.361 10.19 129.373 10.394C129.385 10.598 129.391 10.718 129.391 10.754C129.391 10.826 129.361 10.97 129.301 11.186C129.253 11.39 129.217 11.576 129.193 11.744C129.145 11.78 129.121 11.822 129.121 11.87C129.121 11.906 129.127 11.936 129.139 11.96C129.151 11.996 129.169 12.026 129.193 12.05C129.181 12.182 129.127 12.374 129.031 12.626C128.947 12.866 128.851 13.106 128.743 13.346C128.635 13.586 128.533 13.808 128.437 14.012C128.341 14.204 128.275 14.318 128.239 14.354C128.107 14.558 127.963 14.738 127.807 14.894C127.663 15.05 127.507 15.2 127.339 15.344C127.171 15.5 126.967 15.656 126.727 15.812C126.487 15.956 126.289 16.154 126.133 16.406C125.953 16.574 125.761 16.718 125.557 16.838C125.365 16.958 125.185 17.084 125.017 17.216C124.849 17.36 124.717 17.516 124.621 17.684C124.525 17.864 124.495 18.086 124.531 18.35V18.71C124.519 18.878 124.501 19.016 124.477 19.124C124.453 19.244 124.423 19.364 124.387 19.484C124.363 19.616 124.339 19.76 124.315 19.916C124.291 20.072 124.279 20.282 124.279 20.546C124.267 20.762 124.249 20.93 124.225 21.05C124.213 21.17 124.189 21.266 124.153 21.338C124.129 21.41 124.105 21.47 124.081 21.518C124.057 21.566 124.039 21.626 124.027 21.698C124.027 21.794 124.027 21.92 124.027 22.076C124.027 22.244 124.015 22.454 123.991 22.706V23.102C123.991 23.354 124.051 23.498 124.171 23.534C124.303 23.582 124.459 23.606 124.639 23.606H124.981C125.161 23.606 125.311 23.684 125.431 23.84C125.563 24.008 125.629 24.182 125.629 24.362C125.629 24.434 125.581 24.506 125.485 24.578C125.401 24.65 125.287 24.728 125.143 24.812C124.963 24.812 124.777 24.866 124.585 24.974C124.405 25.082 124.189 25.124 123.937 25.1H123.235C122.983 25.16 122.725 25.196 122.461 25.208C122.197 25.232 121.939 25.28 121.687 25.352C121.555 25.34 121.459 25.34 121.399 25.352C121.327 25.364 121.267 25.382 121.219 25.406C121.159 25.43 121.105 25.454 121.057 25.478C120.997 25.502 120.925 25.514 120.841 25.514C120.769 25.502 120.703 25.466 120.643 25.406C120.571 25.346 120.517 25.274 120.481 25.19C120.433 25.118 120.397 25.046 120.373 24.974C120.349 24.902 120.337 24.848 120.337 24.812C120.349 24.668 120.397 24.56 120.481 24.488C120.553 24.428 120.643 24.38 120.751 24.344C120.859 24.32 120.973 24.308 121.093 24.308C121.201 24.308 121.297 24.308 121.381 24.308C121.429 24.272 121.489 24.242 121.561 24.218C121.621 24.206 121.681 24.182 121.741 24.146C121.789 24.122 121.837 24.086 121.885 24.038C121.921 24.002 121.939 23.942 121.939 23.858C121.975 23.774 122.017 23.66 122.065 23.516C122.101 23.372 122.137 23.234 122.173 23.102C122.209 22.97 122.245 22.844 122.281 22.724C122.305 22.616 122.323 22.544 122.335 22.508V22.346C122.335 22.298 122.353 22.172 122.389 21.968C122.425 21.776 122.473 21.572 122.533 21.356C122.581 21.104 122.647 20.822 122.731 20.51C122.755 20.438 122.785 20.372 122.821 20.312C122.845 20.252 122.869 20.192 122.893 20.132C122.917 20.084 122.929 20.042 122.929 20.006C122.929 19.922 122.935 19.778 122.947 19.574C122.971 19.382 122.983 19.058 122.983 18.602L123.181 18.098L123.379 16.946L123.433 16.442C123.433 16.406 123.451 16.352 123.487 16.28C123.523 16.196 123.565 16.106 123.613 16.01C123.661 15.914 123.703 15.812 123.739 15.704C123.775 15.596 123.793 15.494 123.793 15.398C123.805 15.23 123.811 15.074 123.811 14.93C123.823 14.786 123.835 14.648 123.847 14.516C123.859 14.384 123.871 14.246 123.883 14.102C123.919 13.934 123.961 13.772 124.009 13.616C124.045 13.484 124.081 13.352 124.117 13.22C124.153 13.088 124.195 12.98 124.243 12.896L124.279 11.888C124.279 11.66 124.165 11.546 123.937 11.546C123.841 11.546 123.745 11.588 123.649 11.672C123.565 11.756 123.463 11.846 123.343 11.942C123.079 12.206 122.875 12.338 122.731 12.338C122.671 12.326 122.635 12.314 122.623 12.302C122.611 12.278 122.599 12.254 122.587 12.23C122.575 12.206 122.575 12.176 122.587 12.14C122.587 11.9 122.665 11.684 122.821 11.492C122.977 11.288 123.133 11.072 123.289 10.844C123.469 10.508 123.685 10.184 123.937 9.872C124.189 9.56 124.447 9.248 124.711 8.936C124.975 8.612 125.221 8.288 125.449 7.964C125.689 7.628 125.887 7.268 126.043 6.884C126.103 6.86 126.157 6.836 126.205 6.812C126.325 6.764 126.433 6.74 126.529 6.74ZM127.195 11.492C127.099 11.492 126.979 11.534 126.835 11.618C126.703 11.702 126.565 11.804 126.421 11.924C126.289 12.032 126.175 12.14 126.079 12.248C125.983 12.344 125.935 12.41 125.935 12.446C125.767 12.794 125.629 13.112 125.521 13.4C125.425 13.676 125.311 13.976 125.179 14.3V14.804C125.179 14.9 125.197 15.008 125.233 15.128C125.281 15.248 125.431 15.32 125.683 15.344C125.755 15.344 125.857 15.296 125.989 15.2C126.133 15.104 126.271 14.99 126.403 14.858C126.559 14.714 126.721 14.546 126.889 14.354C126.985 14.294 127.075 14.222 127.159 14.138C127.243 14.042 127.339 13.946 127.447 13.85C127.519 13.694 127.561 13.592 127.573 13.544C127.585 13.484 127.591 13.37 127.591 13.202C127.591 13.166 127.585 13.124 127.573 13.076C127.561 13.016 127.549 12.956 127.537 12.896C127.513 12.836 127.495 12.77 127.483 12.698V12.338C127.483 12.302 127.483 12.242 127.483 12.158C127.483 12.062 127.477 11.972 127.465 11.888C127.453 11.792 127.423 11.708 127.375 11.636C127.339 11.552 127.279 11.504 127.195 11.492ZM135.924 1.232C136.272 1.232 136.488 1.34 136.572 1.556C136.668 1.772 136.716 2.018 136.716 2.294V2.636C136.716 2.804 136.662 2.984 136.554 3.176C136.446 3.368 136.314 3.548 136.158 3.716C136.002 3.872 135.834 4.01 135.654 4.13C135.486 4.238 135.342 4.292 135.222 4.292C135.066 4.292 134.934 4.268 134.826 4.22C134.718 4.172 134.616 4.148 134.52 4.148C134.268 4.148 134.004 4.226 133.728 4.382C133.464 4.538 133.296 4.79 133.224 5.138C133.128 5.318 133.08 5.48 133.08 5.624C133.092 5.756 133.074 5.894 133.026 6.038C132.918 6.29 132.804 6.62 132.684 7.028C132.576 7.424 132.522 7.796 132.522 8.144C132.522 8.18 132.51 8.24 132.486 8.324C132.474 8.408 132.456 8.498 132.432 8.594C132.408 8.702 132.384 8.816 132.36 8.936V9.494L132.108 10.952C132.132 11.12 132.126 11.318 132.09 11.546C132.066 11.762 132.024 12.014 131.964 12.302C131.904 12.59 131.844 12.902 131.784 13.238C131.724 13.574 131.682 13.928 131.658 14.3C131.658 14.372 131.67 14.492 131.694 14.66C131.73 14.816 131.79 14.894 131.874 14.894C131.982 14.894 132.096 14.858 132.216 14.786C132.348 14.714 132.474 14.624 132.594 14.516C132.714 14.408 132.834 14.294 132.954 14.174C133.086 14.054 133.206 13.946 133.314 13.85C133.542 13.622 133.776 13.418 134.016 13.238C134.256 13.046 134.49 12.95 134.718 12.95L134.826 13.094C134.826 13.226 134.79 13.382 134.718 13.562C134.646 13.73 134.556 13.904 134.448 14.084C134.34 14.264 134.22 14.432 134.088 14.588C133.956 14.744 133.83 14.864 133.71 14.948C133.47 15.116 133.272 15.32 133.116 15.56C132.972 15.8 132.774 16.046 132.522 16.298C132.438 16.478 132.306 16.628 132.126 16.748C131.958 16.856 131.79 16.958 131.622 17.054C131.442 17.126 131.22 17.216 130.956 17.324C130.704 17.444 130.488 17.504 130.308 17.504C130.176 17.504 130.08 17.48 130.02 17.432C129.972 17.396 129.942 17.336 129.93 17.252C129.918 17.168 129.918 17.06 129.93 16.928C129.954 16.796 129.966 16.634 129.966 16.442V15.29C129.966 15.122 129.996 14.954 130.056 14.786C130.128 14.618 130.164 14.456 130.164 14.3V13.94C130.164 14.036 130.176 13.994 130.2 13.814C130.224 13.622 130.254 13.346 130.29 12.986C130.326 12.614 130.356 12.176 130.38 11.672C130.404 11.168 130.416 10.64 130.416 10.088C130.416 10.016 130.446 9.914 130.506 9.782C130.578 9.638 130.614 9.524 130.614 9.44V8.792C130.686 8.444 130.74 8.102 130.776 7.766C130.812 7.43 130.848 7.1 130.884 6.776C130.92 6.452 130.968 6.128 131.028 5.804C131.088 5.468 131.184 5.132 131.316 4.796C131.412 4.472 131.568 4.16 131.784 3.86C132 3.56 132.192 3.236 132.36 2.888C132.444 2.732 132.534 2.588 132.63 2.456C132.738 2.324 132.87 2.216 133.026 2.132C133.194 1.856 133.422 1.64 133.71 1.484C134.01 1.316 134.298 1.232 134.574 1.232H135.924ZM138.567 8.45C138.819 8.45 139.029 8.498 139.197 8.594C139.377 8.678 139.521 8.798 139.629 8.954C139.737 9.11 139.815 9.29 139.863 9.494C139.911 9.698 139.929 9.914 139.917 10.142C139.917 10.466 139.797 10.73 139.557 10.934C139.317 11.126 139.071 11.294 138.819 11.438C138.591 11.594 138.345 11.732 138.081 11.852C137.829 11.972 137.589 12.104 137.361 12.248C137.145 12.392 136.959 12.56 136.803 12.752C136.659 12.944 136.581 13.19 136.569 13.49V14.246C136.545 14.45 136.587 14.654 136.695 14.858C136.803 15.05 136.941 15.146 137.109 15.146C137.121 15.158 137.169 15.14 137.253 15.092C137.337 15.044 137.427 14.99 137.523 14.93C137.631 14.858 137.733 14.786 137.829 14.714C137.937 14.642 138.015 14.588 138.063 14.552C138.243 14.468 138.381 14.402 138.477 14.354C138.585 14.294 138.663 14.276 138.711 14.3C138.795 14.3 138.867 14.312 138.927 14.336C138.987 14.36 139.017 14.45 139.017 14.606C138.993 14.87 138.879 15.128 138.675 15.38C138.471 15.62 138.249 15.848 138.009 16.064C137.769 16.268 137.535 16.448 137.307 16.604C137.079 16.76 136.929 16.874 136.857 16.946C136.653 17.126 136.461 17.222 136.281 17.234C136.113 17.246 135.939 17.252 135.759 17.252C135.651 17.24 135.537 17.192 135.417 17.108C135.309 17.024 135.207 16.928 135.111 16.82C135.027 16.7 134.961 16.58 134.913 16.46C134.865 16.34 134.847 16.238 134.859 16.154V15.848C134.859 15.764 134.835 15.674 134.787 15.578C134.763 15.53 134.739 15.488 134.715 15.452L134.769 15.092V14.804C134.769 14.756 134.781 14.63 134.805 14.426C134.829 14.21 134.859 13.982 134.895 13.742C134.931 13.49 134.961 13.256 134.985 13.04C135.021 12.812 135.045 12.662 135.057 12.59C135.105 12.554 135.129 12.518 135.129 12.482C135.129 12.446 135.123 12.41 135.111 12.374C135.099 12.338 135.093 12.296 135.093 12.248C135.093 12.188 135.117 12.122 135.165 12.05C135.165 11.906 135.195 11.756 135.255 11.6C135.291 11.516 135.327 11.432 135.363 11.348L135.615 10.754C135.639 10.49 135.765 10.22 135.993 9.944C136.221 9.656 136.485 9.398 136.785 9.17C137.097 8.942 137.415 8.762 137.739 8.63C138.063 8.486 138.339 8.426 138.567 8.45ZM137.757 9.8C137.697 9.8 137.637 9.848 137.577 9.944C137.517 10.028 137.457 10.124 137.397 10.232C137.337 10.364 137.277 10.502 137.217 10.646C137.205 10.706 137.187 10.778 137.163 10.862C137.139 10.934 137.121 11.006 137.109 11.078C137.097 11.138 137.103 11.192 137.127 11.24C137.151 11.276 137.199 11.294 137.271 11.294C137.331 11.306 137.421 11.294 137.541 11.258C137.661 11.222 137.781 11.168 137.901 11.096C138.033 11.024 138.147 10.94 138.243 10.844C138.351 10.736 138.411 10.622 138.423 10.502V10.196C138.423 10.136 138.405 10.082 138.369 10.034C138.333 9.986 138.291 9.95 138.243 9.926C138.195 9.89 138.135 9.86 138.063 9.836L137.757 9.8ZM140.532 14.444C140.532 14.276 140.61 14.168 140.766 14.12C140.922 14.072 141.078 14 141.234 13.904C141.282 13.868 141.318 13.814 141.342 13.742C141.378 13.67 141.408 13.604 141.432 13.544C141.468 13.484 141.504 13.436 141.54 13.4C141.588 13.352 141.648 13.334 141.72 13.346C141.828 13.346 141.912 13.37 141.972 13.418C142.032 13.466 142.098 13.526 142.17 13.598C142.506 13.826 142.704 14.09 142.764 14.39C142.836 14.69 142.872 15.044 142.872 15.452C142.872 15.632 142.848 15.794 142.8 15.938C142.764 16.07 142.71 16.202 142.638 16.334C142.566 16.466 142.482 16.598 142.386 16.73C142.302 16.862 142.218 17 142.134 17.144C141.93 17.456 141.738 17.708 141.558 17.9C141.378 18.092 141.132 18.278 140.82 18.458C140.592 18.578 140.376 18.704 140.172 18.836C139.98 18.98 139.776 19.106 139.56 19.214C139.356 19.334 139.146 19.43 138.93 19.502C138.702 19.574 138.45 19.61 138.174 19.61C138.15 19.61 138.12 19.598 138.084 19.574C138.036 19.55 137.988 19.526 137.94 19.502C137.892 19.466 137.838 19.43 137.778 19.394C137.814 19.238 137.88 19.106 137.976 18.998C138.072 18.89 138.186 18.794 138.318 18.71C138.45 18.626 138.588 18.542 138.732 18.458C138.864 18.386 138.996 18.302 139.128 18.206C139.38 18.014 139.62 17.834 139.848 17.666C140.088 17.498 140.304 17.318 140.496 17.126C140.688 16.934 140.838 16.724 140.946 16.496C141.066 16.256 141.126 15.974 141.126 15.65C141.126 15.53 141.096 15.428 141.036 15.344C140.976 15.248 140.904 15.158 140.82 15.074C140.748 14.99 140.682 14.9 140.622 14.804C140.562 14.708 140.532 14.588 140.532 14.444ZM152.346 6.848C152.382 6.848 152.442 6.86 152.526 6.884C152.61 6.896 152.7 6.914 152.796 6.938C152.892 6.95 152.982 6.962 153.066 6.974C153.162 6.986 153.234 6.992 153.282 6.992C153.306 6.992 153.348 7.016 153.408 7.064C153.468 7.112 153.522 7.172 153.57 7.244C153.63 7.316 153.678 7.4 153.714 7.496C153.762 7.58 153.786 7.664 153.786 7.748C153.786 7.796 153.714 7.838 153.57 7.874C153.426 7.91 153.264 7.946 153.084 7.982C152.904 8.018 152.742 8.06 152.598 8.108C152.454 8.156 152.382 8.216 152.382 8.288V9.548C152.406 9.644 152.436 9.734 152.472 9.818C152.496 9.89 152.52 9.962 152.544 10.034C152.568 10.106 152.58 10.16 152.58 10.196L152.382 11.042C152.382 11.078 152.388 11.144 152.4 11.24C152.424 11.336 152.448 11.438 152.472 11.546C152.508 11.654 152.532 11.756 152.544 11.852C152.568 11.948 152.58 12.014 152.58 12.05L152.742 12.95C152.742 13.202 152.712 13.436 152.652 13.652C152.604 13.868 152.58 14.018 152.58 14.102V14.606C152.58 14.678 152.544 14.744 152.472 14.804C152.412 14.852 152.382 15.002 152.382 15.254C152.382 15.302 152.4 15.362 152.436 15.434C152.472 15.494 152.514 15.554 152.562 15.614C152.622 15.662 152.682 15.704 152.742 15.74C152.802 15.776 152.85 15.794 152.886 15.794L153.282 15.902C153.618 16.058 153.786 16.31 153.786 16.658C153.786 16.802 153.684 16.916 153.48 17C153.288 17.096 153.09 17.144 152.886 17.144H152.58H152.238H151.896L151.23 16.946C151.158 16.946 151.056 16.964 150.924 17C150.792 17.036 150.654 17.078 150.51 17.126C150.366 17.174 150.234 17.216 150.114 17.252C149.994 17.288 149.916 17.306 149.88 17.306C149.808 17.306 149.706 17.264 149.574 17.18C149.454 17.108 149.394 17.03 149.394 16.946C149.394 16.814 149.46 16.7 149.592 16.604C149.736 16.496 149.886 16.394 150.042 16.298C150.21 16.19 150.348 16.076 150.456 15.956C150.576 15.836 150.618 15.686 150.582 15.506C150.486 15.326 150.462 15.194 150.51 15.11C150.558 15.014 150.582 14.924 150.582 14.84V14.354V13.148V10.538L150.384 10.052C150.408 9.92 150.438 9.794 150.474 9.674C150.498 9.578 150.522 9.488 150.546 9.404C150.57 9.308 150.582 9.236 150.582 9.188C150.582 8.948 150.564 8.762 150.528 8.63C150.492 8.486 150.444 8.372 150.384 8.288C150.324 8.228 150.258 8.192 150.186 8.18C150.114 8.156 150.036 8.144 149.952 8.144C149.88 8.132 149.802 8.12 149.718 8.108C149.634 8.096 149.556 8.072 149.484 8.036C149.412 7.988 149.352 7.91 149.304 7.802C149.256 7.694 149.232 7.526 149.232 7.298C149.232 7.25 149.238 7.202 149.25 7.154C149.262 7.118 149.274 7.082 149.286 7.046C149.31 7.01 149.346 6.992 149.394 6.992H149.736H150.384C150.432 6.992 150.486 6.998 150.546 7.01C150.618 7.022 150.684 7.04 150.744 7.064C150.804 7.088 150.87 7.112 150.942 7.136C151.014 7.136 151.104 7.13 151.212 7.118C151.32 7.106 151.422 7.088 151.518 7.064C151.638 7.04 151.764 7.016 151.896 6.992H152.094C152.142 6.992 152.202 6.968 152.274 6.92L152.346 6.848ZM168.5 1.232H169.004C169.052 1.232 169.1 1.268 169.148 1.34C169.196 1.412 169.232 1.496 169.256 1.592C169.292 1.7 169.322 1.814 169.346 1.934V2.438C169.346 2.858 169.202 3.212 168.914 3.5C168.626 3.788 168.254 3.932 167.798 3.932C167.774 3.908 167.744 3.884 167.708 3.86C167.636 3.812 167.57 3.788 167.51 3.788C167.426 3.788 167.342 3.8 167.258 3.824C167.174 3.848 167.108 3.884 167.06 3.932C166.988 4.004 166.904 4.136 166.808 4.328C166.724 4.52 166.64 4.724 166.556 4.94C166.484 5.144 166.418 5.342 166.358 5.534C166.298 5.714 166.262 5.834 166.25 5.894L166.16 6.344C166.088 6.548 166.01 6.728 165.926 6.884C165.854 7.04 165.788 7.202 165.728 7.37C165.68 7.538 165.638 7.718 165.602 7.91C165.566 8.102 165.548 8.33 165.548 8.594C165.5 8.678 165.44 8.852 165.368 9.116C165.308 9.368 165.248 9.638 165.188 9.926C165.14 10.202 165.098 10.46 165.062 10.7C165.026 10.928 165.008 11.06 165.008 11.096V11.438C165.008 11.498 164.996 11.594 164.972 11.726C164.96 11.858 164.942 11.996 164.918 12.14C164.906 12.284 164.888 12.422 164.864 12.554C164.852 12.674 164.846 12.752 164.846 12.788C164.81 12.92 164.786 13.04 164.774 13.148C164.774 13.256 164.78 13.346 164.792 13.418C164.804 13.514 164.822 13.592 164.846 13.652C164.846 13.688 164.834 13.754 164.81 13.85C164.798 13.946 164.792 14.048 164.792 14.156C164.792 14.264 164.804 14.36 164.828 14.444C164.852 14.516 164.912 14.552 165.008 14.552C165.164 14.552 165.32 14.498 165.476 14.39C165.644 14.282 165.794 14.162 165.926 14.03C166.058 13.886 166.172 13.76 166.268 13.652C166.376 13.544 166.454 13.49 166.502 13.49C166.574 13.49 166.64 13.526 166.7 13.598C166.772 13.67 166.808 13.754 166.808 13.85C166.688 13.982 166.586 14.114 166.502 14.246C166.418 14.366 166.346 14.492 166.286 14.624C166.226 14.744 166.196 14.87 166.196 15.002C166.148 15.134 166.076 15.266 165.98 15.398C165.884 15.518 165.776 15.65 165.656 15.794C165.536 15.938 165.416 16.088 165.296 16.244C165.188 16.388 165.092 16.538 165.008 16.694C165.008 16.73 164.978 16.778 164.918 16.838C164.87 16.886 164.81 16.934 164.738 16.982C164.666 17.03 164.588 17.072 164.504 17.108C164.432 17.156 164.378 17.186 164.342 17.198C164.066 17.402 163.832 17.552 163.64 17.648C163.448 17.744 163.352 17.726 163.352 17.594C163.232 17.654 163.148 17.636 163.1 17.54C163.052 17.456 163.016 17.324 162.992 17.144C162.98 16.976 162.98 16.784 162.992 16.568C163.004 16.34 163.01 16.13 163.01 15.938C163.022 15.746 163.022 15.584 163.01 15.452C162.998 15.32 162.962 15.254 162.902 15.254C162.806 15.254 162.68 15.32 162.524 15.452C162.38 15.572 162.224 15.722 162.056 15.902C161.948 15.998 161.822 16.136 161.678 16.316C161.534 16.496 161.384 16.676 161.228 16.856C161.084 17.024 160.94 17.174 160.796 17.306C160.664 17.438 160.562 17.504 160.49 17.504C160.37 17.504 160.25 17.468 160.13 17.396C160.01 17.336 159.902 17.258 159.806 17.162C159.722 17.066 159.65 16.958 159.59 16.838C159.53 16.706 159.5 16.574 159.5 16.442V16.154V15.344C159.5 15.308 159.512 15.224 159.536 15.092C159.56 14.948 159.59 14.792 159.626 14.624C159.662 14.432 159.704 14.222 159.752 13.994C159.752 13.946 159.758 13.88 159.77 13.796C159.794 13.712 159.818 13.634 159.842 13.562C159.878 13.478 159.914 13.388 159.95 13.292V13.148C159.974 13.028 159.998 12.908 160.022 12.788C160.046 12.692 160.064 12.596 160.076 12.5C160.088 12.404 160.094 12.338 160.094 12.302C160.166 12.122 160.214 11.954 160.238 11.798C160.274 11.642 160.346 11.474 160.454 11.294C160.49 11.03 160.58 10.802 160.724 10.61C160.88 10.418 161.06 10.244 161.264 10.088C161.468 9.932 161.672 9.788 161.876 9.656C162.092 9.512 162.284 9.356 162.452 9.188C162.524 9.188 162.59 9.182 162.65 9.17C162.77 9.146 162.872 9.086 162.956 8.99C163.172 8.954 163.34 8.924 163.46 8.9C163.592 8.876 163.694 8.84 163.766 8.792C163.85 8.732 163.904 8.66 163.928 8.576C163.964 8.492 163.988 8.366 164 8.198L164.144 7.694L164.306 6.596L164.45 5.894C164.45 5.858 164.462 5.774 164.486 5.642C164.51 5.51 164.54 5.372 164.576 5.228C164.612 5.084 164.648 4.952 164.684 4.832C164.72 4.7 164.744 4.622 164.756 4.598C164.78 4.538 164.792 4.49 164.792 4.454C164.792 4.418 164.792 4.364 164.792 4.292C164.792 4.244 164.81 4.172 164.846 4.076C164.882 3.98 164.924 3.872 164.972 3.752C165.02 3.632 165.074 3.518 165.134 3.41C165.194 3.29 165.248 3.182 165.296 3.086C165.416 2.93 165.548 2.75 165.692 2.546C165.836 2.342 165.986 2.15 166.142 1.97C166.298 1.79 166.46 1.634 166.628 1.502C166.796 1.358 166.97 1.268 167.15 1.232H167.294C167.474 1.232 167.582 1.208 167.618 1.16C167.666 1.112 167.726 1.088 167.798 1.088L168.5 1.232ZM163.244 10.448C163.004 10.448 162.77 10.526 162.542 10.682C162.314 10.838 162.11 11.03 161.93 11.258C161.762 11.486 161.624 11.72 161.516 11.96C161.408 12.2 161.354 12.41 161.354 12.59C161.354 12.638 161.336 12.77 161.3 12.986C161.276 13.19 161.27 13.4 161.282 13.616C161.306 13.82 161.372 13.994 161.48 14.138C161.588 14.282 161.78 14.318 162.056 14.246C162.284 14.186 162.5 14.036 162.704 13.796C162.92 13.556 163.1 13.274 163.244 12.95C163.4 12.626 163.514 12.29 163.586 11.942C163.67 11.582 163.706 11.252 163.694 10.952C163.694 10.856 163.676 10.772 163.64 10.7C163.616 10.64 163.568 10.586 163.496 10.538C163.436 10.478 163.352 10.448 163.244 10.448ZM170.128 8.45C170.296 8.45 170.5 8.456 170.74 8.468C170.992 8.48 171.202 8.522 171.37 8.594C171.55 8.594 171.664 8.666 171.712 8.81C171.772 8.954 171.844 9.116 171.928 9.296C171.976 9.344 172.03 9.41 172.09 9.494C172.162 9.578 172.222 9.668 172.27 9.764C172.33 9.848 172.378 9.938 172.414 10.034C172.45 10.13 172.468 10.214 172.468 10.286L172.324 11.888C172.324 12.224 172.252 12.596 172.108 13.004C171.964 13.412 171.754 13.778 171.478 14.102C171.382 14.198 171.31 14.306 171.262 14.426C171.226 14.534 171.184 14.648 171.136 14.768C171.1 14.888 171.052 15.014 170.992 15.146C170.944 15.266 170.872 15.386 170.776 15.506C170.704 15.59 170.62 15.692 170.524 15.812C170.44 15.932 170.344 16.058 170.236 16.19C170.14 16.31 170.032 16.424 169.912 16.532C169.804 16.628 169.69 16.7 169.57 16.748C169.39 16.844 169.24 16.928 169.12 17C169 17.072 168.892 17.132 168.796 17.18C168.7 17.228 168.598 17.258 168.49 17.27C168.394 17.294 168.286 17.306 168.166 17.306C167.986 17.306 167.818 17.264 167.662 17.18C167.506 17.096 167.368 16.988 167.248 16.856C167.14 16.712 167.05 16.556 166.978 16.388C166.906 16.208 166.87 16.028 166.87 15.848V14.642C166.87 14.57 166.846 14.504 166.798 14.444C166.75 14.384 166.726 14.216 166.726 13.94C166.714 13.592 166.798 13.172 166.978 12.68C167.158 12.188 167.368 11.708 167.608 11.24C167.86 10.76 168.106 10.34 168.346 9.98C168.598 9.608 168.79 9.38 168.922 9.296C169.054 9.212 169.162 9.122 169.246 9.026C169.342 8.918 169.432 8.822 169.516 8.738C169.6 8.654 169.684 8.588 169.768 8.54C169.864 8.48 169.984 8.45 170.128 8.45ZM170.218 10.502C170.026 10.502 169.828 10.586 169.624 10.754C169.432 10.91 169.252 11.096 169.084 11.312C168.916 11.516 168.766 11.726 168.634 11.942C168.502 12.146 168.412 12.296 168.364 12.392L168.184 13.076C168.136 13.244 168.094 13.406 168.058 13.562C168.034 13.718 168.022 13.814 168.022 13.85V14.192C168.07 14.228 168.112 14.3 168.148 14.408C168.184 14.516 168.226 14.624 168.274 14.732C168.334 14.84 168.4 14.936 168.472 15.02C168.544 15.104 168.646 15.146 168.778 15.146C169.018 15.038 169.24 14.93 169.444 14.822C169.612 14.726 169.774 14.624 169.93 14.516C170.098 14.408 170.212 14.3 170.272 14.192C170.344 14.024 170.422 13.826 170.506 13.598C170.602 13.37 170.692 13.154 170.776 12.95C170.752 12.854 170.776 12.758 170.848 12.662C170.932 12.566 170.974 12.476 170.974 12.392V11.888C170.974 11.828 170.956 11.726 170.92 11.582C170.896 11.426 170.848 11.27 170.776 11.114C170.716 10.946 170.638 10.802 170.542 10.682C170.446 10.562 170.338 10.502 170.218 10.502ZM173.82 7.334C173.82 7.19 173.844 7.07 173.892 6.974C173.94 6.878 173.952 6.77 173.928 6.65C173.904 6.518 173.904 6.392 173.928 6.272C173.964 6.152 173.982 6.026 173.982 5.894C173.982 5.738 173.988 5.606 174 5.498C174.012 5.39 174.024 5.294 174.036 5.21C174.06 5.114 174.084 5.024 174.108 4.94C174.132 4.844 174.156 4.73 174.18 4.598C174.192 4.454 174.198 4.304 174.198 4.148C174.198 3.98 174.204 3.818 174.216 3.662C174.228 3.494 174.252 3.344 174.288 3.212C174.324 3.068 174.384 2.96 174.468 2.888L175.278 3.032C175.374 2.984 175.476 2.924 175.584 2.852C175.704 2.768 175.812 2.708 175.908 2.672C176.016 2.624 176.106 2.612 176.178 2.636C176.25 2.66 176.298 2.744 176.322 2.888C176.382 3.164 176.37 3.404 176.286 3.608C176.214 3.8 176.112 4.01 175.98 4.238C175.848 4.514 175.74 4.754 175.656 4.958C175.584 5.162 175.506 5.438 175.422 5.786C175.326 6.242 175.23 6.656 175.134 7.028C175.038 7.388 174.852 7.694 174.576 7.946C174.42 8.042 174.27 8.042 174.126 7.946C174.03 7.922 173.97 7.844 173.946 7.712C173.922 7.568 173.88 7.442 173.82 7.334ZM177.276 7.244C177.252 7.088 177.27 6.974 177.33 6.902C177.39 6.818 177.42 6.698 177.42 6.542C177.372 6.386 177.354 6.26 177.366 6.164C177.378 6.068 177.396 5.942 177.42 5.786C177.42 5.654 177.426 5.54 177.438 5.444C177.462 5.348 177.486 5.258 177.51 5.174C177.534 5.078 177.558 4.976 177.582 4.868C177.618 4.76 177.648 4.634 177.672 4.49C177.696 4.346 177.714 4.19 177.726 4.022C177.738 3.854 177.75 3.692 177.762 3.536C177.786 3.368 177.816 3.218 177.852 3.086C177.9 2.942 177.978 2.84 178.086 2.78L178.878 2.636C178.974 2.6 179.076 2.546 179.184 2.474C179.304 2.402 179.412 2.348 179.508 2.312C179.616 2.276 179.706 2.276 179.778 2.312C179.85 2.336 179.898 2.426 179.922 2.582C179.946 2.834 179.916 3.062 179.832 3.266C179.76 3.458 179.676 3.668 179.58 3.896C179.424 4.172 179.292 4.478 179.184 4.814C179.088 5.15 179.004 5.492 178.932 5.84C178.86 6.056 178.794 6.266 178.734 6.47C178.686 6.662 178.632 6.848 178.572 7.028C178.512 7.196 178.44 7.358 178.356 7.514C178.272 7.658 178.164 7.784 178.032 7.892C177.936 7.952 177.846 8.024 177.762 8.108C177.678 8.192 177.6 8.204 177.528 8.144C177.456 8.084 177.402 7.952 177.366 7.748C177.33 7.544 177.3 7.376 177.276 7.244Z" fill="black"/>
</svg>
