<svg width="174" height="26" viewBox="0 0 174 26" fill="none" xmlns="http://www.w3.org/2000/svg">
<path d="M11.358 6.488C11.394 6.488 11.43 6.536 11.466 6.632C11.514 6.716 11.556 6.818 11.592 6.938C11.628 7.058 11.658 7.178 11.682 7.298C11.706 7.418 11.718 7.502 11.718 7.55V8.846C11.718 8.894 11.712 8.984 11.7 9.116C11.7 9.248 11.682 9.386 11.646 9.53C11.622 9.662 11.574 9.782 11.502 9.89C11.43 9.998 11.334 10.052 11.214 10.052C11.01 10.052 10.86 10.01 10.764 9.926C10.68 9.83 10.614 9.716 10.566 9.584C10.53 9.44 10.5 9.29 10.476 9.134C10.452 8.966 10.41 8.816 10.35 8.684C10.29 8.54 10.194 8.426 10.062 8.342C9.942 8.246 9.756 8.198 9.504 8.198H8.514C8.454 8.198 8.388 8.204 8.316 8.216C8.244 8.228 8.178 8.246 8.118 8.27C8.046 8.294 7.974 8.318 7.902 8.342C7.65 8.342 7.452 8.426 7.308 8.594C7.176 8.75 7.11 8.948 7.11 9.188V10.052C7.11 10.148 7.104 10.238 7.092 10.322C7.092 10.394 7.128 10.466 7.2 10.538L7.11 11.24V14.156C7.11 14.396 7.128 14.594 7.164 14.75C7.2 14.894 7.248 15.014 7.308 15.11C7.368 15.206 7.434 15.29 7.506 15.362C7.578 15.422 7.644 15.482 7.704 15.542C7.884 15.602 8.046 15.662 8.19 15.722C8.334 15.77 8.508 15.794 8.712 15.794C9.072 15.854 9.342 15.968 9.522 16.136C9.702 16.292 9.798 16.46 9.81 16.64C9.822 16.808 9.756 16.964 9.612 17.108C9.468 17.264 9.252 17.36 8.964 17.396C8.856 17.396 8.748 17.378 8.64 17.342C8.544 17.306 8.448 17.276 8.352 17.252C8.244 17.24 8.124 17.234 7.992 17.234C7.86 17.234 7.722 17.228 7.578 17.216C7.446 17.216 7.314 17.204 7.182 17.18C7.062 17.156 6.954 17.114 6.858 17.054H6.75H5.148C5.076 17.054 4.926 17.084 4.698 17.144C4.482 17.216 4.236 17.252 3.96 17.252C3.768 17.252 3.594 17.246 3.438 17.234C3.306 17.222 3.168 17.21 3.024 17.198C2.892 17.198 2.802 17.198 2.754 17.198C2.694 17.198 2.646 17.222 2.61 17.27C2.574 17.318 2.454 17.342 2.25 17.342C2.226 17.33 2.202 17.306 2.178 17.27C2.154 17.246 2.136 17.216 2.124 17.18C2.112 17.156 2.106 17.114 2.106 17.054C2.154 16.922 2.214 16.79 2.286 16.658C2.346 16.55 2.412 16.436 2.484 16.316C2.568 16.196 2.658 16.088 2.754 15.992C2.922 15.932 3.078 15.878 3.222 15.83C3.342 15.782 3.456 15.74 3.564 15.704C3.684 15.668 3.762 15.65 3.798 15.65L4.662 15.452C4.746 15.452 4.812 15.398 4.86 15.29C4.908 15.17 4.944 15.044 4.968 14.912C4.992 14.756 5.004 14.57 5.004 14.354V12.446C5.004 12.398 5.028 12.314 5.076 12.194L5.148 12.05V9.746C5.148 9.65 5.154 9.554 5.166 9.458C5.19 9.362 5.202 9.272 5.202 9.188C5.202 9.152 5.184 9.098 5.148 9.026C5.112 8.954 5.064 8.882 5.004 8.81C4.944 8.738 4.872 8.678 4.788 8.63C4.716 8.57 4.638 8.54 4.554 8.54H2.556C2.304 8.54 2.106 8.588 1.962 8.684C1.83 8.768 1.728 8.882 1.656 9.026C1.584 9.158 1.53 9.308 1.494 9.476C1.458 9.632 1.41 9.782 1.35 9.926C1.302 10.058 1.23 10.172 1.134 10.268C1.038 10.352 0.894 10.394 0.702 10.394C0.522 10.394 0.39 10.328 0.306 10.196C0.234 10.052 0.198 9.902 0.198 9.746C0.198 9.698 0.204 9.626 0.216 9.53C0.228 9.422 0.24 9.314 0.252 9.206C0.276 9.098 0.294 8.996 0.306 8.9C0.33 8.804 0.342 8.738 0.342 8.702L0.558 7.838C0.558 7.802 0.564 7.724 0.576 7.604C0.6 7.472 0.63 7.334 0.666 7.19C0.714 7.046 0.768 6.92 0.828 6.812C0.888 6.704 0.96 6.65 1.044 6.65C1.2 6.65 1.32 6.68 1.404 6.74C1.5 6.8 1.602 6.866 1.71 6.938C1.782 6.998 1.854 7.046 1.926 7.082C2.01 7.118 2.118 7.136 2.25 7.136C2.322 7.136 2.43 7.124 2.574 7.1C2.718 7.064 2.826 7.046 2.898 7.046H3.258C3.294 7.07 3.336 7.088 3.384 7.1C3.432 7.1 3.486 7.106 3.546 7.118C3.606 7.13 3.672 7.136 3.744 7.136H6.462L6.948 7.046L7.452 7.136C7.704 7.136 7.962 7.124 8.226 7.1C8.502 7.064 8.76 7.046 9 7.046H9.864C10.08 7.046 10.272 7.016 10.44 6.956C10.608 6.896 10.752 6.836 10.872 6.776C11.004 6.704 11.106 6.638 11.178 6.578C11.262 6.518 11.322 6.488 11.358 6.488ZM17.6663 0.745999C17.9183 0.745999 18.1283 0.811999 18.2963 0.944C18.4643 1.076 18.6023 1.232 18.7103 1.412C18.8183 1.592 18.8963 1.778 18.9443 1.97C18.9923 2.162 19.0163 2.318 19.0163 2.438C19.0163 2.534 18.9443 2.666 18.8003 2.834C18.6563 3.002 18.5003 3.17 18.3323 3.338C18.1283 3.542 17.9063 3.758 17.6663 3.986C17.5823 4.07 17.4923 4.118 17.3963 4.13C17.3003 4.142 17.2043 4.148 17.1083 4.148C16.9763 4.148 16.8563 4.16 16.7483 4.184C16.6523 4.196 16.5563 4.25 16.4603 4.346C16.2083 4.49 16.0103 4.67 15.8663 4.886C15.7223 5.102 15.6023 5.336 15.5063 5.588C15.5063 5.636 15.4883 5.72 15.4523 5.84C15.4283 5.96 15.3923 6.086 15.3443 6.218C15.3083 6.35 15.2723 6.476 15.2363 6.596C15.2123 6.716 15.2003 6.8 15.2003 6.848L15.0023 7.64C14.9903 7.676 14.9543 7.808 14.8943 8.036C14.8463 8.264 14.7923 8.522 14.7323 8.81C14.6723 9.098 14.6183 9.38 14.5703 9.656C14.5223 9.932 14.4983 10.13 14.4983 10.25C14.4983 10.298 14.5043 10.346 14.5163 10.394C14.5403 10.49 14.5883 10.538 14.6603 10.538C14.8043 10.538 14.9783 10.448 15.1823 10.268C15.3863 10.088 15.6143 9.914 15.8663 9.746C15.9383 9.674 16.0403 9.578 16.1723 9.458C16.3043 9.338 16.4423 9.224 16.5863 9.116C16.7303 8.996 16.8683 8.9 17.0003 8.828C17.1443 8.744 17.2643 8.702 17.3603 8.702H17.6663C17.8943 8.702 18.0683 8.804 18.1883 9.008C18.3083 9.212 18.3923 9.44 18.4403 9.692C18.5003 9.944 18.5363 10.184 18.5483 10.412C18.5603 10.628 18.5663 10.754 18.5663 10.79L18.5123 11.402C18.5123 11.474 18.5183 11.624 18.5303 11.852C18.5543 12.08 18.5663 12.278 18.5663 12.446C18.5663 12.482 18.5543 12.53 18.5303 12.59C18.5183 12.638 18.5003 12.692 18.4763 12.752C18.4523 12.812 18.4283 12.878 18.4043 12.95V13.292C18.4043 13.448 18.3863 13.556 18.3503 13.616C18.3263 13.664 18.3143 13.772 18.3143 13.94C18.2543 14.132 18.1883 14.27 18.1163 14.354C18.0323 14.426 17.9663 14.516 17.9183 14.624C17.8823 14.732 17.8283 14.822 17.7563 14.894C17.7083 15.074 17.6303 15.284 17.5223 15.524C17.4143 15.764 17.2763 15.974 17.1083 16.154C17.0243 16.238 16.9463 16.358 16.8743 16.514C16.8023 16.658 16.7243 16.808 16.6403 16.964C16.5683 17.108 16.4723 17.234 16.3523 17.342C16.2443 17.45 16.1123 17.504 15.9563 17.504H15.7583H15.1103C15.0743 17.504 15.0083 17.498 14.9123 17.486C14.8163 17.486 14.7203 17.468 14.6243 17.432C14.5283 17.408 14.4443 17.36 14.3723 17.288C14.3003 17.228 14.2643 17.132 14.2643 17C14.2643 16.916 14.2943 16.814 14.3543 16.694C14.4263 16.574 14.4983 16.46 14.5703 16.352C14.6543 16.232 14.7383 16.124 14.8223 16.028C14.9063 15.92 14.9663 15.842 15.0023 15.794C15.1823 15.65 15.3503 15.5 15.5063 15.344C15.6623 15.188 15.7823 15.074 15.8663 15.002C16.1063 14.822 16.2503 14.648 16.2983 14.48C16.3583 14.3 16.4303 14.12 16.5143 13.94C16.6823 13.616 16.8143 13.352 16.9103 13.148C17.0063 12.932 17.0543 12.698 17.0543 12.446V11.744C17.0543 11.696 17.0423 11.624 17.0183 11.528C16.9943 11.432 16.9523 11.342 16.8923 11.258C16.8323 11.162 16.7543 11.078 16.6583 11.006C16.5743 10.934 16.4723 10.898 16.3523 10.898C16.2803 10.898 16.2203 10.934 16.1723 11.006C16.1363 11.066 16.0343 11.144 15.8663 11.24C15.4343 11.564 15.0923 11.918 14.8403 12.302C14.5883 12.674 14.3603 13.07 14.1563 13.49C14.0843 13.742 14.0243 14.012 13.9763 14.3C13.9283 14.576 13.8803 14.858 13.8323 15.146C13.7843 15.422 13.7363 15.692 13.6883 15.956C13.6403 16.22 13.5803 16.466 13.5083 16.694C13.4123 16.85 13.2923 16.97 13.1483 17.054C13.0163 17.15 12.9023 17.198 12.8063 17.198C12.6263 17.198 12.4883 17.15 12.3923 17.054C12.3083 16.958 12.2423 16.844 12.1943 16.712C12.1463 16.58 12.1163 16.448 12.1043 16.316C12.1043 16.172 12.1043 16.064 12.1043 15.992V14.3C12.1043 14.252 12.1403 14.09 12.2123 13.814C12.2843 13.538 12.3623 13.232 12.4463 12.896C12.5423 12.548 12.6263 12.212 12.6983 11.888C12.7703 11.564 12.8063 11.318 12.8063 11.15C12.8423 11.054 12.8663 10.964 12.8783 10.88C12.9023 10.796 12.9263 10.718 12.9503 10.646C12.9743 10.562 12.9923 10.478 13.0043 10.394V9.89C13.0043 9.842 13.0043 9.806 13.0043 9.782C13.0163 9.746 13.0523 9.716 13.1123 9.692C13.1123 9.668 13.1183 9.644 13.1303 9.62C13.1423 9.596 13.1483 9.572 13.1483 9.548V9.188C13.1483 9.152 13.1663 9.074 13.2023 8.954C13.2383 8.822 13.2803 8.678 13.3283 8.522C13.3763 8.366 13.4183 8.21 13.4543 8.054C13.4903 7.898 13.5083 7.778 13.5083 7.694V6.596C13.5083 6.248 13.5503 5.936 13.6343 5.66C13.7303 5.384 13.8023 5.162 13.8503 4.994L13.9043 4.49C13.9163 4.406 13.9583 4.28 14.0303 4.112C14.1143 3.932 14.2043 3.752 14.3003 3.572C14.3963 3.392 14.4923 3.224 14.5883 3.068C14.6843 2.912 14.7563 2.816 14.8043 2.78C14.8763 2.744 14.9243 2.678 14.9483 2.582C14.9843 2.486 15.0143 2.384 15.0383 2.276C15.0743 2.168 15.1163 2.066 15.1643 1.97C15.2243 1.862 15.3203 1.784 15.4523 1.736C15.4763 1.736 15.5123 1.736 15.5603 1.736C15.6083 1.724 15.6563 1.706 15.7043 1.682C15.7283 1.658 15.7643 1.646 15.8123 1.646C15.8603 1.646 15.9083 1.646 15.9563 1.646C16.0523 1.55 16.1903 1.448 16.3703 1.34C16.5623 1.232 16.7543 1.13 16.9463 1.034C17.1623 0.926 17.4023 0.829999 17.6663 0.745999ZM22.7603 8.45C23.0123 8.45 23.2223 8.498 23.3903 8.594C23.5703 8.678 23.7143 8.798 23.8223 8.954C23.9303 9.11 24.0083 9.29 24.0563 9.494C24.1043 9.698 24.1223 9.914 24.1103 10.142C24.1103 10.466 23.9903 10.73 23.7503 10.934C23.5103 11.126 23.2643 11.294 23.0123 11.438C22.7843 11.594 22.5383 11.732 22.2743 11.852C22.0223 11.972 21.7823 12.104 21.5543 12.248C21.3383 12.392 21.1523 12.56 20.9963 12.752C20.8523 12.944 20.7743 13.19 20.7623 13.49V14.246C20.7383 14.45 20.7803 14.654 20.8883 14.858C20.9963 15.05 21.1343 15.146 21.3023 15.146C21.3143 15.158 21.3623 15.14 21.4463 15.092C21.5303 15.044 21.6203 14.99 21.7163 14.93C21.8243 14.858 21.9263 14.786 22.0223 14.714C22.1303 14.642 22.2083 14.588 22.2563 14.552C22.4363 14.468 22.5743 14.402 22.6703 14.354C22.7783 14.294 22.8563 14.276 22.9043 14.3C22.9883 14.3 23.0603 14.312 23.1203 14.336C23.1803 14.36 23.2103 14.45 23.2103 14.606C23.1863 14.87 23.0723 15.128 22.8683 15.38C22.6643 15.62 22.4423 15.848 22.2023 16.064C21.9623 16.268 21.7283 16.448 21.5003 16.604C21.2723 16.76 21.1223 16.874 21.0503 16.946C20.8463 17.126 20.6543 17.222 20.4743 17.234C20.3063 17.246 20.1323 17.252 19.9523 17.252C19.8443 17.24 19.7303 17.192 19.6103 17.108C19.5023 17.024 19.4003 16.928 19.3043 16.82C19.2203 16.7 19.1543 16.58 19.1063 16.46C19.0583 16.34 19.0403 16.238 19.0523 16.154V15.848C19.0523 15.764 19.0283 15.674 18.9803 15.578C18.9563 15.53 18.9323 15.488 18.9083 15.452L18.9623 15.092V14.804C18.9623 14.756 18.9743 14.63 18.9983 14.426C19.0223 14.21 19.0523 13.982 19.0883 13.742C19.1243 13.49 19.1543 13.256 19.1783 13.04C19.2143 12.812 19.2383 12.662 19.2503 12.59C19.2983 12.554 19.3223 12.518 19.3223 12.482C19.3223 12.446 19.3163 12.41 19.3043 12.374C19.2923 12.338 19.2863 12.296 19.2863 12.248C19.2863 12.188 19.3103 12.122 19.3583 12.05C19.3583 11.906 19.3883 11.756 19.4483 11.6C19.4843 11.516 19.5203 11.432 19.5563 11.348L19.8083 10.754C19.8323 10.49 19.9583 10.22 20.1863 9.944C20.4143 9.656 20.6783 9.398 20.9783 9.17C21.2903 8.942 21.6083 8.762 21.9323 8.63C22.2563 8.486 22.5323 8.426 22.7603 8.45ZM21.9503 9.8C21.8903 9.8 21.8303 9.848 21.7703 9.944C21.7103 10.028 21.6503 10.124 21.5903 10.232C21.5303 10.364 21.4703 10.502 21.4103 10.646C21.3983 10.706 21.3803 10.778 21.3563 10.862C21.3323 10.934 21.3143 11.006 21.3023 11.078C21.2903 11.138 21.2963 11.192 21.3203 11.24C21.3443 11.276 21.3923 11.294 21.4643 11.294C21.5243 11.306 21.6143 11.294 21.7343 11.258C21.8543 11.222 21.9743 11.168 22.0943 11.096C22.2263 11.024 22.3403 10.94 22.4363 10.844C22.5443 10.736 22.6043 10.622 22.6163 10.502V10.196C22.6163 10.136 22.5983 10.082 22.5623 10.034C22.5263 9.986 22.4843 9.95 22.4363 9.926C22.3883 9.89 22.3283 9.86 22.2563 9.836L21.9503 9.8ZM31.7815 8.846C32.0215 8.846 32.1955 8.918 32.3035 9.062C32.4235 9.206 32.4835 9.368 32.4835 9.548L32.2675 10.754V11.042C32.2675 11.174 32.2555 11.312 32.2315 11.456C32.2075 11.588 32.1595 11.714 32.0875 11.834C32.0155 11.954 31.9135 12.056 31.7815 12.14C31.6615 12.212 31.4935 12.248 31.2775 12.248C31.1815 12.248 31.1215 12.284 31.0975 12.356C31.0855 12.392 31.0795 12.422 31.0795 12.446C30.9115 12.614 30.7855 12.782 30.7015 12.95C30.6295 13.106 30.5635 13.268 30.5035 13.436C30.4555 13.592 30.4015 13.748 30.3415 13.904C30.2935 14.06 30.2215 14.21 30.1255 14.354C30.0535 14.426 29.9815 14.51 29.9095 14.606C29.8495 14.69 29.8195 14.822 29.8195 15.002C29.7475 15.122 29.6875 15.236 29.6395 15.344C29.5795 15.44 29.5255 15.53 29.4775 15.614C29.4295 15.698 29.3935 15.758 29.3695 15.794C29.3215 15.938 29.2735 16.052 29.2255 16.136C29.1775 16.208 29.1235 16.286 29.0635 16.37C29.0155 16.454 28.9615 16.544 28.9015 16.64C28.8415 16.736 28.7815 16.874 28.7215 17.054C28.6735 17.186 28.6255 17.288 28.5775 17.36C28.5415 17.432 28.5055 17.498 28.4695 17.558C28.4455 17.618 28.4215 17.678 28.3975 17.738C28.3735 17.798 28.3495 17.87 28.3255 17.954L28.1815 18.35C28.1215 18.446 28.0795 18.518 28.0555 18.566C28.0315 18.626 27.9535 18.722 27.8215 18.854C27.6895 19.022 27.5695 19.178 27.4615 19.322C27.3655 19.466 27.3175 19.574 27.3175 19.646C27.1255 20.126 26.7775 20.648 26.2735 21.212C26.0455 21.512 25.8355 21.794 25.6435 22.058C25.4635 22.322 25.2895 22.502 25.1215 22.598C24.2815 23.102 23.6155 23.624 23.1235 24.164C23.0395 24.188 22.9195 24.242 22.7635 24.326C22.5955 24.41 22.4275 24.5 22.2595 24.596C22.0555 24.704 21.8395 24.824 21.6115 24.956H21.4135C21.3415 24.956 21.2335 24.986 21.0895 25.046C20.9455 25.118 20.8375 25.154 20.7655 25.154H20.2255C20.1655 25.154 20.0635 25.118 19.9195 25.046C19.7635 24.986 19.6435 24.956 19.5595 24.956C19.5235 24.956 19.4695 24.968 19.3975 24.992C19.3135 25.016 19.2295 25.04 19.1455 25.064C19.0495 25.1 18.9535 25.13 18.8575 25.154C18.7135 25.154 18.5875 25.106 18.4795 25.01C18.3595 24.926 18.2215 24.806 18.0655 24.65C17.9695 24.65 17.8495 24.608 17.7055 24.524C17.5495 24.44 17.4355 24.35 17.3635 24.254C17.3635 24.23 17.3575 24.176 17.3455 24.092C17.3215 24.008 17.3035 23.912 17.2915 23.804C17.2675 23.696 17.2495 23.588 17.2375 23.48C17.2255 23.384 17.2195 23.312 17.2195 23.264C17.2195 23.096 17.2735 22.934 17.3815 22.778C17.4895 22.622 17.6215 22.478 17.7775 22.346C17.9335 22.226 18.0955 22.13 18.2635 22.058C18.4315 21.986 18.5815 21.95 18.7135 21.95C18.8455 21.95 18.9955 21.986 19.1635 22.058C19.3195 22.13 19.4875 22.214 19.6675 22.31C19.8955 22.406 20.1055 22.502 20.2975 22.598C20.4775 22.706 20.6335 22.76 20.7655 22.76L21.3595 22.85C21.4795 22.766 21.6175 22.712 21.7735 22.688C21.9175 22.664 22.0675 22.64 22.2235 22.616C22.3675 22.592 22.5115 22.556 22.6555 22.508C22.7995 22.472 22.9375 22.388 23.0695 22.256C23.3215 22.184 23.5735 22.058 23.8255 21.878C24.0775 21.71 24.3235 21.5 24.5635 21.248C24.6475 21.176 24.7495 21.056 24.8695 20.888C24.9895 20.732 25.0915 20.57 25.1755 20.402C25.3435 20.234 25.5055 20.036 25.6615 19.808C25.8295 19.58 25.9495 19.376 26.0215 19.196C26.1415 19.076 26.2615 18.926 26.3815 18.746C26.5135 18.566 26.6215 18.374 26.7055 18.17C26.8015 17.978 26.8795 17.78 26.9395 17.576C26.9995 17.372 27.0295 17.18 27.0295 17V16.694V16.298C27.0535 16.178 27.0775 16.064 27.1015 15.956C27.1255 15.86 27.1435 15.77 27.1555 15.686C27.1675 15.59 27.1735 15.512 27.1735 15.452C27.1735 15.368 27.1495 15.308 27.1015 15.272C27.0535 15.224 27.0295 15.116 27.0295 14.948V14.804C26.9935 14.768 26.9635 14.726 26.9395 14.678C26.8915 14.582 26.8675 14.504 26.8675 14.444V14.3C26.8675 14.084 26.8255 13.856 26.7415 13.616C26.6575 13.364 26.5495 13.124 26.4175 12.896C26.2855 12.656 26.1235 12.44 25.9315 12.248C25.7515 12.044 25.5655 11.876 25.3735 11.744C25.2775 11.648 25.2115 11.624 25.1755 11.672C25.1515 11.72 25.0975 11.744 25.0135 11.744H24.8695H24.4735L24.1675 11.888C24.0715 11.888 23.9575 11.852 23.8255 11.78C23.6935 11.696 23.6275 11.57 23.6275 11.402C23.6275 11.366 23.6995 11.258 23.8435 11.078C23.9875 10.898 24.1495 10.706 24.3295 10.502C24.5215 10.286 24.7015 10.088 24.8695 9.908C25.0375 9.716 25.1395 9.596 25.1755 9.548C25.2715 9.452 25.3915 9.368 25.5355 9.296C25.6915 9.224 25.8535 9.188 26.0215 9.188C26.2735 9.188 26.4595 9.272 26.5795 9.44C26.6995 9.596 26.8495 9.8 27.0295 10.052C27.1975 10.4 27.3355 10.706 27.4435 10.97C27.5515 11.234 27.6475 11.492 27.7315 11.744C27.7675 11.948 27.8095 12.122 27.8575 12.266C27.9055 12.398 27.9475 12.524 27.9835 12.644C28.0315 12.764 28.0615 12.884 28.0735 13.004C28.0975 13.124 28.0975 13.274 28.0735 13.454C28.0495 13.538 28.0495 13.634 28.0735 13.742C28.1095 13.85 28.1515 13.952 28.1995 14.048C28.2595 14.144 28.3255 14.228 28.3975 14.3C28.4695 14.36 28.5295 14.39 28.5775 14.39C28.6495 14.39 28.7215 14.312 28.7935 14.156C28.8775 14 28.9555 13.826 29.0275 13.634C29.0995 13.43 29.1655 13.232 29.2255 13.04C29.2855 12.836 29.3335 12.686 29.3695 12.59C29.4655 12.458 29.5495 12.338 29.6215 12.23C29.6935 12.11 29.7655 12.002 29.8375 11.906C29.9095 11.798 29.9875 11.696 30.0715 11.6C30.1675 11.492 30.2875 11.372 30.4315 11.24C30.5275 11.108 30.5935 10.964 30.6295 10.808C30.6775 10.652 30.7255 10.496 30.7735 10.34C30.7975 10.196 30.8335 10.052 30.8815 9.908C30.9295 9.764 30.9955 9.644 31.0795 9.548C31.1755 9.368 31.2715 9.206 31.3675 9.062C31.4635 8.918 31.6015 8.846 31.7815 8.846ZM42.5393 0.745999C42.7913 0.745999 43.0013 0.811999 43.1693 0.944C43.3373 1.076 43.4753 1.232 43.5833 1.412C43.6913 1.592 43.7693 1.778 43.8173 1.97C43.8653 2.162 43.8893 2.318 43.8893 2.438C43.8893 2.534 43.8173 2.666 43.6733 2.834C43.5293 3.002 43.3733 3.17 43.2053 3.338C43.0013 3.542 42.7793 3.758 42.5393 3.986C42.4553 4.07 42.3653 4.118 42.2693 4.13C42.1733 4.142 42.0773 4.148 41.9813 4.148C41.8493 4.148 41.7293 4.16 41.6213 4.184C41.5253 4.196 41.4293 4.25 41.3333 4.346C41.0813 4.49 40.8833 4.67 40.7393 4.886C40.5953 5.102 40.4753 5.336 40.3793 5.588C40.3793 5.636 40.3613 5.72 40.3253 5.84C40.3013 5.96 40.2653 6.086 40.2173 6.218C40.1813 6.35 40.1453 6.476 40.1093 6.596C40.0853 6.716 40.0733 6.8 40.0733 6.848L39.8753 7.64C39.8633 7.676 39.8273 7.808 39.7673 8.036C39.7193 8.264 39.6653 8.522 39.6053 8.81C39.5453 9.098 39.4913 9.38 39.4433 9.656C39.3953 9.932 39.3713 10.13 39.3713 10.25C39.3713 10.298 39.3773 10.346 39.3893 10.394C39.4133 10.49 39.4613 10.538 39.5333 10.538C39.6773 10.538 39.8513 10.448 40.0553 10.268C40.2593 10.088 40.4873 9.914 40.7393 9.746C40.8113 9.674 40.9133 9.578 41.0453 9.458C41.1773 9.338 41.3153 9.224 41.4593 9.116C41.6033 8.996 41.7413 8.9 41.8733 8.828C42.0173 8.744 42.1373 8.702 42.2333 8.702H42.5393C42.7673 8.702 42.9413 8.804 43.0613 9.008C43.1813 9.212 43.2653 9.44 43.3133 9.692C43.3733 9.944 43.4093 10.184 43.4213 10.412C43.4333 10.628 43.4393 10.754 43.4393 10.79L43.3853 11.402C43.3853 11.474 43.3913 11.624 43.4033 11.852C43.4273 12.08 43.4393 12.278 43.4393 12.446C43.4393 12.482 43.4273 12.53 43.4033 12.59C43.3913 12.638 43.3733 12.692 43.3493 12.752C43.3253 12.812 43.3013 12.878 43.2773 12.95V13.292C43.2773 13.448 43.2593 13.556 43.2233 13.616C43.1993 13.664 43.1873 13.772 43.1873 13.94C43.1273 14.132 43.0613 14.27 42.9893 14.354C42.9053 14.426 42.8393 14.516 42.7913 14.624C42.7553 14.732 42.7013 14.822 42.6293 14.894C42.5813 15.074 42.5033 15.284 42.3953 15.524C42.2873 15.764 42.1493 15.974 41.9813 16.154C41.8973 16.238 41.8193 16.358 41.7473 16.514C41.6753 16.658 41.5973 16.808 41.5133 16.964C41.4413 17.108 41.3453 17.234 41.2253 17.342C41.1173 17.45 40.9853 17.504 40.8293 17.504H40.6313H39.9833C39.9473 17.504 39.8813 17.498 39.7853 17.486C39.6893 17.486 39.5933 17.468 39.4973 17.432C39.4013 17.408 39.3173 17.36 39.2453 17.288C39.1733 17.228 39.1373 17.132 39.1373 17C39.1373 16.916 39.1673 16.814 39.2273 16.694C39.2993 16.574 39.3713 16.46 39.4433 16.352C39.5273 16.232 39.6113 16.124 39.6953 16.028C39.7793 15.92 39.8393 15.842 39.8753 15.794C40.0553 15.65 40.2233 15.5 40.3793 15.344C40.5353 15.188 40.6553 15.074 40.7393 15.002C40.9793 14.822 41.1233 14.648 41.1713 14.48C41.2313 14.3 41.3033 14.12 41.3873 13.94C41.5553 13.616 41.6873 13.352 41.7833 13.148C41.8793 12.932 41.9273 12.698 41.9273 12.446V11.744C41.9273 11.696 41.9153 11.624 41.8913 11.528C41.8673 11.432 41.8253 11.342 41.7653 11.258C41.7053 11.162 41.6273 11.078 41.5313 11.006C41.4473 10.934 41.3453 10.898 41.2253 10.898C41.1533 10.898 41.0933 10.934 41.0453 11.006C41.0093 11.066 40.9073 11.144 40.7393 11.24C40.3073 11.564 39.9653 11.918 39.7133 12.302C39.4613 12.674 39.2333 13.07 39.0293 13.49C38.9573 13.742 38.8973 14.012 38.8493 14.3C38.8013 14.576 38.7533 14.858 38.7053 15.146C38.6573 15.422 38.6093 15.692 38.5613 15.956C38.5133 16.22 38.4533 16.466 38.3813 16.694C38.2853 16.85 38.1653 16.97 38.0213 17.054C37.8893 17.15 37.7753 17.198 37.6793 17.198C37.4993 17.198 37.3613 17.15 37.2653 17.054C37.1813 16.958 37.1153 16.844 37.0673 16.712C37.0193 16.58 36.9893 16.448 36.9773 16.316C36.9773 16.172 36.9773 16.064 36.9773 15.992V14.3C36.9773 14.252 37.0133 14.09 37.0853 13.814C37.1573 13.538 37.2353 13.232 37.3193 12.896C37.4153 12.548 37.4993 12.212 37.5713 11.888C37.6433 11.564 37.6793 11.318 37.6793 11.15C37.7153 11.054 37.7393 10.964 37.7513 10.88C37.7753 10.796 37.7993 10.718 37.8233 10.646C37.8473 10.562 37.8653 10.478 37.8773 10.394V9.89C37.8773 9.842 37.8773 9.806 37.8773 9.782C37.8893 9.746 37.9253 9.716 37.9853 9.692C37.9853 9.668 37.9913 9.644 38.0033 9.62C38.0153 9.596 38.0213 9.572 38.0213 9.548V9.188C38.0213 9.152 38.0393 9.074 38.0753 8.954C38.1113 8.822 38.1533 8.678 38.2013 8.522C38.2493 8.366 38.2913 8.21 38.3273 8.054C38.3633 7.898 38.3813 7.778 38.3813 7.694V6.596C38.3813 6.248 38.4233 5.936 38.5073 5.66C38.6033 5.384 38.6753 5.162 38.7233 4.994L38.7773 4.49C38.7893 4.406 38.8313 4.28 38.9033 4.112C38.9873 3.932 39.0773 3.752 39.1733 3.572C39.2693 3.392 39.3653 3.224 39.4613 3.068C39.5573 2.912 39.6293 2.816 39.6773 2.78C39.7493 2.744 39.7973 2.678 39.8213 2.582C39.8573 2.486 39.8873 2.384 39.9113 2.276C39.9473 2.168 39.9893 2.066 40.0373 1.97C40.0973 1.862 40.1933 1.784 40.3253 1.736C40.3493 1.736 40.3853 1.736 40.4333 1.736C40.4813 1.724 40.5293 1.706 40.5773 1.682C40.6013 1.658 40.6373 1.646 40.6853 1.646C40.7333 1.646 40.7813 1.646 40.8293 1.646C40.9253 1.55 41.0633 1.448 41.2433 1.34C41.4353 1.232 41.6273 1.13 41.8193 1.034C42.0353 0.926 42.2753 0.829999 42.5393 0.745999ZM49.3253 8.288C49.5773 8.288 49.7573 8.36 49.8653 8.504C49.9733 8.648 50.0273 8.846 50.0273 9.098C50.0273 9.146 50.0093 9.254 49.9733 9.422C49.9373 9.578 49.8893 9.758 49.8293 9.962C49.7813 10.154 49.7273 10.352 49.6673 10.556C49.6073 10.76 49.5593 10.922 49.5233 11.042C49.5233 11.138 49.5173 11.24 49.5053 11.348C49.4933 11.444 49.4513 11.576 49.3793 11.744C49.2833 11.816 49.2353 11.936 49.2353 12.104C49.2353 12.26 49.2353 12.374 49.2353 12.446L49.1813 13.4V14.102C49.1813 14.138 49.1813 14.204 49.1813 14.3C49.1933 14.384 49.2053 14.474 49.2173 14.57C49.2413 14.654 49.2773 14.732 49.3253 14.804C49.3733 14.864 49.4393 14.894 49.5233 14.894L49.7753 14.498C49.8473 14.438 49.9313 14.366 50.0273 14.282C50.1233 14.186 50.2193 14.096 50.3153 14.012C50.4233 13.916 50.5313 13.814 50.6393 13.706C50.7113 13.706 50.7713 13.736 50.8193 13.796C50.8673 13.856 50.8913 13.922 50.8913 13.994L50.8193 14.138C50.7713 14.234 50.7233 14.306 50.6753 14.354C50.5913 14.594 50.4833 14.804 50.3513 14.984C50.2193 15.152 50.0753 15.32 49.9193 15.488C49.7633 15.644 49.6013 15.806 49.4333 15.974C49.2773 16.142 49.1273 16.334 48.9833 16.55L48.5873 17.108C48.5873 17.216 48.5513 17.324 48.4793 17.432C48.4193 17.552 48.3413 17.642 48.2453 17.702C48.1613 17.774 48.0653 17.804 47.9573 17.792C47.8613 17.792 47.7833 17.726 47.7233 17.594C47.6513 17.378 47.6153 17.168 47.6153 16.964C47.6153 16.748 47.6333 16.544 47.6693 16.352C47.7053 16.148 47.7413 15.956 47.7773 15.776C47.8133 15.596 47.8313 15.422 47.8313 15.254V14.606V14.246C47.8313 14.186 47.7893 14.144 47.7053 14.12C47.6573 14.108 47.6153 14.102 47.5793 14.102C47.5433 14.102 47.4533 14.21 47.3093 14.426C47.1653 14.63 46.9973 14.87 46.8053 15.146C46.6253 15.41 46.4393 15.68 46.2473 15.956C46.0553 16.232 45.8993 16.43 45.7793 16.55C45.7433 16.598 45.6833 16.67 45.5993 16.766C45.5273 16.85 45.4433 16.934 45.3473 17.018C45.2633 17.102 45.1673 17.174 45.0593 17.234C44.9513 17.306 44.8553 17.342 44.7713 17.342C44.6033 17.342 44.4653 17.282 44.3573 17.162C44.2493 17.042 44.1653 16.904 44.1053 16.748C44.0453 16.58 43.9973 16.418 43.9613 16.262C43.9373 16.094 43.9253 15.974 43.9253 15.902L43.8713 14.606L44.1233 12.5C44.1233 12.464 44.1413 12.38 44.1773 12.248C44.2133 12.116 44.2613 11.972 44.3213 11.816C44.3813 11.66 44.4473 11.51 44.5193 11.366C44.6033 11.21 44.6873 11.084 44.7713 10.988C45.1193 10.664 45.4553 10.268 45.7793 9.8C45.9353 9.584 46.0853 9.428 46.2293 9.332C46.3733 9.236 46.5173 9.164 46.6613 9.116C46.8053 9.056 46.9493 9.014 47.0933 8.99C47.2373 8.954 47.3993 8.888 47.5793 8.792C47.6513 8.792 47.7413 8.756 47.8493 8.684C47.9693 8.6 48.0773 8.522 48.1733 8.45H48.6773H48.9833L49.3253 8.288ZM47.0213 10.286C46.8053 10.466 46.6013 10.676 46.4093 10.916C46.2173 11.144 46.0493 11.378 45.9053 11.618C45.7613 11.858 45.6473 12.086 45.5633 12.302C45.4793 12.506 45.4373 12.668 45.4373 12.788C45.4373 12.848 45.4313 12.962 45.4193 13.13C45.4073 13.286 45.4133 13.454 45.4373 13.634C45.4613 13.802 45.5033 13.958 45.5633 14.102C45.6353 14.234 45.7553 14.3 45.9233 14.3C46.0793 14.3 46.2593 14.162 46.4633 13.886C46.6793 13.61 46.8773 13.298 47.0573 12.95C47.2493 12.602 47.4053 12.278 47.5253 11.978C47.6573 11.678 47.7233 11.498 47.7233 11.438C47.7233 11.39 47.7293 11.276 47.7413 11.096C47.7533 10.904 47.7413 10.724 47.7053 10.556C47.6813 10.376 47.6153 10.25 47.5073 10.178C47.4113 10.094 47.2493 10.13 47.0213 10.286ZM53.7328 10.502C53.7808 10.706 53.8288 10.88 53.8768 11.024C53.9368 11.156 53.9848 11.288 54.0208 11.42C54.0688 11.54 54.1048 11.672 54.1288 11.816C54.1648 11.948 54.1828 12.11 54.1828 12.302L54.2908 13.094C54.2908 13.274 54.2968 13.412 54.3088 13.508C54.3328 13.592 54.3568 13.67 54.3808 13.742C54.4048 13.802 54.4288 13.892 54.4528 14.012C54.4888 14.132 54.5308 14.192 54.5788 14.192C54.6388 14.192 54.6988 14.132 54.7588 14.012C54.8188 13.892 54.8788 13.82 54.9388 13.796C55.0108 13.724 55.1128 13.64 55.2448 13.544C55.3768 13.448 55.4428 13.334 55.4428 13.202C55.4428 13.046 55.5088 12.896 55.6408 12.752C55.7728 12.596 55.8388 12.476 55.8388 12.392C55.8388 12.224 55.8268 12.08 55.8028 11.96C55.7908 11.828 55.7848 11.642 55.7848 11.402C55.7848 11.33 55.7548 11.246 55.6948 11.15C55.6468 11.054 55.5868 10.964 55.5148 10.88C55.4428 10.784 55.3768 10.688 55.3168 10.592C55.2688 10.496 55.2448 10.412 55.2448 10.34C55.2448 10.184 55.2568 10.076 55.2808 10.016C55.3168 9.944 55.3588 9.89 55.4068 9.854C55.4548 9.806 55.5088 9.752 55.5688 9.692C55.6288 9.632 55.6828 9.518 55.7308 9.35C55.7908 9.098 55.8988 8.906 56.0548 8.774C56.2108 8.63 56.4028 8.468 56.6308 8.288C56.8108 8.372 56.9188 8.456 56.9548 8.54C57.0028 8.612 57.0628 8.696 57.1348 8.792C57.3148 9.02 57.4348 9.212 57.4948 9.368C57.5548 9.524 57.5848 9.716 57.5848 9.944V10.646C57.5848 10.706 57.5908 10.754 57.6028 10.79C57.6268 10.826 57.6388 10.928 57.6388 11.096C57.6388 11.324 57.6088 11.534 57.5488 11.726C57.4888 11.918 57.3868 12.14 57.2428 12.392C57.2428 12.464 57.2308 12.512 57.2068 12.536C57.1948 12.56 57.1768 12.578 57.1528 12.59C57.1408 12.602 57.1228 12.62 57.0988 12.644C57.0868 12.668 57.0808 12.716 57.0808 12.788C57.0088 12.872 56.9488 12.95 56.9008 13.022C56.8528 13.082 56.8108 13.148 56.7748 13.22C56.7508 13.292 56.7388 13.352 56.7388 13.4C56.7388 13.436 56.7088 13.484 56.6488 13.544C56.6008 13.604 56.5468 13.676 56.4868 13.76C56.4268 13.832 56.3668 13.91 56.3068 13.994C56.2588 14.078 56.2348 14.162 56.2348 14.246C56.1028 14.414 55.9828 14.552 55.8748 14.66C55.7788 14.768 55.6828 14.876 55.5868 14.984C55.4908 15.08 55.3888 15.188 55.2808 15.308C55.1728 15.416 55.0588 15.548 54.9388 15.704C54.7708 15.908 54.6268 16.118 54.5068 16.334C54.3988 16.538 54.2848 16.73 54.1648 16.91C54.0448 17.078 53.9068 17.216 53.7508 17.324C53.5948 17.444 53.3908 17.504 53.1388 17.504C53.0548 17.504 52.9828 17.492 52.9228 17.468C52.8628 17.444 52.8328 17.354 52.8328 17.198L52.9768 16.352C52.9048 16.196 52.8628 16.07 52.8508 15.974C52.8388 15.866 52.8328 15.776 52.8328 15.704C52.8328 15.452 52.8388 15.23 52.8508 15.038C52.8748 14.846 52.8868 14.666 52.8868 14.498C52.8868 14.342 52.8748 14.204 52.8508 14.084C52.8268 13.964 52.7968 13.85 52.7608 13.742C52.7248 13.634 52.6948 13.532 52.6708 13.436C52.6468 13.34 52.6348 13.226 52.6348 13.094C52.6348 13.058 52.6048 12.95 52.5448 12.77C52.4848 12.578 52.4188 12.374 52.3468 12.158C52.2868 11.93 52.2268 11.72 52.1668 11.528C52.1068 11.324 52.0768 11.198 52.0768 11.15C52.0768 10.994 51.9868 10.874 51.8068 10.79C51.6268 10.694 51.4528 10.646 51.2848 10.646C51.1888 10.646 51.1168 10.658 51.0688 10.682C51.0328 10.706 50.9908 10.736 50.9428 10.772C50.9068 10.808 50.8528 10.838 50.7808 10.862C50.7208 10.886 50.6188 10.898 50.4748 10.898C50.4028 10.898 50.3368 10.868 50.2768 10.808C50.2408 10.772 50.2108 10.736 50.1868 10.7C50.1868 10.544 50.2408 10.388 50.3488 10.232C50.4688 10.076 50.5828 9.998 50.6908 9.998C50.8588 9.842 51.0208 9.692 51.1768 9.548C51.3448 9.392 51.5308 9.272 51.7348 9.188C51.7708 9.14 51.8308 9.068 51.9148 8.972C52.0108 8.876 52.1128 8.786 52.2208 8.702C52.3408 8.606 52.4548 8.522 52.5628 8.45C52.6828 8.378 52.7908 8.342 52.8868 8.342C53.0428 8.342 53.1568 8.396 53.2288 8.504C53.3008 8.612 53.3428 8.738 53.3548 8.882C53.3788 9.026 53.3908 9.17 53.3908 9.314C53.3908 9.458 53.4028 9.566 53.4268 9.638L53.7328 10.502ZM61.6607 8.45C61.9127 8.45 62.1227 8.498 62.2907 8.594C62.4707 8.678 62.6147 8.798 62.7227 8.954C62.8307 9.11 62.9087 9.29 62.9567 9.494C63.0047 9.698 63.0227 9.914 63.0107 10.142C63.0107 10.466 62.8907 10.73 62.6507 10.934C62.4107 11.126 62.1647 11.294 61.9127 11.438C61.6847 11.594 61.4387 11.732 61.1747 11.852C60.9227 11.972 60.6827 12.104 60.4547 12.248C60.2387 12.392 60.0527 12.56 59.8967 12.752C59.7527 12.944 59.6747 13.19 59.6627 13.49V14.246C59.6387 14.45 59.6807 14.654 59.7887 14.858C59.8967 15.05 60.0347 15.146 60.2027 15.146C60.2147 15.158 60.2627 15.14 60.3467 15.092C60.4307 15.044 60.5207 14.99 60.6167 14.93C60.7247 14.858 60.8267 14.786 60.9227 14.714C61.0307 14.642 61.1087 14.588 61.1567 14.552C61.3367 14.468 61.4747 14.402 61.5707 14.354C61.6787 14.294 61.7567 14.276 61.8047 14.3C61.8887 14.3 61.9607 14.312 62.0207 14.336C62.0807 14.36 62.1107 14.45 62.1107 14.606C62.0867 14.87 61.9727 15.128 61.7687 15.38C61.5647 15.62 61.3427 15.848 61.1027 16.064C60.8627 16.268 60.6287 16.448 60.4007 16.604C60.1727 16.76 60.0227 16.874 59.9507 16.946C59.7467 17.126 59.5547 17.222 59.3747 17.234C59.2067 17.246 59.0327 17.252 58.8527 17.252C58.7447 17.24 58.6307 17.192 58.5107 17.108C58.4027 17.024 58.3007 16.928 58.2047 16.82C58.1207 16.7 58.0547 16.58 58.0067 16.46C57.9587 16.34 57.9407 16.238 57.9527 16.154V15.848C57.9527 15.764 57.9287 15.674 57.8807 15.578C57.8567 15.53 57.8327 15.488 57.8087 15.452L57.8627 15.092V14.804C57.8627 14.756 57.8747 14.63 57.8987 14.426C57.9227 14.21 57.9527 13.982 57.9887 13.742C58.0247 13.49 58.0547 13.256 58.0787 13.04C58.1147 12.812 58.1387 12.662 58.1507 12.59C58.1987 12.554 58.2227 12.518 58.2227 12.482C58.2227 12.446 58.2167 12.41 58.2047 12.374C58.1927 12.338 58.1867 12.296 58.1867 12.248C58.1867 12.188 58.2107 12.122 58.2587 12.05C58.2587 11.906 58.2887 11.756 58.3487 11.6C58.3847 11.516 58.4207 11.432 58.4567 11.348L58.7087 10.754C58.7327 10.49 58.8587 10.22 59.0867 9.944C59.3147 9.656 59.5787 9.398 59.8787 9.17C60.1907 8.942 60.5087 8.762 60.8327 8.63C61.1567 8.486 61.4327 8.426 61.6607 8.45ZM60.8507 9.8C60.7907 9.8 60.7307 9.848 60.6707 9.944C60.6107 10.028 60.5507 10.124 60.4907 10.232C60.4307 10.364 60.3707 10.502 60.3107 10.646C60.2987 10.706 60.2807 10.778 60.2567 10.862C60.2327 10.934 60.2147 11.006 60.2027 11.078C60.1907 11.138 60.1967 11.192 60.2207 11.24C60.2447 11.276 60.2927 11.294 60.3647 11.294C60.4247 11.306 60.5147 11.294 60.6347 11.258C60.7547 11.222 60.8747 11.168 60.9947 11.096C61.1267 11.024 61.2407 10.94 61.3367 10.844C61.4447 10.736 61.5047 10.622 61.5167 10.502V10.196C61.5167 10.136 61.4987 10.082 61.4627 10.034C61.4267 9.986 61.3847 9.95 61.3367 9.926C61.2887 9.89 61.2287 9.86 61.1567 9.836L60.8507 9.8ZM72.5262 8.288C72.7062 8.288 72.8682 8.372 73.0122 8.54C73.1562 8.708 73.2282 8.876 73.2282 9.044C73.2282 9.176 73.1322 9.29 72.9402 9.386C72.7482 9.47 72.5322 9.554 72.2922 9.638C72.0522 9.71 71.8122 9.782 71.5722 9.854C71.3442 9.926 71.1942 10.004 71.1222 10.088C71.0142 10.196 70.9362 10.322 70.8882 10.466C70.8402 10.598 70.8162 10.736 70.8162 10.88C70.8162 11.024 70.8402 11.162 70.8882 11.294C70.9362 11.426 70.9962 11.546 71.0682 11.654C71.1522 11.822 71.2482 12.002 71.3562 12.194C71.4762 12.374 71.5842 12.584 71.6802 12.824C71.7762 13.064 71.8542 13.334 71.9142 13.634C71.9862 13.934 72.0222 14.27 72.0222 14.642C72.0222 14.966 71.9142 15.296 71.6982 15.632C71.4822 15.956 71.2062 16.244 70.8702 16.496C70.6062 16.64 70.4022 16.76 70.2582 16.856C70.1142 16.94 69.9882 17.006 69.8802 17.054C69.7722 17.114 69.6642 17.15 69.5562 17.162C69.4602 17.186 69.3342 17.198 69.1782 17.198H68.5302C68.4702 17.198 68.3922 17.204 68.2962 17.216C68.2002 17.228 68.1042 17.246 68.0082 17.27C67.8882 17.294 67.7622 17.318 67.6302 17.342H67.5222H67.1262C66.7902 17.342 66.6222 17.18 66.6222 16.856C66.6222 16.772 66.6762 16.64 66.7842 16.46C66.8922 16.28 67.0302 16.106 67.1982 15.938C67.3542 15.77 67.5222 15.62 67.7022 15.488C67.8822 15.356 68.0382 15.29 68.1702 15.29C68.2062 15.29 68.2662 15.32 68.3502 15.38C68.4342 15.428 68.5302 15.482 68.6382 15.542C68.7582 15.602 68.8902 15.662 69.0342 15.722C69.1782 15.77 69.3402 15.794 69.5202 15.794C69.6402 15.794 69.7482 15.758 69.8442 15.686C69.9522 15.614 70.0422 15.53 70.1142 15.434C70.1862 15.326 70.2402 15.218 70.2762 15.11C70.3122 14.99 70.3302 14.888 70.3302 14.804C70.3302 14.6 70.2522 14.354 70.0962 14.066C69.9402 13.766 69.7662 13.466 69.5742 13.166C69.3822 12.854 69.2082 12.56 69.0522 12.284C68.8962 12.008 68.8182 11.78 68.8182 11.6V11.402C68.8662 11.198 68.9382 10.988 69.0342 10.772C69.1302 10.556 69.2382 10.358 69.3582 10.178C69.4782 9.998 69.6102 9.842 69.7542 9.71C69.8982 9.566 70.0542 9.476 70.2222 9.44C70.3062 9.392 70.3902 9.314 70.4742 9.206C70.5702 9.098 70.6542 8.996 70.7262 8.9C70.8222 8.804 70.9062 8.714 70.9782 8.63C71.0622 8.534 71.1462 8.474 71.2302 8.45C71.3262 8.366 71.4762 8.318 71.6802 8.306C71.8842 8.294 72.0342 8.288 72.1302 8.288H72.5262ZM78.2405 0.745999C78.4925 0.745999 78.7025 0.811999 78.8705 0.944C79.0385 1.076 79.1765 1.232 79.2845 1.412C79.3925 1.592 79.4705 1.778 79.5185 1.97C79.5665 2.162 79.5905 2.318 79.5905 2.438C79.5905 2.534 79.5185 2.666 79.3745 2.834C79.2305 3.002 79.0745 3.17 78.9065 3.338C78.7025 3.542 78.4805 3.758 78.2405 3.986C78.1565 4.07 78.0665 4.118 77.9705 4.13C77.8745 4.142 77.7785 4.148 77.6825 4.148C77.5505 4.148 77.4305 4.16 77.3225 4.184C77.2265 4.196 77.1305 4.25 77.0345 4.346C76.7825 4.49 76.5845 4.67 76.4405 4.886C76.2965 5.102 76.1765 5.336 76.0805 5.588C76.0805 5.636 76.0625 5.72 76.0265 5.84C76.0025 5.96 75.9665 6.086 75.9185 6.218C75.8825 6.35 75.8465 6.476 75.8105 6.596C75.7865 6.716 75.7745 6.8 75.7745 6.848L75.5765 7.64C75.5645 7.676 75.5285 7.808 75.4685 8.036C75.4205 8.264 75.3665 8.522 75.3065 8.81C75.2465 9.098 75.1925 9.38 75.1445 9.656C75.0965 9.932 75.0725 10.13 75.0725 10.25C75.0725 10.298 75.0785 10.346 75.0905 10.394C75.1145 10.49 75.1625 10.538 75.2345 10.538C75.3785 10.538 75.5525 10.448 75.7565 10.268C75.9605 10.088 76.1885 9.914 76.4405 9.746C76.5125 9.674 76.6145 9.578 76.7465 9.458C76.8785 9.338 77.0165 9.224 77.1605 9.116C77.3045 8.996 77.4425 8.9 77.5745 8.828C77.7185 8.744 77.8385 8.702 77.9345 8.702H78.2405C78.4685 8.702 78.6425 8.804 78.7625 9.008C78.8825 9.212 78.9665 9.44 79.0145 9.692C79.0745 9.944 79.1105 10.184 79.1225 10.412C79.1345 10.628 79.1405 10.754 79.1405 10.79L79.0865 11.402C79.0865 11.474 79.0925 11.624 79.1045 11.852C79.1285 12.08 79.1405 12.278 79.1405 12.446C79.1405 12.482 79.1285 12.53 79.1045 12.59C79.0925 12.638 79.0745 12.692 79.0505 12.752C79.0265 12.812 79.0025 12.878 78.9785 12.95V13.292C78.9785 13.448 78.9605 13.556 78.9245 13.616C78.9005 13.664 78.8885 13.772 78.8885 13.94C78.8285 14.132 78.7625 14.27 78.6905 14.354C78.6065 14.426 78.5405 14.516 78.4925 14.624C78.4565 14.732 78.4025 14.822 78.3305 14.894C78.2825 15.074 78.2045 15.284 78.0965 15.524C77.9885 15.764 77.8505 15.974 77.6825 16.154C77.5985 16.238 77.5205 16.358 77.4485 16.514C77.3765 16.658 77.2985 16.808 77.2145 16.964C77.1425 17.108 77.0465 17.234 76.9265 17.342C76.8185 17.45 76.6865 17.504 76.5305 17.504H76.3325H75.6845C75.6485 17.504 75.5825 17.498 75.4865 17.486C75.3905 17.486 75.2945 17.468 75.1985 17.432C75.1025 17.408 75.0185 17.36 74.9465 17.288C74.8745 17.228 74.8385 17.132 74.8385 17C74.8385 16.916 74.8685 16.814 74.9285 16.694C75.0005 16.574 75.0725 16.46 75.1445 16.352C75.2285 16.232 75.3125 16.124 75.3965 16.028C75.4805 15.92 75.5405 15.842 75.5765 15.794C75.7565 15.65 75.9245 15.5 76.0805 15.344C76.2365 15.188 76.3565 15.074 76.4405 15.002C76.6805 14.822 76.8245 14.648 76.8725 14.48C76.9325 14.3 77.0045 14.12 77.0885 13.94C77.2565 13.616 77.3885 13.352 77.4845 13.148C77.5805 12.932 77.6285 12.698 77.6285 12.446V11.744C77.6285 11.696 77.6165 11.624 77.5925 11.528C77.5685 11.432 77.5265 11.342 77.4665 11.258C77.4065 11.162 77.3285 11.078 77.2325 11.006C77.1485 10.934 77.0465 10.898 76.9265 10.898C76.8545 10.898 76.7945 10.934 76.7465 11.006C76.7105 11.066 76.6085 11.144 76.4405 11.24C76.0085 11.564 75.6665 11.918 75.4145 12.302C75.1625 12.674 74.9345 13.07 74.7305 13.49C74.6585 13.742 74.5985 14.012 74.5505 14.3C74.5025 14.576 74.4545 14.858 74.4065 15.146C74.3585 15.422 74.3105 15.692 74.2625 15.956C74.2145 16.22 74.1545 16.466 74.0825 16.694C73.9865 16.85 73.8665 16.97 73.7225 17.054C73.5905 17.15 73.4765 17.198 73.3805 17.198C73.2005 17.198 73.0625 17.15 72.9665 17.054C72.8825 16.958 72.8165 16.844 72.7685 16.712C72.7205 16.58 72.6905 16.448 72.6785 16.316C72.6785 16.172 72.6785 16.064 72.6785 15.992V14.3C72.6785 14.252 72.7145 14.09 72.7865 13.814C72.8585 13.538 72.9365 13.232 73.0205 12.896C73.1165 12.548 73.2005 12.212 73.2725 11.888C73.3445 11.564 73.3805 11.318 73.3805 11.15C73.4165 11.054 73.4405 10.964 73.4525 10.88C73.4765 10.796 73.5005 10.718 73.5245 10.646C73.5485 10.562 73.5665 10.478 73.5785 10.394V9.89C73.5785 9.842 73.5785 9.806 73.5785 9.782C73.5905 9.746 73.6265 9.716 73.6865 9.692C73.6865 9.668 73.6925 9.644 73.7045 9.62C73.7165 9.596 73.7225 9.572 73.7225 9.548V9.188C73.7225 9.152 73.7405 9.074 73.7765 8.954C73.8125 8.822 73.8545 8.678 73.9025 8.522C73.9505 8.366 73.9925 8.21 74.0285 8.054C74.0645 7.898 74.0825 7.778 74.0825 7.694V6.596C74.0825 6.248 74.1245 5.936 74.2085 5.66C74.3045 5.384 74.3765 5.162 74.4245 4.994L74.4785 4.49C74.4905 4.406 74.5325 4.28 74.6045 4.112C74.6885 3.932 74.7785 3.752 74.8745 3.572C74.9705 3.392 75.0665 3.224 75.1625 3.068C75.2585 2.912 75.3305 2.816 75.3785 2.78C75.4505 2.744 75.4985 2.678 75.5225 2.582C75.5585 2.486 75.5885 2.384 75.6125 2.276C75.6485 2.168 75.6905 2.066 75.7385 1.97C75.7985 1.862 75.8945 1.784 76.0265 1.736C76.0505 1.736 76.0865 1.736 76.1345 1.736C76.1825 1.724 76.2305 1.706 76.2785 1.682C76.3025 1.658 76.3385 1.646 76.3865 1.646C76.4345 1.646 76.4825 1.646 76.5305 1.646C76.6265 1.55 76.7645 1.448 76.9445 1.34C77.1365 1.232 77.3285 1.13 77.5205 1.034C77.7365 0.926 77.9765 0.829999 78.2405 0.745999ZM82.9385 8.45C83.1065 8.45 83.3105 8.456 83.5505 8.468C83.8025 8.48 84.0125 8.522 84.1805 8.594C84.3605 8.594 84.4745 8.666 84.5225 8.81C84.5825 8.954 84.6545 9.116 84.7385 9.296C84.7865 9.344 84.8405 9.41 84.9005 9.494C84.9725 9.578 85.0325 9.668 85.0805 9.764C85.1405 9.848 85.1885 9.938 85.2245 10.034C85.2605 10.13 85.2785 10.214 85.2785 10.286L85.1345 11.888C85.1345 12.224 85.0625 12.596 84.9185 13.004C84.7745 13.412 84.5645 13.778 84.2885 14.102C84.1925 14.198 84.1205 14.306 84.0725 14.426C84.0365 14.534 83.9945 14.648 83.9465 14.768C83.9105 14.888 83.8625 15.014 83.8025 15.146C83.7545 15.266 83.6825 15.386 83.5865 15.506C83.5145 15.59 83.4305 15.692 83.3345 15.812C83.2505 15.932 83.1545 16.058 83.0465 16.19C82.9505 16.31 82.8425 16.424 82.7225 16.532C82.6145 16.628 82.5005 16.7 82.3805 16.748C82.2005 16.844 82.0505 16.928 81.9305 17C81.8105 17.072 81.7025 17.132 81.6065 17.18C81.5105 17.228 81.4085 17.258 81.3005 17.27C81.2045 17.294 81.0965 17.306 80.9765 17.306C80.7965 17.306 80.6285 17.264 80.4725 17.18C80.3165 17.096 80.1785 16.988 80.0585 16.856C79.9505 16.712 79.8605 16.556 79.7885 16.388C79.7165 16.208 79.6805 16.028 79.6805 15.848V14.642C79.6805 14.57 79.6565 14.504 79.6085 14.444C79.5605 14.384 79.5365 14.216 79.5365 13.94C79.5245 13.592 79.6085 13.172 79.7885 12.68C79.9685 12.188 80.1785 11.708 80.4185 11.24C80.6705 10.76 80.9165 10.34 81.1565 9.98C81.4085 9.608 81.6005 9.38 81.7325 9.296C81.8645 9.212 81.9725 9.122 82.0565 9.026C82.1525 8.918 82.2425 8.822 82.3265 8.738C82.4105 8.654 82.4945 8.588 82.5785 8.54C82.6745 8.48 82.7945 8.45 82.9385 8.45ZM83.0285 10.502C82.8365 10.502 82.6385 10.586 82.4345 10.754C82.2425 10.91 82.0625 11.096 81.8945 11.312C81.7265 11.516 81.5765 11.726 81.4445 11.942C81.3125 12.146 81.2225 12.296 81.1745 12.392L80.9945 13.076C80.9465 13.244 80.9045 13.406 80.8685 13.562C80.8445 13.718 80.8325 13.814 80.8325 13.85V14.192C80.8805 14.228 80.9225 14.3 80.9585 14.408C80.9945 14.516 81.0365 14.624 81.0845 14.732C81.1445 14.84 81.2105 14.936 81.2825 15.02C81.3545 15.104 81.4565 15.146 81.5885 15.146C81.8285 15.038 82.0505 14.93 82.2545 14.822C82.4225 14.726 82.5845 14.624 82.7405 14.516C82.9085 14.408 83.0225 14.3 83.0825 14.192C83.1545 14.024 83.2325 13.826 83.3165 13.598C83.4125 13.37 83.5025 13.154 83.5865 12.95C83.5625 12.854 83.5865 12.758 83.6585 12.662C83.7425 12.566 83.7845 12.476 83.7845 12.392V11.888C83.7845 11.828 83.7665 11.726 83.7305 11.582C83.7065 11.426 83.6585 11.27 83.5865 11.114C83.5265 10.946 83.4485 10.802 83.3525 10.682C83.2565 10.562 83.1485 10.502 83.0285 10.502ZM88.2868 8.342C88.4188 8.318 88.5028 8.336 88.5388 8.396C88.5868 8.456 88.6888 8.522 88.8448 8.594C88.9768 8.666 89.0908 8.75 89.1868 8.846C89.2828 8.942 89.3308 9.056 89.3308 9.188C89.3188 9.248 89.3068 9.314 89.2948 9.386C89.2708 9.542 89.2828 9.692 89.3308 9.836C89.3308 9.944 89.3068 10.076 89.2588 10.232C89.2228 10.376 89.2168 10.496 89.2408 10.592C89.2648 10.64 89.3008 10.688 89.3488 10.736C89.3848 10.772 89.4208 10.808 89.4568 10.844C89.5048 10.868 89.5468 10.868 89.5828 10.844C89.7028 10.82 89.8288 10.706 89.9608 10.502C90.1048 10.298 90.2428 10.07 90.3748 9.818C90.5068 9.566 90.6388 9.32 90.7708 9.08C90.9028 8.84 91.0228 8.678 91.1308 8.594L91.6888 8.45C91.7608 8.426 91.8388 8.42 91.9228 8.432C92.0188 8.444 92.0908 8.45 92.1388 8.45C92.3668 8.582 92.5108 8.768 92.5708 9.008C92.6308 9.236 92.6728 9.416 92.6968 9.548C92.7088 9.716 92.6488 9.938 92.5168 10.214C92.3968 10.49 92.2408 10.718 92.0488 10.898C91.9648 10.946 91.8868 10.988 91.8148 11.024C91.7428 11.048 91.6708 11.072 91.5988 11.096C91.5388 11.096 91.4908 11.096 91.4548 11.096C91.4308 11.084 91.3948 11.066 91.3468 11.042C91.2868 11.018 91.2268 11.006 91.1668 11.006C91.1188 10.994 91.0588 10.988 90.9868 10.988C90.8308 10.988 90.6808 11.048 90.5368 11.168C90.4048 11.288 90.2728 11.414 90.1408 11.546C89.9368 11.798 89.7748 12.086 89.6548 12.41C89.5468 12.722 89.4928 13.016 89.4928 13.292C89.4088 13.376 89.3068 13.484 89.1868 13.616C89.0788 13.736 88.9948 13.88 88.9348 14.048C88.8628 14.216 88.8268 14.39 88.8268 14.57C88.8388 14.75 88.8088 14.924 88.7368 15.092C88.7488 15.236 88.7488 15.404 88.7368 15.596C88.7248 15.776 88.7008 15.968 88.6648 16.172C88.6408 16.376 88.6048 16.574 88.5568 16.766C88.5088 16.946 88.4548 17.108 88.3948 17.252C88.3108 17.312 88.2088 17.366 88.0888 17.414C87.9688 17.462 87.8428 17.498 87.7108 17.522C87.5668 17.558 87.4108 17.582 87.2428 17.594C87.1828 17.594 87.1048 17.546 87.0088 17.45C86.9608 17.402 86.9188 17.354 86.8828 17.306L86.6308 16.802C86.6188 16.718 86.6308 16.574 86.6668 16.37C86.7028 16.166 86.7448 15.962 86.7928 15.758C86.8408 15.542 86.8828 15.35 86.9188 15.182C86.9668 15.014 86.9908 14.918 86.9908 14.894C87.2548 14.498 87.4288 14.084 87.5128 13.652C87.5968 13.208 87.6868 12.77 87.7828 12.338L87.6388 11.15C87.5788 10.994 87.5008 10.916 87.4048 10.916C87.3208 10.916 87.2308 10.928 87.1348 10.952C86.9428 10.988 86.8048 11.042 86.7208 11.114C86.6368 11.174 86.5648 11.24 86.5048 11.312C86.4448 11.384 86.3788 11.456 86.3068 11.528C86.2348 11.588 86.1088 11.63 85.9288 11.654C85.8328 11.654 85.7728 11.594 85.7488 11.474C85.7248 11.354 85.7008 11.246 85.6768 11.15C85.6528 11.042 85.6708 10.94 85.7308 10.844C85.7908 10.736 85.8688 10.64 85.9648 10.556C86.0728 10.46 86.1928 10.37 86.3248 10.286C86.4568 10.19 86.5768 10.094 86.6848 9.998C86.8288 9.842 86.9548 9.674 87.0628 9.494C87.1708 9.302 87.2788 9.128 87.3868 8.972C87.4948 8.804 87.6148 8.666 87.7468 8.558C87.8908 8.438 88.0708 8.366 88.2868 8.342ZM96.2273 5.75C96.3353 5.75 96.4373 5.756 96.5333 5.768C96.6413 5.768 96.7373 5.786 96.8213 5.822C96.9173 5.846 96.9893 5.894 97.0373 5.966C97.0973 6.026 97.1273 6.116 97.1273 6.236C97.1273 6.308 97.0433 6.446 96.8753 6.65C96.7073 6.842 96.5213 7.058 96.3173 7.298C96.1253 7.526 95.9453 7.754 95.7773 7.982C95.6093 8.198 95.5253 8.366 95.5253 8.486C95.5253 8.582 95.5493 8.654 95.5973 8.702C95.6573 8.75 95.7233 8.786 95.7953 8.81C95.8673 8.822 95.9393 8.834 96.0113 8.846C96.0953 8.846 96.1553 8.846 96.1913 8.846H96.7853C96.8093 8.822 96.8453 8.792 96.8933 8.756C96.9893 8.684 97.0673 8.648 97.1273 8.648C97.3073 8.648 97.4333 8.72 97.5053 8.864C97.5893 9.008 97.6313 9.17 97.6313 9.35V9.494V9.836C97.6313 9.968 97.5593 10.07 97.4153 10.142C97.2713 10.214 97.1093 10.268 96.9293 10.304C96.7613 10.34 96.5933 10.364 96.4253 10.376C96.2693 10.388 96.1733 10.394 96.1373 10.394C95.9573 10.394 95.8553 10.388 95.8313 10.376C95.8073 10.352 95.7593 10.34 95.6873 10.34H95.3273C95.2553 10.34 95.1533 10.376 95.0213 10.448C94.8893 10.52 94.8233 10.604 94.8233 10.7C94.8233 10.832 94.8173 10.952 94.8053 11.06C94.7933 11.156 94.7813 11.24 94.7693 11.312C94.7573 11.396 94.7453 11.474 94.7333 11.546C94.6973 11.618 94.6613 11.684 94.6253 11.744C94.5653 11.864 94.5353 11.966 94.5353 12.05V12.248C94.5353 12.452 94.5053 12.674 94.4453 12.914C94.3853 13.154 94.3313 13.298 94.2833 13.346C94.2233 13.406 94.1753 13.466 94.1393 13.526C94.1033 13.574 94.0853 13.712 94.0853 13.94V14.3C94.0853 14.372 94.0973 14.462 94.1213 14.57C94.1453 14.666 94.1873 14.756 94.2473 14.84C94.3073 14.924 94.3793 14.996 94.4633 15.056C94.5473 15.116 94.6553 15.146 94.7873 15.146C94.9433 15.146 95.0753 15.104 95.1833 15.02C95.2313 14.984 95.2793 14.942 95.3273 14.894C95.4233 14.894 95.4953 14.924 95.5433 14.984C95.6033 15.032 95.6573 15.086 95.7053 15.146C95.7533 15.218 95.7953 15.302 95.8313 15.398C95.8313 15.494 95.7893 15.62 95.7053 15.776C95.6333 15.932 95.5433 16.088 95.4353 16.244C95.3273 16.388 95.2133 16.52 95.0933 16.64C94.9733 16.748 94.8713 16.802 94.7873 16.802C94.7033 16.802 94.6193 16.868 94.5353 17C94.4633 17.144 94.4273 17.246 94.4273 17.306C94.3913 17.306 94.3253 17.318 94.2293 17.342C94.1333 17.366 94.0373 17.39 93.9413 17.414C93.8213 17.45 93.7013 17.48 93.5813 17.504C93.4253 17.504 93.2993 17.492 93.2033 17.468C93.1193 17.456 93.0773 17.402 93.0773 17.306C93.0413 17.282 92.9873 17.192 92.9153 17.036C92.8433 16.892 92.7713 16.73 92.6993 16.55C92.6273 16.37 92.5613 16.196 92.5013 16.028C92.4533 15.848 92.4293 15.722 92.4293 15.65V14.804C92.4293 14.756 92.4413 14.648 92.4653 14.48C92.5013 14.3 92.5373 14.108 92.5733 13.904C92.6213 13.688 92.6573 13.478 92.6813 13.274C92.7173 13.058 92.7353 12.884 92.7353 12.752V12.446C92.8313 12.17 92.9213 11.924 93.0053 11.708C93.0653 11.516 93.1253 11.342 93.1853 11.186C93.2453 11.018 93.2753 10.922 93.2753 10.898V10.34C93.2753 10.184 93.2273 10.088 93.1313 10.052C93.0593 9.992 92.9813 9.932 92.8973 9.872C92.8133 9.812 92.7713 9.734 92.7713 9.638C92.7713 9.566 92.7953 9.494 92.8433 9.422C92.9033 9.338 92.9693 9.254 93.0413 9.17C93.1253 9.086 93.2033 9.002 93.2753 8.918C93.3593 8.822 93.4253 8.732 93.4733 8.648C93.5573 8.468 93.6353 8.36 93.7073 8.324C93.7913 8.276 93.8813 8.216 93.9773 8.144C94.1333 7.964 94.3013 7.814 94.4813 7.694C94.6613 7.574 94.8293 7.388 94.9853 7.136C95.0813 6.968 95.1533 6.8 95.2013 6.632C95.2493 6.464 95.3573 6.332 95.5253 6.236C95.6813 6.188 95.8193 6.098 95.9393 5.966C96.0593 5.822 96.1553 5.75 96.2273 5.75ZM97.2353 14.444C97.2353 14.276 97.3133 14.168 97.4693 14.12C97.6253 14.072 97.7813 14 97.9373 13.904C97.9853 13.868 98.0213 13.814 98.0453 13.742C98.0813 13.67 98.1113 13.604 98.1353 13.544C98.1713 13.484 98.2073 13.436 98.2433 13.4C98.2913 13.352 98.3513 13.334 98.4233 13.346C98.5313 13.346 98.6153 13.37 98.6753 13.418C98.7353 13.466 98.8013 13.526 98.8733 13.598C99.2093 13.826 99.4073 14.09 99.4673 14.39C99.5393 14.69 99.5753 15.044 99.5753 15.452C99.5753 15.632 99.5513 15.794 99.5033 15.938C99.4673 16.07 99.4133 16.202 99.3413 16.334C99.2693 16.466 99.1853 16.598 99.0893 16.73C99.0053 16.862 98.9213 17 98.8373 17.144C98.6333 17.456 98.4413 17.708 98.2613 17.9C98.0813 18.092 97.8353 18.278 97.5233 18.458C97.2953 18.578 97.0793 18.704 96.8753 18.836C96.6833 18.98 96.4793 19.106 96.2633 19.214C96.0593 19.334 95.8493 19.43 95.6333 19.502C95.4053 19.574 95.1533 19.61 94.8773 19.61C94.8533 19.61 94.8233 19.598 94.7873 19.574C94.7393 19.55 94.6913 19.526 94.6433 19.502C94.5953 19.466 94.5413 19.43 94.4813 19.394C94.5173 19.238 94.5833 19.106 94.6793 18.998C94.7753 18.89 94.8893 18.794 95.0213 18.71C95.1533 18.626 95.2913 18.542 95.4353 18.458C95.5673 18.386 95.6993 18.302 95.8313 18.206C96.0833 18.014 96.3233 17.834 96.5513 17.666C96.7913 17.498 97.0073 17.318 97.1993 17.126C97.3913 16.934 97.5413 16.724 97.6493 16.496C97.7693 16.256 97.8293 15.974 97.8293 15.65C97.8293 15.53 97.7993 15.428 97.7393 15.344C97.6793 15.248 97.6073 15.158 97.5233 15.074C97.4513 14.99 97.3853 14.9 97.3253 14.804C97.2653 14.708 97.2353 14.588 97.2353 14.444ZM110.201 1.088H110.687C110.783 1.088 110.873 1.112 110.957 1.16C111.053 1.208 111.149 1.232 111.245 1.232L111.749 1.088H112.037C112.121 1.088 112.211 1.118 112.307 1.178C112.415 1.226 112.511 1.292 112.595 1.376C112.691 1.46 112.763 1.55 112.811 1.646C112.871 1.73 112.901 1.808 112.901 1.88C112.901 2.06 112.877 2.252 112.829 2.456C112.781 2.66 112.697 2.864 112.577 3.068C112.457 3.26 112.301 3.434 112.109 3.59C111.917 3.746 111.677 3.86 111.389 3.932H111.245H111.047C110.915 3.932 110.765 3.968 110.597 4.04C110.441 4.112 110.291 4.208 110.147 4.328C110.003 4.436 109.883 4.562 109.787 4.706C109.691 4.838 109.643 4.964 109.643 5.084C109.547 5.168 109.481 5.306 109.445 5.498C109.421 5.678 109.367 5.84 109.283 5.984C109.187 6.092 109.127 6.242 109.103 6.434C109.091 6.614 109.085 6.752 109.085 6.848L108.887 7.496C108.887 7.664 108.851 7.832 108.779 8C108.707 8.168 108.623 8.348 108.527 8.54C108.443 8.732 108.365 8.942 108.293 9.17C108.221 9.386 108.185 9.626 108.185 9.89V10.25C108.185 10.31 108.209 10.352 108.257 10.376C108.281 10.388 108.311 10.394 108.347 10.394C108.431 10.394 108.515 10.322 108.599 10.178C108.683 10.034 108.791 9.872 108.923 9.692C109.055 9.512 109.217 9.35 109.409 9.206C109.601 9.062 109.847 8.99 110.147 8.99L110.543 8.846C110.819 8.846 111.029 8.93 111.173 9.098C111.317 9.254 111.389 9.47 111.389 9.746V9.89L111.245 10.25C111.269 10.346 111.293 10.442 111.317 10.538C111.341 10.622 111.359 10.712 111.371 10.808C111.383 10.892 111.389 10.97 111.389 11.042C111.389 11.174 111.371 11.258 111.335 11.294C111.311 11.354 111.287 11.408 111.263 11.456C111.251 11.492 111.245 11.522 111.245 11.546C111.245 11.594 111.251 11.636 111.263 11.672C111.275 11.696 111.287 11.732 111.299 11.78C111.311 11.828 111.311 11.888 111.299 11.96C111.299 12.032 111.281 12.128 111.245 12.248V12.788C111.245 12.824 111.209 12.902 111.137 13.022C111.077 13.13 111.005 13.256 110.921 13.4C110.837 13.544 110.747 13.7 110.651 13.868C110.555 14.036 110.483 14.198 110.435 14.354L110.237 15.146C110.021 15.458 109.817 15.74 109.625 15.992C109.457 16.208 109.295 16.418 109.139 16.622C108.995 16.826 108.893 16.952 108.833 17C108.701 17.084 108.599 17.162 108.527 17.234C108.455 17.306 108.383 17.366 108.311 17.414C108.239 17.462 108.149 17.498 108.041 17.522C107.933 17.546 107.765 17.558 107.537 17.558L107.033 17.702C106.937 17.702 106.871 17.672 106.835 17.612C106.799 17.564 106.775 17.492 106.763 17.396C106.751 17.312 106.739 17.216 106.727 17.108C106.715 17 106.685 16.898 106.637 16.802C106.637 16.742 106.619 16.682 106.583 16.622C106.547 16.55 106.517 16.478 106.493 16.406C106.409 16.31 106.325 16.22 106.241 16.136C106.169 16.04 106.133 15.926 106.133 15.794C106.133 15.698 106.163 15.572 106.223 15.416C106.259 15.332 106.295 15.242 106.331 15.146V14.606L106.493 12.95V12.59L106.835 10.898V10.394V10.25C106.835 10.154 106.865 9.95 106.925 9.638C106.997 9.326 107.033 8.96 107.033 8.54V8.036L107.537 5.984V5.84C107.537 5.756 107.549 5.624 107.573 5.444C107.609 5.252 107.645 5.06 107.681 4.868C107.729 4.652 107.783 4.412 107.843 4.148L107.987 3.644C108.011 3.464 108.059 3.308 108.131 3.176C108.215 3.032 108.335 2.834 108.491 2.582L110.201 1.088ZM109.193 10.754C109.025 10.754 108.851 10.88 108.671 11.132C108.503 11.384 108.347 11.672 108.203 11.996C108.059 12.32 107.939 12.638 107.843 12.95C107.747 13.25 107.699 13.448 107.699 13.544V14.246C107.699 14.366 107.711 14.474 107.735 14.57C107.759 14.654 107.783 14.732 107.807 14.804C107.831 14.864 107.873 14.894 107.933 14.894H108.149C108.317 14.834 108.497 14.726 108.689 14.57C108.893 14.414 109.079 14.24 109.247 14.048C109.415 13.856 109.553 13.658 109.661 13.454C109.781 13.25 109.841 13.064 109.841 12.896V12.446V12.05L109.751 11.69L109.841 11.402C109.841 10.97 109.625 10.754 109.193 10.754ZM118.133 1.232C118.481 1.232 118.697 1.34 118.781 1.556C118.877 1.772 118.925 2.018 118.925 2.294V2.636C118.925 2.804 118.871 2.984 118.763 3.176C118.655 3.368 118.523 3.548 118.367 3.716C118.211 3.872 118.043 4.01 117.863 4.13C117.695 4.238 117.551 4.292 117.431 4.292C117.275 4.292 117.143 4.268 117.035 4.22C116.927 4.172 116.825 4.148 116.729 4.148C116.477 4.148 116.213 4.226 115.937 4.382C115.673 4.538 115.505 4.79 115.433 5.138C115.337 5.318 115.289 5.48 115.289 5.624C115.301 5.756 115.283 5.894 115.235 6.038C115.127 6.29 115.013 6.62 114.893 7.028C114.785 7.424 114.731 7.796 114.731 8.144C114.731 8.18 114.719 8.24 114.695 8.324C114.683 8.408 114.665 8.498 114.641 8.594C114.617 8.702 114.593 8.816 114.569 8.936V9.494L114.317 10.952C114.341 11.12 114.335 11.318 114.299 11.546C114.275 11.762 114.233 12.014 114.173 12.302C114.113 12.59 114.053 12.902 113.993 13.238C113.933 13.574 113.891 13.928 113.867 14.3C113.867 14.372 113.879 14.492 113.903 14.66C113.939 14.816 113.999 14.894 114.083 14.894C114.191 14.894 114.305 14.858 114.425 14.786C114.557 14.714 114.683 14.624 114.803 14.516C114.923 14.408 115.043 14.294 115.163 14.174C115.295 14.054 115.415 13.946 115.523 13.85C115.751 13.622 115.985 13.418 116.225 13.238C116.465 13.046 116.699 12.95 116.927 12.95L117.035 13.094C117.035 13.226 116.999 13.382 116.927 13.562C116.855 13.73 116.765 13.904 116.657 14.084C116.549 14.264 116.429 14.432 116.297 14.588C116.165 14.744 116.039 14.864 115.919 14.948C115.679 15.116 115.481 15.32 115.325 15.56C115.181 15.8 114.983 16.046 114.731 16.298C114.647 16.478 114.515 16.628 114.335 16.748C114.167 16.856 113.999 16.958 113.831 17.054C113.651 17.126 113.429 17.216 113.165 17.324C112.913 17.444 112.697 17.504 112.517 17.504C112.385 17.504 112.289 17.48 112.229 17.432C112.181 17.396 112.151 17.336 112.139 17.252C112.127 17.168 112.127 17.06 112.139 16.928C112.163 16.796 112.175 16.634 112.175 16.442V15.29C112.175 15.122 112.205 14.954 112.265 14.786C112.337 14.618 112.373 14.456 112.373 14.3V13.94C112.373 14.036 112.385 13.994 112.409 13.814C112.433 13.622 112.463 13.346 112.499 12.986C112.535 12.614 112.565 12.176 112.589 11.672C112.613 11.168 112.625 10.64 112.625 10.088C112.625 10.016 112.655 9.914 112.715 9.782C112.787 9.638 112.823 9.524 112.823 9.44V8.792C112.895 8.444 112.949 8.102 112.985 7.766C113.021 7.43 113.057 7.1 113.093 6.776C113.129 6.452 113.177 6.128 113.237 5.804C113.297 5.468 113.393 5.132 113.525 4.796C113.621 4.472 113.777 4.16 113.993 3.86C114.209 3.56 114.401 3.236 114.569 2.888C114.653 2.732 114.743 2.588 114.839 2.456C114.947 2.324 115.079 2.216 115.235 2.132C115.403 1.856 115.631 1.64 115.919 1.484C116.219 1.316 116.507 1.232 116.783 1.232H118.133ZM120.38 8.45C120.548 8.45 120.752 8.456 120.992 8.468C121.244 8.48 121.454 8.522 121.622 8.594C121.802 8.594 121.916 8.666 121.964 8.81C122.024 8.954 122.096 9.116 122.18 9.296C122.228 9.344 122.282 9.41 122.342 9.494C122.414 9.578 122.474 9.668 122.522 9.764C122.582 9.848 122.63 9.938 122.666 10.034C122.702 10.13 122.72 10.214 122.72 10.286L122.576 11.888C122.576 12.224 122.504 12.596 122.36 13.004C122.216 13.412 122.006 13.778 121.73 14.102C121.634 14.198 121.562 14.306 121.514 14.426C121.478 14.534 121.436 14.648 121.388 14.768C121.352 14.888 121.304 15.014 121.244 15.146C121.196 15.266 121.124 15.386 121.028 15.506C120.956 15.59 120.872 15.692 120.776 15.812C120.692 15.932 120.596 16.058 120.488 16.19C120.392 16.31 120.284 16.424 120.164 16.532C120.056 16.628 119.942 16.7 119.822 16.748C119.642 16.844 119.492 16.928 119.372 17C119.252 17.072 119.144 17.132 119.048 17.18C118.952 17.228 118.85 17.258 118.742 17.27C118.646 17.294 118.538 17.306 118.418 17.306C118.238 17.306 118.07 17.264 117.914 17.18C117.758 17.096 117.62 16.988 117.5 16.856C117.392 16.712 117.302 16.556 117.23 16.388C117.158 16.208 117.122 16.028 117.122 15.848V14.642C117.122 14.57 117.098 14.504 117.05 14.444C117.002 14.384 116.978 14.216 116.978 13.94C116.966 13.592 117.05 13.172 117.23 12.68C117.41 12.188 117.62 11.708 117.86 11.24C118.112 10.76 118.358 10.34 118.598 9.98C118.85 9.608 119.042 9.38 119.174 9.296C119.306 9.212 119.414 9.122 119.498 9.026C119.594 8.918 119.684 8.822 119.768 8.738C119.852 8.654 119.936 8.588 120.02 8.54C120.116 8.48 120.236 8.45 120.38 8.45ZM120.47 10.502C120.278 10.502 120.08 10.586 119.876 10.754C119.684 10.91 119.504 11.096 119.336 11.312C119.168 11.516 119.018 11.726 118.886 11.942C118.754 12.146 118.664 12.296 118.616 12.392L118.436 13.076C118.388 13.244 118.346 13.406 118.31 13.562C118.286 13.718 118.274 13.814 118.274 13.85V14.192C118.322 14.228 118.364 14.3 118.4 14.408C118.436 14.516 118.478 14.624 118.526 14.732C118.586 14.84 118.652 14.936 118.724 15.02C118.796 15.104 118.898 15.146 119.03 15.146C119.27 15.038 119.492 14.93 119.696 14.822C119.864 14.726 120.026 14.624 120.182 14.516C120.35 14.408 120.464 14.3 120.524 14.192C120.596 14.024 120.674 13.826 120.758 13.598C120.854 13.37 120.944 13.154 121.028 12.95C121.004 12.854 121.028 12.758 121.1 12.662C121.184 12.566 121.226 12.476 121.226 12.392V11.888C121.226 11.828 121.208 11.726 121.172 11.582C121.148 11.426 121.1 11.27 121.028 11.114C120.968 10.946 120.89 10.802 120.794 10.682C120.698 10.562 120.59 10.502 120.47 10.502ZM125.728 8.648C125.86 8.648 125.962 8.69 126.034 8.774C126.106 8.858 126.172 8.948 126.232 9.044C126.268 9.128 126.28 9.242 126.268 9.386C126.256 9.53 126.232 9.674 126.196 9.818C126.172 9.962 126.142 10.1 126.106 10.232C126.082 10.364 126.07 10.454 126.07 10.502L126.124 10.79L126.322 11.15C126.37 11.15 126.46 11.084 126.592 10.952C126.736 10.808 126.898 10.634 127.078 10.43C127.27 10.226 127.468 10.01 127.672 9.782C127.876 9.542 128.074 9.32 128.266 9.116C128.458 8.912 128.632 8.744 128.788 8.612C128.944 8.468 129.058 8.396 129.13 8.396C129.226 8.396 129.304 8.456 129.364 8.576C129.436 8.696 129.502 8.822 129.562 8.954C129.622 9.11 129.676 9.29 129.724 9.494C129.736 9.662 129.724 9.896 129.688 10.196C129.652 10.496 129.592 10.826 129.508 11.186C129.436 11.534 129.352 11.894 129.256 12.266C129.172 12.626 129.088 12.962 129.004 13.274C128.932 13.574 128.866 13.826 128.806 14.03C128.758 14.234 128.734 14.342 128.734 14.354C128.734 14.402 128.728 14.462 128.716 14.534C128.704 14.594 128.698 14.654 128.698 14.714C128.698 14.762 128.71 14.804 128.734 14.84C128.77 14.876 128.836 14.894 128.932 14.894C129.004 14.846 129.076 14.798 129.148 14.75C129.208 14.702 129.274 14.654 129.346 14.606C129.418 14.558 129.496 14.504 129.58 14.444C129.784 14.312 129.97 14.192 130.138 14.084C130.318 13.964 130.432 13.904 130.48 13.904C130.552 13.904 130.63 13.946 130.714 14.03C130.798 14.102 130.84 14.174 130.84 14.246C130.84 14.27 130.798 14.336 130.714 14.444C130.642 14.552 130.552 14.666 130.444 14.786C130.336 14.906 130.228 15.014 130.12 15.11C130.012 15.206 129.934 15.254 129.886 15.254C129.886 15.35 129.85 15.44 129.778 15.524C129.718 15.608 129.652 15.65 129.58 15.65C129.388 15.854 129.226 16.052 129.094 16.244C128.962 16.436 128.83 16.616 128.698 16.784C128.566 16.94 128.422 17.066 128.266 17.162C128.11 17.258 127.912 17.306 127.672 17.306C127.588 17.306 127.498 17.276 127.402 17.216C127.318 17.156 127.24 17.084 127.168 17C127.096 16.904 127.036 16.808 126.988 16.712C126.952 16.604 126.934 16.514 126.934 16.442L126.88 15.794C126.952 15.47 127.042 15.122 127.15 14.75C127.27 14.378 127.378 14.03 127.474 13.706C127.57 13.43 127.648 13.166 127.708 12.914C127.768 12.662 127.81 12.422 127.834 12.194V11.996C127.786 11.66 127.666 11.492 127.474 11.492C127.186 11.492 126.958 11.558 126.79 11.69C126.622 11.81 126.484 11.972 126.376 12.176C126.268 12.368 126.172 12.578 126.088 12.806C126.016 13.034 125.932 13.25 125.836 13.454C125.776 13.526 125.734 13.598 125.71 13.67C125.698 13.73 125.704 13.808 125.728 13.904C125.704 14.048 125.674 14.192 125.638 14.336C125.614 14.48 125.578 14.618 125.53 14.75C125.398 15.134 125.272 15.518 125.152 15.902C125.032 16.274 124.924 16.622 124.828 16.946C124.888 17.042 124.876 17.096 124.792 17.108C124.72 17.132 124.648 17.144 124.576 17.144C124.504 17.144 124.402 17.138 124.27 17.126C124.138 17.126 124.006 17.108 123.874 17.072C123.754 17.036 123.64 16.982 123.532 16.91C123.436 16.838 123.382 16.736 123.37 16.604C123.346 16.4 123.37 16.19 123.442 15.974C123.514 15.746 123.592 15.536 123.676 15.344C123.772 15.152 123.862 14.984 123.946 14.84C124.03 14.696 124.072 14.6 124.072 14.552V14.246V13.904L123.982 13.598C123.982 13.526 124.006 13.436 124.054 13.328C124.102 13.208 124.15 13.094 124.198 12.986C124.258 12.866 124.312 12.758 124.36 12.662C124.408 12.566 124.432 12.494 124.432 12.446V12.194L124.378 11.492C124.378 11.42 124.366 11.348 124.342 11.276C124.33 11.192 124.276 11.15 124.18 11.15C124.108 11.15 124.024 11.168 123.928 11.204C123.844 11.24 123.754 11.282 123.658 11.33C123.574 11.366 123.49 11.402 123.406 11.438C123.334 11.474 123.274 11.492 123.226 11.492H123.082C122.998 11.444 122.974 11.354 123.01 11.222C123.058 11.078 123.082 10.97 123.082 10.898C123.382 10.478 123.67 10.112 123.946 9.8C124.234 9.476 124.576 9.188 124.972 8.936C125.056 8.888 125.17 8.828 125.314 8.756C125.458 8.684 125.596 8.648 125.728 8.648ZM139.846 1.232H140.35C140.398 1.232 140.446 1.268 140.494 1.34C140.542 1.412 140.578 1.496 140.602 1.592C140.638 1.7 140.668 1.814 140.692 1.934V2.438C140.692 2.858 140.548 3.212 140.26 3.5C139.972 3.788 139.6 3.932 139.144 3.932C139.12 3.908 139.09 3.884 139.054 3.86C138.982 3.812 138.916 3.788 138.856 3.788C138.772 3.788 138.688 3.8 138.604 3.824C138.52 3.848 138.454 3.884 138.406 3.932C138.334 4.004 138.25 4.136 138.154 4.328C138.07 4.52 137.986 4.724 137.902 4.94C137.83 5.144 137.764 5.342 137.704 5.534C137.644 5.714 137.608 5.834 137.596 5.894L137.506 6.344C137.434 6.548 137.356 6.728 137.272 6.884C137.2 7.04 137.134 7.202 137.074 7.37C137.026 7.538 136.984 7.718 136.948 7.91C136.912 8.102 136.894 8.33 136.894 8.594C136.846 8.678 136.786 8.852 136.714 9.116C136.654 9.368 136.594 9.638 136.534 9.926C136.486 10.202 136.444 10.46 136.408 10.7C136.372 10.928 136.354 11.06 136.354 11.096V11.438C136.354 11.498 136.342 11.594 136.318 11.726C136.306 11.858 136.288 11.996 136.264 12.14C136.252 12.284 136.234 12.422 136.21 12.554C136.198 12.674 136.192 12.752 136.192 12.788C136.156 12.92 136.132 13.04 136.12 13.148C136.12 13.256 136.126 13.346 136.138 13.418C136.15 13.514 136.168 13.592 136.192 13.652C136.192 13.688 136.18 13.754 136.156 13.85C136.144 13.946 136.138 14.048 136.138 14.156C136.138 14.264 136.15 14.36 136.174 14.444C136.198 14.516 136.258 14.552 136.354 14.552C136.51 14.552 136.666 14.498 136.822 14.39C136.99 14.282 137.14 14.162 137.272 14.03C137.404 13.886 137.518 13.76 137.614 13.652C137.722 13.544 137.8 13.49 137.848 13.49C137.92 13.49 137.986 13.526 138.046 13.598C138.118 13.67 138.154 13.754 138.154 13.85C138.034 13.982 137.932 14.114 137.848 14.246C137.764 14.366 137.692 14.492 137.632 14.624C137.572 14.744 137.542 14.87 137.542 15.002C137.494 15.134 137.422 15.266 137.326 15.398C137.23 15.518 137.122 15.65 137.002 15.794C136.882 15.938 136.762 16.088 136.642 16.244C136.534 16.388 136.438 16.538 136.354 16.694C136.354 16.73 136.324 16.778 136.264 16.838C136.216 16.886 136.156 16.934 136.084 16.982C136.012 17.03 135.934 17.072 135.85 17.108C135.778 17.156 135.724 17.186 135.688 17.198C135.412 17.402 135.178 17.552 134.986 17.648C134.794 17.744 134.698 17.726 134.698 17.594C134.578 17.654 134.494 17.636 134.446 17.54C134.398 17.456 134.362 17.324 134.338 17.144C134.326 16.976 134.326 16.784 134.338 16.568C134.35 16.34 134.356 16.13 134.356 15.938C134.368 15.746 134.368 15.584 134.356 15.452C134.344 15.32 134.308 15.254 134.248 15.254C134.152 15.254 134.026 15.32 133.87 15.452C133.726 15.572 133.57 15.722 133.402 15.902C133.294 15.998 133.168 16.136 133.024 16.316C132.88 16.496 132.73 16.676 132.574 16.856C132.43 17.024 132.286 17.174 132.142 17.306C132.01 17.438 131.908 17.504 131.836 17.504C131.716 17.504 131.596 17.468 131.476 17.396C131.356 17.336 131.248 17.258 131.152 17.162C131.068 17.066 130.996 16.958 130.936 16.838C130.876 16.706 130.846 16.574 130.846 16.442V16.154V15.344C130.846 15.308 130.858 15.224 130.882 15.092C130.906 14.948 130.936 14.792 130.972 14.624C131.008 14.432 131.05 14.222 131.098 13.994C131.098 13.946 131.104 13.88 131.116 13.796C131.14 13.712 131.164 13.634 131.188 13.562C131.224 13.478 131.26 13.388 131.296 13.292V13.148C131.32 13.028 131.344 12.908 131.368 12.788C131.392 12.692 131.41 12.596 131.422 12.5C131.434 12.404 131.44 12.338 131.44 12.302C131.512 12.122 131.56 11.954 131.584 11.798C131.62 11.642 131.692 11.474 131.8 11.294C131.836 11.03 131.926 10.802 132.07 10.61C132.226 10.418 132.406 10.244 132.61 10.088C132.814 9.932 133.018 9.788 133.222 9.656C133.438 9.512 133.63 9.356 133.798 9.188C133.87 9.188 133.936 9.182 133.996 9.17C134.116 9.146 134.218 9.086 134.302 8.99C134.518 8.954 134.686 8.924 134.806 8.9C134.938 8.876 135.04 8.84 135.112 8.792C135.196 8.732 135.25 8.66 135.274 8.576C135.31 8.492 135.334 8.366 135.346 8.198L135.49 7.694L135.652 6.596L135.796 5.894C135.796 5.858 135.808 5.774 135.832 5.642C135.856 5.51 135.886 5.372 135.922 5.228C135.958 5.084 135.994 4.952 136.03 4.832C136.066 4.7 136.09 4.622 136.102 4.598C136.126 4.538 136.138 4.49 136.138 4.454C136.138 4.418 136.138 4.364 136.138 4.292C136.138 4.244 136.156 4.172 136.192 4.076C136.228 3.98 136.27 3.872 136.318 3.752C136.366 3.632 136.42 3.518 136.48 3.41C136.54 3.29 136.594 3.182 136.642 3.086C136.762 2.93 136.894 2.75 137.038 2.546C137.182 2.342 137.332 2.15 137.488 1.97C137.644 1.79 137.806 1.634 137.974 1.502C138.142 1.358 138.316 1.268 138.496 1.232H138.64C138.82 1.232 138.928 1.208 138.964 1.16C139.012 1.112 139.072 1.088 139.144 1.088L139.846 1.232ZM134.59 10.448C134.35 10.448 134.116 10.526 133.888 10.682C133.66 10.838 133.456 11.03 133.276 11.258C133.108 11.486 132.97 11.72 132.862 11.96C132.754 12.2 132.7 12.41 132.7 12.59C132.7 12.638 132.682 12.77 132.646 12.986C132.622 13.19 132.616 13.4 132.628 13.616C132.652 13.82 132.718 13.994 132.826 14.138C132.934 14.282 133.126 14.318 133.402 14.246C133.63 14.186 133.846 14.036 134.05 13.796C134.266 13.556 134.446 13.274 134.59 12.95C134.746 12.626 134.86 12.29 134.932 11.942C135.016 11.582 135.052 11.252 135.04 10.952C135.04 10.856 135.022 10.772 134.986 10.7C134.962 10.64 134.914 10.586 134.842 10.538C134.782 10.478 134.698 10.448 134.59 10.448ZM141.87 8.45C142.122 8.45 142.332 8.498 142.5 8.594C142.68 8.678 142.824 8.798 142.932 8.954C143.04 9.11 143.118 9.29 143.166 9.494C143.214 9.698 143.232 9.914 143.22 10.142C143.22 10.466 143.1 10.73 142.86 10.934C142.62 11.126 142.374 11.294 142.122 11.438C141.894 11.594 141.648 11.732 141.384 11.852C141.132 11.972 140.892 12.104 140.664 12.248C140.448 12.392 140.262 12.56 140.106 12.752C139.962 12.944 139.884 13.19 139.872 13.49V14.246C139.848 14.45 139.89 14.654 139.998 14.858C140.106 15.05 140.244 15.146 140.412 15.146C140.424 15.158 140.472 15.14 140.556 15.092C140.64 15.044 140.73 14.99 140.826 14.93C140.934 14.858 141.036 14.786 141.132 14.714C141.24 14.642 141.318 14.588 141.366 14.552C141.546 14.468 141.684 14.402 141.78 14.354C141.888 14.294 141.966 14.276 142.014 14.3C142.098 14.3 142.17 14.312 142.23 14.336C142.29 14.36 142.32 14.45 142.32 14.606C142.296 14.87 142.182 15.128 141.978 15.38C141.774 15.62 141.552 15.848 141.312 16.064C141.072 16.268 140.838 16.448 140.61 16.604C140.382 16.76 140.232 16.874 140.16 16.946C139.956 17.126 139.764 17.222 139.584 17.234C139.416 17.246 139.242 17.252 139.062 17.252C138.954 17.24 138.84 17.192 138.72 17.108C138.612 17.024 138.51 16.928 138.414 16.82C138.33 16.7 138.264 16.58 138.216 16.46C138.168 16.34 138.15 16.238 138.162 16.154V15.848C138.162 15.764 138.138 15.674 138.09 15.578C138.066 15.53 138.042 15.488 138.018 15.452L138.072 15.092V14.804C138.072 14.756 138.084 14.63 138.108 14.426C138.132 14.21 138.162 13.982 138.198 13.742C138.234 13.49 138.264 13.256 138.288 13.04C138.324 12.812 138.348 12.662 138.36 12.59C138.408 12.554 138.432 12.518 138.432 12.482C138.432 12.446 138.426 12.41 138.414 12.374C138.402 12.338 138.396 12.296 138.396 12.248C138.396 12.188 138.42 12.122 138.468 12.05C138.468 11.906 138.498 11.756 138.558 11.6C138.594 11.516 138.63 11.432 138.666 11.348L138.918 10.754C138.942 10.49 139.068 10.22 139.296 9.944C139.524 9.656 139.788 9.398 140.088 9.17C140.4 8.942 140.718 8.762 141.042 8.63C141.366 8.486 141.642 8.426 141.87 8.45ZM141.06 9.8C141 9.8 140.94 9.848 140.88 9.944C140.82 10.028 140.76 10.124 140.7 10.232C140.64 10.364 140.58 10.502 140.52 10.646C140.508 10.706 140.49 10.778 140.466 10.862C140.442 10.934 140.424 11.006 140.412 11.078C140.4 11.138 140.406 11.192 140.43 11.24C140.454 11.276 140.502 11.294 140.574 11.294C140.634 11.306 140.724 11.294 140.844 11.258C140.964 11.222 141.084 11.168 141.204 11.096C141.336 11.024 141.45 10.94 141.546 10.844C141.654 10.736 141.714 10.622 141.726 10.502V10.196C141.726 10.136 141.708 10.082 141.672 10.034C141.636 9.986 141.594 9.95 141.546 9.926C141.498 9.89 141.438 9.86 141.366 9.836L141.06 9.8ZM153.545 0.745999C153.797 0.745999 154.007 0.811999 154.175 0.944C154.343 1.076 154.481 1.232 154.589 1.412C154.697 1.592 154.775 1.778 154.823 1.97C154.871 2.162 154.895 2.318 154.895 2.438C154.895 2.534 154.823 2.666 154.679 2.834C154.535 3.002 154.379 3.17 154.211 3.338C154.007 3.542 153.785 3.758 153.545 3.986C153.461 4.07 153.371 4.118 153.275 4.13C153.179 4.142 153.083 4.148 152.987 4.148C152.855 4.148 152.735 4.16 152.627 4.184C152.531 4.196 152.435 4.25 152.339 4.346C152.087 4.49 151.889 4.67 151.745 4.886C151.601 5.102 151.481 5.336 151.385 5.588C151.385 5.636 151.367 5.72 151.331 5.84C151.307 5.96 151.271 6.086 151.223 6.218C151.187 6.35 151.151 6.476 151.115 6.596C151.091 6.716 151.079 6.8 151.079 6.848L150.881 7.64C150.869 7.676 150.833 7.808 150.773 8.036C150.725 8.264 150.671 8.522 150.611 8.81C150.551 9.098 150.497 9.38 150.449 9.656C150.401 9.932 150.377 10.13 150.377 10.25C150.377 10.298 150.383 10.346 150.395 10.394C150.419 10.49 150.467 10.538 150.539 10.538C150.683 10.538 150.857 10.448 151.061 10.268C151.265 10.088 151.493 9.914 151.745 9.746C151.817 9.674 151.919 9.578 152.051 9.458C152.183 9.338 152.321 9.224 152.465 9.116C152.609 8.996 152.747 8.9 152.879 8.828C153.023 8.744 153.143 8.702 153.239 8.702H153.545C153.773 8.702 153.947 8.804 154.067 9.008C154.187 9.212 154.271 9.44 154.319 9.692C154.379 9.944 154.415 10.184 154.427 10.412C154.439 10.628 154.445 10.754 154.445 10.79L154.391 11.402C154.391 11.474 154.397 11.624 154.409 11.852C154.433 12.08 154.445 12.278 154.445 12.446C154.445 12.482 154.433 12.53 154.409 12.59C154.397 12.638 154.379 12.692 154.355 12.752C154.331 12.812 154.307 12.878 154.283 12.95V13.292C154.283 13.448 154.265 13.556 154.229 13.616C154.205 13.664 154.193 13.772 154.193 13.94C154.133 14.132 154.067 14.27 153.995 14.354C153.911 14.426 153.845 14.516 153.797 14.624C153.761 14.732 153.707 14.822 153.635 14.894C153.587 15.074 153.509 15.284 153.401 15.524C153.293 15.764 153.155 15.974 152.987 16.154C152.903 16.238 152.825 16.358 152.753 16.514C152.681 16.658 152.603 16.808 152.519 16.964C152.447 17.108 152.351 17.234 152.231 17.342C152.123 17.45 151.991 17.504 151.835 17.504H151.637H150.989C150.953 17.504 150.887 17.498 150.791 17.486C150.695 17.486 150.599 17.468 150.503 17.432C150.407 17.408 150.323 17.36 150.251 17.288C150.179 17.228 150.143 17.132 150.143 17C150.143 16.916 150.173 16.814 150.233 16.694C150.305 16.574 150.377 16.46 150.449 16.352C150.533 16.232 150.617 16.124 150.701 16.028C150.785 15.92 150.845 15.842 150.881 15.794C151.061 15.65 151.229 15.5 151.385 15.344C151.541 15.188 151.661 15.074 151.745 15.002C151.985 14.822 152.129 14.648 152.177 14.48C152.237 14.3 152.309 14.12 152.393 13.94C152.561 13.616 152.693 13.352 152.789 13.148C152.885 12.932 152.933 12.698 152.933 12.446V11.744C152.933 11.696 152.921 11.624 152.897 11.528C152.873 11.432 152.831 11.342 152.771 11.258C152.711 11.162 152.633 11.078 152.537 11.006C152.453 10.934 152.351 10.898 152.231 10.898C152.159 10.898 152.099 10.934 152.051 11.006C152.015 11.066 151.913 11.144 151.745 11.24C151.313 11.564 150.971 11.918 150.719 12.302C150.467 12.674 150.239 13.07 150.035 13.49C149.963 13.742 149.903 14.012 149.855 14.3C149.807 14.576 149.759 14.858 149.711 15.146C149.663 15.422 149.615 15.692 149.567 15.956C149.519 16.22 149.459 16.466 149.387 16.694C149.291 16.85 149.171 16.97 149.027 17.054C148.895 17.15 148.781 17.198 148.685 17.198C148.505 17.198 148.367 17.15 148.271 17.054C148.187 16.958 148.121 16.844 148.073 16.712C148.025 16.58 147.995 16.448 147.983 16.316C147.983 16.172 147.983 16.064 147.983 15.992V14.3C147.983 14.252 148.019 14.09 148.091 13.814C148.163 13.538 148.241 13.232 148.325 12.896C148.421 12.548 148.505 12.212 148.577 11.888C148.649 11.564 148.685 11.318 148.685 11.15C148.721 11.054 148.745 10.964 148.757 10.88C148.781 10.796 148.805 10.718 148.829 10.646C148.853 10.562 148.871 10.478 148.883 10.394V9.89C148.883 9.842 148.883 9.806 148.883 9.782C148.895 9.746 148.931 9.716 148.991 9.692C148.991 9.668 148.997 9.644 149.009 9.62C149.021 9.596 149.027 9.572 149.027 9.548V9.188C149.027 9.152 149.045 9.074 149.081 8.954C149.117 8.822 149.159 8.678 149.207 8.522C149.255 8.366 149.297 8.21 149.333 8.054C149.369 7.898 149.387 7.778 149.387 7.694V6.596C149.387 6.248 149.429 5.936 149.513 5.66C149.609 5.384 149.681 5.162 149.729 4.994L149.783 4.49C149.795 4.406 149.837 4.28 149.909 4.112C149.993 3.932 150.083 3.752 150.179 3.572C150.275 3.392 150.371 3.224 150.467 3.068C150.563 2.912 150.635 2.816 150.683 2.78C150.755 2.744 150.803 2.678 150.827 2.582C150.863 2.486 150.893 2.384 150.917 2.276C150.953 2.168 150.995 2.066 151.043 1.97C151.103 1.862 151.199 1.784 151.331 1.736C151.355 1.736 151.391 1.736 151.439 1.736C151.487 1.724 151.535 1.706 151.583 1.682C151.607 1.658 151.643 1.646 151.691 1.646C151.739 1.646 151.787 1.646 151.835 1.646C151.931 1.55 152.069 1.448 152.249 1.34C152.441 1.232 152.633 1.13 152.825 1.034C153.041 0.926 153.281 0.829999 153.545 0.745999ZM160.331 8.288C160.583 8.288 160.763 8.36 160.871 8.504C160.979 8.648 161.033 8.846 161.033 9.098C161.033 9.146 161.015 9.254 160.979 9.422C160.943 9.578 160.895 9.758 160.835 9.962C160.787 10.154 160.733 10.352 160.673 10.556C160.613 10.76 160.565 10.922 160.529 11.042C160.529 11.138 160.523 11.24 160.511 11.348C160.499 11.444 160.457 11.576 160.385 11.744C160.289 11.816 160.241 11.936 160.241 12.104C160.241 12.26 160.241 12.374 160.241 12.446L160.187 13.4V14.102C160.187 14.138 160.187 14.204 160.187 14.3C160.199 14.384 160.211 14.474 160.223 14.57C160.247 14.654 160.283 14.732 160.331 14.804C160.379 14.864 160.445 14.894 160.529 14.894L160.781 14.498C160.853 14.438 160.937 14.366 161.033 14.282C161.129 14.186 161.225 14.096 161.321 14.012C161.429 13.916 161.537 13.814 161.645 13.706C161.717 13.706 161.777 13.736 161.825 13.796C161.873 13.856 161.897 13.922 161.897 13.994L161.825 14.138C161.777 14.234 161.729 14.306 161.681 14.354C161.597 14.594 161.489 14.804 161.357 14.984C161.225 15.152 161.081 15.32 160.925 15.488C160.769 15.644 160.607 15.806 160.439 15.974C160.283 16.142 160.133 16.334 159.989 16.55L159.593 17.108C159.593 17.216 159.557 17.324 159.485 17.432C159.425 17.552 159.347 17.642 159.251 17.702C159.167 17.774 159.071 17.804 158.963 17.792C158.867 17.792 158.789 17.726 158.729 17.594C158.657 17.378 158.621 17.168 158.621 16.964C158.621 16.748 158.639 16.544 158.675 16.352C158.711 16.148 158.747 15.956 158.783 15.776C158.819 15.596 158.837 15.422 158.837 15.254V14.606V14.246C158.837 14.186 158.795 14.144 158.711 14.12C158.663 14.108 158.621 14.102 158.585 14.102C158.549 14.102 158.459 14.21 158.315 14.426C158.171 14.63 158.003 14.87 157.811 15.146C157.631 15.41 157.445 15.68 157.253 15.956C157.061 16.232 156.905 16.43 156.785 16.55C156.749 16.598 156.689 16.67 156.605 16.766C156.533 16.85 156.449 16.934 156.353 17.018C156.269 17.102 156.173 17.174 156.065 17.234C155.957 17.306 155.861 17.342 155.777 17.342C155.609 17.342 155.471 17.282 155.363 17.162C155.255 17.042 155.171 16.904 155.111 16.748C155.051 16.58 155.003 16.418 154.967 16.262C154.943 16.094 154.931 15.974 154.931 15.902L154.877 14.606L155.129 12.5C155.129 12.464 155.147 12.38 155.183 12.248C155.219 12.116 155.267 11.972 155.327 11.816C155.387 11.66 155.453 11.51 155.525 11.366C155.609 11.21 155.693 11.084 155.777 10.988C156.125 10.664 156.461 10.268 156.785 9.8C156.941 9.584 157.091 9.428 157.235 9.332C157.379 9.236 157.523 9.164 157.667 9.116C157.811 9.056 157.955 9.014 158.099 8.99C158.243 8.954 158.405 8.888 158.585 8.792C158.657 8.792 158.747 8.756 158.855 8.684C158.975 8.6 159.083 8.522 159.179 8.45H159.683H159.989L160.331 8.288ZM158.027 10.286C157.811 10.466 157.607 10.676 157.415 10.916C157.223 11.144 157.055 11.378 156.911 11.618C156.767 11.858 156.653 12.086 156.569 12.302C156.485 12.506 156.443 12.668 156.443 12.788C156.443 12.848 156.437 12.962 156.425 13.13C156.413 13.286 156.419 13.454 156.443 13.634C156.467 13.802 156.509 13.958 156.569 14.102C156.641 14.234 156.761 14.3 156.929 14.3C157.085 14.3 157.265 14.162 157.469 13.886C157.685 13.61 157.883 13.298 158.063 12.95C158.255 12.602 158.411 12.278 158.531 11.978C158.663 11.678 158.729 11.498 158.729 11.438C158.729 11.39 158.735 11.276 158.747 11.096C158.759 10.904 158.747 10.724 158.711 10.556C158.687 10.376 158.621 10.25 158.513 10.178C158.417 10.094 158.255 10.13 158.027 10.286ZM164.145 8.342C164.349 8.342 164.517 8.42 164.649 8.576C164.781 8.72 164.847 8.876 164.847 9.044L164.685 9.548C164.757 9.62 164.805 9.722 164.829 9.854C164.841 9.914 164.847 9.98 164.847 10.052C164.847 10.292 164.817 10.514 164.757 10.718C164.709 10.922 164.685 11.15 164.685 11.402V11.546C164.685 11.606 164.679 11.678 164.667 11.762C164.655 11.834 164.637 11.906 164.613 11.978C164.589 12.062 164.565 12.152 164.541 12.248V12.446C164.541 12.578 164.517 12.686 164.469 12.77C164.433 12.854 164.391 12.962 164.343 13.094C164.319 13.19 164.277 13.292 164.217 13.4C164.169 13.496 164.145 13.61 164.145 13.742C164.145 13.79 164.157 13.856 164.181 13.94C164.205 14.012 164.241 14.09 164.289 14.174C164.337 14.246 164.391 14.312 164.451 14.372C164.523 14.42 164.601 14.444 164.685 14.444C164.781 14.444 164.865 14.414 164.937 14.354C165.021 14.294 165.087 14.228 165.135 14.156C165.195 14.096 165.255 14.048 165.315 14.012C165.387 13.964 165.465 13.94 165.549 13.94H165.891C165.963 13.94 166.005 13.976 166.017 14.048C166.029 14.12 166.035 14.204 166.035 14.3C166.035 14.336 165.981 14.408 165.873 14.516C165.765 14.624 165.645 14.744 165.513 14.876C165.381 14.996 165.249 15.116 165.117 15.236C164.985 15.344 164.895 15.416 164.847 15.452C164.811 15.536 164.733 15.68 164.613 15.884C164.493 16.088 164.361 16.298 164.217 16.514C164.073 16.718 163.917 16.898 163.749 17.054C163.593 17.222 163.455 17.306 163.335 17.306C163.251 17.306 163.155 17.276 163.047 17.216C162.951 17.168 162.861 17.096 162.777 17C162.693 16.916 162.621 16.826 162.561 16.73C162.513 16.634 162.489 16.538 162.489 16.442V16.154C162.489 16.058 162.483 15.974 162.471 15.902C162.459 15.83 162.417 15.794 162.345 15.794V15.452L162.489 14.948V14.102C162.489 13.922 162.513 13.778 162.561 13.67C162.609 13.562 162.633 13.424 162.633 13.256V13.094C162.633 13.01 162.657 12.89 162.705 12.734C162.765 12.578 162.825 12.41 162.885 12.23C162.945 12.05 162.999 11.876 163.047 11.708C163.107 11.528 163.137 11.372 163.137 11.24C163.137 11.144 163.095 11.042 163.011 10.934C162.939 10.814 162.813 10.754 162.633 10.754C162.561 10.754 162.495 10.778 162.435 10.826C162.387 10.874 162.237 10.898 161.985 10.898C161.961 10.886 161.937 10.856 161.913 10.808C161.865 10.736 161.841 10.646 161.841 10.538V10.25C161.841 10.142 161.943 9.986 162.147 9.782C162.363 9.566 162.603 9.356 162.867 9.152C163.143 8.936 163.407 8.75 163.659 8.594C163.911 8.426 164.073 8.342 164.145 8.342ZM164.199 4.094C164.247 4.094 164.307 4.088 164.379 4.076C164.463 4.052 164.547 4.034 164.631 4.022C164.715 3.998 164.793 3.98 164.865 3.968C164.949 3.944 165.009 3.932 165.045 3.932C165.213 3.992 165.321 4.094 165.369 4.238C165.417 4.382 165.489 4.532 165.585 4.688C165.585 4.784 165.591 4.88 165.603 4.976C165.627 5.072 165.639 5.162 165.639 5.246C165.639 5.318 165.615 5.408 165.567 5.516C165.519 5.612 165.495 5.738 165.495 5.894C165.471 5.978 165.435 6.08 165.387 6.2C165.351 6.32 165.297 6.434 165.225 6.542C165.165 6.638 165.087 6.722 164.991 6.794C164.907 6.854 164.805 6.872 164.685 6.848C164.517 6.848 164.331 6.794 164.127 6.686C163.935 6.566 163.791 6.416 163.695 6.236C163.611 6.164 163.581 6.056 163.605 5.912C163.629 5.768 163.641 5.642 163.641 5.534C163.641 5.21 163.695 4.946 163.803 4.742C163.911 4.538 164.043 4.322 164.199 4.094ZM168.9 8.342C169.032 8.318 169.116 8.336 169.152 8.396C169.2 8.456 169.302 8.522 169.458 8.594C169.59 8.666 169.704 8.75 169.8 8.846C169.896 8.942 169.944 9.056 169.944 9.188C169.932 9.248 169.92 9.314 169.908 9.386C169.884 9.542 169.896 9.692 169.944 9.836C169.944 9.944 169.92 10.076 169.872 10.232C169.836 10.376 169.83 10.496 169.854 10.592C169.878 10.64 169.914 10.688 169.962 10.736C169.998 10.772 170.034 10.808 170.07 10.844C170.118 10.868 170.16 10.868 170.196 10.844C170.316 10.82 170.442 10.706 170.574 10.502C170.718 10.298 170.856 10.07 170.988 9.818C171.12 9.566 171.252 9.32 171.384 9.08C171.516 8.84 171.636 8.678 171.744 8.594L172.302 8.45C172.374 8.426 172.452 8.42 172.536 8.432C172.632 8.444 172.704 8.45 172.752 8.45C172.98 8.582 173.124 8.768 173.184 9.008C173.244 9.236 173.286 9.416 173.31 9.548C173.322 9.716 173.262 9.938 173.13 10.214C173.01 10.49 172.854 10.718 172.662 10.898C172.578 10.946 172.5 10.988 172.428 11.024C172.356 11.048 172.284 11.072 172.212 11.096C172.152 11.096 172.104 11.096 172.068 11.096C172.044 11.084 172.008 11.066 171.96 11.042C171.9 11.018 171.84 11.006 171.78 11.006C171.732 10.994 171.672 10.988 171.6 10.988C171.444 10.988 171.294 11.048 171.15 11.168C171.018 11.288 170.886 11.414 170.754 11.546C170.55 11.798 170.388 12.086 170.268 12.41C170.16 12.722 170.106 13.016 170.106 13.292C170.022 13.376 169.92 13.484 169.8 13.616C169.692 13.736 169.608 13.88 169.548 14.048C169.476 14.216 169.44 14.39 169.44 14.57C169.452 14.75 169.422 14.924 169.35 15.092C169.362 15.236 169.362 15.404 169.35 15.596C169.338 15.776 169.314 15.968 169.278 16.172C169.254 16.376 169.218 16.574 169.17 16.766C169.122 16.946 169.068 17.108 169.008 17.252C168.924 17.312 168.822 17.366 168.702 17.414C168.582 17.462 168.456 17.498 168.324 17.522C168.18 17.558 168.024 17.582 167.856 17.594C167.796 17.594 167.718 17.546 167.622 17.45C167.574 17.402 167.532 17.354 167.496 17.306L167.244 16.802C167.232 16.718 167.244 16.574 167.28 16.37C167.316 16.166 167.358 15.962 167.406 15.758C167.454 15.542 167.496 15.35 167.532 15.182C167.58 15.014 167.604 14.918 167.604 14.894C167.868 14.498 168.042 14.084 168.126 13.652C168.21 13.208 168.3 12.77 168.396 12.338L168.252 11.15C168.192 10.994 168.114 10.916 168.018 10.916C167.934 10.916 167.844 10.928 167.748 10.952C167.556 10.988 167.418 11.042 167.334 11.114C167.25 11.174 167.178 11.24 167.118 11.312C167.058 11.384 166.992 11.456 166.92 11.528C166.848 11.588 166.722 11.63 166.542 11.654C166.446 11.654 166.386 11.594 166.362 11.474C166.338 11.354 166.314 11.246 166.29 11.15C166.266 11.042 166.284 10.94 166.344 10.844C166.404 10.736 166.482 10.64 166.578 10.556C166.686 10.46 166.806 10.37 166.938 10.286C167.07 10.19 167.19 10.094 167.298 9.998C167.442 9.842 167.568 9.674 167.676 9.494C167.784 9.302 167.892 9.128 168 8.972C168.108 8.804 168.228 8.666 168.36 8.558C168.504 8.438 168.684 8.366 168.9 8.342Z" fill="black"/>
</svg>
